M48
; DRILL file {KiCad (6.0.8)} date Thu Jan  5 18:41:57 2023
; FORMAT={-:-/ absolute / inch / decimal}
; #@! TF.CreationDate,2023-01-05T18:41:57-07:00
; #@! TF.GenerationSoftware,Kicad,Pcbnew,(6.0.8)
; #@! TF.FileFunction,Plated,1,2,PTH
FMAT,2
INCH
; #@! TA.AperFunction,Plated,PTH,ViaDrill
T1C0.0157
; #@! TA.AperFunction,Plated,PTH,ComponentDrill
T2C0.0374
; #@! TA.AperFunction,Plated,PTH,ComponentDrill
T3C0.0394
; #@! TA.AperFunction,Plated,PTH,ComponentDrill
T4C0.0402
%
G90
G05
T1
X4.7669Y-4.5879
X4.822Y-4.0761
X4.822Y-4.2887
X4.822Y-4.3674
X5.3024Y-4.5879
X5.3496Y-4.2887
X5.3496Y-4.3674
X5.3575Y-4.0761
X5.8378Y-4.5879
X5.885Y-4.0761
X5.885Y-4.2887
X5.885Y-4.3753
X5.9891Y-3.1272
X5.9891Y-3.1672
X6.3654Y-4.5879
X6.4205Y-4.0761
X6.4205Y-4.2887
X6.4205Y-4.3753
X6.515Y-4.0446
T2
X4.4677Y-4.1932
X4.4677Y-4.46
X4.5661Y-4.1932
X4.5661Y-4.46
X4.6646Y-4.1932
X4.6646Y-4.46
X4.763Y-4.1932
X4.763Y-4.46
X4.9992Y-4.1932
X4.9992Y-4.46
X5.0976Y-4.1932
X5.0976Y-4.46
X5.1961Y-4.1932
X5.1961Y-4.46
X5.2945Y-4.1932
X5.2945Y-4.46
X5.5307Y-4.1932
X5.5307Y-4.46
X5.6291Y-4.1932
X5.6291Y-4.46
X5.7276Y-4.1932
X5.7276Y-4.46
X5.826Y-4.1932
X5.826Y-4.46
X6.0622Y-4.1932
X6.0622Y-4.46
X6.1606Y-4.1932
X6.1606Y-4.46
X6.2591Y-4.1932
X6.2591Y-4.46
X6.3575Y-4.1932
X6.3575Y-4.46
X6.5937Y-4.1932
X6.5937Y-4.46
X6.6921Y-4.1932
X6.6921Y-4.46
X6.7906Y-4.1932
X6.7906Y-4.46
X6.889Y-4.1932
X6.889Y-4.46
X7.0285Y-3.7064
X7.0285Y-3.8048
X7.0285Y-3.9033
X7.0291Y-2.9711
X7.0291Y-3.0696
X7.0291Y-3.168
X7.0291Y-3.2664
X7.0291Y-3.3648
X7.0291Y-3.4633
T3
X6.5207Y-2.7479
X6.6191Y-2.7479
X6.6791Y-3.2366
X6.6791Y-3.3366
X6.6791Y-3.4366
T4
X4.4091Y-2.9872
X4.4091Y-3.6872
X4.5091Y-2.9872
X4.5091Y-3.6872
X4.6091Y-2.9872
X4.6091Y-3.6872
X4.7091Y-2.9872
X4.7091Y-3.6872
X4.8091Y-2.9872
X4.8091Y-3.6872
X4.9091Y-2.9872
X4.9091Y-3.6872
X5.0091Y-2.9872
X5.0091Y-3.6872
X5.1091Y-2.9872
X5.1091Y-3.6872
X5.2091Y-2.9872
X5.2091Y-3.6872
X5.3091Y-2.9872
X5.3091Y-3.6872
X5.4091Y-2.9872
X5.4091Y-3.6872
X5.5091Y-2.9872
X5.5091Y-3.6872
X5.6091Y-2.9872
X5.6091Y-3.6872
X5.7091Y-2.9872
X5.7091Y-3.6872
X5.8091Y-2.9872
X5.8091Y-3.6872
X5.9091Y-2.9872
X5.9091Y-3.6872
X6.0091Y-2.9872
X6.0091Y-3.6872
X6.1091Y-2.9872
X6.1091Y-3.6872
X6.2091Y-2.9872
X6.2091Y-3.6872
X6.3001Y-3.2372
X6.3001Y-3.3372
X6.3001Y-3.4372
X6.3091Y-2.9872
X6.3091Y-3.6872
T0
M30
