%TF.GenerationSoftware,KiCad,Pcbnew,(6.0.8)*%
%TF.CreationDate,2023-01-05T14:05:36-07:00*%
%TF.ProjectId,PicoIO,5069636f-494f-42e6-9b69-6361645f7063,rev?*%
%TF.SameCoordinates,Original*%
%TF.FileFunction,Copper,L1,Top*%
%TF.FilePolarity,Positive*%
%FSLAX46Y46*%
G04 Gerber Fmt 4.6, Leading zero omitted, Abs format (unit mm)*
G04 Created by KiCad (PCBNEW (6.0.8)) date 2023-01-05 14:05:36*
%MOMM*%
%LPD*%
G01*
G04 APERTURE LIST*
G04 Aperture macros list*
%AMRoundRect*
0 Rectangle with rounded corners*
0 $1 Rounding radius*
0 $2 $3 $4 $5 $6 $7 $8 $9 X,Y pos of 4 corners*
0 Add a 4 corners polygon primitive as box body*
4,1,4,$2,$3,$4,$5,$6,$7,$8,$9,$2,$3,0*
0 Add four circle primitives for the rounded corners*
1,1,$1+$1,$2,$3*
1,1,$1+$1,$4,$5*
1,1,$1+$1,$6,$7*
1,1,$1+$1,$8,$9*
0 Add four rect primitives between the rounded corners*
20,1,$1+$1,$2,$3,$4,$5,0*
20,1,$1+$1,$4,$5,$6,$7,0*
20,1,$1+$1,$6,$7,$8,$9,0*
20,1,$1+$1,$8,$9,$2,$3,0*%
G04 Aperture macros list end*
%TA.AperFunction,ComponentPad*%
%ADD10RoundRect,0.250000X-0.600000X-0.725000X0.600000X-0.725000X0.600000X0.725000X-0.600000X0.725000X0*%
%TD*%
%TA.AperFunction,ComponentPad*%
%ADD11O,1.700000X1.950000*%
%TD*%
%TA.AperFunction,SMDPad,CuDef*%
%ADD12R,1.700000X3.500000*%
%TD*%
%TA.AperFunction,ComponentPad*%
%ADD13O,1.700000X1.700000*%
%TD*%
%TA.AperFunction,ComponentPad*%
%ADD14R,1.700000X1.700000*%
%TD*%
%TA.AperFunction,SMDPad,CuDef*%
%ADD15R,3.500000X1.700000*%
%TD*%
%TA.AperFunction,ComponentPad*%
%ADD16RoundRect,0.250000X0.725000X-0.600000X0.725000X0.600000X-0.725000X0.600000X-0.725000X-0.600000X0*%
%TD*%
%TA.AperFunction,ComponentPad*%
%ADD17O,1.950000X1.700000*%
%TD*%
%TA.AperFunction,ComponentPad*%
%ADD18RoundRect,0.250000X0.600000X0.750000X-0.600000X0.750000X-0.600000X-0.750000X0.600000X-0.750000X0*%
%TD*%
%TA.AperFunction,ComponentPad*%
%ADD19O,1.700000X2.000000*%
%TD*%
%TA.AperFunction,ViaPad*%
%ADD20C,0.800000*%
%TD*%
%TA.AperFunction,Conductor*%
%ADD21C,0.250000*%
%TD*%
%TA.AperFunction,Conductor*%
%ADD22C,0.500000*%
%TD*%
G04 APERTURE END LIST*
D10*
%TO.P,J5,1,Pin_1*%
%TO.N,P1 DR*%
X215000000Y-99975000D03*
D11*
%TO.P,J5,2,Pin_2*%
%TO.N,Net-(J5-Pad2)*%
X217500000Y-99975000D03*
%TO.P,J5,3,Pin_3*%
%TO.N,LED +*%
X220000000Y-99975000D03*
%TO.P,J5,4,Pin_4*%
%TO.N,GND*%
X222500000Y-99975000D03*
%TD*%
D12*
%TO.P,U1,1,GPIO0*%
%TO.N,P1 DL LED*%
X159512000Y-88022000D03*
D13*
X159512000Y-87122000D03*
D12*
%TO.P,U1,2,GPIO1*%
%TO.N,P1 DL*%
X162052000Y-88022000D03*
D13*
X162052000Y-87122000D03*
D12*
%TO.P,U1,3,GND*%
%TO.N,GND*%
X164592000Y-88022000D03*
D14*
X164592000Y-87122000D03*
D12*
%TO.P,U1,4,GPIO2*%
%TO.N,P2 DL LED*%
X167132000Y-88022000D03*
D13*
X167132000Y-87122000D03*
D12*
%TO.P,U1,5,GPIO3*%
%TO.N,P2 DL*%
X169672000Y-88022000D03*
D13*
X169672000Y-87122000D03*
%TO.P,U1,6,GPIO4*%
%TO.N,P1 UL LED*%
X172212000Y-87122000D03*
D12*
X172212000Y-88022000D03*
%TO.P,U1,7,GPIO5*%
%TO.N,P1 UL*%
X174752000Y-88022000D03*
D13*
X174752000Y-87122000D03*
D14*
%TO.P,U1,8,GND*%
%TO.N,GND*%
X177292000Y-87122000D03*
D12*
X177292000Y-88022000D03*
D13*
%TO.P,U1,9,GPIO6*%
%TO.N,P2 UL LED*%
X179832000Y-87122000D03*
D12*
X179832000Y-88022000D03*
D13*
%TO.P,U1,10,GPIO7*%
%TO.N,P2 UL*%
X182372000Y-87122000D03*
D12*
X182372000Y-88022000D03*
%TO.P,U1,11,GPIO8*%
%TO.N,P1 CN LED*%
X184912000Y-88022000D03*
D13*
X184912000Y-87122000D03*
D12*
%TO.P,U1,12,GPIO9*%
%TO.N,P1 CN*%
X187452000Y-88022000D03*
D13*
X187452000Y-87122000D03*
D12*
%TO.P,U1,13,GND*%
%TO.N,GND*%
X189992000Y-88022000D03*
D14*
X189992000Y-87122000D03*
D13*
%TO.P,U1,14,GPIO10*%
%TO.N,P2 CN LED*%
X192532000Y-87122000D03*
D12*
X192532000Y-88022000D03*
%TO.P,U1,15,GPIO11*%
%TO.N,P2 CN*%
X195072000Y-88022000D03*
D13*
X195072000Y-87122000D03*
D12*
%TO.P,U1,16,GPIO12*%
%TO.N,P1 UR LED*%
X197612000Y-88022000D03*
D13*
X197612000Y-87122000D03*
%TO.P,U1,17,GPIO13*%
%TO.N,P1 UR*%
X200152000Y-87122000D03*
D12*
X200152000Y-88022000D03*
D14*
%TO.P,U1,18,GND*%
%TO.N,GND*%
X202692000Y-87122000D03*
D12*
X202692000Y-88022000D03*
%TO.P,U1,19,GPIO14*%
%TO.N,P2 UR LED*%
X205232000Y-88022000D03*
D13*
X205232000Y-87122000D03*
D12*
%TO.P,U1,20,GPIO15*%
%TO.N,P2 UR*%
X207772000Y-88022000D03*
D13*
X207772000Y-87122000D03*
D12*
%TO.P,U1,21,GPIO16*%
%TO.N,SERVICE*%
X207772000Y-68442000D03*
D13*
X207772000Y-69342000D03*
%TO.P,U1,22,GPIO17*%
%TO.N,TEST*%
X205232000Y-69342000D03*
D12*
X205232000Y-68442000D03*
D14*
%TO.P,U1,23,GND*%
%TO.N,GND*%
X202692000Y-69342000D03*
D12*
X202692000Y-68442000D03*
%TO.P,U1,24,GPIO18*%
%TO.N,P2 DR*%
X200152000Y-68442000D03*
D13*
X200152000Y-69342000D03*
D12*
%TO.P,U1,25,GPIO19*%
%TO.N,P2 DR LED*%
X197612000Y-68442000D03*
D13*
X197612000Y-69342000D03*
D12*
%TO.P,U1,26,GPIO20*%
%TO.N,P1 DR*%
X195072000Y-68442000D03*
D13*
X195072000Y-69342000D03*
%TO.P,U1,27,GPIO21*%
%TO.N,P1 DR LED*%
X192532000Y-69342000D03*
D12*
X192532000Y-68442000D03*
%TO.P,U1,28,GND*%
%TO.N,GND*%
X189992000Y-68442000D03*
D14*
X189992000Y-69342000D03*
D12*
%TO.P,U1,29,GPIO22*%
X187452000Y-68442000D03*
D13*
X187452000Y-69342000D03*
%TO.P,U1,30,RUN*%
%TO.N,unconnected-(U1-Pad30)*%
X184912000Y-69342000D03*
D12*
X184912000Y-68442000D03*
%TO.P,U1,31,GPIO26_ADC0*%
%TO.N,GP26*%
X182372000Y-68442000D03*
D13*
X182372000Y-69342000D03*
%TO.P,U1,32,GPIO27_ADC1*%
%TO.N,GP27*%
X179832000Y-69342000D03*
D12*
X179832000Y-68442000D03*
%TO.P,U1,33,AGND*%
%TO.N,GND*%
X177292000Y-68442000D03*
D14*
X177292000Y-69342000D03*
D13*
%TO.P,U1,34,GPIO28_ADC2*%
%TO.N,GP28*%
X174752000Y-69342000D03*
D12*
X174752000Y-68442000D03*
D13*
%TO.P,U1,35,ADC_VREF*%
%TO.N,unconnected-(U1-Pad35)*%
X172212000Y-69342000D03*
D12*
X172212000Y-68442000D03*
%TO.P,U1,36,3V3*%
%TO.N,+3V3*%
X169672000Y-68442000D03*
D13*
X169672000Y-69342000D03*
%TO.P,U1,37,3V3_EN*%
%TO.N,unconnected-(U1-Pad37)*%
X167132000Y-69342000D03*
D12*
X167132000Y-68442000D03*
%TO.P,U1,38,GND*%
%TO.N,GND*%
X164592000Y-68442000D03*
D14*
X164592000Y-69342000D03*
D13*
%TO.P,U1,39,VSYS*%
%TO.N,unconnected-(U1-Pad39)*%
X162052000Y-69342000D03*
D12*
X162052000Y-68442000D03*
D13*
%TO.P,U1,40,VBUS*%
%TO.N,+5V*%
X159512000Y-69342000D03*
D12*
X159512000Y-68442000D03*
D15*
%TO.P,U1,41,SWCLK*%
%TO.N,SWCLK*%
X208442000Y-80772000D03*
D13*
X207542000Y-80772000D03*
D14*
%TO.P,U1,42,GND*%
%TO.N,GND*%
X207542000Y-78232000D03*
D15*
X208442000Y-78232000D03*
%TO.P,U1,43,SWDIO*%
%TO.N,SWDIO*%
X208442000Y-75692000D03*
D13*
X207542000Y-75692000D03*
%TD*%
D10*
%TO.P,J10,1,Pin_1*%
%TO.N,P2 DR*%
X215000000Y-106750000D03*
D11*
%TO.P,J10,2,Pin_2*%
%TO.N,Net-(J10-Pad2)*%
X217500000Y-106750000D03*
%TO.P,J10,3,Pin_3*%
%TO.N,LED +*%
X220000000Y-106750000D03*
%TO.P,J10,4,Pin_4*%
%TO.N,GND*%
X222500000Y-106750000D03*
%TD*%
D16*
%TO.P,J11,1,Pin_1*%
%TO.N,GND*%
X226043000Y-92610000D03*
D17*
%TO.P,J11,2,Pin_2*%
%TO.N,TEST*%
X226043000Y-90110000D03*
%TO.P,J11,3,Pin_3*%
%TO.N,SERVICE*%
X226043000Y-87610000D03*
%TD*%
D10*
%TO.P,J6,1,Pin_1*%
%TO.N,P2 DL*%
X161000000Y-106750000D03*
D11*
%TO.P,J6,2,Pin_2*%
%TO.N,Net-(J6-Pad2)*%
X163500000Y-106750000D03*
%TO.P,J6,3,Pin_3*%
%TO.N,LED +*%
X166000000Y-106750000D03*
%TO.P,J6,4,Pin_4*%
%TO.N,GND*%
X168500000Y-106750000D03*
%TD*%
D10*
%TO.P,J7,1,Pin_1*%
%TO.N,P2 UL*%
X174500000Y-106750000D03*
D11*
%TO.P,J7,2,Pin_2*%
%TO.N,Net-(J7-Pad2)*%
X177000000Y-106750000D03*
%TO.P,J7,3,Pin_3*%
%TO.N,LED +*%
X179500000Y-106750000D03*
%TO.P,J7,4,Pin_4*%
%TO.N,GND*%
X182000000Y-106750000D03*
%TD*%
D10*
%TO.P,J3,1,Pin_1*%
%TO.N,P1 CN*%
X188000000Y-99975000D03*
D11*
%TO.P,J3,2,Pin_2*%
%TO.N,Net-(J3-Pad2)*%
X190500000Y-99975000D03*
%TO.P,J3,3,Pin_3*%
%TO.N,LED +*%
X193000000Y-99975000D03*
%TO.P,J3,4,Pin_4*%
%TO.N,GND*%
X195500000Y-99975000D03*
%TD*%
D10*
%TO.P,J4,1,Pin_1*%
%TO.N,P1 UR*%
X201500000Y-99975000D03*
D11*
%TO.P,J4,2,Pin_2*%
%TO.N,Net-(J4-Pad2)*%
X204000000Y-99975000D03*
%TO.P,J4,3,Pin_3*%
%TO.N,LED +*%
X206500000Y-99975000D03*
%TO.P,J4,4,Pin_4*%
%TO.N,GND*%
X209000000Y-99975000D03*
%TD*%
D10*
%TO.P,J1,1,Pin_1*%
%TO.N,P1 DL*%
X161000000Y-99975000D03*
D11*
%TO.P,J1,2,Pin_2*%
%TO.N,Net-(J1-Pad2)*%
X163500000Y-99975000D03*
%TO.P,J1,3,Pin_3*%
%TO.N,LED +*%
X166000000Y-99975000D03*
%TO.P,J1,4,Pin_4*%
%TO.N,GND*%
X168500000Y-99975000D03*
%TD*%
D16*
%TO.P,J12,1,Pin_1*%
%TO.N,GND*%
X226060000Y-81434000D03*
D17*
%TO.P,J12,2,Pin_2*%
%TO.N,+5V*%
X226060000Y-78934000D03*
%TO.P,J12,3,Pin_3*%
%TO.N,+3V3*%
X226060000Y-76434000D03*
%TO.P,J12,4,Pin_4*%
%TO.N,GP26*%
X226060000Y-73934000D03*
%TO.P,J12,5,Pin_5*%
%TO.N,GP27*%
X226060000Y-71434000D03*
%TO.P,J12,6,Pin_6*%
%TO.N,GP28*%
X226060000Y-68934000D03*
%TD*%
D10*
%TO.P,J2,1,Pin_1*%
%TO.N,P1 UL*%
X174500000Y-99975000D03*
D11*
%TO.P,J2,2,Pin_2*%
%TO.N,Net-(J2-Pad2)*%
X177000000Y-99975000D03*
%TO.P,J2,3,Pin_3*%
%TO.N,LED +*%
X179500000Y-99975000D03*
%TO.P,J2,4,Pin_4*%
%TO.N,GND*%
X182000000Y-99975000D03*
%TD*%
D14*
%TO.P,J13,1,Pin_1*%
%TO.N,GND*%
X217170000Y-81265000D03*
D13*
%TO.P,J13,2,Pin_2*%
%TO.N,SWCLK*%
X217170000Y-78725000D03*
%TO.P,J13,3,Pin_3*%
%TO.N,SWDIO*%
X217170000Y-76185000D03*
%TD*%
D10*
%TO.P,J9,1,Pin_1*%
%TO.N,P2 UR*%
X201500000Y-106750000D03*
D11*
%TO.P,J9,2,Pin_2*%
%TO.N,Net-(J9-Pad2)*%
X204000000Y-106750000D03*
%TO.P,J9,3,Pin_3*%
%TO.N,LED +*%
X206500000Y-106750000D03*
%TO.P,J9,4,Pin_4*%
%TO.N,GND*%
X209000000Y-106750000D03*
%TD*%
D18*
%TO.P,J14,1,Pin_1*%
%TO.N,LED +*%
X215646000Y-63263000D03*
D19*
%TO.P,J14,2,Pin_2*%
%TO.N,GND*%
X213146000Y-63263000D03*
%TD*%
D10*
%TO.P,J8,1,Pin_1*%
%TO.N,P2 CN*%
X188000000Y-106750000D03*
D11*
%TO.P,J8,2,Pin_2*%
%TO.N,Net-(J8-Pad2)*%
X190500000Y-106750000D03*
%TO.P,J8,3,Pin_3*%
%TO.N,LED +*%
X193000000Y-106750000D03*
%TO.P,J8,4,Pin_4*%
%TO.N,GND*%
X195500000Y-106750000D03*
%TD*%
D20*
%TO.N,P2 DL*%
X170000000Y-97000000D03*
%TO.N,P2 DL LED*%
X168600000Y-110000000D03*
X170000000Y-102400000D03*
X170000000Y-104400000D03*
%TO.N,P2 UL*%
X183600000Y-97000000D03*
%TO.N,P2 UL LED*%
X183400000Y-104400000D03*
X183400000Y-102400000D03*
X182200000Y-110000000D03*
%TO.N,P2 CN*%
X197000000Y-97000000D03*
%TO.N,P2 CN LED*%
X197000000Y-102400000D03*
X195800000Y-110000000D03*
X197000000Y-104600000D03*
%TO.N,P2 UR*%
X210600000Y-97000000D03*
%TO.N,P2 UR LED*%
X210600000Y-104600000D03*
X210600000Y-102400000D03*
X209200000Y-110000000D03*
%TO.N,P2 DR*%
X213000000Y-96200000D03*
%TO.N,+3V3*%
X199644000Y-72898000D03*
%TO.N,+5V*%
X199644000Y-73914000D03*
%TD*%
D21*
%TO.N,P1 DL*%
X162052000Y-87122000D02*
X162052000Y-98923000D01*
X162052000Y-98923000D02*
X161000000Y-99975000D01*
%TO.N,P1 UL*%
X174752000Y-99723000D02*
X174752000Y-87122000D01*
X174500000Y-99975000D02*
X174752000Y-99723000D01*
%TO.N,P1 CN*%
X187452000Y-99427000D02*
X187452000Y-87122000D01*
X188000000Y-99975000D02*
X187452000Y-99427000D01*
%TO.N,P1 UR*%
X200152000Y-98627000D02*
X201500000Y-99975000D01*
X200152000Y-87122000D02*
X200152000Y-98627000D01*
%TO.N,P1 DR*%
X203600000Y-71400000D02*
X201000000Y-71400000D01*
X196530000Y-70800000D02*
X195072000Y-69342000D01*
X212200000Y-89000000D02*
X207600000Y-84400000D01*
X215000000Y-99975000D02*
X212200000Y-97175000D01*
X204200000Y-82400000D02*
X204200000Y-72000000D01*
X200400000Y-70800000D02*
X196530000Y-70800000D01*
X212200000Y-97175000D02*
X212200000Y-89000000D01*
X207600000Y-84400000D02*
X206200000Y-84400000D01*
X201000000Y-71400000D02*
X200400000Y-70800000D01*
X204200000Y-72000000D02*
X203600000Y-71400000D01*
X206200000Y-84400000D02*
X204200000Y-82400000D01*
%TO.N,P2 DL*%
X169672000Y-96672000D02*
X169672000Y-87122000D01*
X170000000Y-97000000D02*
X169672000Y-96672000D01*
%TO.N,P2 DL LED*%
X170000000Y-102400000D02*
X170000000Y-99000000D01*
X170000000Y-108600000D02*
X168600000Y-110000000D01*
X167132000Y-96132000D02*
X167132000Y-87122000D01*
X170000000Y-99000000D02*
X167132000Y-96132000D01*
X170000000Y-104400000D02*
X170000000Y-108600000D01*
%TO.N,P2 UL*%
X183600000Y-97000000D02*
X182372000Y-95772000D01*
X182372000Y-95772000D02*
X182372000Y-87122000D01*
%TO.N,P2 UL LED*%
X183400000Y-108800000D02*
X182200000Y-110000000D01*
X179832000Y-95232000D02*
X179832000Y-87122000D01*
X183400000Y-98800000D02*
X179832000Y-95232000D01*
X183400000Y-102400000D02*
X183400000Y-98800000D01*
X183400000Y-104400000D02*
X183400000Y-108800000D01*
%TO.N,P2 CN*%
X197000000Y-97000000D02*
X195072000Y-95072000D01*
X195072000Y-95072000D02*
X195072000Y-87122000D01*
%TO.N,P2 CN LED*%
X197000000Y-108800000D02*
X195800000Y-110000000D01*
X197000000Y-104600000D02*
X197000000Y-108800000D01*
X197000000Y-99200000D02*
X192532000Y-94732000D01*
X197000000Y-102400000D02*
X197000000Y-99200000D01*
X192532000Y-94732000D02*
X192532000Y-87122000D01*
%TO.N,P2 UR*%
X207800000Y-87150000D02*
X207772000Y-87122000D01*
X207800000Y-94200000D02*
X207800000Y-87150000D01*
X210600000Y-97000000D02*
X207800000Y-94200000D01*
%TO.N,P2 UR LED*%
X205232000Y-94032000D02*
X205232000Y-87122000D01*
X210600000Y-99400000D02*
X205232000Y-94032000D01*
X210600000Y-102400000D02*
X210600000Y-99400000D01*
X210600000Y-104600000D02*
X210600000Y-108600000D01*
X210600000Y-108600000D02*
X209200000Y-110000000D01*
%TO.N,P2 DR*%
X201610000Y-70800000D02*
X200152000Y-69342000D01*
X206400000Y-83800000D02*
X204800000Y-82200000D01*
X204800000Y-71600000D02*
X204000000Y-70800000D01*
X213000000Y-96200000D02*
X213000000Y-88800000D01*
X208000000Y-83800000D02*
X206400000Y-83800000D01*
X204000000Y-70800000D02*
X201610000Y-70800000D01*
X213000000Y-88800000D02*
X208000000Y-83800000D01*
X204800000Y-82200000D02*
X204800000Y-71600000D01*
%TO.N,TEST*%
X205232000Y-69342000D02*
X205400000Y-69510000D01*
X205400000Y-69510000D02*
X205400000Y-82000000D01*
X208200000Y-83000000D02*
X215310000Y-90110000D01*
X215310000Y-90110000D02*
X226043000Y-90110000D01*
X206400000Y-83000000D02*
X208200000Y-83000000D01*
X205400000Y-82000000D02*
X206400000Y-83000000D01*
%TO.N,SERVICE*%
X208600000Y-82400000D02*
X215600000Y-89400000D01*
X224253000Y-89400000D02*
X226043000Y-87610000D01*
X205994000Y-81794000D02*
X206600000Y-82400000D01*
X205994000Y-71606000D02*
X205994000Y-81794000D01*
X215600000Y-89400000D02*
X224253000Y-89400000D01*
X207772000Y-69342000D02*
X207772000Y-69828000D01*
X206600000Y-82400000D02*
X208600000Y-82400000D01*
X207772000Y-69828000D02*
X205994000Y-71606000D01*
D22*
%TO.N,+3V3*%
X199644000Y-72898000D02*
X173228000Y-72898000D01*
X173228000Y-72898000D02*
X169672000Y-69342000D01*
%TO.N,+5V*%
X199644000Y-73914000D02*
X164084000Y-73914000D01*
X164084000Y-73914000D02*
X159512000Y-69342000D01*
D21*
%TO.N,SWCLK*%
X210058000Y-80772000D02*
X212105000Y-78725000D01*
X212105000Y-78725000D02*
X217170000Y-78725000D01*
X207542000Y-80772000D02*
X210058000Y-80772000D01*
%TO.N,SWDIO*%
X208035000Y-76185000D02*
X217170000Y-76185000D01*
X207542000Y-75692000D02*
X208035000Y-76185000D01*
D22*
%TO.N,LED +*%
X223200000Y-103400000D02*
X228600000Y-98000000D01*
X227330000Y-66294000D02*
X218694000Y-66294000D01*
X209000000Y-103400000D02*
X206500000Y-100900000D01*
X220000000Y-106750000D02*
X220000000Y-105800000D01*
X215663000Y-63263000D02*
X215646000Y-63263000D01*
X222400000Y-103400000D02*
X223200000Y-103400000D01*
X166000000Y-106750000D02*
X166000000Y-105800000D01*
X193000000Y-101000000D02*
X193000000Y-99975000D01*
X206500000Y-100900000D02*
X206500000Y-99975000D01*
X222400000Y-103400000D02*
X220000000Y-101000000D01*
X206500000Y-106750000D02*
X206500000Y-105900000D01*
X220000000Y-101000000D02*
X220000000Y-99975000D01*
X179500000Y-105900000D02*
X182000000Y-103400000D01*
X228600000Y-67564000D02*
X227330000Y-66294000D01*
X168400000Y-103400000D02*
X182000000Y-103400000D01*
X179500000Y-100900000D02*
X182000000Y-103400000D01*
X220000000Y-105800000D02*
X222400000Y-103400000D01*
X206500000Y-105900000D02*
X209000000Y-103400000D01*
X228600000Y-98000000D02*
X228600000Y-67564000D01*
X218694000Y-66294000D02*
X215663000Y-63263000D01*
X195400000Y-103400000D02*
X182000000Y-103400000D01*
X195400000Y-103400000D02*
X193000000Y-101000000D01*
X209000000Y-103400000D02*
X195400000Y-103400000D01*
X179500000Y-99975000D02*
X179500000Y-100900000D01*
X193000000Y-105800000D02*
X195400000Y-103400000D01*
X193000000Y-106750000D02*
X193000000Y-105800000D01*
X166000000Y-105800000D02*
X168400000Y-103400000D01*
X166000000Y-99975000D02*
X166000000Y-101000000D01*
X222400000Y-103400000D02*
X209000000Y-103400000D01*
X166000000Y-101000000D02*
X168400000Y-103400000D01*
X179500000Y-106750000D02*
X179500000Y-105900000D01*
%TD*%
%TA.AperFunction,Conductor*%
%TO.N,GND*%
G36*
X228062018Y-59438000D02*
G01*
X228076851Y-59440310D01*
X228076855Y-59440310D01*
X228085724Y-59441691D01*
X228094626Y-59440527D01*
X228094629Y-59440527D01*
X228102012Y-59439561D01*
X228126591Y-59438767D01*
X228153442Y-59440527D01*
X228348922Y-59453340D01*
X228365262Y-59455491D01*
X228487478Y-59479801D01*
X228609696Y-59504112D01*
X228625606Y-59508375D01*
X228861600Y-59588484D01*
X228876826Y-59594791D01*
X229100342Y-59705016D01*
X229114616Y-59713257D01*
X229321829Y-59851713D01*
X229334905Y-59861746D01*
X229522278Y-60026068D01*
X229533932Y-60037722D01*
X229698254Y-60225095D01*
X229708287Y-60238171D01*
X229846743Y-60445384D01*
X229854984Y-60459658D01*
X229965209Y-60683174D01*
X229971515Y-60698398D01*
X230051625Y-60934394D01*
X230055889Y-60950307D01*
X230104509Y-61194738D01*
X230106660Y-61211078D01*
X230120763Y-61426236D01*
X230119733Y-61449350D01*
X230119690Y-61452854D01*
X230118309Y-61461724D01*
X230119473Y-61470626D01*
X230119473Y-61470628D01*
X230122436Y-61493283D01*
X230123500Y-61509621D01*
X230123500Y-114758621D01*
X230121999Y-114778012D01*
X230118309Y-114801704D01*
X230120439Y-114817999D01*
X230121232Y-114842568D01*
X230120521Y-114853407D01*
X230106651Y-115064905D01*
X230104499Y-115081244D01*
X230055872Y-115325669D01*
X230051606Y-115341588D01*
X229971493Y-115577576D01*
X229965186Y-115592802D01*
X229854959Y-115816312D01*
X229846720Y-115830584D01*
X229708250Y-116037814D01*
X229698224Y-116050879D01*
X229533897Y-116238256D01*
X229522256Y-116249897D01*
X229334879Y-116414224D01*
X229321814Y-116424250D01*
X229114585Y-116562719D01*
X229100312Y-116570959D01*
X228876802Y-116681186D01*
X228861576Y-116687493D01*
X228625588Y-116767606D01*
X228609669Y-116771872D01*
X228365244Y-116820499D01*
X228348905Y-116822651D01*
X228224807Y-116830790D01*
X228133736Y-116836762D01*
X228110628Y-116835733D01*
X228107130Y-116835690D01*
X228098256Y-116834309D01*
X228066702Y-116838436D01*
X228050363Y-116839500D01*
X160069367Y-116839500D01*
X160049982Y-116838000D01*
X160035149Y-116835690D01*
X160035145Y-116835690D01*
X160026276Y-116834309D01*
X160017374Y-116835473D01*
X160017371Y-116835473D01*
X160009988Y-116836439D01*
X159985409Y-116837233D01*
X159940799Y-116834309D01*
X159763078Y-116822660D01*
X159746738Y-116820509D01*
X159624522Y-116796199D01*
X159502304Y-116771888D01*
X159486394Y-116767625D01*
X159250398Y-116687515D01*
X159235174Y-116681209D01*
X159011658Y-116570984D01*
X158997384Y-116562743D01*
X158790171Y-116424287D01*
X158777095Y-116414254D01*
X158589722Y-116249932D01*
X158578068Y-116238278D01*
X158413746Y-116050905D01*
X158403713Y-116037829D01*
X158265257Y-115830616D01*
X158257016Y-115816342D01*
X158146791Y-115592826D01*
X158140484Y-115577600D01*
X158140476Y-115577576D01*
X158060375Y-115341606D01*
X158056111Y-115325693D01*
X158041746Y-115253472D01*
X158007491Y-115081262D01*
X158005340Y-115064922D01*
X157991476Y-114853407D01*
X157992650Y-114830232D01*
X157992334Y-114830204D01*
X157992770Y-114825344D01*
X157993576Y-114820552D01*
X157993729Y-114808000D01*
X157989773Y-114780376D01*
X157988500Y-114762514D01*
X157988500Y-113942754D01*
X224966743Y-113942754D01*
X225004268Y-114227785D01*
X225080129Y-114505087D01*
X225081813Y-114509035D01*
X225189932Y-114762514D01*
X225192923Y-114769527D01*
X225340561Y-115016212D01*
X225520313Y-115240579D01*
X225728851Y-115438474D01*
X225962317Y-115606237D01*
X225966112Y-115608246D01*
X225966113Y-115608247D01*
X225987869Y-115619766D01*
X226216392Y-115740763D01*
X226351382Y-115790162D01*
X226443165Y-115823750D01*
X226486373Y-115839562D01*
X226767264Y-115900806D01*
X226795841Y-115903055D01*
X226990282Y-115918358D01*
X226990291Y-115918358D01*
X226992739Y-115918551D01*
X227148271Y-115918551D01*
X227150407Y-115918405D01*
X227150418Y-115918405D01*
X227358548Y-115904216D01*
X227358554Y-115904215D01*
X227362825Y-115903924D01*
X227367020Y-115903055D01*
X227367022Y-115903055D01*
X227503583Y-115874775D01*
X227644342Y-115845625D01*
X227915343Y-115749658D01*
X228170812Y-115617801D01*
X228174313Y-115615340D01*
X228174317Y-115615338D01*
X228288417Y-115535147D01*
X228406023Y-115452492D01*
X228616622Y-115256791D01*
X228798713Y-115034319D01*
X228948927Y-114789193D01*
X228956696Y-114771496D01*
X229062757Y-114529881D01*
X229064483Y-114525949D01*
X229143244Y-114249457D01*
X229183751Y-113964835D01*
X229183845Y-113947002D01*
X229185235Y-113681634D01*
X229185235Y-113681627D01*
X229185257Y-113677348D01*
X229147732Y-113392317D01*
X229071871Y-113115015D01*
X228959077Y-112850575D01*
X228811439Y-112603890D01*
X228631687Y-112379523D01*
X228423149Y-112181628D01*
X228189683Y-112013865D01*
X228167843Y-112002301D01*
X228144654Y-111990023D01*
X227935608Y-111879339D01*
X227665627Y-111780540D01*
X227384736Y-111719296D01*
X227353685Y-111716852D01*
X227161718Y-111701744D01*
X227161709Y-111701744D01*
X227159261Y-111701551D01*
X227003729Y-111701551D01*
X227001593Y-111701697D01*
X227001582Y-111701697D01*
X226793452Y-111715886D01*
X226793446Y-111715887D01*
X226789175Y-111716178D01*
X226784980Y-111717047D01*
X226784978Y-111717047D01*
X226648416Y-111745328D01*
X226507658Y-111774477D01*
X226236657Y-111870444D01*
X225981188Y-112002301D01*
X225977687Y-112004762D01*
X225977683Y-112004764D01*
X225967594Y-112011855D01*
X225745977Y-112167610D01*
X225535378Y-112363311D01*
X225353287Y-112585783D01*
X225203073Y-112830909D01*
X225087517Y-113094153D01*
X225008756Y-113370645D01*
X224968249Y-113655267D01*
X224968227Y-113659556D01*
X224968226Y-113659563D01*
X224966765Y-113938468D01*
X224966743Y-113942754D01*
X157988500Y-113942754D01*
X157988500Y-90099528D01*
X158008502Y-90031407D01*
X158062158Y-89984914D01*
X158132432Y-89974810D01*
X158197012Y-90004304D01*
X158215324Y-90023961D01*
X158298739Y-90135261D01*
X158415295Y-90222615D01*
X158551684Y-90273745D01*
X158613866Y-90280500D01*
X160410134Y-90280500D01*
X160472316Y-90273745D01*
X160608705Y-90222615D01*
X160706436Y-90149370D01*
X160772941Y-90124522D01*
X160842324Y-90139575D01*
X160857562Y-90149368D01*
X160955295Y-90222615D01*
X161091684Y-90273745D01*
X161153866Y-90280500D01*
X161292500Y-90280500D01*
X161360621Y-90300502D01*
X161407114Y-90354158D01*
X161418500Y-90406500D01*
X161418500Y-98365500D01*
X161398498Y-98433621D01*
X161344842Y-98480114D01*
X161292500Y-98491500D01*
X160349600Y-98491500D01*
X160346354Y-98491837D01*
X160346350Y-98491837D01*
X160250692Y-98501762D01*
X160250688Y-98501763D01*
X160243834Y-98502474D01*
X160237298Y-98504655D01*
X160237296Y-98504655D01*
X160110191Y-98547061D01*
X160076054Y-98558450D01*
X159925652Y-98651522D01*
X159800695Y-98776697D01*
X159796855Y-98782927D01*
X159796854Y-98782928D01*
X159712093Y-98920436D01*
X159707885Y-98927262D01*
X159690632Y-98979278D01*
X159655246Y-99085966D01*
X159652203Y-99095139D01*
X159651503Y-99101975D01*
X159651502Y-99101978D01*
X159647649Y-99139582D01*
X159641500Y-99199600D01*
X159641500Y-100750400D01*
X159641837Y-100753646D01*
X159641837Y-100753650D01*
X159650875Y-100840752D01*
X159652474Y-100856166D01*
X159654655Y-100862702D01*
X159654655Y-100862704D01*
X159686405Y-100957870D01*
X159708450Y-101023946D01*
X159801522Y-101174348D01*
X159926697Y-101299305D01*
X159932927Y-101303145D01*
X159932928Y-101303146D01*
X160070090Y-101387694D01*
X160077262Y-101392115D01*
X160118844Y-101405907D01*
X160238611Y-101445632D01*
X160238613Y-101445632D01*
X160245139Y-101447797D01*
X160251975Y-101448497D01*
X160251978Y-101448498D01*
X160287663Y-101452154D01*
X160349600Y-101458500D01*
X161650400Y-101458500D01*
X161653646Y-101458163D01*
X161653650Y-101458163D01*
X161749308Y-101448238D01*
X161749312Y-101448237D01*
X161756166Y-101447526D01*
X161762702Y-101445345D01*
X161762704Y-101445345D01*
X161913953Y-101394884D01*
X161923946Y-101391550D01*
X162074348Y-101298478D01*
X162199305Y-101173303D01*
X162289081Y-101027660D01*
X162341852Y-100980168D01*
X162411924Y-100968744D01*
X162477048Y-100997018D01*
X162487510Y-101006805D01*
X162529215Y-101050523D01*
X162596576Y-101121135D01*
X162781542Y-101258754D01*
X162786293Y-101261170D01*
X162786297Y-101261172D01*
X162827920Y-101282334D01*
X162987051Y-101363240D01*
X162992145Y-101364822D01*
X162992148Y-101364823D01*
X163157583Y-101416192D01*
X163207227Y-101431607D01*
X163212516Y-101432308D01*
X163430489Y-101461198D01*
X163430494Y-101461198D01*
X163435774Y-101461898D01*
X163441103Y-101461698D01*
X163441105Y-101461698D01*
X163550966Y-101457574D01*
X163666158Y-101453249D01*
X163688802Y-101448498D01*
X163842772Y-101416192D01*
X163891791Y-101405907D01*
X163896750Y-101403949D01*
X163896752Y-101403948D01*
X164101256Y-101323185D01*
X164101258Y-101323184D01*
X164106221Y-101321224D01*
X164111525Y-101318006D01*
X164298757Y-101204390D01*
X164298756Y-101204390D01*
X164303317Y-101201623D01*
X164343134Y-101167072D01*
X164473412Y-101054023D01*
X164473414Y-101054021D01*
X164477445Y-101050523D01*
X164544500Y-100968744D01*
X164620240Y-100876373D01*
X164620244Y-100876367D01*
X164623624Y-100872245D01*
X164641552Y-100840750D01*
X164692632Y-100791445D01*
X164762262Y-100777583D01*
X164828333Y-100803566D01*
X164855573Y-100832716D01*
X164937441Y-100954319D01*
X164941120Y-100958176D01*
X164941122Y-100958178D01*
X164978174Y-100997018D01*
X165096576Y-101121135D01*
X165100854Y-101124318D01*
X165255798Y-101239600D01*
X165300452Y-101301857D01*
X165305649Y-101317899D01*
X165309445Y-101324155D01*
X165311951Y-101329628D01*
X165314670Y-101335058D01*
X165317167Y-101341937D01*
X165321180Y-101348057D01*
X165321180Y-101348058D01*
X165357186Y-101402976D01*
X165359523Y-101406680D01*
X165397405Y-101469107D01*
X165401121Y-101473315D01*
X165401122Y-101473316D01*
X165404803Y-101477484D01*
X165404776Y-101477508D01*
X165407429Y-101480500D01*
X165410132Y-101483733D01*
X165414144Y-101489852D01*
X165419456Y-101494884D01*
X165470383Y-101543128D01*
X165472825Y-101545506D01*
X167238224Y-103310905D01*
X167272250Y-103373217D01*
X167267185Y-103444032D01*
X167238224Y-103489095D01*
X165511089Y-105216230D01*
X165496677Y-105228616D01*
X165485082Y-105237149D01*
X165485077Y-105237154D01*
X165479182Y-105241492D01*
X165474443Y-105247070D01*
X165474440Y-105247073D01*
X165444965Y-105281768D01*
X165438035Y-105289284D01*
X165432340Y-105294979D01*
X165430060Y-105297861D01*
X165414719Y-105317251D01*
X165411928Y-105320655D01*
X165369409Y-105370703D01*
X165364667Y-105376285D01*
X165361339Y-105382803D01*
X165357975Y-105387846D01*
X165354805Y-105392979D01*
X165350266Y-105398716D01*
X165347168Y-105405344D01*
X165347167Y-105405346D01*
X165345897Y-105408064D01*
X165344587Y-105409524D01*
X165343321Y-105411574D01*
X165342952Y-105411346D01*
X165297115Y-105462433D01*
X165196683Y-105523377D01*
X165192653Y-105526874D01*
X165099484Y-105607722D01*
X165022555Y-105674477D01*
X165019168Y-105678608D01*
X164879760Y-105848627D01*
X164879756Y-105848633D01*
X164876376Y-105852755D01*
X164858448Y-105884250D01*
X164807368Y-105933555D01*
X164737738Y-105947417D01*
X164671667Y-105921434D01*
X164644427Y-105892284D01*
X164615035Y-105848627D01*
X164562559Y-105770681D01*
X164503918Y-105709209D01*
X164474725Y-105678608D01*
X164403424Y-105603865D01*
X164218458Y-105466246D01*
X164213707Y-105463830D01*
X164213703Y-105463828D01*
X164095588Y-105403776D01*
X164012949Y-105361760D01*
X164007855Y-105360178D01*
X164007852Y-105360177D01*
X163797871Y-105294976D01*
X163792773Y-105293393D01*
X163785153Y-105292383D01*
X163569511Y-105263802D01*
X163569506Y-105263802D01*
X163564226Y-105263102D01*
X163558897Y-105263302D01*
X163558895Y-105263302D01*
X163449034Y-105267427D01*
X163333842Y-105271751D01*
X163328623Y-105272846D01*
X163306566Y-105277474D01*
X163108209Y-105319093D01*
X163103250Y-105321051D01*
X163103248Y-105321052D01*
X162898744Y-105401815D01*
X162898742Y-105401816D01*
X162893779Y-105403776D01*
X162889220Y-105406543D01*
X162889217Y-105406544D01*
X162794113Y-105464255D01*
X162696683Y-105523377D01*
X162692653Y-105526874D01*
X162599484Y-105607722D01*
X162522555Y-105674477D01*
X162493330Y-105710120D01*
X162434671Y-105750114D01*
X162363701Y-105752046D01*
X162302952Y-105715302D01*
X162288752Y-105696532D01*
X162202332Y-105556880D01*
X162198478Y-105550652D01*
X162073303Y-105425695D01*
X162047069Y-105409524D01*
X161928968Y-105336725D01*
X161928966Y-105336724D01*
X161922738Y-105332885D01*
X161842995Y-105306436D01*
X161761389Y-105279368D01*
X161761387Y-105279368D01*
X161754861Y-105277203D01*
X161748025Y-105276503D01*
X161748022Y-105276502D01*
X161704969Y-105272091D01*
X161650400Y-105266500D01*
X160349600Y-105266500D01*
X160346354Y-105266837D01*
X160346350Y-105266837D01*
X160250692Y-105276762D01*
X160250688Y-105276763D01*
X160243834Y-105277474D01*
X160237298Y-105279655D01*
X160237296Y-105279655D01*
X160110260Y-105322038D01*
X160076054Y-105333450D01*
X159925652Y-105426522D01*
X159800695Y-105551697D01*
X159796855Y-105557927D01*
X159796854Y-105557928D01*
X159722466Y-105678608D01*
X159707885Y-105702262D01*
X159686472Y-105766822D01*
X159656432Y-105857390D01*
X159652203Y-105870139D01*
X159641500Y-105974600D01*
X159641500Y-107525400D01*
X159641837Y-107528646D01*
X159641837Y-107528650D01*
X159650875Y-107615752D01*
X159652474Y-107631166D01*
X159654655Y-107637702D01*
X159654655Y-107637704D01*
X159686405Y-107732870D01*
X159708450Y-107798946D01*
X159801522Y-107949348D01*
X159926697Y-108074305D01*
X159932927Y-108078145D01*
X159932928Y-108078146D01*
X160070090Y-108162694D01*
X160077262Y-108167115D01*
X160112938Y-108178948D01*
X160238611Y-108220632D01*
X160238613Y-108220632D01*
X160245139Y-108222797D01*
X160251975Y-108223497D01*
X160251978Y-108223498D01*
X160287663Y-108227154D01*
X160349600Y-108233500D01*
X161650400Y-108233500D01*
X161653646Y-108233163D01*
X161653650Y-108233163D01*
X161749308Y-108223238D01*
X161749312Y-108223237D01*
X161756166Y-108222526D01*
X161762702Y-108220345D01*
X161762704Y-108220345D01*
X161894806Y-108176272D01*
X161923946Y-108166550D01*
X162074348Y-108073478D01*
X162199305Y-107948303D01*
X162289081Y-107802660D01*
X162341852Y-107755168D01*
X162411924Y-107743744D01*
X162477048Y-107772018D01*
X162487510Y-107781805D01*
X162529215Y-107825523D01*
X162596576Y-107896135D01*
X162781542Y-108033754D01*
X162786293Y-108036170D01*
X162786297Y-108036172D01*
X162827920Y-108057334D01*
X162987051Y-108138240D01*
X162992145Y-108139822D01*
X162992148Y-108139823D01*
X163157583Y-108191192D01*
X163207227Y-108206607D01*
X163212516Y-108207308D01*
X163430489Y-108236198D01*
X163430494Y-108236198D01*
X163435774Y-108236898D01*
X163441103Y-108236698D01*
X163441105Y-108236698D01*
X163550966Y-108232573D01*
X163666158Y-108228249D01*
X163688802Y-108223498D01*
X163842772Y-108191192D01*
X163891791Y-108180907D01*
X163896750Y-108178949D01*
X163896752Y-108178948D01*
X164101256Y-108098185D01*
X164101258Y-108098184D01*
X164106221Y-108096224D01*
X164111525Y-108093006D01*
X164298757Y-107979390D01*
X164298756Y-107979390D01*
X164303317Y-107976623D01*
X164343134Y-107942072D01*
X164473412Y-107829023D01*
X164473414Y-107829021D01*
X164477445Y-107825523D01*
X164544500Y-107743744D01*
X164620240Y-107651373D01*
X164620244Y-107651367D01*
X164623624Y-107647245D01*
X164641552Y-107615750D01*
X164692632Y-107566445D01*
X164762262Y-107552583D01*
X164828333Y-107578566D01*
X164855573Y-107607716D01*
X164937441Y-107729319D01*
X165096576Y-107896135D01*
X165281542Y-108033754D01*
X165286293Y-108036170D01*
X165286297Y-108036172D01*
X165327920Y-108057334D01*
X165487051Y-108138240D01*
X165492145Y-108139822D01*
X165492148Y-108139823D01*
X165657583Y-108191192D01*
X165707227Y-108206607D01*
X165712516Y-108207308D01*
X165930489Y-108236198D01*
X165930494Y-108236198D01*
X165935774Y-108236898D01*
X165941103Y-108236698D01*
X165941105Y-108236698D01*
X166050966Y-108232573D01*
X166166158Y-108228249D01*
X166188802Y-108223498D01*
X166342772Y-108191192D01*
X166391791Y-108180907D01*
X166396750Y-108178949D01*
X166396752Y-108178948D01*
X166601256Y-108098185D01*
X166601258Y-108098184D01*
X166606221Y-108096224D01*
X166611525Y-108093006D01*
X166798757Y-107979390D01*
X166798756Y-107979390D01*
X166803317Y-107976623D01*
X166843134Y-107942072D01*
X166973412Y-107829023D01*
X166973414Y-107829021D01*
X166977445Y-107825523D01*
X167044500Y-107743744D01*
X167120240Y-107651373D01*
X167120244Y-107651367D01*
X167123624Y-107647245D01*
X167136681Y-107624308D01*
X167141829Y-107615265D01*
X167192912Y-107565959D01*
X167262542Y-107552098D01*
X167328613Y-107578082D01*
X167355851Y-107607232D01*
X167434852Y-107724578D01*
X167441519Y-107732870D01*
X167593228Y-107891900D01*
X167601186Y-107898941D01*
X167777525Y-108030141D01*
X167786562Y-108035745D01*
X167982484Y-108135357D01*
X167992335Y-108139357D01*
X168202240Y-108204534D01*
X168212624Y-108206817D01*
X168228043Y-108208861D01*
X168242207Y-108206665D01*
X168246000Y-108193478D01*
X168246000Y-105308808D01*
X168242027Y-105295277D01*
X168231420Y-105293752D01*
X168113579Y-105318477D01*
X168103383Y-105321537D01*
X167898971Y-105402263D01*
X167889439Y-105406994D01*
X167705104Y-105518852D01*
X167636490Y-105537091D01*
X167568908Y-105515340D01*
X167523813Y-105460504D01*
X167515524Y-105389992D01*
X167550643Y-105322038D01*
X168677276Y-104195405D01*
X168739588Y-104161379D01*
X168766371Y-104158500D01*
X168971941Y-104158500D01*
X169040062Y-104178502D01*
X169086555Y-104232158D01*
X169097251Y-104297670D01*
X169086496Y-104400000D01*
X169106458Y-104589928D01*
X169165473Y-104771556D01*
X169260960Y-104936944D01*
X169334137Y-105018215D01*
X169364853Y-105082221D01*
X169366500Y-105102524D01*
X169366500Y-105336664D01*
X169346498Y-105404785D01*
X169292842Y-105451278D01*
X169222568Y-105461382D01*
X169183395Y-105448981D01*
X169017515Y-105364643D01*
X169007665Y-105360643D01*
X168797760Y-105295466D01*
X168787376Y-105293183D01*
X168771957Y-105291139D01*
X168757793Y-105293335D01*
X168754000Y-105306522D01*
X168754000Y-108191192D01*
X168757973Y-108204723D01*
X168768580Y-108206248D01*
X168886421Y-108181523D01*
X168896617Y-108178463D01*
X169101029Y-108097737D01*
X169110561Y-108093006D01*
X169175134Y-108053822D01*
X169243748Y-108035583D01*
X169311331Y-108057334D01*
X169356425Y-108112171D01*
X169366500Y-108161541D01*
X169366500Y-108285405D01*
X169346498Y-108353526D01*
X169329595Y-108374501D01*
X168649499Y-109054596D01*
X168587187Y-109088621D01*
X168560404Y-109091500D01*
X168504513Y-109091500D01*
X168498061Y-109092872D01*
X168498056Y-109092872D01*
X168411112Y-109111353D01*
X168317712Y-109131206D01*
X168311682Y-109133891D01*
X168311681Y-109133891D01*
X168149278Y-109206197D01*
X168149276Y-109206198D01*
X168143248Y-109208882D01*
X167988747Y-109321134D01*
X167860960Y-109463056D01*
X167765473Y-109628444D01*
X167706458Y-109810072D01*
X167686496Y-110000000D01*
X167706458Y-110189928D01*
X167765473Y-110371556D01*
X167860960Y-110536944D01*
X167988747Y-110678866D01*
X168143248Y-110791118D01*
X168149276Y-110793802D01*
X168149278Y-110793803D01*
X168311681Y-110866109D01*
X168317712Y-110868794D01*
X168411113Y-110888647D01*
X168498056Y-110907128D01*
X168498061Y-110907128D01*
X168504513Y-110908500D01*
X168695487Y-110908500D01*
X168701939Y-110907128D01*
X168701944Y-110907128D01*
X168788887Y-110888647D01*
X168882288Y-110868794D01*
X168888319Y-110866109D01*
X169050722Y-110793803D01*
X169050724Y-110793802D01*
X169056752Y-110791118D01*
X169211253Y-110678866D01*
X169339040Y-110536944D01*
X169434527Y-110371556D01*
X169493542Y-110189928D01*
X169510907Y-110024707D01*
X169537920Y-109959051D01*
X169547122Y-109948782D01*
X170392258Y-109103647D01*
X170400537Y-109096113D01*
X170407018Y-109092000D01*
X170453644Y-109042348D01*
X170456398Y-109039507D01*
X170476135Y-109019770D01*
X170478615Y-109016573D01*
X170486320Y-109007551D01*
X170511159Y-108981100D01*
X170516586Y-108975321D01*
X170520405Y-108968375D01*
X170520407Y-108968372D01*
X170526348Y-108957566D01*
X170537199Y-108941047D01*
X170537559Y-108940583D01*
X170549614Y-108925041D01*
X170552759Y-108917772D01*
X170552762Y-108917768D01*
X170567174Y-108884463D01*
X170572391Y-108873813D01*
X170593695Y-108835060D01*
X170598733Y-108815437D01*
X170605137Y-108796734D01*
X170610033Y-108785420D01*
X170610033Y-108785419D01*
X170613181Y-108778145D01*
X170614420Y-108770322D01*
X170614423Y-108770312D01*
X170620099Y-108734476D01*
X170622505Y-108722856D01*
X170631528Y-108687711D01*
X170631528Y-108687710D01*
X170633500Y-108680030D01*
X170633500Y-108659776D01*
X170635051Y-108640065D01*
X170636980Y-108627886D01*
X170638220Y-108620057D01*
X170634059Y-108576038D01*
X170633500Y-108564181D01*
X170633500Y-105102524D01*
X170653502Y-105034403D01*
X170665858Y-105018221D01*
X170739040Y-104936944D01*
X170834527Y-104771556D01*
X170893542Y-104589928D01*
X170913504Y-104400000D01*
X170902749Y-104297670D01*
X170915521Y-104227832D01*
X170964023Y-104175985D01*
X171028059Y-104158500D01*
X179864629Y-104158500D01*
X179932750Y-104178502D01*
X179979243Y-104232158D01*
X179989347Y-104302432D01*
X179959853Y-104367012D01*
X179953724Y-104373595D01*
X179011089Y-105316230D01*
X178996677Y-105328616D01*
X178985082Y-105337149D01*
X178985077Y-105337154D01*
X178979182Y-105341492D01*
X178974441Y-105347073D01*
X178963088Y-105360436D01*
X178913345Y-105396049D01*
X178898744Y-105401815D01*
X178898742Y-105401816D01*
X178893779Y-105403776D01*
X178889220Y-105406543D01*
X178889217Y-105406544D01*
X178794113Y-105464255D01*
X178696683Y-105523377D01*
X178692653Y-105526874D01*
X178599484Y-105607722D01*
X178522555Y-105674477D01*
X178519168Y-105678608D01*
X178379760Y-105848627D01*
X178379756Y-105848633D01*
X178376376Y-105852755D01*
X178358448Y-105884250D01*
X178307368Y-105933555D01*
X178237738Y-105947417D01*
X178171667Y-105921434D01*
X178144427Y-105892284D01*
X178115035Y-105848627D01*
X178062559Y-105770681D01*
X178003918Y-105709209D01*
X177974725Y-105678608D01*
X177903424Y-105603865D01*
X177718458Y-105466246D01*
X177713707Y-105463830D01*
X177713703Y-105463828D01*
X177595588Y-105403776D01*
X177512949Y-105361760D01*
X177507855Y-105360178D01*
X177507852Y-105360177D01*
X177297871Y-105294976D01*
X177292773Y-105293393D01*
X177285153Y-105292383D01*
X177069511Y-105263802D01*
X177069506Y-105263802D01*
X177064226Y-105263102D01*
X177058897Y-105263302D01*
X177058895Y-105263302D01*
X176949034Y-105267427D01*
X176833842Y-105271751D01*
X176828623Y-105272846D01*
X176806566Y-105277474D01*
X176608209Y-105319093D01*
X176603250Y-105321051D01*
X176603248Y-105321052D01*
X176398744Y-105401815D01*
X176398742Y-105401816D01*
X176393779Y-105403776D01*
X176389220Y-105406543D01*
X176389217Y-105406544D01*
X176294113Y-105464255D01*
X176196683Y-105523377D01*
X176192653Y-105526874D01*
X176099484Y-105607722D01*
X176022555Y-105674477D01*
X175993330Y-105710120D01*
X175934671Y-105750114D01*
X175863701Y-105752046D01*
X175802952Y-105715302D01*
X175788752Y-105696532D01*
X175702332Y-105556880D01*
X175698478Y-105550652D01*
X175573303Y-105425695D01*
X175547069Y-105409524D01*
X175428968Y-105336725D01*
X175428966Y-105336724D01*
X175422738Y-105332885D01*
X175342995Y-105306436D01*
X175261389Y-105279368D01*
X175261387Y-105279368D01*
X175254861Y-105277203D01*
X175248025Y-105276503D01*
X175248022Y-105276502D01*
X175204969Y-105272091D01*
X175150400Y-105266500D01*
X173849600Y-105266500D01*
X173846354Y-105266837D01*
X173846350Y-105266837D01*
X173750692Y-105276762D01*
X173750688Y-105276763D01*
X173743834Y-105277474D01*
X173737298Y-105279655D01*
X173737296Y-105279655D01*
X173610260Y-105322038D01*
X173576054Y-105333450D01*
X173425652Y-105426522D01*
X173300695Y-105551697D01*
X173296855Y-105557927D01*
X173296854Y-105557928D01*
X173222466Y-105678608D01*
X173207885Y-105702262D01*
X173186472Y-105766822D01*
X173156432Y-105857390D01*
X173152203Y-105870139D01*
X173141500Y-105974600D01*
X173141500Y-107525400D01*
X173141837Y-107528646D01*
X173141837Y-107528650D01*
X173150875Y-107615752D01*
X173152474Y-107631166D01*
X173154655Y-107637702D01*
X173154655Y-107637704D01*
X173186405Y-107732870D01*
X173208450Y-107798946D01*
X173301522Y-107949348D01*
X173426697Y-108074305D01*
X173432927Y-108078145D01*
X173432928Y-108078146D01*
X173570090Y-108162694D01*
X173577262Y-108167115D01*
X173612938Y-108178948D01*
X173738611Y-108220632D01*
X173738613Y-108220632D01*
X173745139Y-108222797D01*
X173751975Y-108223497D01*
X173751978Y-108223498D01*
X173787663Y-108227154D01*
X173849600Y-108233500D01*
X175150400Y-108233500D01*
X175153646Y-108233163D01*
X175153650Y-108233163D01*
X175249308Y-108223238D01*
X175249312Y-108223237D01*
X175256166Y-108222526D01*
X175262702Y-108220345D01*
X175262704Y-108220345D01*
X175394806Y-108176272D01*
X175423946Y-108166550D01*
X175574348Y-108073478D01*
X175699305Y-107948303D01*
X175789081Y-107802660D01*
X175841852Y-107755168D01*
X175911924Y-107743744D01*
X175977048Y-107772018D01*
X175987510Y-107781805D01*
X176029215Y-107825523D01*
X176096576Y-107896135D01*
X176281542Y-108033754D01*
X176286293Y-108036170D01*
X176286297Y-108036172D01*
X176327920Y-108057334D01*
X176487051Y-108138240D01*
X176492145Y-108139822D01*
X176492148Y-108139823D01*
X176657583Y-108191192D01*
X176707227Y-108206607D01*
X176712516Y-108207308D01*
X176930489Y-108236198D01*
X176930494Y-108236198D01*
X176935774Y-108236898D01*
X176941103Y-108236698D01*
X176941105Y-108236698D01*
X177050966Y-108232573D01*
X177166158Y-108228249D01*
X177188802Y-108223498D01*
X177342772Y-108191192D01*
X177391791Y-108180907D01*
X177396750Y-108178949D01*
X177396752Y-108178948D01*
X177601256Y-108098185D01*
X177601258Y-108098184D01*
X177606221Y-108096224D01*
X177611525Y-108093006D01*
X177798757Y-107979390D01*
X177798756Y-107979390D01*
X177803317Y-107976623D01*
X177843134Y-107942072D01*
X177973412Y-107829023D01*
X177973414Y-107829021D01*
X177977445Y-107825523D01*
X178044500Y-107743744D01*
X178120240Y-107651373D01*
X178120244Y-107651367D01*
X178123624Y-107647245D01*
X178141552Y-107615750D01*
X178192632Y-107566445D01*
X178262262Y-107552583D01*
X178328333Y-107578566D01*
X178355573Y-107607716D01*
X178437441Y-107729319D01*
X178596576Y-107896135D01*
X178781542Y-108033754D01*
X178786293Y-108036170D01*
X178786297Y-108036172D01*
X178827920Y-108057334D01*
X178987051Y-108138240D01*
X178992145Y-108139822D01*
X178992148Y-108139823D01*
X179157583Y-108191192D01*
X179207227Y-108206607D01*
X179212516Y-108207308D01*
X179430489Y-108236198D01*
X179430494Y-108236198D01*
X179435774Y-108236898D01*
X179441103Y-108236698D01*
X179441105Y-108236698D01*
X179550966Y-108232573D01*
X179666158Y-108228249D01*
X179688802Y-108223498D01*
X179842772Y-108191192D01*
X179891791Y-108180907D01*
X179896750Y-108178949D01*
X179896752Y-108178948D01*
X180101256Y-108098185D01*
X180101258Y-108098184D01*
X180106221Y-108096224D01*
X180111525Y-108093006D01*
X180298757Y-107979390D01*
X180298756Y-107979390D01*
X180303317Y-107976623D01*
X180343134Y-107942072D01*
X180473412Y-107829023D01*
X180473414Y-107829021D01*
X180477445Y-107825523D01*
X180544500Y-107743744D01*
X180620240Y-107651373D01*
X180620244Y-107651367D01*
X180623624Y-107647245D01*
X180636681Y-107624308D01*
X180641829Y-107615265D01*
X180692912Y-107565959D01*
X180762542Y-107552098D01*
X180828613Y-107578082D01*
X180855851Y-107607232D01*
X180934852Y-107724578D01*
X180941519Y-107732870D01*
X181093228Y-107891900D01*
X181101186Y-107898941D01*
X181277525Y-108030141D01*
X181286562Y-108035745D01*
X181482484Y-108135357D01*
X181492335Y-108139357D01*
X181702240Y-108204534D01*
X181712624Y-108206817D01*
X181728043Y-108208861D01*
X181742207Y-108206665D01*
X181746000Y-108193478D01*
X181746000Y-105308808D01*
X181742027Y-105295277D01*
X181731420Y-105293752D01*
X181613579Y-105318477D01*
X181603383Y-105321537D01*
X181420638Y-105393706D01*
X181349932Y-105400124D01*
X181286981Y-105367296D01*
X181251771Y-105305646D01*
X181255481Y-105234746D01*
X181285262Y-105187419D01*
X182277276Y-104195405D01*
X182339588Y-104161379D01*
X182366371Y-104158500D01*
X182371941Y-104158500D01*
X182440062Y-104178502D01*
X182486555Y-104232158D01*
X182497251Y-104297670D01*
X182486496Y-104400000D01*
X182506458Y-104589928D01*
X182565473Y-104771556D01*
X182660960Y-104936944D01*
X182734137Y-105018215D01*
X182764853Y-105082221D01*
X182766500Y-105102524D01*
X182766500Y-105285821D01*
X182746498Y-105353942D01*
X182692842Y-105400435D01*
X182622568Y-105410539D01*
X182583395Y-105398138D01*
X182517515Y-105364643D01*
X182507665Y-105360643D01*
X182297760Y-105295466D01*
X182287376Y-105293183D01*
X182271957Y-105291139D01*
X182257793Y-105293335D01*
X182254000Y-105306522D01*
X182254000Y-108191192D01*
X182257973Y-108204723D01*
X182268580Y-108206248D01*
X182386421Y-108181523D01*
X182396617Y-108178463D01*
X182594219Y-108100427D01*
X182664925Y-108094009D01*
X182727876Y-108126837D01*
X182763086Y-108188487D01*
X182766500Y-108217619D01*
X182766500Y-108485405D01*
X182746498Y-108553526D01*
X182729595Y-108574500D01*
X182249500Y-109054595D01*
X182187188Y-109088621D01*
X182160405Y-109091500D01*
X182104513Y-109091500D01*
X182098061Y-109092872D01*
X182098056Y-109092872D01*
X182011112Y-109111353D01*
X181917712Y-109131206D01*
X181911682Y-109133891D01*
X181911681Y-109133891D01*
X181749278Y-109206197D01*
X181749276Y-109206198D01*
X181743248Y-109208882D01*
X181588747Y-109321134D01*
X181460960Y-109463056D01*
X181365473Y-109628444D01*
X181306458Y-109810072D01*
X181286496Y-110000000D01*
X181306458Y-110189928D01*
X181365473Y-110371556D01*
X181460960Y-110536944D01*
X181588747Y-110678866D01*
X181743248Y-110791118D01*
X181749276Y-110793802D01*
X181749278Y-110793803D01*
X181911681Y-110866109D01*
X181917712Y-110868794D01*
X182011113Y-110888647D01*
X182098056Y-110907128D01*
X182098061Y-110907128D01*
X182104513Y-110908500D01*
X182295487Y-110908500D01*
X182301939Y-110907128D01*
X182301944Y-110907128D01*
X182388887Y-110888647D01*
X182482288Y-110868794D01*
X182488319Y-110866109D01*
X182650722Y-110793803D01*
X182650724Y-110793802D01*
X182656752Y-110791118D01*
X182811253Y-110678866D01*
X182939040Y-110536944D01*
X183034527Y-110371556D01*
X183093542Y-110189928D01*
X183110907Y-110024706D01*
X183137920Y-109959050D01*
X183147122Y-109948782D01*
X183792247Y-109303657D01*
X183800537Y-109296113D01*
X183807018Y-109292000D01*
X183853659Y-109242332D01*
X183856413Y-109239491D01*
X183876134Y-109219770D01*
X183878612Y-109216575D01*
X183886318Y-109207553D01*
X183911158Y-109181101D01*
X183916586Y-109175321D01*
X183926346Y-109157568D01*
X183937199Y-109141045D01*
X183944753Y-109131306D01*
X183949613Y-109125041D01*
X183967176Y-109084457D01*
X183972383Y-109073827D01*
X183993695Y-109035060D01*
X183995666Y-109027383D01*
X183995668Y-109027378D01*
X183998732Y-109015442D01*
X184005138Y-108996730D01*
X184010033Y-108985419D01*
X184013181Y-108978145D01*
X184014421Y-108970317D01*
X184014423Y-108970310D01*
X184020099Y-108934476D01*
X184022505Y-108922856D01*
X184031528Y-108887711D01*
X184031528Y-108887710D01*
X184033500Y-108880030D01*
X184033500Y-108859776D01*
X184035051Y-108840065D01*
X184036980Y-108827886D01*
X184038220Y-108820057D01*
X184034059Y-108776038D01*
X184033500Y-108764181D01*
X184033500Y-105102524D01*
X184053502Y-105034403D01*
X184065858Y-105018221D01*
X184139040Y-104936944D01*
X184234527Y-104771556D01*
X184293542Y-104589928D01*
X184313504Y-104400000D01*
X184302749Y-104297670D01*
X184315521Y-104227832D01*
X184364023Y-104175985D01*
X184428059Y-104158500D01*
X193264629Y-104158500D01*
X193332750Y-104178502D01*
X193379243Y-104232158D01*
X193389347Y-104302432D01*
X193359853Y-104367012D01*
X193353724Y-104373595D01*
X192511089Y-105216230D01*
X192496677Y-105228616D01*
X192485082Y-105237149D01*
X192485077Y-105237154D01*
X192479182Y-105241492D01*
X192474443Y-105247070D01*
X192474440Y-105247073D01*
X192444965Y-105281768D01*
X192438035Y-105289284D01*
X192432340Y-105294979D01*
X192430060Y-105297861D01*
X192414719Y-105317251D01*
X192411928Y-105320655D01*
X192369409Y-105370703D01*
X192364667Y-105376285D01*
X192361339Y-105382803D01*
X192357975Y-105387846D01*
X192354805Y-105392979D01*
X192350266Y-105398716D01*
X192347168Y-105405344D01*
X192347167Y-105405346D01*
X192345897Y-105408064D01*
X192344587Y-105409524D01*
X192343321Y-105411574D01*
X192342952Y-105411346D01*
X192297115Y-105462433D01*
X192196683Y-105523377D01*
X192192653Y-105526874D01*
X192099484Y-105607722D01*
X192022555Y-105674477D01*
X192019168Y-105678608D01*
X191879760Y-105848627D01*
X191879756Y-105848633D01*
X191876376Y-105852755D01*
X191858448Y-105884250D01*
X191807368Y-105933555D01*
X191737738Y-105947417D01*
X191671667Y-105921434D01*
X191644427Y-105892284D01*
X191615035Y-105848627D01*
X191562559Y-105770681D01*
X191503918Y-105709209D01*
X191474725Y-105678608D01*
X191403424Y-105603865D01*
X191218458Y-105466246D01*
X191213707Y-105463830D01*
X191213703Y-105463828D01*
X191095588Y-105403776D01*
X191012949Y-105361760D01*
X191007855Y-105360178D01*
X191007852Y-105360177D01*
X190797871Y-105294976D01*
X190792773Y-105293393D01*
X190785153Y-105292383D01*
X190569511Y-105263802D01*
X190569506Y-105263802D01*
X190564226Y-105263102D01*
X190558897Y-105263302D01*
X190558895Y-105263302D01*
X190449034Y-105267427D01*
X190333842Y-105271751D01*
X190328623Y-105272846D01*
X190306566Y-105277474D01*
X190108209Y-105319093D01*
X190103250Y-105321051D01*
X190103248Y-105321052D01*
X189898744Y-105401815D01*
X189898742Y-105401816D01*
X189893779Y-105403776D01*
X189889220Y-105406543D01*
X189889217Y-105406544D01*
X189794113Y-105464255D01*
X189696683Y-105523377D01*
X189692653Y-105526874D01*
X189599484Y-105607722D01*
X189522555Y-105674477D01*
X189493330Y-105710120D01*
X189434671Y-105750114D01*
X189363701Y-105752046D01*
X189302952Y-105715302D01*
X189288752Y-105696532D01*
X189202332Y-105556880D01*
X189198478Y-105550652D01*
X189073303Y-105425695D01*
X189047069Y-105409524D01*
X188928968Y-105336725D01*
X188928966Y-105336724D01*
X188922738Y-105332885D01*
X188842995Y-105306436D01*
X188761389Y-105279368D01*
X188761387Y-105279368D01*
X188754861Y-105277203D01*
X188748025Y-105276503D01*
X188748022Y-105276502D01*
X188704969Y-105272091D01*
X188650400Y-105266500D01*
X187349600Y-105266500D01*
X187346354Y-105266837D01*
X187346350Y-105266837D01*
X187250692Y-105276762D01*
X187250688Y-105276763D01*
X187243834Y-105277474D01*
X187237298Y-105279655D01*
X187237296Y-105279655D01*
X187110260Y-105322038D01*
X187076054Y-105333450D01*
X186925652Y-105426522D01*
X186800695Y-105551697D01*
X186796855Y-105557927D01*
X186796854Y-105557928D01*
X186722466Y-105678608D01*
X186707885Y-105702262D01*
X186686472Y-105766822D01*
X186656432Y-105857390D01*
X186652203Y-105870139D01*
X186641500Y-105974600D01*
X186641500Y-107525400D01*
X186641837Y-107528646D01*
X186641837Y-107528650D01*
X186650875Y-107615752D01*
X186652474Y-107631166D01*
X186654655Y-107637702D01*
X186654655Y-107637704D01*
X186686405Y-107732870D01*
X186708450Y-107798946D01*
X186801522Y-107949348D01*
X186926697Y-108074305D01*
X186932927Y-108078145D01*
X186932928Y-108078146D01*
X187070090Y-108162694D01*
X187077262Y-108167115D01*
X187112938Y-108178948D01*
X187238611Y-108220632D01*
X187238613Y-108220632D01*
X187245139Y-108222797D01*
X187251975Y-108223497D01*
X187251978Y-108223498D01*
X187287663Y-108227154D01*
X187349600Y-108233500D01*
X188650400Y-108233500D01*
X188653646Y-108233163D01*
X188653650Y-108233163D01*
X188749308Y-108223238D01*
X188749312Y-108223237D01*
X188756166Y-108222526D01*
X188762702Y-108220345D01*
X188762704Y-108220345D01*
X188894806Y-108176272D01*
X188923946Y-108166550D01*
X189074348Y-108073478D01*
X189199305Y-107948303D01*
X189289081Y-107802660D01*
X189341852Y-107755168D01*
X189411924Y-107743744D01*
X189477048Y-107772018D01*
X189487510Y-107781805D01*
X189529215Y-107825523D01*
X189596576Y-107896135D01*
X189781542Y-108033754D01*
X189786293Y-108036170D01*
X189786297Y-108036172D01*
X189827920Y-108057334D01*
X189987051Y-108138240D01*
X189992145Y-108139822D01*
X189992148Y-108139823D01*
X190157583Y-108191192D01*
X190207227Y-108206607D01*
X190212516Y-108207308D01*
X190430489Y-108236198D01*
X190430494Y-108236198D01*
X190435774Y-108236898D01*
X190441103Y-108236698D01*
X190441105Y-108236698D01*
X190550966Y-108232573D01*
X190666158Y-108228249D01*
X190688802Y-108223498D01*
X190842772Y-108191192D01*
X190891791Y-108180907D01*
X190896750Y-108178949D01*
X190896752Y-108178948D01*
X191101256Y-108098185D01*
X191101258Y-108098184D01*
X191106221Y-108096224D01*
X191111525Y-108093006D01*
X191298757Y-107979390D01*
X191298756Y-107979390D01*
X191303317Y-107976623D01*
X191343134Y-107942072D01*
X191473412Y-107829023D01*
X191473414Y-107829021D01*
X191477445Y-107825523D01*
X191544500Y-107743744D01*
X191620240Y-107651373D01*
X191620244Y-107651367D01*
X191623624Y-107647245D01*
X191641552Y-107615750D01*
X191692632Y-107566445D01*
X191762262Y-107552583D01*
X191828333Y-107578566D01*
X191855573Y-107607716D01*
X191937441Y-107729319D01*
X192096576Y-107896135D01*
X192281542Y-108033754D01*
X192286293Y-108036170D01*
X192286297Y-108036172D01*
X192327920Y-108057334D01*
X192487051Y-108138240D01*
X192492145Y-108139822D01*
X192492148Y-108139823D01*
X192657583Y-108191192D01*
X192707227Y-108206607D01*
X192712516Y-108207308D01*
X192930489Y-108236198D01*
X192930494Y-108236198D01*
X192935774Y-108236898D01*
X192941103Y-108236698D01*
X192941105Y-108236698D01*
X193050966Y-108232573D01*
X193166158Y-108228249D01*
X193188802Y-108223498D01*
X193342772Y-108191192D01*
X193391791Y-108180907D01*
X193396750Y-108178949D01*
X193396752Y-108178948D01*
X193601256Y-108098185D01*
X193601258Y-108098184D01*
X193606221Y-108096224D01*
X193611525Y-108093006D01*
X193798757Y-107979390D01*
X193798756Y-107979390D01*
X193803317Y-107976623D01*
X193843134Y-107942072D01*
X193973412Y-107829023D01*
X193973414Y-107829021D01*
X193977445Y-107825523D01*
X194044500Y-107743744D01*
X194120240Y-107651373D01*
X194120244Y-107651367D01*
X194123624Y-107647245D01*
X194136681Y-107624308D01*
X194141829Y-107615265D01*
X194192912Y-107565959D01*
X194262542Y-107552098D01*
X194328613Y-107578082D01*
X194355851Y-107607232D01*
X194434852Y-107724578D01*
X194441519Y-107732870D01*
X194593228Y-107891900D01*
X194601186Y-107898941D01*
X194777525Y-108030141D01*
X194786562Y-108035745D01*
X194982484Y-108135357D01*
X194992335Y-108139357D01*
X195202240Y-108204534D01*
X195212624Y-108206817D01*
X195228043Y-108208861D01*
X195242207Y-108206665D01*
X195246000Y-108193478D01*
X195246000Y-105308808D01*
X195242027Y-105295277D01*
X195231420Y-105293752D01*
X195113579Y-105318477D01*
X195103383Y-105321537D01*
X194898971Y-105402263D01*
X194889439Y-105406994D01*
X194705104Y-105518852D01*
X194636490Y-105537091D01*
X194568908Y-105515340D01*
X194523813Y-105460504D01*
X194515524Y-105389992D01*
X194550643Y-105322038D01*
X195677276Y-104195405D01*
X195739588Y-104161379D01*
X195766371Y-104158500D01*
X196014775Y-104158500D01*
X196082896Y-104178502D01*
X196129389Y-104232158D01*
X196139493Y-104302432D01*
X196134608Y-104323436D01*
X196106458Y-104410072D01*
X196086496Y-104600000D01*
X196087186Y-104606565D01*
X196105129Y-104777279D01*
X196106458Y-104789928D01*
X196165473Y-104971556D01*
X196260960Y-105136944D01*
X196334137Y-105218215D01*
X196364853Y-105282221D01*
X196366500Y-105302524D01*
X196366500Y-105336664D01*
X196346498Y-105404785D01*
X196292842Y-105451278D01*
X196222568Y-105461382D01*
X196183395Y-105448981D01*
X196017515Y-105364643D01*
X196007665Y-105360643D01*
X195797760Y-105295466D01*
X195787376Y-105293183D01*
X195771957Y-105291139D01*
X195757793Y-105293335D01*
X195754000Y-105306522D01*
X195754000Y-108191192D01*
X195757973Y-108204723D01*
X195768580Y-108206248D01*
X195886421Y-108181523D01*
X195896617Y-108178463D01*
X196101029Y-108097737D01*
X196110561Y-108093006D01*
X196175134Y-108053822D01*
X196243748Y-108035583D01*
X196311331Y-108057334D01*
X196356425Y-108112171D01*
X196366500Y-108161541D01*
X196366500Y-108485405D01*
X196346498Y-108553526D01*
X196329595Y-108574500D01*
X195849500Y-109054595D01*
X195787188Y-109088621D01*
X195760405Y-109091500D01*
X195704513Y-109091500D01*
X195698061Y-109092872D01*
X195698056Y-109092872D01*
X195611112Y-109111353D01*
X195517712Y-109131206D01*
X195511682Y-109133891D01*
X195511681Y-109133891D01*
X195349278Y-109206197D01*
X195349276Y-109206198D01*
X195343248Y-109208882D01*
X195188747Y-109321134D01*
X195060960Y-109463056D01*
X194965473Y-109628444D01*
X194906458Y-109810072D01*
X194886496Y-110000000D01*
X194906458Y-110189928D01*
X194965473Y-110371556D01*
X195060960Y-110536944D01*
X195188747Y-110678866D01*
X195343248Y-110791118D01*
X195349276Y-110793802D01*
X195349278Y-110793803D01*
X195511681Y-110866109D01*
X195517712Y-110868794D01*
X195611113Y-110888647D01*
X195698056Y-110907128D01*
X195698061Y-110907128D01*
X195704513Y-110908500D01*
X195895487Y-110908500D01*
X195901939Y-110907128D01*
X195901944Y-110907128D01*
X195988887Y-110888647D01*
X196082288Y-110868794D01*
X196088319Y-110866109D01*
X196250722Y-110793803D01*
X196250724Y-110793802D01*
X196256752Y-110791118D01*
X196411253Y-110678866D01*
X196539040Y-110536944D01*
X196634527Y-110371556D01*
X196693542Y-110189928D01*
X196710907Y-110024706D01*
X196737920Y-109959050D01*
X196747122Y-109948782D01*
X197392247Y-109303657D01*
X197400537Y-109296113D01*
X197407018Y-109292000D01*
X197453659Y-109242332D01*
X197456413Y-109239491D01*
X197476134Y-109219770D01*
X197478612Y-109216575D01*
X197486318Y-109207553D01*
X197511158Y-109181101D01*
X197516586Y-109175321D01*
X197526346Y-109157568D01*
X197537199Y-109141045D01*
X197544753Y-109131306D01*
X197549613Y-109125041D01*
X197567176Y-109084457D01*
X197572383Y-109073827D01*
X197593695Y-109035060D01*
X197595666Y-109027383D01*
X197595668Y-109027378D01*
X197598732Y-109015442D01*
X197605138Y-108996730D01*
X197610033Y-108985419D01*
X197613181Y-108978145D01*
X197614421Y-108970317D01*
X197614423Y-108970310D01*
X197620099Y-108934476D01*
X197622505Y-108922856D01*
X197631528Y-108887711D01*
X197631528Y-108887710D01*
X197633500Y-108880030D01*
X197633500Y-108859776D01*
X197635051Y-108840065D01*
X197636980Y-108827886D01*
X197638220Y-108820057D01*
X197634059Y-108776038D01*
X197633500Y-108764181D01*
X197633500Y-105302524D01*
X197653502Y-105234403D01*
X197665858Y-105218221D01*
X197739040Y-105136944D01*
X197834527Y-104971556D01*
X197893542Y-104789928D01*
X197894872Y-104777279D01*
X197912814Y-104606565D01*
X197913504Y-104600000D01*
X197893542Y-104410072D01*
X197865392Y-104323436D01*
X197863364Y-104252469D01*
X197900027Y-104191671D01*
X197963739Y-104160345D01*
X197985225Y-104158500D01*
X206864629Y-104158500D01*
X206932750Y-104178502D01*
X206979243Y-104232158D01*
X206989347Y-104302432D01*
X206959853Y-104367012D01*
X206953724Y-104373595D01*
X206011089Y-105316230D01*
X205996677Y-105328616D01*
X205985082Y-105337149D01*
X205985077Y-105337154D01*
X205979182Y-105341492D01*
X205974441Y-105347073D01*
X205963088Y-105360436D01*
X205913345Y-105396049D01*
X205898744Y-105401815D01*
X205898742Y-105401816D01*
X205893779Y-105403776D01*
X205889220Y-105406543D01*
X205889217Y-105406544D01*
X205794113Y-105464255D01*
X205696683Y-105523377D01*
X205692653Y-105526874D01*
X205599484Y-105607722D01*
X205522555Y-105674477D01*
X205519168Y-105678608D01*
X205379760Y-105848627D01*
X205379756Y-105848633D01*
X205376376Y-105852755D01*
X205358448Y-105884250D01*
X205307368Y-105933555D01*
X205237738Y-105947417D01*
X205171667Y-105921434D01*
X205144427Y-105892284D01*
X205115035Y-105848627D01*
X205062559Y-105770681D01*
X205003918Y-105709209D01*
X204974725Y-105678608D01*
X204903424Y-105603865D01*
X204718458Y-105466246D01*
X204713707Y-105463830D01*
X204713703Y-105463828D01*
X204595588Y-105403776D01*
X204512949Y-105361760D01*
X204507855Y-105360178D01*
X204507852Y-105360177D01*
X204297871Y-105294976D01*
X204292773Y-105293393D01*
X204285153Y-105292383D01*
X204069511Y-105263802D01*
X204069506Y-105263802D01*
X204064226Y-105263102D01*
X204058897Y-105263302D01*
X204058895Y-105263302D01*
X203949034Y-105267427D01*
X203833842Y-105271751D01*
X203828623Y-105272846D01*
X203806566Y-105277474D01*
X203608209Y-105319093D01*
X203603250Y-105321051D01*
X203603248Y-105321052D01*
X203398744Y-105401815D01*
X203398742Y-105401816D01*
X203393779Y-105403776D01*
X203389220Y-105406543D01*
X203389217Y-105406544D01*
X203294113Y-105464255D01*
X203196683Y-105523377D01*
X203192653Y-105526874D01*
X203099484Y-105607722D01*
X203022555Y-105674477D01*
X202993330Y-105710120D01*
X202934671Y-105750114D01*
X202863701Y-105752046D01*
X202802952Y-105715302D01*
X202788752Y-105696532D01*
X202702332Y-105556880D01*
X202698478Y-105550652D01*
X202573303Y-105425695D01*
X202547069Y-105409524D01*
X202428968Y-105336725D01*
X202428966Y-105336724D01*
X202422738Y-105332885D01*
X202342995Y-105306436D01*
X202261389Y-105279368D01*
X202261387Y-105279368D01*
X202254861Y-105277203D01*
X202248025Y-105276503D01*
X202248022Y-105276502D01*
X202204969Y-105272091D01*
X202150400Y-105266500D01*
X200849600Y-105266500D01*
X200846354Y-105266837D01*
X200846350Y-105266837D01*
X200750692Y-105276762D01*
X200750688Y-105276763D01*
X200743834Y-105277474D01*
X200737298Y-105279655D01*
X200737296Y-105279655D01*
X200610260Y-105322038D01*
X200576054Y-105333450D01*
X200425652Y-105426522D01*
X200300695Y-105551697D01*
X200296855Y-105557927D01*
X200296854Y-105557928D01*
X200222466Y-105678608D01*
X200207885Y-105702262D01*
X200186472Y-105766822D01*
X200156432Y-105857390D01*
X200152203Y-105870139D01*
X200141500Y-105974600D01*
X200141500Y-107525400D01*
X200141837Y-107528646D01*
X200141837Y-107528650D01*
X200150875Y-107615752D01*
X200152474Y-107631166D01*
X200154655Y-107637702D01*
X200154655Y-107637704D01*
X200186405Y-107732870D01*
X200208450Y-107798946D01*
X200301522Y-107949348D01*
X200426697Y-108074305D01*
X200432927Y-108078145D01*
X200432928Y-108078146D01*
X200570090Y-108162694D01*
X200577262Y-108167115D01*
X200612938Y-108178948D01*
X200738611Y-108220632D01*
X200738613Y-108220632D01*
X200745139Y-108222797D01*
X200751975Y-108223497D01*
X200751978Y-108223498D01*
X200787663Y-108227154D01*
X200849600Y-108233500D01*
X202150400Y-108233500D01*
X202153646Y-108233163D01*
X202153650Y-108233163D01*
X202249308Y-108223238D01*
X202249312Y-108223237D01*
X202256166Y-108222526D01*
X202262702Y-108220345D01*
X202262704Y-108220345D01*
X202394806Y-108176272D01*
X202423946Y-108166550D01*
X202574348Y-108073478D01*
X202699305Y-107948303D01*
X202789081Y-107802660D01*
X202841852Y-107755168D01*
X202911924Y-107743744D01*
X202977048Y-107772018D01*
X202987510Y-107781805D01*
X203029215Y-107825523D01*
X203096576Y-107896135D01*
X203281542Y-108033754D01*
X203286293Y-108036170D01*
X203286297Y-108036172D01*
X203327920Y-108057334D01*
X203487051Y-108138240D01*
X203492145Y-108139822D01*
X203492148Y-108139823D01*
X203657583Y-108191192D01*
X203707227Y-108206607D01*
X203712516Y-108207308D01*
X203930489Y-108236198D01*
X203930494Y-108236198D01*
X203935774Y-108236898D01*
X203941103Y-108236698D01*
X203941105Y-108236698D01*
X204050966Y-108232573D01*
X204166158Y-108228249D01*
X204188802Y-108223498D01*
X204342772Y-108191192D01*
X204391791Y-108180907D01*
X204396750Y-108178949D01*
X204396752Y-108178948D01*
X204601256Y-108098185D01*
X204601258Y-108098184D01*
X204606221Y-108096224D01*
X204611525Y-108093006D01*
X204798757Y-107979390D01*
X204798756Y-107979390D01*
X204803317Y-107976623D01*
X204843134Y-107942072D01*
X204973412Y-107829023D01*
X204973414Y-107829021D01*
X204977445Y-107825523D01*
X205044500Y-107743744D01*
X205120240Y-107651373D01*
X205120244Y-107651367D01*
X205123624Y-107647245D01*
X205141552Y-107615750D01*
X205192632Y-107566445D01*
X205262262Y-107552583D01*
X205328333Y-107578566D01*
X205355573Y-107607716D01*
X205437441Y-107729319D01*
X205596576Y-107896135D01*
X205781542Y-108033754D01*
X205786293Y-108036170D01*
X205786297Y-108036172D01*
X205827920Y-108057334D01*
X205987051Y-108138240D01*
X205992145Y-108139822D01*
X205992148Y-108139823D01*
X206157583Y-108191192D01*
X206207227Y-108206607D01*
X206212516Y-108207308D01*
X206430489Y-108236198D01*
X206430494Y-108236198D01*
X206435774Y-108236898D01*
X206441103Y-108236698D01*
X206441105Y-108236698D01*
X206550966Y-108232573D01*
X206666158Y-108228249D01*
X206688802Y-108223498D01*
X206842772Y-108191192D01*
X206891791Y-108180907D01*
X206896750Y-108178949D01*
X206896752Y-108178948D01*
X207101256Y-108098185D01*
X207101258Y-108098184D01*
X207106221Y-108096224D01*
X207111525Y-108093006D01*
X207298757Y-107979390D01*
X207298756Y-107979390D01*
X207303317Y-107976623D01*
X207343134Y-107942072D01*
X207473412Y-107829023D01*
X207473414Y-107829021D01*
X207477445Y-107825523D01*
X207544500Y-107743744D01*
X207620240Y-107651373D01*
X207620244Y-107651367D01*
X207623624Y-107647245D01*
X207636681Y-107624308D01*
X207641829Y-107615265D01*
X207692912Y-107565959D01*
X207762542Y-107552098D01*
X207828613Y-107578082D01*
X207855851Y-107607232D01*
X207934852Y-107724578D01*
X207941519Y-107732870D01*
X208093228Y-107891900D01*
X208101186Y-107898941D01*
X208277525Y-108030141D01*
X208286562Y-108035745D01*
X208482484Y-108135357D01*
X208492335Y-108139357D01*
X208702240Y-108204534D01*
X208712624Y-108206817D01*
X208728043Y-108208861D01*
X208742207Y-108206665D01*
X208746000Y-108193478D01*
X208746000Y-105308808D01*
X208742027Y-105295277D01*
X208731420Y-105293752D01*
X208613579Y-105318477D01*
X208603383Y-105321537D01*
X208420638Y-105393706D01*
X208349932Y-105400124D01*
X208286981Y-105367296D01*
X208251771Y-105305646D01*
X208255481Y-105234746D01*
X208285262Y-105187419D01*
X209277276Y-104195405D01*
X209339588Y-104161379D01*
X209366371Y-104158500D01*
X209614775Y-104158500D01*
X209682896Y-104178502D01*
X209729389Y-104232158D01*
X209739493Y-104302432D01*
X209734608Y-104323436D01*
X209706458Y-104410072D01*
X209686496Y-104600000D01*
X209687186Y-104606565D01*
X209705129Y-104777279D01*
X209706458Y-104789928D01*
X209765473Y-104971556D01*
X209860960Y-105136944D01*
X209934137Y-105218215D01*
X209964853Y-105282221D01*
X209966500Y-105302524D01*
X209966500Y-105400623D01*
X209946498Y-105468744D01*
X209892842Y-105515237D01*
X209822568Y-105525341D01*
X209765287Y-105501712D01*
X209722475Y-105469859D01*
X209713438Y-105464255D01*
X209517516Y-105364643D01*
X209507665Y-105360643D01*
X209297760Y-105295466D01*
X209287376Y-105293183D01*
X209271957Y-105291139D01*
X209257793Y-105293335D01*
X209254000Y-105306522D01*
X209254000Y-108191192D01*
X209257973Y-108204723D01*
X209268580Y-108206248D01*
X209386421Y-108181523D01*
X209396617Y-108178463D01*
X209601029Y-108097737D01*
X209610561Y-108093006D01*
X209775134Y-107993140D01*
X209843748Y-107974901D01*
X209911330Y-107996652D01*
X209956425Y-108051489D01*
X209966500Y-108100859D01*
X209966500Y-108285405D01*
X209946498Y-108353526D01*
X209929595Y-108374501D01*
X209249499Y-109054596D01*
X209187187Y-109088621D01*
X209160404Y-109091500D01*
X209104513Y-109091500D01*
X209098061Y-109092872D01*
X209098056Y-109092872D01*
X209011112Y-109111353D01*
X208917712Y-109131206D01*
X208911682Y-109133891D01*
X208911681Y-109133891D01*
X208749278Y-109206197D01*
X208749276Y-109206198D01*
X208743248Y-109208882D01*
X208588747Y-109321134D01*
X208460960Y-109463056D01*
X208365473Y-109628444D01*
X208306458Y-109810072D01*
X208286496Y-110000000D01*
X208306458Y-110189928D01*
X208365473Y-110371556D01*
X208460960Y-110536944D01*
X208588747Y-110678866D01*
X208743248Y-110791118D01*
X208749276Y-110793802D01*
X208749278Y-110793803D01*
X208911681Y-110866109D01*
X208917712Y-110868794D01*
X209011113Y-110888647D01*
X209098056Y-110907128D01*
X209098061Y-110907128D01*
X209104513Y-110908500D01*
X209295487Y-110908500D01*
X209301939Y-110907128D01*
X209301944Y-110907128D01*
X209388887Y-110888647D01*
X209482288Y-110868794D01*
X209488319Y-110866109D01*
X209650722Y-110793803D01*
X209650724Y-110793802D01*
X209656752Y-110791118D01*
X209811253Y-110678866D01*
X209939040Y-110536944D01*
X210034527Y-110371556D01*
X210093542Y-110189928D01*
X210110907Y-110024707D01*
X210137920Y-109959051D01*
X210147122Y-109948782D01*
X210992258Y-109103647D01*
X211000537Y-109096113D01*
X211007018Y-109092000D01*
X211053644Y-109042348D01*
X211056398Y-109039507D01*
X211076135Y-109019770D01*
X211078615Y-109016573D01*
X211086320Y-109007551D01*
X211111159Y-108981100D01*
X211116586Y-108975321D01*
X211120405Y-108968375D01*
X211120407Y-108968372D01*
X211126348Y-108957566D01*
X211137199Y-108941047D01*
X211137559Y-108940583D01*
X211149614Y-108925041D01*
X211152759Y-108917772D01*
X211152762Y-108917768D01*
X211167174Y-108884463D01*
X211172391Y-108873813D01*
X211193695Y-108835060D01*
X211198733Y-108815437D01*
X211205137Y-108796734D01*
X211210033Y-108785420D01*
X211210033Y-108785419D01*
X211213181Y-108778145D01*
X211214420Y-108770322D01*
X211214423Y-108770312D01*
X211220099Y-108734476D01*
X211222505Y-108722856D01*
X211231528Y-108687711D01*
X211231528Y-108687710D01*
X211233500Y-108680030D01*
X211233500Y-108659776D01*
X211235051Y-108640065D01*
X211236980Y-108627886D01*
X211238220Y-108620057D01*
X211234059Y-108576038D01*
X211233500Y-108564181D01*
X211233500Y-105302524D01*
X211253502Y-105234403D01*
X211265858Y-105218221D01*
X211339040Y-105136944D01*
X211434527Y-104971556D01*
X211493542Y-104789928D01*
X211494872Y-104777279D01*
X211512814Y-104606565D01*
X211513504Y-104600000D01*
X211493542Y-104410072D01*
X211465392Y-104323436D01*
X211463364Y-104252469D01*
X211500027Y-104191671D01*
X211563739Y-104160345D01*
X211585225Y-104158500D01*
X220264629Y-104158500D01*
X220332750Y-104178502D01*
X220379243Y-104232158D01*
X220389347Y-104302432D01*
X220359853Y-104367012D01*
X220353724Y-104373595D01*
X219511089Y-105216230D01*
X219496677Y-105228616D01*
X219485082Y-105237149D01*
X219485077Y-105237154D01*
X219479182Y-105241492D01*
X219474443Y-105247070D01*
X219474440Y-105247073D01*
X219444965Y-105281768D01*
X219438035Y-105289284D01*
X219432340Y-105294979D01*
X219430060Y-105297861D01*
X219414719Y-105317251D01*
X219411928Y-105320655D01*
X219369409Y-105370703D01*
X219364667Y-105376285D01*
X219361339Y-105382803D01*
X219357975Y-105387846D01*
X219354805Y-105392979D01*
X219350266Y-105398716D01*
X219347168Y-105405344D01*
X219347167Y-105405346D01*
X219345897Y-105408064D01*
X219344587Y-105409524D01*
X219343321Y-105411574D01*
X219342952Y-105411346D01*
X219297115Y-105462433D01*
X219196683Y-105523377D01*
X219192653Y-105526874D01*
X219099484Y-105607722D01*
X219022555Y-105674477D01*
X219019168Y-105678608D01*
X218879760Y-105848627D01*
X218879756Y-105848633D01*
X218876376Y-105852755D01*
X218858448Y-105884250D01*
X218807368Y-105933555D01*
X218737738Y-105947417D01*
X218671667Y-105921434D01*
X218644427Y-105892284D01*
X218615035Y-105848627D01*
X218562559Y-105770681D01*
X218503918Y-105709209D01*
X218474725Y-105678608D01*
X218403424Y-105603865D01*
X218218458Y-105466246D01*
X218213707Y-105463830D01*
X218213703Y-105463828D01*
X218095588Y-105403776D01*
X218012949Y-105361760D01*
X218007855Y-105360178D01*
X218007852Y-105360177D01*
X217797871Y-105294976D01*
X217792773Y-105293393D01*
X217785153Y-105292383D01*
X217569511Y-105263802D01*
X217569506Y-105263802D01*
X217564226Y-105263102D01*
X217558897Y-105263302D01*
X217558895Y-105263302D01*
X217449034Y-105267427D01*
X217333842Y-105271751D01*
X217328623Y-105272846D01*
X217306566Y-105277474D01*
X217108209Y-105319093D01*
X217103250Y-105321051D01*
X217103248Y-105321052D01*
X216898744Y-105401815D01*
X216898742Y-105401816D01*
X216893779Y-105403776D01*
X216889220Y-105406543D01*
X216889217Y-105406544D01*
X216794113Y-105464255D01*
X216696683Y-105523377D01*
X216692653Y-105526874D01*
X216599484Y-105607722D01*
X216522555Y-105674477D01*
X216493330Y-105710120D01*
X216434671Y-105750114D01*
X216363701Y-105752046D01*
X216302952Y-105715302D01*
X216288752Y-105696532D01*
X216202332Y-105556880D01*
X216198478Y-105550652D01*
X216073303Y-105425695D01*
X216047069Y-105409524D01*
X215928968Y-105336725D01*
X215928966Y-105336724D01*
X215922738Y-105332885D01*
X215842995Y-105306436D01*
X215761389Y-105279368D01*
X215761387Y-105279368D01*
X215754861Y-105277203D01*
X215748025Y-105276503D01*
X215748022Y-105276502D01*
X215704969Y-105272091D01*
X215650400Y-105266500D01*
X214349600Y-105266500D01*
X214346354Y-105266837D01*
X214346350Y-105266837D01*
X214250692Y-105276762D01*
X214250688Y-105276763D01*
X214243834Y-105277474D01*
X214237298Y-105279655D01*
X214237296Y-105279655D01*
X214110260Y-105322038D01*
X214076054Y-105333450D01*
X213925652Y-105426522D01*
X213800695Y-105551697D01*
X213796855Y-105557927D01*
X213796854Y-105557928D01*
X213722466Y-105678608D01*
X213707885Y-105702262D01*
X213686472Y-105766822D01*
X213656432Y-105857390D01*
X213652203Y-105870139D01*
X213641500Y-105974600D01*
X213641500Y-107525400D01*
X213641837Y-107528646D01*
X213641837Y-107528650D01*
X213650875Y-107615752D01*
X213652474Y-107631166D01*
X213654655Y-107637702D01*
X213654655Y-107637704D01*
X213686405Y-107732870D01*
X213708450Y-107798946D01*
X213801522Y-107949348D01*
X213926697Y-108074305D01*
X213932927Y-108078145D01*
X213932928Y-108078146D01*
X214070090Y-108162694D01*
X214077262Y-108167115D01*
X214112938Y-108178948D01*
X214238611Y-108220632D01*
X214238613Y-108220632D01*
X214245139Y-108222797D01*
X214251975Y-108223497D01*
X214251978Y-108223498D01*
X214287663Y-108227154D01*
X214349600Y-108233500D01*
X215650400Y-108233500D01*
X215653646Y-108233163D01*
X215653650Y-108233163D01*
X215749308Y-108223238D01*
X215749312Y-108223237D01*
X215756166Y-108222526D01*
X215762702Y-108220345D01*
X215762704Y-108220345D01*
X215894806Y-108176272D01*
X215923946Y-108166550D01*
X216074348Y-108073478D01*
X216199305Y-107948303D01*
X216289081Y-107802660D01*
X216341852Y-107755168D01*
X216411924Y-107743744D01*
X216477048Y-107772018D01*
X216487510Y-107781805D01*
X216529215Y-107825523D01*
X216596576Y-107896135D01*
X216781542Y-108033754D01*
X216786293Y-108036170D01*
X216786297Y-108036172D01*
X216827920Y-108057334D01*
X216987051Y-108138240D01*
X216992145Y-108139822D01*
X216992148Y-108139823D01*
X217157583Y-108191192D01*
X217207227Y-108206607D01*
X217212516Y-108207308D01*
X217430489Y-108236198D01*
X217430494Y-108236198D01*
X217435774Y-108236898D01*
X217441103Y-108236698D01*
X217441105Y-108236698D01*
X217550966Y-108232573D01*
X217666158Y-108228249D01*
X217688802Y-108223498D01*
X217842772Y-108191192D01*
X217891791Y-108180907D01*
X217896750Y-108178949D01*
X217896752Y-108178948D01*
X218101256Y-108098185D01*
X218101258Y-108098184D01*
X218106221Y-108096224D01*
X218111525Y-108093006D01*
X218298757Y-107979390D01*
X218298756Y-107979390D01*
X218303317Y-107976623D01*
X218343134Y-107942072D01*
X218473412Y-107829023D01*
X218473414Y-107829021D01*
X218477445Y-107825523D01*
X218544500Y-107743744D01*
X218620240Y-107651373D01*
X218620244Y-107651367D01*
X218623624Y-107647245D01*
X218641552Y-107615750D01*
X218692632Y-107566445D01*
X218762262Y-107552583D01*
X218828333Y-107578566D01*
X218855573Y-107607716D01*
X218937441Y-107729319D01*
X219096576Y-107896135D01*
X219281542Y-108033754D01*
X219286293Y-108036170D01*
X219286297Y-108036172D01*
X219327920Y-108057334D01*
X219487051Y-108138240D01*
X219492145Y-108139822D01*
X219492148Y-108139823D01*
X219657583Y-108191192D01*
X219707227Y-108206607D01*
X219712516Y-108207308D01*
X219930489Y-108236198D01*
X219930494Y-108236198D01*
X219935774Y-108236898D01*
X219941103Y-108236698D01*
X219941105Y-108236698D01*
X220050966Y-108232573D01*
X220166158Y-108228249D01*
X220188802Y-108223498D01*
X220342772Y-108191192D01*
X220391791Y-108180907D01*
X220396750Y-108178949D01*
X220396752Y-108178948D01*
X220601256Y-108098185D01*
X220601258Y-108098184D01*
X220606221Y-108096224D01*
X220611525Y-108093006D01*
X220798757Y-107979390D01*
X220798756Y-107979390D01*
X220803317Y-107976623D01*
X220843134Y-107942072D01*
X220973412Y-107829023D01*
X220973414Y-107829021D01*
X220977445Y-107825523D01*
X221044500Y-107743744D01*
X221120240Y-107651373D01*
X221120244Y-107651367D01*
X221123624Y-107647245D01*
X221136681Y-107624308D01*
X221141829Y-107615265D01*
X221192912Y-107565959D01*
X221262542Y-107552098D01*
X221328613Y-107578082D01*
X221355851Y-107607232D01*
X221434852Y-107724578D01*
X221441519Y-107732870D01*
X221593228Y-107891900D01*
X221601186Y-107898941D01*
X221777525Y-108030141D01*
X221786562Y-108035745D01*
X221982484Y-108135357D01*
X221992335Y-108139357D01*
X222202240Y-108204534D01*
X222212624Y-108206817D01*
X222228043Y-108208861D01*
X222242207Y-108206665D01*
X222246000Y-108193478D01*
X222246000Y-108191192D01*
X222754000Y-108191192D01*
X222757973Y-108204723D01*
X222768580Y-108206248D01*
X222886421Y-108181523D01*
X222896617Y-108178463D01*
X223101029Y-108097737D01*
X223110561Y-108093006D01*
X223298462Y-107978984D01*
X223307052Y-107972720D01*
X223473052Y-107828673D01*
X223480472Y-107821042D01*
X223619826Y-107651089D01*
X223625850Y-107642322D01*
X223734576Y-107451318D01*
X223739041Y-107441654D01*
X223814031Y-107235059D01*
X223816802Y-107224792D01*
X223853504Y-107021826D01*
X223852085Y-107008586D01*
X223837450Y-107004000D01*
X222772115Y-107004000D01*
X222756876Y-107008475D01*
X222755671Y-107009865D01*
X222754000Y-107017548D01*
X222754000Y-108191192D01*
X222246000Y-108191192D01*
X222246000Y-106477885D01*
X222754000Y-106477885D01*
X222758475Y-106493124D01*
X222759865Y-106494329D01*
X222767548Y-106496000D01*
X223833849Y-106496000D01*
X223848527Y-106491690D01*
X223850590Y-106479807D01*
X223843876Y-106400675D01*
X223842086Y-106390203D01*
X223786870Y-106177465D01*
X223783335Y-106167425D01*
X223693063Y-105967030D01*
X223687894Y-105957744D01*
X223565150Y-105775425D01*
X223558481Y-105767130D01*
X223406772Y-105608100D01*
X223398814Y-105601059D01*
X223222475Y-105469859D01*
X223213438Y-105464255D01*
X223017516Y-105364643D01*
X223007665Y-105360643D01*
X222797760Y-105295466D01*
X222787376Y-105293183D01*
X222771957Y-105291139D01*
X222757793Y-105293335D01*
X222754000Y-105306522D01*
X222754000Y-106477885D01*
X222246000Y-106477885D01*
X222246000Y-105308808D01*
X222242027Y-105295277D01*
X222231420Y-105293752D01*
X222113579Y-105318477D01*
X222103383Y-105321537D01*
X221898971Y-105402263D01*
X221889439Y-105406994D01*
X221705104Y-105518852D01*
X221636490Y-105537091D01*
X221568908Y-105515340D01*
X221523813Y-105460504D01*
X221515524Y-105389992D01*
X221550643Y-105322038D01*
X222677276Y-104195405D01*
X222739588Y-104161379D01*
X222766371Y-104158500D01*
X223132930Y-104158500D01*
X223151880Y-104159933D01*
X223166115Y-104162099D01*
X223166119Y-104162099D01*
X223173349Y-104163199D01*
X223180641Y-104162606D01*
X223180644Y-104162606D01*
X223226018Y-104158915D01*
X223236233Y-104158500D01*
X223244293Y-104158500D01*
X223257583Y-104156951D01*
X223272507Y-104155211D01*
X223276882Y-104154778D01*
X223342339Y-104149454D01*
X223342342Y-104149453D01*
X223349637Y-104148860D01*
X223356601Y-104146604D01*
X223362560Y-104145413D01*
X223368415Y-104144029D01*
X223375681Y-104143182D01*
X223444327Y-104118265D01*
X223448455Y-104116848D01*
X223510936Y-104096607D01*
X223510938Y-104096606D01*
X223517899Y-104094351D01*
X223524154Y-104090555D01*
X223529628Y-104088049D01*
X223535058Y-104085330D01*
X223541937Y-104082833D01*
X223602976Y-104042814D01*
X223606680Y-104040477D01*
X223669107Y-104002595D01*
X223677484Y-103995197D01*
X223677508Y-103995224D01*
X223680500Y-103992571D01*
X223683733Y-103989868D01*
X223689852Y-103985856D01*
X223743128Y-103929617D01*
X223745506Y-103927175D01*
X229088911Y-98583770D01*
X229103323Y-98571384D01*
X229114918Y-98562851D01*
X229114923Y-98562846D01*
X229120818Y-98558508D01*
X229125557Y-98552930D01*
X229125560Y-98552927D01*
X229155035Y-98518232D01*
X229161965Y-98510716D01*
X229167660Y-98505021D01*
X229174361Y-98496551D01*
X229185281Y-98482749D01*
X229188072Y-98479345D01*
X229230591Y-98429297D01*
X229230592Y-98429295D01*
X229235333Y-98423715D01*
X229238661Y-98417199D01*
X229242028Y-98412150D01*
X229245195Y-98407021D01*
X229249734Y-98401284D01*
X229280655Y-98335125D01*
X229282561Y-98331225D01*
X229282715Y-98330923D01*
X229315769Y-98266192D01*
X229317508Y-98259084D01*
X229319607Y-98253441D01*
X229321524Y-98247678D01*
X229324622Y-98241050D01*
X229339487Y-98169583D01*
X229340457Y-98165299D01*
X229350662Y-98123595D01*
X229357808Y-98094390D01*
X229358500Y-98083236D01*
X229358536Y-98083238D01*
X229358775Y-98079245D01*
X229359149Y-98075053D01*
X229360640Y-98067885D01*
X229358546Y-97990468D01*
X229358500Y-97987072D01*
X229358500Y-67631069D01*
X229359933Y-67612118D01*
X229362099Y-67597883D01*
X229362099Y-67597881D01*
X229363199Y-67590651D01*
X229362120Y-67577377D01*
X229358915Y-67537982D01*
X229358500Y-67527767D01*
X229358500Y-67519707D01*
X229355211Y-67491493D01*
X229354778Y-67487118D01*
X229349454Y-67421661D01*
X229349453Y-67421658D01*
X229348860Y-67414363D01*
X229346604Y-67407399D01*
X229345413Y-67401440D01*
X229344029Y-67395585D01*
X229343182Y-67388319D01*
X229318265Y-67319673D01*
X229316848Y-67315545D01*
X229296607Y-67253064D01*
X229296606Y-67253062D01*
X229294351Y-67246101D01*
X229290555Y-67239846D01*
X229288049Y-67234372D01*
X229285330Y-67228942D01*
X229282833Y-67222063D01*
X229242809Y-67161016D01*
X229240472Y-67157312D01*
X229205509Y-67099693D01*
X229205505Y-67099688D01*
X229202595Y-67094892D01*
X229195197Y-67086516D01*
X229195223Y-67086493D01*
X229192574Y-67083503D01*
X229189866Y-67080264D01*
X229185856Y-67074148D01*
X229180549Y-67069121D01*
X229180546Y-67069117D01*
X229129617Y-67020872D01*
X229127175Y-67018494D01*
X227913770Y-65805089D01*
X227901384Y-65790677D01*
X227892851Y-65779082D01*
X227892846Y-65779077D01*
X227888508Y-65773182D01*
X227882930Y-65768443D01*
X227882927Y-65768440D01*
X227848232Y-65738965D01*
X227840716Y-65732035D01*
X227835021Y-65726340D01*
X227828880Y-65721482D01*
X227812749Y-65708719D01*
X227809345Y-65705928D01*
X227759297Y-65663409D01*
X227759295Y-65663408D01*
X227753715Y-65658667D01*
X227747199Y-65655339D01*
X227742150Y-65651972D01*
X227737021Y-65648805D01*
X227731284Y-65644266D01*
X227665125Y-65613345D01*
X227661225Y-65611439D01*
X227596192Y-65578231D01*
X227589084Y-65576492D01*
X227583441Y-65574393D01*
X227577678Y-65572476D01*
X227571050Y-65569378D01*
X227499583Y-65554513D01*
X227495299Y-65553543D01*
X227424390Y-65536192D01*
X227418788Y-65535844D01*
X227418785Y-65535844D01*
X227413236Y-65535500D01*
X227413238Y-65535464D01*
X227409245Y-65535225D01*
X227405053Y-65534851D01*
X227397885Y-65533360D01*
X227331675Y-65535151D01*
X227320479Y-65535454D01*
X227317072Y-65535500D01*
X219060371Y-65535500D01*
X218992250Y-65515498D01*
X218971276Y-65498595D01*
X217041405Y-63568724D01*
X217007379Y-63506412D01*
X217004500Y-63479629D01*
X217004500Y-62616703D01*
X224966743Y-62616703D01*
X225004268Y-62901734D01*
X225080129Y-63179036D01*
X225192923Y-63443476D01*
X225239506Y-63521310D01*
X225315207Y-63647797D01*
X225340561Y-63690161D01*
X225520313Y-63914528D01*
X225537397Y-63930740D01*
X225685169Y-64070970D01*
X225728851Y-64112423D01*
X225962317Y-64280186D01*
X225966112Y-64282195D01*
X225966113Y-64282196D01*
X225987869Y-64293715D01*
X226216392Y-64414712D01*
X226486373Y-64513511D01*
X226767264Y-64574755D01*
X226795841Y-64577004D01*
X226990282Y-64592307D01*
X226990291Y-64592307D01*
X226992739Y-64592500D01*
X227148271Y-64592500D01*
X227150407Y-64592354D01*
X227150418Y-64592354D01*
X227358548Y-64578165D01*
X227358554Y-64578164D01*
X227362825Y-64577873D01*
X227367020Y-64577004D01*
X227367022Y-64577004D01*
X227503584Y-64548723D01*
X227644342Y-64519574D01*
X227915343Y-64423607D01*
X228170812Y-64291750D01*
X228174313Y-64289289D01*
X228174317Y-64289287D01*
X228345231Y-64169166D01*
X228406023Y-64126441D01*
X228616622Y-63930740D01*
X228798713Y-63708268D01*
X228948927Y-63463142D01*
X229064483Y-63199898D01*
X229143244Y-62923406D01*
X229183751Y-62638784D01*
X229183845Y-62620951D01*
X229185235Y-62355583D01*
X229185235Y-62355576D01*
X229185257Y-62351297D01*
X229184518Y-62345678D01*
X229151659Y-62096094D01*
X229147732Y-62066266D01*
X229141882Y-62044880D01*
X229099583Y-61890263D01*
X229071871Y-61788964D01*
X228959077Y-61524524D01*
X228811439Y-61277839D01*
X228631687Y-61053472D01*
X228423149Y-60855577D01*
X228189683Y-60687814D01*
X228167843Y-60676250D01*
X228144654Y-60663972D01*
X227935608Y-60553288D01*
X227665627Y-60454489D01*
X227384736Y-60393245D01*
X227353685Y-60390801D01*
X227161718Y-60375693D01*
X227161709Y-60375693D01*
X227159261Y-60375500D01*
X227003729Y-60375500D01*
X227001593Y-60375646D01*
X227001582Y-60375646D01*
X226793452Y-60389835D01*
X226793446Y-60389836D01*
X226789175Y-60390127D01*
X226784980Y-60390996D01*
X226784978Y-60390996D01*
X226648416Y-60419277D01*
X226507658Y-60448426D01*
X226236657Y-60544393D01*
X225981188Y-60676250D01*
X225977687Y-60678711D01*
X225977683Y-60678713D01*
X225863582Y-60758905D01*
X225745977Y-60841559D01*
X225535378Y-61037260D01*
X225353287Y-61259732D01*
X225203073Y-61504858D01*
X225087517Y-61768102D01*
X225086342Y-61772229D01*
X225086341Y-61772230D01*
X225075714Y-61809537D01*
X225008756Y-62044594D01*
X224968249Y-62329216D01*
X224968227Y-62333505D01*
X224968226Y-62333512D01*
X224966765Y-62612417D01*
X224966743Y-62616703D01*
X217004500Y-62616703D01*
X217004500Y-62462600D01*
X216993526Y-62356834D01*
X216990262Y-62347049D01*
X216939868Y-62196002D01*
X216937550Y-62189054D01*
X216844478Y-62038652D01*
X216719303Y-61913695D01*
X216688965Y-61894994D01*
X216574968Y-61824725D01*
X216574966Y-61824724D01*
X216568738Y-61820885D01*
X216449498Y-61781335D01*
X216407389Y-61767368D01*
X216407387Y-61767368D01*
X216400861Y-61765203D01*
X216394025Y-61764503D01*
X216394022Y-61764502D01*
X216350969Y-61760091D01*
X216296400Y-61754500D01*
X214995600Y-61754500D01*
X214992354Y-61754837D01*
X214992350Y-61754837D01*
X214896692Y-61764762D01*
X214896688Y-61764763D01*
X214889834Y-61765474D01*
X214883298Y-61767655D01*
X214883296Y-61767655D01*
X214751194Y-61811728D01*
X214722054Y-61821450D01*
X214571652Y-61914522D01*
X214446695Y-62039697D01*
X214442855Y-62045927D01*
X214442854Y-62045928D01*
X214356648Y-62185780D01*
X214303876Y-62233273D01*
X214233804Y-62244697D01*
X214168680Y-62216423D01*
X214158218Y-62206636D01*
X214052766Y-62096094D01*
X214044814Y-62089059D01*
X213868475Y-61957859D01*
X213859438Y-61952255D01*
X213663516Y-61852643D01*
X213653665Y-61848643D01*
X213443760Y-61783466D01*
X213433376Y-61781183D01*
X213417957Y-61779139D01*
X213403793Y-61781335D01*
X213400000Y-61794522D01*
X213400000Y-64729192D01*
X213403973Y-64742723D01*
X213414580Y-64744248D01*
X213532421Y-64719523D01*
X213542617Y-64716463D01*
X213747029Y-64635737D01*
X213756561Y-64631006D01*
X213944462Y-64516984D01*
X213953052Y-64510720D01*
X214119052Y-64366673D01*
X214126470Y-64359044D01*
X214152391Y-64327431D01*
X214211051Y-64287436D01*
X214282021Y-64285504D01*
X214342770Y-64322248D01*
X214356969Y-64341017D01*
X214447522Y-64487348D01*
X214572697Y-64612305D01*
X214578927Y-64616145D01*
X214578928Y-64616146D01*
X214610711Y-64635737D01*
X214723262Y-64705115D01*
X214766701Y-64719523D01*
X214884611Y-64758632D01*
X214884613Y-64758632D01*
X214891139Y-64760797D01*
X214897975Y-64761497D01*
X214897978Y-64761498D01*
X214941031Y-64765909D01*
X214995600Y-64771500D01*
X216046629Y-64771500D01*
X216114750Y-64791502D01*
X216135724Y-64808405D01*
X218110230Y-66782911D01*
X218122616Y-66797323D01*
X218131149Y-66808918D01*
X218131154Y-66808923D01*
X218135492Y-66814818D01*
X218141070Y-66819557D01*
X218141073Y-66819560D01*
X218175768Y-66849035D01*
X218183284Y-66855965D01*
X218188979Y-66861660D01*
X218191861Y-66863940D01*
X218211251Y-66879281D01*
X218214655Y-66882072D01*
X218264703Y-66924591D01*
X218270285Y-66929333D01*
X218276801Y-66932661D01*
X218281850Y-66936028D01*
X218286979Y-66939195D01*
X218292716Y-66943734D01*
X218358875Y-66974655D01*
X218362769Y-66976558D01*
X218427808Y-67009769D01*
X218434916Y-67011508D01*
X218440559Y-67013607D01*
X218446322Y-67015524D01*
X218452950Y-67018622D01*
X218460112Y-67020112D01*
X218460113Y-67020112D01*
X218524412Y-67033486D01*
X218528696Y-67034456D01*
X218599610Y-67051808D01*
X218605212Y-67052156D01*
X218605215Y-67052156D01*
X218610764Y-67052500D01*
X218610762Y-67052536D01*
X218614755Y-67052775D01*
X218618947Y-67053149D01*
X218626115Y-67054640D01*
X218703520Y-67052546D01*
X218706928Y-67052500D01*
X226963629Y-67052500D01*
X227031750Y-67072502D01*
X227052724Y-67089405D01*
X227804595Y-67841276D01*
X227838621Y-67903588D01*
X227841500Y-67930371D01*
X227841500Y-97633629D01*
X227821498Y-97701750D01*
X227804595Y-97722724D01*
X222922724Y-102604595D01*
X222860412Y-102638621D01*
X222833629Y-102641500D01*
X222766371Y-102641500D01*
X222698250Y-102621498D01*
X222677276Y-102604595D01*
X221123831Y-101051150D01*
X221089805Y-100988838D01*
X221094870Y-100918023D01*
X221115491Y-100882165D01*
X221120235Y-100876379D01*
X221120239Y-100876373D01*
X221123624Y-100872245D01*
X221126265Y-100867605D01*
X221126270Y-100867598D01*
X221141829Y-100840265D01*
X221192912Y-100790959D01*
X221262542Y-100777098D01*
X221328613Y-100803082D01*
X221355851Y-100832232D01*
X221434852Y-100949578D01*
X221441519Y-100957870D01*
X221593228Y-101116900D01*
X221601186Y-101123941D01*
X221777525Y-101255141D01*
X221786562Y-101260745D01*
X221982484Y-101360357D01*
X221992335Y-101364357D01*
X222202240Y-101429534D01*
X222212624Y-101431817D01*
X222228043Y-101433861D01*
X222242207Y-101431665D01*
X222246000Y-101418478D01*
X222246000Y-101416192D01*
X222754000Y-101416192D01*
X222757973Y-101429723D01*
X222768580Y-101431248D01*
X222886421Y-101406523D01*
X222896617Y-101403463D01*
X223101029Y-101322737D01*
X223110561Y-101318006D01*
X223298462Y-101203984D01*
X223307052Y-101197720D01*
X223473052Y-101053673D01*
X223480472Y-101046042D01*
X223619826Y-100876089D01*
X223625850Y-100867322D01*
X223734576Y-100676318D01*
X223739041Y-100666654D01*
X223814031Y-100460059D01*
X223816802Y-100449792D01*
X223853504Y-100246826D01*
X223852085Y-100233586D01*
X223837450Y-100229000D01*
X222772115Y-100229000D01*
X222756876Y-100233475D01*
X222755671Y-100234865D01*
X222754000Y-100242548D01*
X222754000Y-101416192D01*
X222246000Y-101416192D01*
X222246000Y-99702885D01*
X222754000Y-99702885D01*
X222758475Y-99718124D01*
X222759865Y-99719329D01*
X222767548Y-99721000D01*
X223833849Y-99721000D01*
X223848527Y-99716690D01*
X223850590Y-99704807D01*
X223843876Y-99625675D01*
X223842086Y-99615203D01*
X223786870Y-99402465D01*
X223783335Y-99392425D01*
X223693063Y-99192030D01*
X223687894Y-99182744D01*
X223565150Y-99000425D01*
X223558481Y-98992130D01*
X223406772Y-98833100D01*
X223398814Y-98826059D01*
X223222475Y-98694859D01*
X223213438Y-98689255D01*
X223017516Y-98589643D01*
X223007665Y-98585643D01*
X222797760Y-98520466D01*
X222787376Y-98518183D01*
X222771957Y-98516139D01*
X222757793Y-98518335D01*
X222754000Y-98531522D01*
X222754000Y-99702885D01*
X222246000Y-99702885D01*
X222246000Y-98533808D01*
X222242027Y-98520277D01*
X222231420Y-98518752D01*
X222113579Y-98543477D01*
X222103383Y-98546537D01*
X221898971Y-98627263D01*
X221889439Y-98631994D01*
X221701538Y-98746016D01*
X221692948Y-98752280D01*
X221526948Y-98896327D01*
X221519528Y-98903958D01*
X221380174Y-99073911D01*
X221374152Y-99082674D01*
X221358762Y-99109711D01*
X221307680Y-99159018D01*
X221238049Y-99172880D01*
X221171978Y-99146897D01*
X221144739Y-99117747D01*
X221081606Y-99023973D01*
X221062559Y-98995681D01*
X221055304Y-98988075D01*
X220981985Y-98911218D01*
X220903424Y-98828865D01*
X220718458Y-98691246D01*
X220713707Y-98688830D01*
X220713703Y-98688828D01*
X220601918Y-98631994D01*
X220512949Y-98586760D01*
X220507855Y-98585178D01*
X220507852Y-98585177D01*
X220297871Y-98519976D01*
X220292773Y-98518393D01*
X220287484Y-98517692D01*
X220069511Y-98488802D01*
X220069506Y-98488802D01*
X220064226Y-98488102D01*
X220058897Y-98488302D01*
X220058895Y-98488302D01*
X219950193Y-98492383D01*
X219833842Y-98496751D01*
X219828623Y-98497846D01*
X219766369Y-98510908D01*
X219608209Y-98544093D01*
X219603250Y-98546051D01*
X219603248Y-98546052D01*
X219398744Y-98626815D01*
X219398742Y-98626816D01*
X219393779Y-98628776D01*
X219389220Y-98631543D01*
X219389217Y-98631544D01*
X219294113Y-98689255D01*
X219196683Y-98748377D01*
X219192653Y-98751874D01*
X219038123Y-98885968D01*
X219022555Y-98899477D01*
X218999786Y-98927246D01*
X218879760Y-99073627D01*
X218879756Y-99073633D01*
X218876376Y-99077755D01*
X218858448Y-99109250D01*
X218807368Y-99158555D01*
X218737738Y-99172417D01*
X218671667Y-99146434D01*
X218644427Y-99117284D01*
X218617814Y-99077755D01*
X218562559Y-98995681D01*
X218555304Y-98988075D01*
X218481985Y-98911218D01*
X218403424Y-98828865D01*
X218218458Y-98691246D01*
X218213707Y-98688830D01*
X218213703Y-98688828D01*
X218101918Y-98631994D01*
X218012949Y-98586760D01*
X218007855Y-98585178D01*
X218007852Y-98585177D01*
X217797871Y-98519976D01*
X217792773Y-98518393D01*
X217787484Y-98517692D01*
X217569511Y-98488802D01*
X217569506Y-98488802D01*
X217564226Y-98488102D01*
X217558897Y-98488302D01*
X217558895Y-98488302D01*
X217450193Y-98492383D01*
X217333842Y-98496751D01*
X217328623Y-98497846D01*
X217266369Y-98510908D01*
X217108209Y-98544093D01*
X217103250Y-98546051D01*
X217103248Y-98546052D01*
X216898744Y-98626815D01*
X216898742Y-98626816D01*
X216893779Y-98628776D01*
X216889220Y-98631543D01*
X216889217Y-98631544D01*
X216794113Y-98689255D01*
X216696683Y-98748377D01*
X216692653Y-98751874D01*
X216538123Y-98885968D01*
X216522555Y-98899477D01*
X216493330Y-98935120D01*
X216434671Y-98975114D01*
X216363701Y-98977046D01*
X216302952Y-98940302D01*
X216288752Y-98921532D01*
X216202332Y-98781880D01*
X216198478Y-98775652D01*
X216073303Y-98650695D01*
X216051018Y-98636958D01*
X215928968Y-98561725D01*
X215928966Y-98561724D01*
X215922738Y-98557885D01*
X215809353Y-98520277D01*
X215761389Y-98504368D01*
X215761387Y-98504368D01*
X215754861Y-98502203D01*
X215748025Y-98501503D01*
X215748022Y-98501502D01*
X215704558Y-98497049D01*
X215650400Y-98491500D01*
X214464594Y-98491500D01*
X214396473Y-98471498D01*
X214375499Y-98454595D01*
X213205082Y-97284177D01*
X213171056Y-97221865D01*
X213176121Y-97151049D01*
X213218668Y-97094214D01*
X213267982Y-97071835D01*
X213272277Y-97070922D01*
X213282288Y-97068794D01*
X213288319Y-97066109D01*
X213450722Y-96993803D01*
X213450724Y-96993802D01*
X213456752Y-96991118D01*
X213611253Y-96878866D01*
X213654534Y-96830798D01*
X213734621Y-96741852D01*
X213734622Y-96741851D01*
X213739040Y-96736944D01*
X213804987Y-96622721D01*
X213831223Y-96577279D01*
X213831224Y-96577278D01*
X213834527Y-96571556D01*
X213893542Y-96389928D01*
X213894798Y-96377983D01*
X213912814Y-96206565D01*
X213913504Y-96200000D01*
X213909653Y-96163362D01*
X213894232Y-96016635D01*
X213894232Y-96016633D01*
X213893542Y-96010072D01*
X213834527Y-95828444D01*
X213808836Y-95783945D01*
X213760991Y-95701077D01*
X213739040Y-95663056D01*
X213665863Y-95581785D01*
X213635147Y-95517779D01*
X213633500Y-95497476D01*
X213633500Y-93257095D01*
X224560001Y-93257095D01*
X224560338Y-93263614D01*
X224570257Y-93359206D01*
X224573149Y-93372600D01*
X224624588Y-93526784D01*
X224630761Y-93539962D01*
X224716063Y-93677807D01*
X224725099Y-93689208D01*
X224839829Y-93803739D01*
X224851240Y-93812751D01*
X224989243Y-93897816D01*
X225002424Y-93903963D01*
X225156710Y-93955138D01*
X225170086Y-93958005D01*
X225264438Y-93967672D01*
X225270854Y-93968000D01*
X225770885Y-93968000D01*
X225786124Y-93963525D01*
X225787329Y-93962135D01*
X225789000Y-93954452D01*
X225789000Y-93949884D01*
X226297000Y-93949884D01*
X226301475Y-93965123D01*
X226302865Y-93966328D01*
X226310548Y-93967999D01*
X226815095Y-93967999D01*
X226821614Y-93967662D01*
X226917206Y-93957743D01*
X226930600Y-93954851D01*
X227084784Y-93903412D01*
X227097962Y-93897239D01*
X227235807Y-93811937D01*
X227247208Y-93802901D01*
X227361739Y-93688171D01*
X227370751Y-93676760D01*
X227455816Y-93538757D01*
X227461963Y-93525576D01*
X227513138Y-93371290D01*
X227516005Y-93357914D01*
X227525672Y-93263562D01*
X227526000Y-93257146D01*
X227526000Y-92882115D01*
X227521525Y-92866876D01*
X227520135Y-92865671D01*
X227512452Y-92864000D01*
X226315115Y-92864000D01*
X226299876Y-92868475D01*
X226298671Y-92869865D01*
X226297000Y-92877548D01*
X226297000Y-93949884D01*
X225789000Y-93949884D01*
X225789000Y-92882115D01*
X225784525Y-92866876D01*
X225783135Y-92865671D01*
X225775452Y-92864000D01*
X224578116Y-92864000D01*
X224562877Y-92868475D01*
X224561672Y-92869865D01*
X224560001Y-92877548D01*
X224560001Y-93257095D01*
X213633500Y-93257095D01*
X213633500Y-89633594D01*
X213653502Y-89565473D01*
X213707158Y-89518980D01*
X213777432Y-89508876D01*
X213842012Y-89538370D01*
X213848595Y-89544499D01*
X214806343Y-90502247D01*
X214813887Y-90510537D01*
X214818000Y-90517018D01*
X214823777Y-90522443D01*
X214867667Y-90563658D01*
X214870509Y-90566413D01*
X214890230Y-90586134D01*
X214893425Y-90588612D01*
X214902447Y-90596318D01*
X214934679Y-90626586D01*
X214941628Y-90630406D01*
X214952432Y-90636346D01*
X214968956Y-90647199D01*
X214984959Y-90659613D01*
X215025543Y-90677176D01*
X215036173Y-90682383D01*
X215074940Y-90703695D01*
X215082617Y-90705666D01*
X215082622Y-90705668D01*
X215094558Y-90708732D01*
X215113266Y-90715137D01*
X215131855Y-90723181D01*
X215139680Y-90724420D01*
X215139682Y-90724421D01*
X215175519Y-90730097D01*
X215187140Y-90732504D01*
X215222289Y-90741528D01*
X215229970Y-90743500D01*
X215250231Y-90743500D01*
X215269940Y-90745051D01*
X215289943Y-90748219D01*
X215297835Y-90747473D01*
X215303062Y-90746979D01*
X215333954Y-90744059D01*
X215345811Y-90743500D01*
X224642404Y-90743500D01*
X224710525Y-90763502D01*
X224750122Y-90804133D01*
X224816377Y-90913317D01*
X224819874Y-90917347D01*
X224906438Y-91017103D01*
X224967477Y-91087445D01*
X224971608Y-91090832D01*
X225003529Y-91117006D01*
X225043524Y-91175666D01*
X225045455Y-91246636D01*
X225008710Y-91307384D01*
X224989941Y-91321584D01*
X224850193Y-91408063D01*
X224838792Y-91417099D01*
X224724261Y-91531829D01*
X224715249Y-91543240D01*
X224630184Y-91681243D01*
X224624037Y-91694424D01*
X224572862Y-91848710D01*
X224569995Y-91862086D01*
X224560328Y-91956438D01*
X224560000Y-91962855D01*
X224560000Y-92337885D01*
X224564475Y-92353124D01*
X224565865Y-92354329D01*
X224573548Y-92356000D01*
X227507884Y-92356000D01*
X227523123Y-92351525D01*
X227524328Y-92350135D01*
X227525999Y-92342452D01*
X227525999Y-91962905D01*
X227525662Y-91956386D01*
X227515743Y-91860794D01*
X227512851Y-91847400D01*
X227461412Y-91693216D01*
X227455239Y-91680038D01*
X227369937Y-91542193D01*
X227360901Y-91530792D01*
X227246171Y-91416261D01*
X227234757Y-91407247D01*
X227095287Y-91321277D01*
X227047793Y-91268505D01*
X227036369Y-91198434D01*
X227064643Y-91133310D01*
X227074430Y-91122847D01*
X227107991Y-91090832D01*
X227189135Y-91013424D01*
X227326754Y-90828458D01*
X227431240Y-90622949D01*
X227439510Y-90596318D01*
X227498024Y-90407871D01*
X227499607Y-90402773D01*
X227516101Y-90278328D01*
X227529198Y-90179511D01*
X227529198Y-90179506D01*
X227529898Y-90174226D01*
X227528586Y-90139263D01*
X227522791Y-89984914D01*
X227521249Y-89943842D01*
X227473907Y-89718209D01*
X227389224Y-89503779D01*
X227269623Y-89306683D01*
X227231200Y-89262404D01*
X227122023Y-89136588D01*
X227122021Y-89136586D01*
X227118523Y-89132555D01*
X227076970Y-89098484D01*
X226944373Y-88989760D01*
X226944367Y-88989756D01*
X226940245Y-88986376D01*
X226908750Y-88968448D01*
X226859445Y-88917368D01*
X226845583Y-88847738D01*
X226871566Y-88781667D01*
X226900716Y-88754427D01*
X226937600Y-88729595D01*
X227022319Y-88672559D01*
X227189135Y-88513424D01*
X227326754Y-88328458D01*
X227431240Y-88122949D01*
X227438909Y-88098253D01*
X227498024Y-87907871D01*
X227499607Y-87902773D01*
X227500308Y-87897484D01*
X227529198Y-87679511D01*
X227529198Y-87679506D01*
X227529898Y-87674226D01*
X227521249Y-87443842D01*
X227473907Y-87218209D01*
X227422759Y-87088695D01*
X227391185Y-87008744D01*
X227391184Y-87008742D01*
X227389224Y-87003779D01*
X227269623Y-86806683D01*
X227182755Y-86706576D01*
X227122023Y-86636588D01*
X227122021Y-86636586D01*
X227118523Y-86632555D01*
X227076970Y-86598484D01*
X226944373Y-86489760D01*
X226944367Y-86489756D01*
X226940245Y-86486376D01*
X226935609Y-86483737D01*
X226935606Y-86483735D01*
X226744529Y-86374968D01*
X226739886Y-86372325D01*
X226523175Y-86293663D01*
X226517926Y-86292714D01*
X226517923Y-86292713D01*
X226300392Y-86253377D01*
X226300385Y-86253376D01*
X226296308Y-86252639D01*
X226278586Y-86251803D01*
X226273644Y-86251570D01*
X226273637Y-86251570D01*
X226272156Y-86251500D01*
X225860110Y-86251500D01*
X225793191Y-86257178D01*
X225693591Y-86265629D01*
X225693587Y-86265630D01*
X225688280Y-86266080D01*
X225683125Y-86267418D01*
X225683119Y-86267419D01*
X225470297Y-86322657D01*
X225470293Y-86322658D01*
X225465128Y-86323999D01*
X225460262Y-86326191D01*
X225460259Y-86326192D01*
X225351980Y-86374968D01*
X225254925Y-86418688D01*
X225063681Y-86547441D01*
X224896865Y-86706576D01*
X224759246Y-86891542D01*
X224654760Y-87097051D01*
X224653178Y-87102145D01*
X224653177Y-87102148D01*
X224591115Y-87302020D01*
X224586393Y-87317227D01*
X224585692Y-87322516D01*
X224570304Y-87438623D01*
X224556102Y-87545774D01*
X224564751Y-87776158D01*
X224612093Y-88001791D01*
X224614053Y-88006753D01*
X224622265Y-88027547D01*
X224628685Y-88098253D01*
X224594169Y-88162926D01*
X224027500Y-88729595D01*
X223965188Y-88763621D01*
X223938405Y-88766500D01*
X215914594Y-88766500D01*
X215846473Y-88746498D01*
X215825499Y-88729595D01*
X209441500Y-82345595D01*
X209407474Y-82283283D01*
X209412539Y-82212468D01*
X209452064Y-82159669D01*
X215812001Y-82159669D01*
X215812371Y-82166490D01*
X215817895Y-82217352D01*
X215821521Y-82232604D01*
X215866676Y-82353054D01*
X215875214Y-82368649D01*
X215951715Y-82470724D01*
X215964276Y-82483285D01*
X216066351Y-82559786D01*
X216081946Y-82568324D01*
X216202394Y-82613478D01*
X216217649Y-82617105D01*
X216268514Y-82622631D01*
X216275328Y-82623000D01*
X216897885Y-82623000D01*
X216913124Y-82618525D01*
X216914329Y-82617135D01*
X216916000Y-82609452D01*
X216916000Y-82604884D01*
X217424000Y-82604884D01*
X217428475Y-82620123D01*
X217429865Y-82621328D01*
X217437548Y-82622999D01*
X218064669Y-82622999D01*
X218071490Y-82622629D01*
X218122352Y-82617105D01*
X218137604Y-82613479D01*
X218258054Y-82568324D01*
X218273649Y-82559786D01*
X218375724Y-82483285D01*
X218388285Y-82470724D01*
X218464786Y-82368649D01*
X218473324Y-82353054D01*
X218518478Y-82232606D01*
X218522105Y-82217351D01*
X218527631Y-82166486D01*
X218528000Y-82159672D01*
X218528000Y-82081095D01*
X224577001Y-82081095D01*
X224577338Y-82087614D01*
X224587257Y-82183206D01*
X224590149Y-82196600D01*
X224641588Y-82350784D01*
X224647761Y-82363962D01*
X224733063Y-82501807D01*
X224742099Y-82513208D01*
X224856829Y-82627739D01*
X224868240Y-82636751D01*
X225006243Y-82721816D01*
X225019424Y-82727963D01*
X225173710Y-82779138D01*
X225187086Y-82782005D01*
X225281438Y-82791672D01*
X225287854Y-82792000D01*
X225787885Y-82792000D01*
X225803124Y-82787525D01*
X225804329Y-82786135D01*
X225806000Y-82778452D01*
X225806000Y-82773884D01*
X226314000Y-82773884D01*
X226318475Y-82789123D01*
X226319865Y-82790328D01*
X226327548Y-82791999D01*
X226832095Y-82791999D01*
X226838614Y-82791662D01*
X226934206Y-82781743D01*
X226947600Y-82778851D01*
X227101784Y-82727412D01*
X227114962Y-82721239D01*
X227252807Y-82635937D01*
X227264208Y-82626901D01*
X227378739Y-82512171D01*
X227387751Y-82500760D01*
X227472816Y-82362757D01*
X227478963Y-82349576D01*
X227530138Y-82195290D01*
X227533005Y-82181914D01*
X227542672Y-82087562D01*
X227543000Y-82081146D01*
X227543000Y-81706115D01*
X227538525Y-81690876D01*
X227537135Y-81689671D01*
X227529452Y-81688000D01*
X226332115Y-81688000D01*
X226316876Y-81692475D01*
X226315671Y-81693865D01*
X226314000Y-81701548D01*
X226314000Y-82773884D01*
X225806000Y-82773884D01*
X225806000Y-81706115D01*
X225801525Y-81690876D01*
X225800135Y-81689671D01*
X225792452Y-81688000D01*
X224595116Y-81688000D01*
X224579877Y-81692475D01*
X224578672Y-81693865D01*
X224577001Y-81701548D01*
X224577001Y-82081095D01*
X218528000Y-82081095D01*
X218528000Y-81537115D01*
X218523525Y-81521876D01*
X218522135Y-81520671D01*
X218514452Y-81519000D01*
X217442115Y-81519000D01*
X217426876Y-81523475D01*
X217425671Y-81524865D01*
X217424000Y-81532548D01*
X217424000Y-82604884D01*
X216916000Y-82604884D01*
X216916000Y-81537115D01*
X216911525Y-81521876D01*
X216910135Y-81520671D01*
X216902452Y-81519000D01*
X215830116Y-81519000D01*
X215814877Y-81523475D01*
X215813672Y-81524865D01*
X215812001Y-81532548D01*
X215812001Y-82159669D01*
X209452064Y-82159669D01*
X209455086Y-82155632D01*
X209521606Y-82130821D01*
X209530595Y-82130500D01*
X210240134Y-82130500D01*
X210302316Y-82123745D01*
X210438705Y-82072615D01*
X210555261Y-81985261D01*
X210642615Y-81868705D01*
X210693745Y-81732316D01*
X210700500Y-81670134D01*
X210700500Y-81077594D01*
X210720502Y-81009473D01*
X210737405Y-80988499D01*
X212330499Y-79395405D01*
X212392811Y-79361379D01*
X212419594Y-79358500D01*
X215894274Y-79358500D01*
X215962395Y-79378502D01*
X216001707Y-79418665D01*
X216069987Y-79530088D01*
X216073367Y-79533990D01*
X216082716Y-79544783D01*
X216216250Y-79698938D01*
X216220225Y-79702238D01*
X216220231Y-79702244D01*
X216225425Y-79706556D01*
X216265059Y-79765460D01*
X216266555Y-79836441D01*
X216229439Y-79896962D01*
X216189168Y-79921480D01*
X216081946Y-79961676D01*
X216066351Y-79970214D01*
X215964276Y-80046715D01*
X215951715Y-80059276D01*
X215875214Y-80161351D01*
X215866676Y-80176946D01*
X215821522Y-80297394D01*
X215817895Y-80312649D01*
X215812369Y-80363514D01*
X215812000Y-80370328D01*
X215812000Y-80992885D01*
X215816475Y-81008124D01*
X215817865Y-81009329D01*
X215825548Y-81011000D01*
X218509884Y-81011000D01*
X218525123Y-81006525D01*
X218526328Y-81005135D01*
X218527999Y-80997452D01*
X218527999Y-80370331D01*
X218527629Y-80363510D01*
X218522105Y-80312648D01*
X218518479Y-80297396D01*
X218473324Y-80176946D01*
X218464786Y-80161351D01*
X218388285Y-80059276D01*
X218375724Y-80046715D01*
X218273649Y-79970214D01*
X218258054Y-79961676D01*
X218147813Y-79920348D01*
X218091049Y-79877706D01*
X218066349Y-79811145D01*
X218081557Y-79741796D01*
X218103104Y-79713115D01*
X218204430Y-79612144D01*
X218204440Y-79612132D01*
X218208096Y-79608489D01*
X218338453Y-79427077D01*
X218342611Y-79418665D01*
X218435136Y-79231453D01*
X218435137Y-79231451D01*
X218437430Y-79226811D01*
X218502370Y-79013069D01*
X218521236Y-78869774D01*
X224573102Y-78869774D01*
X224581751Y-79100158D01*
X224629093Y-79325791D01*
X224631051Y-79330750D01*
X224631052Y-79330752D01*
X224708037Y-79525688D01*
X224713776Y-79540221D01*
X224833377Y-79737317D01*
X224836874Y-79741347D01*
X224923897Y-79841632D01*
X224984477Y-79911445D01*
X224988608Y-79914832D01*
X225020529Y-79941006D01*
X225060524Y-79999666D01*
X225062455Y-80070636D01*
X225025710Y-80131384D01*
X225006941Y-80145584D01*
X224867193Y-80232063D01*
X224855792Y-80241099D01*
X224741261Y-80355829D01*
X224732249Y-80367240D01*
X224647184Y-80505243D01*
X224641037Y-80518424D01*
X224589862Y-80672710D01*
X224586995Y-80686086D01*
X224577328Y-80780438D01*
X224577000Y-80786855D01*
X224577000Y-81161885D01*
X224581475Y-81177124D01*
X224582865Y-81178329D01*
X224590548Y-81180000D01*
X227524884Y-81180000D01*
X227540123Y-81175525D01*
X227541328Y-81174135D01*
X227542999Y-81166452D01*
X227542999Y-80786905D01*
X227542662Y-80780386D01*
X227532743Y-80684794D01*
X227529851Y-80671400D01*
X227478412Y-80517216D01*
X227472239Y-80504038D01*
X227386937Y-80366193D01*
X227377901Y-80354792D01*
X227263171Y-80240261D01*
X227251757Y-80231247D01*
X227112287Y-80145277D01*
X227064793Y-80092505D01*
X227053369Y-80022434D01*
X227081643Y-79957310D01*
X227091430Y-79946847D01*
X227118022Y-79921480D01*
X227206135Y-79837424D01*
X227343754Y-79652458D01*
X227448240Y-79446949D01*
X227453107Y-79431277D01*
X227515024Y-79231871D01*
X227516607Y-79226773D01*
X227517308Y-79221484D01*
X227546198Y-79003511D01*
X227546198Y-79003506D01*
X227546898Y-78998226D01*
X227538249Y-78767842D01*
X227490907Y-78542209D01*
X227488948Y-78537248D01*
X227408185Y-78332744D01*
X227408184Y-78332742D01*
X227406224Y-78327779D01*
X227385480Y-78293593D01*
X227289390Y-78135243D01*
X227286623Y-78130683D01*
X227253870Y-78092938D01*
X227139023Y-77960588D01*
X227139021Y-77960586D01*
X227135523Y-77956555D01*
X227053691Y-77889457D01*
X226961373Y-77813760D01*
X226961367Y-77813756D01*
X226957245Y-77810376D01*
X226925750Y-77792448D01*
X226876445Y-77741368D01*
X226862583Y-77671738D01*
X226888566Y-77605667D01*
X226917716Y-77578427D01*
X226987168Y-77531669D01*
X227039319Y-77496559D01*
X227206135Y-77337424D01*
X227343754Y-77152458D01*
X227448240Y-76946949D01*
X227462169Y-76902093D01*
X227515024Y-76731871D01*
X227516607Y-76726773D01*
X227521288Y-76691453D01*
X227546198Y-76503511D01*
X227546198Y-76503506D01*
X227546898Y-76498226D01*
X227538249Y-76267842D01*
X227490907Y-76042209D01*
X227461412Y-75967522D01*
X227408185Y-75832744D01*
X227408184Y-75832742D01*
X227406224Y-75827779D01*
X227359464Y-75750720D01*
X227289390Y-75635243D01*
X227286623Y-75630683D01*
X227217912Y-75551500D01*
X227139023Y-75460588D01*
X227139021Y-75460586D01*
X227135523Y-75456555D01*
X227093970Y-75422484D01*
X226961373Y-75313760D01*
X226961367Y-75313756D01*
X226957245Y-75310376D01*
X226925750Y-75292448D01*
X226876445Y-75241368D01*
X226862583Y-75171738D01*
X226888566Y-75105667D01*
X226917716Y-75078427D01*
X226964246Y-75047101D01*
X227039319Y-74996559D01*
X227206135Y-74837424D01*
X227212552Y-74828800D01*
X227328808Y-74672546D01*
X227343754Y-74652458D01*
X227353339Y-74633607D01*
X227421633Y-74499281D01*
X227448240Y-74446949D01*
X227450535Y-74439560D01*
X227515024Y-74231871D01*
X227516607Y-74226773D01*
X227519161Y-74207500D01*
X227546198Y-74003511D01*
X227546198Y-74003506D01*
X227546898Y-73998226D01*
X227543983Y-73920565D01*
X227538449Y-73773173D01*
X227538249Y-73767842D01*
X227490907Y-73542209D01*
X227406224Y-73327779D01*
X227370894Y-73269556D01*
X227289390Y-73135243D01*
X227286623Y-73130683D01*
X227199755Y-73030576D01*
X227139023Y-72960588D01*
X227139021Y-72960586D01*
X227135523Y-72956555D01*
X227064110Y-72898000D01*
X226961373Y-72813760D01*
X226961367Y-72813756D01*
X226957245Y-72810376D01*
X226925750Y-72792448D01*
X226876445Y-72741368D01*
X226862583Y-72671738D01*
X226888566Y-72605667D01*
X226917716Y-72578427D01*
X226953642Y-72554240D01*
X227039319Y-72496559D01*
X227206135Y-72337424D01*
X227343754Y-72152458D01*
X227350343Y-72139500D01*
X227400818Y-72040221D01*
X227448240Y-71946949D01*
X227451268Y-71937199D01*
X227515024Y-71731871D01*
X227516607Y-71726773D01*
X227517308Y-71721484D01*
X227546198Y-71503511D01*
X227546198Y-71503506D01*
X227546898Y-71498226D01*
X227538249Y-71267842D01*
X227490907Y-71042209D01*
X227441181Y-70916296D01*
X227408185Y-70832744D01*
X227408184Y-70832742D01*
X227406224Y-70827779D01*
X227325109Y-70694105D01*
X227295507Y-70645324D01*
X227286623Y-70630683D01*
X227283126Y-70626653D01*
X227139023Y-70460588D01*
X227139021Y-70460586D01*
X227135523Y-70456555D01*
X227060220Y-70394810D01*
X226961373Y-70313760D01*
X226961367Y-70313756D01*
X226957245Y-70310376D01*
X226925750Y-70292448D01*
X226876445Y-70241368D01*
X226862583Y-70171738D01*
X226888566Y-70105667D01*
X226917716Y-70078427D01*
X226953642Y-70054240D01*
X227039319Y-69996559D01*
X227206135Y-69837424D01*
X227343754Y-69652458D01*
X227370184Y-69600475D01*
X227445822Y-69451704D01*
X227448240Y-69446949D01*
X227450443Y-69439856D01*
X227515024Y-69231871D01*
X227516607Y-69226773D01*
X227517308Y-69221484D01*
X227546198Y-69003511D01*
X227546198Y-69003506D01*
X227546898Y-68998226D01*
X227538249Y-68767842D01*
X227490907Y-68542209D01*
X227406224Y-68327779D01*
X227286623Y-68130683D01*
X227199755Y-68030576D01*
X227139023Y-67960588D01*
X227139021Y-67960586D01*
X227135523Y-67956555D01*
X227039939Y-67878181D01*
X226961373Y-67813760D01*
X226961367Y-67813756D01*
X226957245Y-67810376D01*
X226952609Y-67807737D01*
X226952606Y-67807735D01*
X226761529Y-67698968D01*
X226756886Y-67696325D01*
X226540175Y-67617663D01*
X226534926Y-67616714D01*
X226534923Y-67616713D01*
X226317392Y-67577377D01*
X226317385Y-67577376D01*
X226313308Y-67576639D01*
X226295586Y-67575803D01*
X226290644Y-67575570D01*
X226290637Y-67575570D01*
X226289156Y-67575500D01*
X225877110Y-67575500D01*
X225810191Y-67581178D01*
X225710591Y-67589629D01*
X225710587Y-67589630D01*
X225705280Y-67590080D01*
X225700125Y-67591418D01*
X225700119Y-67591419D01*
X225487297Y-67646657D01*
X225487293Y-67646658D01*
X225482128Y-67647999D01*
X225477262Y-67650191D01*
X225477259Y-67650192D01*
X225368980Y-67698968D01*
X225271925Y-67742688D01*
X225080681Y-67871441D01*
X225076824Y-67875120D01*
X225076822Y-67875122D01*
X225046982Y-67903588D01*
X224913865Y-68030576D01*
X224776246Y-68215542D01*
X224671760Y-68421051D01*
X224670178Y-68426145D01*
X224670177Y-68426148D01*
X224608115Y-68626020D01*
X224603393Y-68641227D01*
X224602692Y-68646516D01*
X224587304Y-68762623D01*
X224573102Y-68869774D01*
X224581751Y-69100158D01*
X224629093Y-69325791D01*
X224713776Y-69540221D01*
X224716543Y-69544780D01*
X224716544Y-69544783D01*
X224755845Y-69609548D01*
X224833377Y-69737317D01*
X224836874Y-69741347D01*
X224923438Y-69841103D01*
X224984477Y-69911445D01*
X224988608Y-69914832D01*
X225158627Y-70054240D01*
X225158633Y-70054244D01*
X225162755Y-70057624D01*
X225194250Y-70075552D01*
X225243555Y-70126632D01*
X225257417Y-70196262D01*
X225231434Y-70262333D01*
X225202284Y-70289573D01*
X225080681Y-70371441D01*
X224913865Y-70530576D01*
X224776246Y-70715542D01*
X224671760Y-70921051D01*
X224670178Y-70926145D01*
X224670177Y-70926148D01*
X224608115Y-71126020D01*
X224603393Y-71141227D01*
X224602692Y-71146516D01*
X224575357Y-71352761D01*
X224573102Y-71369774D01*
X224573302Y-71375103D01*
X224573302Y-71375105D01*
X224576245Y-71453502D01*
X224581751Y-71600158D01*
X224629093Y-71825791D01*
X224631051Y-71830750D01*
X224631052Y-71830752D01*
X224706780Y-72022505D01*
X224713776Y-72040221D01*
X224716543Y-72044780D01*
X224716544Y-72044783D01*
X224774020Y-72139500D01*
X224833377Y-72237317D01*
X224836874Y-72241347D01*
X224945714Y-72366774D01*
X224984477Y-72411445D01*
X224988608Y-72414832D01*
X225158627Y-72554240D01*
X225158633Y-72554244D01*
X225162755Y-72557624D01*
X225194250Y-72575552D01*
X225243555Y-72626632D01*
X225257417Y-72696262D01*
X225231434Y-72762333D01*
X225202284Y-72789573D01*
X225080681Y-72871441D01*
X224913865Y-73030576D01*
X224776246Y-73215542D01*
X224671760Y-73421051D01*
X224670178Y-73426145D01*
X224670177Y-73426148D01*
X224608115Y-73626020D01*
X224603393Y-73641227D01*
X224602692Y-73646516D01*
X224587304Y-73762623D01*
X224573102Y-73869774D01*
X224581751Y-74100158D01*
X224629093Y-74325791D01*
X224631051Y-74330750D01*
X224631052Y-74330752D01*
X224698149Y-74500650D01*
X224713776Y-74540221D01*
X224716543Y-74544780D01*
X224716544Y-74544783D01*
X224747964Y-74596561D01*
X224833377Y-74737317D01*
X224836874Y-74741347D01*
X224945970Y-74867069D01*
X224984477Y-74911445D01*
X225019195Y-74939912D01*
X225158627Y-75054240D01*
X225158633Y-75054244D01*
X225162755Y-75057624D01*
X225194250Y-75075552D01*
X225243555Y-75126632D01*
X225257417Y-75196262D01*
X225231434Y-75262333D01*
X225202284Y-75289573D01*
X225080681Y-75371441D01*
X224913865Y-75530576D01*
X224776246Y-75715542D01*
X224773830Y-75720293D01*
X224773828Y-75720297D01*
X224724003Y-75818296D01*
X224671760Y-75921051D01*
X224670178Y-75926145D01*
X224670177Y-75926148D01*
X224608115Y-76126020D01*
X224603393Y-76141227D01*
X224602692Y-76146516D01*
X224587304Y-76262623D01*
X224573102Y-76369774D01*
X224581751Y-76600158D01*
X224629093Y-76825791D01*
X224713776Y-77040221D01*
X224716543Y-77044780D01*
X224716544Y-77044783D01*
X224784482Y-77156740D01*
X224833377Y-77237317D01*
X224836874Y-77241347D01*
X224923438Y-77341103D01*
X224984477Y-77411445D01*
X224988608Y-77414832D01*
X225158627Y-77554240D01*
X225158633Y-77554244D01*
X225162755Y-77557624D01*
X225194250Y-77575552D01*
X225243555Y-77626632D01*
X225257417Y-77696262D01*
X225231434Y-77762333D01*
X225202284Y-77789573D01*
X225080681Y-77871441D01*
X225076824Y-77875120D01*
X225076822Y-77875122D01*
X225007464Y-77941287D01*
X224913865Y-78030576D01*
X224776246Y-78215542D01*
X224773830Y-78220293D01*
X224773828Y-78220297D01*
X224736563Y-78293593D01*
X224671760Y-78421051D01*
X224670178Y-78426145D01*
X224670177Y-78426148D01*
X224608115Y-78626020D01*
X224603393Y-78641227D01*
X224602692Y-78646516D01*
X224583025Y-78794908D01*
X224573102Y-78869774D01*
X218521236Y-78869774D01*
X218531529Y-78791590D01*
X218533156Y-78725000D01*
X218514852Y-78502361D01*
X218460431Y-78285702D01*
X218371354Y-78080840D01*
X218296059Y-77964452D01*
X218252822Y-77897617D01*
X218252820Y-77897614D01*
X218250014Y-77893277D01*
X218099670Y-77728051D01*
X218095619Y-77724852D01*
X218095615Y-77724848D01*
X217928414Y-77592800D01*
X217928410Y-77592798D01*
X217924359Y-77589598D01*
X217883053Y-77566796D01*
X217833084Y-77516364D01*
X217818312Y-77446921D01*
X217843428Y-77380516D01*
X217870780Y-77353909D01*
X217914603Y-77322650D01*
X218049860Y-77226173D01*
X218208096Y-77068489D01*
X218225131Y-77044783D01*
X218335435Y-76891277D01*
X218338453Y-76887077D01*
X218342611Y-76878665D01*
X218435136Y-76691453D01*
X218435137Y-76691451D01*
X218437430Y-76686811D01*
X218494727Y-76498226D01*
X218500865Y-76478023D01*
X218500865Y-76478021D01*
X218502370Y-76473069D01*
X218531529Y-76251590D01*
X218533156Y-76185000D01*
X218514852Y-75962361D01*
X218460431Y-75745702D01*
X218371354Y-75540840D01*
X218250014Y-75353277D01*
X218099670Y-75188051D01*
X218095619Y-75184852D01*
X218095615Y-75184848D01*
X217928414Y-75052800D01*
X217928410Y-75052798D01*
X217924359Y-75049598D01*
X217728789Y-74941638D01*
X217723920Y-74939914D01*
X217723916Y-74939912D01*
X217523087Y-74868795D01*
X217523083Y-74868794D01*
X217518212Y-74867069D01*
X217513119Y-74866162D01*
X217513116Y-74866161D01*
X217303373Y-74828800D01*
X217303367Y-74828799D01*
X217298284Y-74827894D01*
X217224452Y-74826992D01*
X217080081Y-74825228D01*
X217080079Y-74825228D01*
X217074911Y-74825165D01*
X216854091Y-74858955D01*
X216641756Y-74928357D01*
X216611443Y-74944137D01*
X216517813Y-74992878D01*
X216443607Y-75031507D01*
X216439474Y-75034610D01*
X216439471Y-75034612D01*
X216384947Y-75075550D01*
X216264965Y-75165635D01*
X216110629Y-75327138D01*
X216107715Y-75331410D01*
X216107714Y-75331411D01*
X215995095Y-75496504D01*
X215940184Y-75541507D01*
X215891007Y-75551500D01*
X210826500Y-75551500D01*
X210758379Y-75531498D01*
X210711886Y-75477842D01*
X210700500Y-75425500D01*
X210700500Y-74793866D01*
X210693745Y-74731684D01*
X210642615Y-74595295D01*
X210555261Y-74478739D01*
X210438705Y-74391385D01*
X210302316Y-74340255D01*
X210240134Y-74333500D01*
X207556985Y-74333500D01*
X207555446Y-74333491D01*
X207452081Y-74332228D01*
X207452079Y-74332228D01*
X207446911Y-74332165D01*
X207441797Y-74332948D01*
X207438289Y-74333193D01*
X207429496Y-74333500D01*
X206753500Y-74333500D01*
X206685379Y-74313498D01*
X206638886Y-74259842D01*
X206627500Y-74207500D01*
X206627500Y-71920594D01*
X206647502Y-71852473D01*
X206664405Y-71831499D01*
X207756054Y-70739850D01*
X207818366Y-70705824D01*
X207833844Y-70703804D01*
X207833837Y-70703753D01*
X207838958Y-70703097D01*
X207851261Y-70701521D01*
X207867271Y-70700500D01*
X208670134Y-70700500D01*
X208732316Y-70693745D01*
X208868705Y-70642615D01*
X208985261Y-70555261D01*
X209072615Y-70438705D01*
X209123745Y-70302316D01*
X209130500Y-70240134D01*
X209130500Y-69439856D01*
X209131578Y-69423409D01*
X209133092Y-69411908D01*
X209133529Y-69408590D01*
X209135156Y-69342000D01*
X209130924Y-69290524D01*
X209130500Y-69280200D01*
X209130500Y-66643866D01*
X209123745Y-66581684D01*
X209072615Y-66445295D01*
X208985261Y-66328739D01*
X208868705Y-66241385D01*
X208732316Y-66190255D01*
X208670134Y-66183500D01*
X206873866Y-66183500D01*
X206811684Y-66190255D01*
X206675295Y-66241385D01*
X206577565Y-66314630D01*
X206511059Y-66339478D01*
X206441676Y-66324425D01*
X206426435Y-66314630D01*
X206328705Y-66241385D01*
X206192316Y-66190255D01*
X206130134Y-66183500D01*
X204333866Y-66183500D01*
X204271684Y-66190255D01*
X204135295Y-66241385D01*
X204068323Y-66291578D01*
X204037148Y-66314942D01*
X203970642Y-66339790D01*
X203901259Y-66324737D01*
X203886018Y-66314942D01*
X203795649Y-66247214D01*
X203780054Y-66238676D01*
X203659606Y-66193522D01*
X203644351Y-66189895D01*
X203593486Y-66184369D01*
X203586672Y-66184000D01*
X202964115Y-66184000D01*
X202948876Y-66188475D01*
X202947671Y-66189865D01*
X202946000Y-66197548D01*
X202946000Y-69470000D01*
X202925998Y-69538121D01*
X202872342Y-69584614D01*
X202820000Y-69596000D01*
X202564000Y-69596000D01*
X202495879Y-69575998D01*
X202449386Y-69522342D01*
X202438000Y-69470000D01*
X202438000Y-66202116D01*
X202433525Y-66186877D01*
X202432135Y-66185672D01*
X202424452Y-66184001D01*
X201797331Y-66184001D01*
X201790510Y-66184371D01*
X201739648Y-66189895D01*
X201724396Y-66193521D01*
X201603946Y-66238676D01*
X201588351Y-66247214D01*
X201497982Y-66314942D01*
X201431475Y-66339790D01*
X201362093Y-66324737D01*
X201346852Y-66314942D01*
X201315677Y-66291578D01*
X201248705Y-66241385D01*
X201112316Y-66190255D01*
X201050134Y-66183500D01*
X199253866Y-66183500D01*
X199191684Y-66190255D01*
X199055295Y-66241385D01*
X198957565Y-66314630D01*
X198891059Y-66339478D01*
X198821676Y-66324425D01*
X198806435Y-66314630D01*
X198708705Y-66241385D01*
X198572316Y-66190255D01*
X198510134Y-66183500D01*
X196713866Y-66183500D01*
X196651684Y-66190255D01*
X196515295Y-66241385D01*
X196417565Y-66314630D01*
X196351059Y-66339478D01*
X196281676Y-66324425D01*
X196266435Y-66314630D01*
X196168705Y-66241385D01*
X196032316Y-66190255D01*
X195970134Y-66183500D01*
X194173866Y-66183500D01*
X194111684Y-66190255D01*
X193975295Y-66241385D01*
X193877565Y-66314630D01*
X193811059Y-66339478D01*
X193741676Y-66324425D01*
X193726435Y-66314630D01*
X193628705Y-66241385D01*
X193492316Y-66190255D01*
X193430134Y-66183500D01*
X191633866Y-66183500D01*
X191571684Y-66190255D01*
X191435295Y-66241385D01*
X191368323Y-66291578D01*
X191337148Y-66314942D01*
X191270642Y-66339790D01*
X191201259Y-66324737D01*
X191186018Y-66314942D01*
X191095649Y-66247214D01*
X191080054Y-66238676D01*
X190959606Y-66193522D01*
X190944351Y-66189895D01*
X190893486Y-66184369D01*
X190886672Y-66184000D01*
X190264115Y-66184000D01*
X190248876Y-66188475D01*
X190247671Y-66189865D01*
X190246000Y-66197548D01*
X190246000Y-70681884D01*
X190250475Y-70697123D01*
X190251865Y-70698328D01*
X190259548Y-70699999D01*
X190886669Y-70699999D01*
X190893490Y-70699629D01*
X190944352Y-70694105D01*
X190959604Y-70690479D01*
X191080054Y-70645324D01*
X191095649Y-70636786D01*
X191186018Y-70569058D01*
X191252525Y-70544210D01*
X191321907Y-70559263D01*
X191337148Y-70569058D01*
X191368323Y-70592422D01*
X191435295Y-70642615D01*
X191571684Y-70693745D01*
X191633866Y-70700500D01*
X192502826Y-70700500D01*
X192507443Y-70700585D01*
X192588673Y-70703564D01*
X192588677Y-70703564D01*
X192593837Y-70703753D01*
X192598957Y-70703097D01*
X192598959Y-70703097D01*
X192611261Y-70701521D01*
X192627271Y-70700500D01*
X193430134Y-70700500D01*
X193492316Y-70693745D01*
X193628705Y-70642615D01*
X193726436Y-70569370D01*
X193792941Y-70544522D01*
X193862324Y-70559575D01*
X193877562Y-70569368D01*
X193975295Y-70642615D01*
X194111684Y-70693745D01*
X194173866Y-70700500D01*
X195042826Y-70700500D01*
X195047443Y-70700585D01*
X195128673Y-70703564D01*
X195128677Y-70703564D01*
X195133837Y-70703753D01*
X195138957Y-70703097D01*
X195138959Y-70703097D01*
X195151261Y-70701521D01*
X195167271Y-70700500D01*
X195482406Y-70700500D01*
X195550527Y-70720502D01*
X195571501Y-70737405D01*
X196026343Y-71192247D01*
X196033887Y-71200537D01*
X196038000Y-71207018D01*
X196043777Y-71212443D01*
X196087667Y-71253658D01*
X196090509Y-71256413D01*
X196110230Y-71276134D01*
X196113425Y-71278612D01*
X196122447Y-71286318D01*
X196154679Y-71316586D01*
X196161628Y-71320406D01*
X196172432Y-71326346D01*
X196188956Y-71337199D01*
X196204959Y-71349613D01*
X196245543Y-71367176D01*
X196256173Y-71372383D01*
X196294940Y-71393695D01*
X196302617Y-71395666D01*
X196302622Y-71395668D01*
X196314558Y-71398732D01*
X196333266Y-71405137D01*
X196351855Y-71413181D01*
X196359680Y-71414420D01*
X196359682Y-71414421D01*
X196395519Y-71420097D01*
X196407140Y-71422504D01*
X196442289Y-71431528D01*
X196449970Y-71433500D01*
X196470231Y-71433500D01*
X196489940Y-71435051D01*
X196509943Y-71438219D01*
X196517835Y-71437473D01*
X196523062Y-71436979D01*
X196553954Y-71434059D01*
X196565811Y-71433500D01*
X200085406Y-71433500D01*
X200153527Y-71453502D01*
X200174501Y-71470405D01*
X200496343Y-71792247D01*
X200503887Y-71800537D01*
X200508000Y-71807018D01*
X200513777Y-71812443D01*
X200557667Y-71853658D01*
X200560509Y-71856413D01*
X200580230Y-71876134D01*
X200583425Y-71878612D01*
X200592447Y-71886318D01*
X200624679Y-71916586D01*
X200631628Y-71920406D01*
X200642432Y-71926346D01*
X200658956Y-71937199D01*
X200674959Y-71949613D01*
X200715543Y-71967176D01*
X200726173Y-71972383D01*
X200764940Y-71993695D01*
X200772617Y-71995666D01*
X200772622Y-71995668D01*
X200784558Y-71998732D01*
X200803266Y-72005137D01*
X200821855Y-72013181D01*
X200829683Y-72014421D01*
X200829690Y-72014423D01*
X200865524Y-72020099D01*
X200877144Y-72022505D01*
X200903245Y-72029206D01*
X200919970Y-72033500D01*
X200940224Y-72033500D01*
X200959934Y-72035051D01*
X200979943Y-72038220D01*
X200987835Y-72037474D01*
X200999263Y-72036394D01*
X201023962Y-72034059D01*
X201035819Y-72033500D01*
X203285406Y-72033500D01*
X203353527Y-72053502D01*
X203374501Y-72070405D01*
X203529595Y-72225499D01*
X203563621Y-72287811D01*
X203566500Y-72314594D01*
X203566500Y-82321233D01*
X203565973Y-82332416D01*
X203564298Y-82339909D01*
X203564547Y-82347835D01*
X203564547Y-82347836D01*
X203566438Y-82407986D01*
X203566500Y-82411945D01*
X203566500Y-82439856D01*
X203566997Y-82443790D01*
X203566997Y-82443791D01*
X203567005Y-82443856D01*
X203567938Y-82455693D01*
X203569327Y-82499889D01*
X203574978Y-82519339D01*
X203578987Y-82538700D01*
X203581526Y-82558797D01*
X203584445Y-82566168D01*
X203584445Y-82566170D01*
X203597804Y-82599912D01*
X203601649Y-82611142D01*
X203609089Y-82636751D01*
X203613982Y-82653593D01*
X203618015Y-82660412D01*
X203618017Y-82660417D01*
X203624293Y-82671028D01*
X203632988Y-82688776D01*
X203640448Y-82707617D01*
X203645110Y-82714033D01*
X203645110Y-82714034D01*
X203666436Y-82743387D01*
X203672952Y-82753307D01*
X203688229Y-82779138D01*
X203695458Y-82791362D01*
X203709779Y-82805683D01*
X203722619Y-82820716D01*
X203734528Y-82837107D01*
X203740634Y-82842158D01*
X203768605Y-82865298D01*
X203777384Y-82873288D01*
X205696348Y-84792253D01*
X205703888Y-84800539D01*
X205708000Y-84807018D01*
X205713777Y-84812443D01*
X205757651Y-84853643D01*
X205760493Y-84856398D01*
X205780230Y-84876135D01*
X205783427Y-84878615D01*
X205792447Y-84886318D01*
X205824679Y-84916586D01*
X205831625Y-84920405D01*
X205831628Y-84920407D01*
X205842434Y-84926348D01*
X205858953Y-84937199D01*
X205874959Y-84949614D01*
X205882228Y-84952759D01*
X205882232Y-84952762D01*
X205915537Y-84967174D01*
X205926187Y-84972391D01*
X205964940Y-84993695D01*
X205972615Y-84995666D01*
X205972616Y-84995666D01*
X205984562Y-84998733D01*
X206003267Y-85005137D01*
X206021855Y-85013181D01*
X206029678Y-85014420D01*
X206029688Y-85014423D01*
X206065524Y-85020099D01*
X206077144Y-85022505D01*
X206112289Y-85031528D01*
X206119970Y-85033500D01*
X206140224Y-85033500D01*
X206159934Y-85035051D01*
X206179943Y-85038220D01*
X206187835Y-85037474D01*
X206223961Y-85034059D01*
X206235819Y-85033500D01*
X207285406Y-85033500D01*
X207353527Y-85053502D01*
X207374501Y-85070405D01*
X207852209Y-85548113D01*
X207886235Y-85610425D01*
X207881170Y-85681240D01*
X207838623Y-85738076D01*
X207772103Y-85762887D01*
X207761575Y-85763199D01*
X207682081Y-85762228D01*
X207682079Y-85762228D01*
X207676911Y-85762165D01*
X207671797Y-85762948D01*
X207668289Y-85763193D01*
X207659496Y-85763500D01*
X206873866Y-85763500D01*
X206811684Y-85770255D01*
X206675295Y-85821385D01*
X206577565Y-85894630D01*
X206511059Y-85919478D01*
X206441676Y-85904425D01*
X206426435Y-85894630D01*
X206328705Y-85821385D01*
X206192316Y-85770255D01*
X206130134Y-85763500D01*
X205246985Y-85763500D01*
X205245446Y-85763491D01*
X205142081Y-85762228D01*
X205142079Y-85762228D01*
X205136911Y-85762165D01*
X205131797Y-85762948D01*
X205128289Y-85763193D01*
X205119496Y-85763500D01*
X204333866Y-85763500D01*
X204271684Y-85770255D01*
X204135295Y-85821385D01*
X204068323Y-85871578D01*
X204037148Y-85894942D01*
X203970642Y-85919790D01*
X203901259Y-85904737D01*
X203886018Y-85894942D01*
X203795649Y-85827214D01*
X203780054Y-85818676D01*
X203659606Y-85773522D01*
X203644351Y-85769895D01*
X203593486Y-85764369D01*
X203586672Y-85764000D01*
X202964115Y-85764000D01*
X202948876Y-85768475D01*
X202947671Y-85769865D01*
X202946000Y-85777548D01*
X202946000Y-90261884D01*
X202950475Y-90277123D01*
X202951865Y-90278328D01*
X202959548Y-90279999D01*
X203586669Y-90279999D01*
X203593490Y-90279629D01*
X203644352Y-90274105D01*
X203659604Y-90270479D01*
X203780054Y-90225324D01*
X203795649Y-90216786D01*
X203886018Y-90149058D01*
X203952525Y-90124210D01*
X204021907Y-90139263D01*
X204037148Y-90149058D01*
X204063617Y-90168895D01*
X204135295Y-90222615D01*
X204271684Y-90273745D01*
X204333866Y-90280500D01*
X204472500Y-90280500D01*
X204540621Y-90300502D01*
X204587114Y-90354158D01*
X204598500Y-90406500D01*
X204598500Y-93953233D01*
X204597973Y-93964416D01*
X204596298Y-93971909D01*
X204596547Y-93979835D01*
X204596547Y-93979836D01*
X204598438Y-94039986D01*
X204598500Y-94043945D01*
X204598500Y-94071856D01*
X204598997Y-94075790D01*
X204598997Y-94075791D01*
X204599005Y-94075856D01*
X204599938Y-94087693D01*
X204601327Y-94131889D01*
X204605960Y-94147836D01*
X204606978Y-94151339D01*
X204610987Y-94170700D01*
X204613526Y-94190797D01*
X204616445Y-94198168D01*
X204616445Y-94198170D01*
X204629804Y-94231912D01*
X204633649Y-94243142D01*
X204635572Y-94249760D01*
X204645982Y-94285593D01*
X204650015Y-94292412D01*
X204650017Y-94292417D01*
X204656293Y-94303028D01*
X204664988Y-94320776D01*
X204672448Y-94339617D01*
X204677110Y-94346033D01*
X204677110Y-94346034D01*
X204698436Y-94375387D01*
X204704952Y-94385307D01*
X204713590Y-94399912D01*
X204727458Y-94423362D01*
X204741779Y-94437683D01*
X204754619Y-94452716D01*
X204766528Y-94469107D01*
X204772634Y-94474158D01*
X204800605Y-94497298D01*
X204809384Y-94505288D01*
X208644870Y-98340774D01*
X208678896Y-98403086D01*
X208673831Y-98473901D01*
X208631284Y-98530737D01*
X208602056Y-98547061D01*
X208398971Y-98627263D01*
X208389439Y-98631994D01*
X208201538Y-98746016D01*
X208192948Y-98752280D01*
X208026948Y-98896327D01*
X208019528Y-98903958D01*
X207880174Y-99073911D01*
X207874152Y-99082674D01*
X207858762Y-99109711D01*
X207807680Y-99159018D01*
X207738049Y-99172880D01*
X207671978Y-99146897D01*
X207644739Y-99117747D01*
X207581606Y-99023973D01*
X207562559Y-98995681D01*
X207555304Y-98988075D01*
X207481985Y-98911218D01*
X207403424Y-98828865D01*
X207218458Y-98691246D01*
X207213707Y-98688830D01*
X207213703Y-98688828D01*
X207101918Y-98631994D01*
X207012949Y-98586760D01*
X207007855Y-98585178D01*
X207007852Y-98585177D01*
X206797871Y-98519976D01*
X206792773Y-98518393D01*
X206787484Y-98517692D01*
X206569511Y-98488802D01*
X206569506Y-98488802D01*
X206564226Y-98488102D01*
X206558897Y-98488302D01*
X206558895Y-98488302D01*
X206450193Y-98492383D01*
X206333842Y-98496751D01*
X206328623Y-98497846D01*
X206266369Y-98510908D01*
X206108209Y-98544093D01*
X206103250Y-98546051D01*
X206103248Y-98546052D01*
X205898744Y-98626815D01*
X205898742Y-98626816D01*
X205893779Y-98628776D01*
X205889220Y-98631543D01*
X205889217Y-98631544D01*
X205794113Y-98689255D01*
X205696683Y-98748377D01*
X205692653Y-98751874D01*
X205538123Y-98885968D01*
X205522555Y-98899477D01*
X205499786Y-98927246D01*
X205379760Y-99073627D01*
X205379756Y-99073633D01*
X205376376Y-99077755D01*
X205358448Y-99109250D01*
X205307368Y-99158555D01*
X205237738Y-99172417D01*
X205171667Y-99146434D01*
X205144427Y-99117284D01*
X205117814Y-99077755D01*
X205062559Y-98995681D01*
X205055304Y-98988075D01*
X204981985Y-98911218D01*
X204903424Y-98828865D01*
X204718458Y-98691246D01*
X204713707Y-98688830D01*
X204713703Y-98688828D01*
X204601918Y-98631994D01*
X204512949Y-98586760D01*
X204507855Y-98585178D01*
X204507852Y-98585177D01*
X204297871Y-98519976D01*
X204292773Y-98518393D01*
X204287484Y-98517692D01*
X204069511Y-98488802D01*
X204069506Y-98488802D01*
X204064226Y-98488102D01*
X204058897Y-98488302D01*
X204058895Y-98488302D01*
X203950193Y-98492383D01*
X203833842Y-98496751D01*
X203828623Y-98497846D01*
X203766369Y-98510908D01*
X203608209Y-98544093D01*
X203603250Y-98546051D01*
X203603248Y-98546052D01*
X203398744Y-98626815D01*
X203398742Y-98626816D01*
X203393779Y-98628776D01*
X203389220Y-98631543D01*
X203389217Y-98631544D01*
X203294113Y-98689255D01*
X203196683Y-98748377D01*
X203192653Y-98751874D01*
X203038123Y-98885968D01*
X203022555Y-98899477D01*
X202993330Y-98935120D01*
X202934671Y-98975114D01*
X202863701Y-98977046D01*
X202802952Y-98940302D01*
X202788752Y-98921532D01*
X202702332Y-98781880D01*
X202698478Y-98775652D01*
X202573303Y-98650695D01*
X202551018Y-98636958D01*
X202428968Y-98561725D01*
X202428966Y-98561724D01*
X202422738Y-98557885D01*
X202309353Y-98520277D01*
X202261389Y-98504368D01*
X202261387Y-98504368D01*
X202254861Y-98502203D01*
X202248025Y-98501503D01*
X202248022Y-98501502D01*
X202204558Y-98497049D01*
X202150400Y-98491500D01*
X200964595Y-98491500D01*
X200896474Y-98471498D01*
X200875500Y-98454595D01*
X200822405Y-98401500D01*
X200788379Y-98339188D01*
X200785500Y-98312405D01*
X200785500Y-90406500D01*
X200805502Y-90338379D01*
X200859158Y-90291886D01*
X200911500Y-90280500D01*
X201050134Y-90280500D01*
X201112316Y-90273745D01*
X201248705Y-90222615D01*
X201320383Y-90168895D01*
X201346852Y-90149058D01*
X201413358Y-90124210D01*
X201482741Y-90139263D01*
X201497982Y-90149058D01*
X201588351Y-90216786D01*
X201603946Y-90225324D01*
X201724394Y-90270478D01*
X201739649Y-90274105D01*
X201790514Y-90279631D01*
X201797328Y-90280000D01*
X202419885Y-90280000D01*
X202435124Y-90275525D01*
X202436329Y-90274135D01*
X202438000Y-90266452D01*
X202438000Y-85782116D01*
X202433525Y-85766877D01*
X202432135Y-85765672D01*
X202424452Y-85764001D01*
X201797331Y-85764001D01*
X201790510Y-85764371D01*
X201739648Y-85769895D01*
X201724396Y-85773521D01*
X201603946Y-85818676D01*
X201588351Y-85827214D01*
X201497982Y-85894942D01*
X201431475Y-85919790D01*
X201362093Y-85904737D01*
X201346852Y-85894942D01*
X201315677Y-85871578D01*
X201248705Y-85821385D01*
X201112316Y-85770255D01*
X201050134Y-85763500D01*
X200166985Y-85763500D01*
X200165446Y-85763491D01*
X200062081Y-85762228D01*
X200062079Y-85762228D01*
X200056911Y-85762165D01*
X200051797Y-85762948D01*
X200048289Y-85763193D01*
X200039496Y-85763500D01*
X199253866Y-85763500D01*
X199191684Y-85770255D01*
X199055295Y-85821385D01*
X198957565Y-85894630D01*
X198891059Y-85919478D01*
X198821676Y-85904425D01*
X198806435Y-85894630D01*
X198708705Y-85821385D01*
X198572316Y-85770255D01*
X198510134Y-85763500D01*
X197626985Y-85763500D01*
X197625446Y-85763491D01*
X197522081Y-85762228D01*
X197522079Y-85762228D01*
X197516911Y-85762165D01*
X197511797Y-85762948D01*
X197508289Y-85763193D01*
X197499496Y-85763500D01*
X196713866Y-85763500D01*
X196651684Y-85770255D01*
X196515295Y-85821385D01*
X196417565Y-85894630D01*
X196351059Y-85919478D01*
X196281676Y-85904425D01*
X196266435Y-85894630D01*
X196168705Y-85821385D01*
X196032316Y-85770255D01*
X195970134Y-85763500D01*
X195086985Y-85763500D01*
X195085446Y-85763491D01*
X194982081Y-85762228D01*
X194982079Y-85762228D01*
X194976911Y-85762165D01*
X194971797Y-85762948D01*
X194968289Y-85763193D01*
X194959496Y-85763500D01*
X194173866Y-85763500D01*
X194111684Y-85770255D01*
X193975295Y-85821385D01*
X193877565Y-85894630D01*
X193811059Y-85919478D01*
X193741676Y-85904425D01*
X193726435Y-85894630D01*
X193628705Y-85821385D01*
X193492316Y-85770255D01*
X193430134Y-85763500D01*
X192546985Y-85763500D01*
X192545446Y-85763491D01*
X192442081Y-85762228D01*
X192442079Y-85762228D01*
X192436911Y-85762165D01*
X192431797Y-85762948D01*
X192428289Y-85763193D01*
X192419496Y-85763500D01*
X191633866Y-85763500D01*
X191571684Y-85770255D01*
X191435295Y-85821385D01*
X191368323Y-85871578D01*
X191337148Y-85894942D01*
X191270642Y-85919790D01*
X191201259Y-85904737D01*
X191186018Y-85894942D01*
X191095649Y-85827214D01*
X191080054Y-85818676D01*
X190959606Y-85773522D01*
X190944351Y-85769895D01*
X190893486Y-85764369D01*
X190886672Y-85764000D01*
X190264115Y-85764000D01*
X190248876Y-85768475D01*
X190247671Y-85769865D01*
X190246000Y-85777548D01*
X190246000Y-90261884D01*
X190250475Y-90277123D01*
X190251865Y-90278328D01*
X190259548Y-90279999D01*
X190886669Y-90279999D01*
X190893490Y-90279629D01*
X190944352Y-90274105D01*
X190959604Y-90270479D01*
X191080054Y-90225324D01*
X191095649Y-90216786D01*
X191186018Y-90149058D01*
X191252525Y-90124210D01*
X191321907Y-90139263D01*
X191337148Y-90149058D01*
X191363617Y-90168895D01*
X191435295Y-90222615D01*
X191571684Y-90273745D01*
X191633866Y-90280500D01*
X191772500Y-90280500D01*
X191840621Y-90300502D01*
X191887114Y-90354158D01*
X191898500Y-90406500D01*
X191898500Y-94653233D01*
X191897973Y-94664416D01*
X191896298Y-94671909D01*
X191896547Y-94679835D01*
X191896547Y-94679836D01*
X191898438Y-94739986D01*
X191898500Y-94743945D01*
X191898500Y-94771856D01*
X191898997Y-94775790D01*
X191898997Y-94775791D01*
X191899005Y-94775856D01*
X191899938Y-94787693D01*
X191901327Y-94831889D01*
X191905572Y-94846500D01*
X191906978Y-94851339D01*
X191910987Y-94870700D01*
X191913526Y-94890797D01*
X191916445Y-94898168D01*
X191916445Y-94898170D01*
X191929804Y-94931912D01*
X191933649Y-94943142D01*
X191945982Y-94985593D01*
X191950015Y-94992412D01*
X191950017Y-94992417D01*
X191956293Y-95003028D01*
X191964988Y-95020776D01*
X191972448Y-95039617D01*
X191977110Y-95046033D01*
X191977110Y-95046034D01*
X191998436Y-95075387D01*
X192004952Y-95085307D01*
X192023019Y-95115856D01*
X192027458Y-95123362D01*
X192041779Y-95137683D01*
X192054619Y-95152716D01*
X192066528Y-95169107D01*
X192079497Y-95179836D01*
X192100605Y-95197298D01*
X192109384Y-95205288D01*
X195225041Y-98320945D01*
X195259067Y-98383257D01*
X195254002Y-98454072D01*
X195211455Y-98510908D01*
X195161821Y-98533355D01*
X195113578Y-98543478D01*
X195103383Y-98546537D01*
X194898971Y-98627263D01*
X194889439Y-98631994D01*
X194701538Y-98746016D01*
X194692948Y-98752280D01*
X194526948Y-98896327D01*
X194519528Y-98903958D01*
X194380174Y-99073911D01*
X194374152Y-99082674D01*
X194358762Y-99109711D01*
X194307680Y-99159018D01*
X194238049Y-99172880D01*
X194171978Y-99146897D01*
X194144739Y-99117747D01*
X194081606Y-99023973D01*
X194062559Y-98995681D01*
X194055304Y-98988075D01*
X193981985Y-98911218D01*
X193903424Y-98828865D01*
X193718458Y-98691246D01*
X193713707Y-98688830D01*
X193713703Y-98688828D01*
X193601918Y-98631994D01*
X193512949Y-98586760D01*
X193507855Y-98585178D01*
X193507852Y-98585177D01*
X193297871Y-98519976D01*
X193292773Y-98518393D01*
X193287484Y-98517692D01*
X193069511Y-98488802D01*
X193069506Y-98488802D01*
X193064226Y-98488102D01*
X193058897Y-98488302D01*
X193058895Y-98488302D01*
X192950193Y-98492383D01*
X192833842Y-98496751D01*
X192828623Y-98497846D01*
X192766369Y-98510908D01*
X192608209Y-98544093D01*
X192603250Y-98546051D01*
X192603248Y-98546052D01*
X192398744Y-98626815D01*
X192398742Y-98626816D01*
X192393779Y-98628776D01*
X192389220Y-98631543D01*
X192389217Y-98631544D01*
X192294113Y-98689255D01*
X192196683Y-98748377D01*
X192192653Y-98751874D01*
X192038123Y-98885968D01*
X192022555Y-98899477D01*
X191999786Y-98927246D01*
X191879760Y-99073627D01*
X191879756Y-99073633D01*
X191876376Y-99077755D01*
X191858448Y-99109250D01*
X191807368Y-99158555D01*
X191737738Y-99172417D01*
X191671667Y-99146434D01*
X191644427Y-99117284D01*
X191617814Y-99077755D01*
X191562559Y-98995681D01*
X191555304Y-98988075D01*
X191481985Y-98911218D01*
X191403424Y-98828865D01*
X191218458Y-98691246D01*
X191213707Y-98688830D01*
X191213703Y-98688828D01*
X191101918Y-98631994D01*
X191012949Y-98586760D01*
X191007855Y-98585178D01*
X191007852Y-98585177D01*
X190797871Y-98519976D01*
X190792773Y-98518393D01*
X190787484Y-98517692D01*
X190569511Y-98488802D01*
X190569506Y-98488802D01*
X190564226Y-98488102D01*
X190558897Y-98488302D01*
X190558895Y-98488302D01*
X190450193Y-98492383D01*
X190333842Y-98496751D01*
X190328623Y-98497846D01*
X190266369Y-98510908D01*
X190108209Y-98544093D01*
X190103250Y-98546051D01*
X190103248Y-98546052D01*
X189898744Y-98626815D01*
X189898742Y-98626816D01*
X189893779Y-98628776D01*
X189889220Y-98631543D01*
X189889217Y-98631544D01*
X189794113Y-98689255D01*
X189696683Y-98748377D01*
X189692653Y-98751874D01*
X189538123Y-98885968D01*
X189522555Y-98899477D01*
X189493330Y-98935120D01*
X189434671Y-98975114D01*
X189363701Y-98977046D01*
X189302952Y-98940302D01*
X189288752Y-98921532D01*
X189202332Y-98781880D01*
X189198478Y-98775652D01*
X189073303Y-98650695D01*
X189051018Y-98636958D01*
X188928968Y-98561725D01*
X188928966Y-98561724D01*
X188922738Y-98557885D01*
X188809353Y-98520277D01*
X188761389Y-98504368D01*
X188761387Y-98504368D01*
X188754861Y-98502203D01*
X188748025Y-98501503D01*
X188748022Y-98501502D01*
X188704558Y-98497049D01*
X188650400Y-98491500D01*
X188211500Y-98491500D01*
X188143379Y-98471498D01*
X188096886Y-98417842D01*
X188085500Y-98365500D01*
X188085500Y-90406500D01*
X188105502Y-90338379D01*
X188159158Y-90291886D01*
X188211500Y-90280500D01*
X188350134Y-90280500D01*
X188412316Y-90273745D01*
X188548705Y-90222615D01*
X188620383Y-90168895D01*
X188646852Y-90149058D01*
X188713358Y-90124210D01*
X188782741Y-90139263D01*
X188797982Y-90149058D01*
X188888351Y-90216786D01*
X188903946Y-90225324D01*
X189024394Y-90270478D01*
X189039649Y-90274105D01*
X189090514Y-90279631D01*
X189097328Y-90280000D01*
X189719885Y-90280000D01*
X189735124Y-90275525D01*
X189736329Y-90274135D01*
X189738000Y-90266452D01*
X189738000Y-85782116D01*
X189733525Y-85766877D01*
X189732135Y-85765672D01*
X189724452Y-85764001D01*
X189097331Y-85764001D01*
X189090510Y-85764371D01*
X189039648Y-85769895D01*
X189024396Y-85773521D01*
X188903946Y-85818676D01*
X188888351Y-85827214D01*
X188797982Y-85894942D01*
X188731475Y-85919790D01*
X188662093Y-85904737D01*
X188646852Y-85894942D01*
X188615677Y-85871578D01*
X188548705Y-85821385D01*
X188412316Y-85770255D01*
X188350134Y-85763500D01*
X187466985Y-85763500D01*
X187465446Y-85763491D01*
X187362081Y-85762228D01*
X187362079Y-85762228D01*
X187356911Y-85762165D01*
X187351797Y-85762948D01*
X187348289Y-85763193D01*
X187339496Y-85763500D01*
X186553866Y-85763500D01*
X186491684Y-85770255D01*
X186355295Y-85821385D01*
X186257565Y-85894630D01*
X186191059Y-85919478D01*
X186121676Y-85904425D01*
X186106435Y-85894630D01*
X186008705Y-85821385D01*
X185872316Y-85770255D01*
X185810134Y-85763500D01*
X184926985Y-85763500D01*
X184925446Y-85763491D01*
X184822081Y-85762228D01*
X184822079Y-85762228D01*
X184816911Y-85762165D01*
X184811797Y-85762948D01*
X184808289Y-85763193D01*
X184799496Y-85763500D01*
X184013866Y-85763500D01*
X183951684Y-85770255D01*
X183815295Y-85821385D01*
X183717565Y-85894630D01*
X183651059Y-85919478D01*
X183581676Y-85904425D01*
X183566435Y-85894630D01*
X183468705Y-85821385D01*
X183332316Y-85770255D01*
X183270134Y-85763500D01*
X182386985Y-85763500D01*
X182385446Y-85763491D01*
X182282081Y-85762228D01*
X182282079Y-85762228D01*
X182276911Y-85762165D01*
X182271797Y-85762948D01*
X182268289Y-85763193D01*
X182259496Y-85763500D01*
X181473866Y-85763500D01*
X181411684Y-85770255D01*
X181275295Y-85821385D01*
X181177565Y-85894630D01*
X181111059Y-85919478D01*
X181041676Y-85904425D01*
X181026435Y-85894630D01*
X180928705Y-85821385D01*
X180792316Y-85770255D01*
X180730134Y-85763500D01*
X179846985Y-85763500D01*
X179845446Y-85763491D01*
X179742081Y-85762228D01*
X179742079Y-85762228D01*
X179736911Y-85762165D01*
X179731797Y-85762948D01*
X179728289Y-85763193D01*
X179719496Y-85763500D01*
X178933866Y-85763500D01*
X178871684Y-85770255D01*
X178735295Y-85821385D01*
X178668323Y-85871578D01*
X178637148Y-85894942D01*
X178570642Y-85919790D01*
X178501259Y-85904737D01*
X178486018Y-85894942D01*
X178395649Y-85827214D01*
X178380054Y-85818676D01*
X178259606Y-85773522D01*
X178244351Y-85769895D01*
X178193486Y-85764369D01*
X178186672Y-85764000D01*
X177564115Y-85764000D01*
X177548876Y-85768475D01*
X177547671Y-85769865D01*
X177546000Y-85777548D01*
X177546000Y-90261884D01*
X177550475Y-90277123D01*
X177551865Y-90278328D01*
X177559548Y-90279999D01*
X178186669Y-90279999D01*
X178193490Y-90279629D01*
X178244352Y-90274105D01*
X178259604Y-90270479D01*
X178380054Y-90225324D01*
X178395649Y-90216786D01*
X178486018Y-90149058D01*
X178552525Y-90124210D01*
X178621907Y-90139263D01*
X178637148Y-90149058D01*
X178663617Y-90168895D01*
X178735295Y-90222615D01*
X178871684Y-90273745D01*
X178933866Y-90280500D01*
X179072500Y-90280500D01*
X179140621Y-90300502D01*
X179187114Y-90354158D01*
X179198500Y-90406500D01*
X179198500Y-95153233D01*
X179197973Y-95164416D01*
X179196298Y-95171909D01*
X179196547Y-95179835D01*
X179196547Y-95179836D01*
X179198438Y-95239986D01*
X179198500Y-95243945D01*
X179198500Y-95271856D01*
X179198997Y-95275790D01*
X179198997Y-95275791D01*
X179199005Y-95275856D01*
X179199938Y-95287693D01*
X179201327Y-95331889D01*
X179206978Y-95351339D01*
X179210987Y-95370700D01*
X179212114Y-95379617D01*
X179213526Y-95390797D01*
X179216445Y-95398168D01*
X179216445Y-95398170D01*
X179229804Y-95431912D01*
X179233649Y-95443142D01*
X179243684Y-95477683D01*
X179245982Y-95485593D01*
X179250015Y-95492412D01*
X179250017Y-95492417D01*
X179256293Y-95503028D01*
X179264988Y-95520776D01*
X179272448Y-95539617D01*
X179277110Y-95546033D01*
X179277110Y-95546034D01*
X179298436Y-95575387D01*
X179304952Y-95585307D01*
X179327458Y-95623362D01*
X179341779Y-95637683D01*
X179354619Y-95652716D01*
X179366528Y-95669107D01*
X179372634Y-95674158D01*
X179400605Y-95697298D01*
X179409384Y-95705288D01*
X181983877Y-98279782D01*
X182017902Y-98342092D01*
X182012837Y-98412907D01*
X181970290Y-98469743D01*
X181899508Y-98494786D01*
X181839234Y-98497049D01*
X181828685Y-98498344D01*
X181613580Y-98543477D01*
X181603383Y-98546537D01*
X181398971Y-98627263D01*
X181389439Y-98631994D01*
X181201538Y-98746016D01*
X181192948Y-98752280D01*
X181026948Y-98896327D01*
X181019528Y-98903958D01*
X180880174Y-99073911D01*
X180874152Y-99082674D01*
X180858762Y-99109711D01*
X180807680Y-99159018D01*
X180738049Y-99172880D01*
X180671978Y-99146897D01*
X180644739Y-99117747D01*
X180581606Y-99023973D01*
X180562559Y-98995681D01*
X180555304Y-98988075D01*
X180481985Y-98911218D01*
X180403424Y-98828865D01*
X180218458Y-98691246D01*
X180213707Y-98688830D01*
X180213703Y-98688828D01*
X180101918Y-98631994D01*
X180012949Y-98586760D01*
X180007855Y-98585178D01*
X180007852Y-98585177D01*
X179797871Y-98519976D01*
X179792773Y-98518393D01*
X179787484Y-98517692D01*
X179569511Y-98488802D01*
X179569506Y-98488802D01*
X179564226Y-98488102D01*
X179558897Y-98488302D01*
X179558895Y-98488302D01*
X179450193Y-98492383D01*
X179333842Y-98496751D01*
X179328623Y-98497846D01*
X179266369Y-98510908D01*
X179108209Y-98544093D01*
X179103250Y-98546051D01*
X179103248Y-98546052D01*
X178898744Y-98626815D01*
X178898742Y-98626816D01*
X178893779Y-98628776D01*
X178889220Y-98631543D01*
X178889217Y-98631544D01*
X178794113Y-98689255D01*
X178696683Y-98748377D01*
X178692653Y-98751874D01*
X178538123Y-98885968D01*
X178522555Y-98899477D01*
X178499786Y-98927246D01*
X178379760Y-99073627D01*
X178379756Y-99073633D01*
X178376376Y-99077755D01*
X178358448Y-99109250D01*
X178307368Y-99158555D01*
X178237738Y-99172417D01*
X178171667Y-99146434D01*
X178144427Y-99117284D01*
X178117814Y-99077755D01*
X178062559Y-98995681D01*
X178055304Y-98988075D01*
X177981985Y-98911218D01*
X177903424Y-98828865D01*
X177718458Y-98691246D01*
X177713707Y-98688830D01*
X177713703Y-98688828D01*
X177601918Y-98631994D01*
X177512949Y-98586760D01*
X177507855Y-98585178D01*
X177507852Y-98585177D01*
X177297871Y-98519976D01*
X177292773Y-98518393D01*
X177287484Y-98517692D01*
X177069511Y-98488802D01*
X177069506Y-98488802D01*
X177064226Y-98488102D01*
X177058897Y-98488302D01*
X177058895Y-98488302D01*
X176950193Y-98492383D01*
X176833842Y-98496751D01*
X176828623Y-98497846D01*
X176766369Y-98510908D01*
X176608209Y-98544093D01*
X176603250Y-98546051D01*
X176603248Y-98546052D01*
X176398744Y-98626815D01*
X176398742Y-98626816D01*
X176393779Y-98628776D01*
X176389220Y-98631543D01*
X176389217Y-98631544D01*
X176294113Y-98689255D01*
X176196683Y-98748377D01*
X176192653Y-98751874D01*
X176038123Y-98885968D01*
X176022555Y-98899477D01*
X175993330Y-98935120D01*
X175934671Y-98975114D01*
X175863701Y-98977046D01*
X175802952Y-98940302D01*
X175788752Y-98921532D01*
X175702332Y-98781880D01*
X175698478Y-98775652D01*
X175573303Y-98650695D01*
X175551018Y-98636958D01*
X175445384Y-98571844D01*
X175397890Y-98519071D01*
X175385500Y-98464584D01*
X175385500Y-90406500D01*
X175405502Y-90338379D01*
X175459158Y-90291886D01*
X175511500Y-90280500D01*
X175650134Y-90280500D01*
X175712316Y-90273745D01*
X175848705Y-90222615D01*
X175920383Y-90168895D01*
X175946852Y-90149058D01*
X176013358Y-90124210D01*
X176082741Y-90139263D01*
X176097982Y-90149058D01*
X176188351Y-90216786D01*
X176203946Y-90225324D01*
X176324394Y-90270478D01*
X176339649Y-90274105D01*
X176390514Y-90279631D01*
X176397328Y-90280000D01*
X177019885Y-90280000D01*
X177035124Y-90275525D01*
X177036329Y-90274135D01*
X177038000Y-90266452D01*
X177038000Y-85782116D01*
X177033525Y-85766877D01*
X177032135Y-85765672D01*
X177024452Y-85764001D01*
X176397331Y-85764001D01*
X176390510Y-85764371D01*
X176339648Y-85769895D01*
X176324396Y-85773521D01*
X176203946Y-85818676D01*
X176188351Y-85827214D01*
X176097982Y-85894942D01*
X176031475Y-85919790D01*
X175962093Y-85904737D01*
X175946852Y-85894942D01*
X175915677Y-85871578D01*
X175848705Y-85821385D01*
X175712316Y-85770255D01*
X175650134Y-85763500D01*
X174766985Y-85763500D01*
X174765446Y-85763491D01*
X174662081Y-85762228D01*
X174662079Y-85762228D01*
X174656911Y-85762165D01*
X174651797Y-85762948D01*
X174648289Y-85763193D01*
X174639496Y-85763500D01*
X173853866Y-85763500D01*
X173791684Y-85770255D01*
X173655295Y-85821385D01*
X173557565Y-85894630D01*
X173491059Y-85919478D01*
X173421676Y-85904425D01*
X173406435Y-85894630D01*
X173308705Y-85821385D01*
X173172316Y-85770255D01*
X173110134Y-85763500D01*
X172226985Y-85763500D01*
X172225446Y-85763491D01*
X172122081Y-85762228D01*
X172122079Y-85762228D01*
X172116911Y-85762165D01*
X172111797Y-85762948D01*
X172108289Y-85763193D01*
X172099496Y-85763500D01*
X171313866Y-85763500D01*
X171251684Y-85770255D01*
X171115295Y-85821385D01*
X171017565Y-85894630D01*
X170951059Y-85919478D01*
X170881676Y-85904425D01*
X170866435Y-85894630D01*
X170768705Y-85821385D01*
X170632316Y-85770255D01*
X170570134Y-85763500D01*
X169686985Y-85763500D01*
X169685446Y-85763491D01*
X169582081Y-85762228D01*
X169582079Y-85762228D01*
X169576911Y-85762165D01*
X169571797Y-85762948D01*
X169568289Y-85763193D01*
X169559496Y-85763500D01*
X168773866Y-85763500D01*
X168711684Y-85770255D01*
X168575295Y-85821385D01*
X168477565Y-85894630D01*
X168411059Y-85919478D01*
X168341676Y-85904425D01*
X168326435Y-85894630D01*
X168228705Y-85821385D01*
X168092316Y-85770255D01*
X168030134Y-85763500D01*
X167146985Y-85763500D01*
X167145446Y-85763491D01*
X167042081Y-85762228D01*
X167042079Y-85762228D01*
X167036911Y-85762165D01*
X167031797Y-85762948D01*
X167028289Y-85763193D01*
X167019496Y-85763500D01*
X166233866Y-85763500D01*
X166171684Y-85770255D01*
X166035295Y-85821385D01*
X165968323Y-85871578D01*
X165937148Y-85894942D01*
X165870642Y-85919790D01*
X165801259Y-85904737D01*
X165786018Y-85894942D01*
X165695649Y-85827214D01*
X165680054Y-85818676D01*
X165559606Y-85773522D01*
X165544351Y-85769895D01*
X165493486Y-85764369D01*
X165486672Y-85764000D01*
X164864115Y-85764000D01*
X164848876Y-85768475D01*
X164847671Y-85769865D01*
X164846000Y-85777548D01*
X164846000Y-90261884D01*
X164850475Y-90277123D01*
X164851865Y-90278328D01*
X164859548Y-90279999D01*
X165486669Y-90279999D01*
X165493490Y-90279629D01*
X165544352Y-90274105D01*
X165559604Y-90270479D01*
X165680054Y-90225324D01*
X165695649Y-90216786D01*
X165786018Y-90149058D01*
X165852525Y-90124210D01*
X165921907Y-90139263D01*
X165937148Y-90149058D01*
X165963617Y-90168895D01*
X166035295Y-90222615D01*
X166171684Y-90273745D01*
X166233866Y-90280500D01*
X166372500Y-90280500D01*
X166440621Y-90300502D01*
X166487114Y-90354158D01*
X166498500Y-90406500D01*
X166498500Y-96053233D01*
X166497973Y-96064416D01*
X166496298Y-96071909D01*
X166496547Y-96079835D01*
X166496547Y-96079836D01*
X166498438Y-96139986D01*
X166498500Y-96143945D01*
X166498500Y-96171856D01*
X166498997Y-96175790D01*
X166498997Y-96175791D01*
X166499005Y-96175856D01*
X166499938Y-96187693D01*
X166501327Y-96231889D01*
X166506978Y-96251339D01*
X166510987Y-96270700D01*
X166513526Y-96290797D01*
X166516445Y-96298168D01*
X166516445Y-96298170D01*
X166529804Y-96331912D01*
X166533649Y-96343142D01*
X166545982Y-96385593D01*
X166550015Y-96392412D01*
X166550017Y-96392417D01*
X166556293Y-96403028D01*
X166564988Y-96420776D01*
X166572448Y-96439617D01*
X166577110Y-96446033D01*
X166577110Y-96446034D01*
X166598436Y-96475387D01*
X166604952Y-96485307D01*
X166627458Y-96523362D01*
X166641779Y-96537683D01*
X166654619Y-96552716D01*
X166666528Y-96569107D01*
X166695691Y-96593233D01*
X166700605Y-96597298D01*
X166709384Y-96605288D01*
X168390355Y-98286259D01*
X168424381Y-98348571D01*
X168419316Y-98419386D01*
X168376769Y-98476222D01*
X168327134Y-98498669D01*
X168113580Y-98543477D01*
X168103383Y-98546537D01*
X167898971Y-98627263D01*
X167889439Y-98631994D01*
X167701538Y-98746016D01*
X167692948Y-98752280D01*
X167526948Y-98896327D01*
X167519528Y-98903958D01*
X167380174Y-99073911D01*
X167374152Y-99082674D01*
X167358762Y-99109711D01*
X167307680Y-99159018D01*
X167238049Y-99172880D01*
X167171978Y-99146897D01*
X167144739Y-99117747D01*
X167081606Y-99023973D01*
X167062559Y-98995681D01*
X167055304Y-98988075D01*
X166981985Y-98911218D01*
X166903424Y-98828865D01*
X166718458Y-98691246D01*
X166713707Y-98688830D01*
X166713703Y-98688828D01*
X166601918Y-98631994D01*
X166512949Y-98586760D01*
X166507855Y-98585178D01*
X166507852Y-98585177D01*
X166297871Y-98519976D01*
X166292773Y-98518393D01*
X166287484Y-98517692D01*
X166069511Y-98488802D01*
X166069506Y-98488802D01*
X166064226Y-98488102D01*
X166058897Y-98488302D01*
X166058895Y-98488302D01*
X165950193Y-98492383D01*
X165833842Y-98496751D01*
X165828623Y-98497846D01*
X165766369Y-98510908D01*
X165608209Y-98544093D01*
X165603250Y-98546051D01*
X165603248Y-98546052D01*
X165398744Y-98626815D01*
X165398742Y-98626816D01*
X165393779Y-98628776D01*
X165389220Y-98631543D01*
X165389217Y-98631544D01*
X165294113Y-98689255D01*
X165196683Y-98748377D01*
X165192653Y-98751874D01*
X165038123Y-98885968D01*
X165022555Y-98899477D01*
X164999786Y-98927246D01*
X164879760Y-99073627D01*
X164879756Y-99073633D01*
X164876376Y-99077755D01*
X164858448Y-99109250D01*
X164807368Y-99158555D01*
X164737738Y-99172417D01*
X164671667Y-99146434D01*
X164644427Y-99117284D01*
X164617814Y-99077755D01*
X164562559Y-98995681D01*
X164555304Y-98988075D01*
X164481985Y-98911218D01*
X164403424Y-98828865D01*
X164218458Y-98691246D01*
X164213707Y-98688830D01*
X164213703Y-98688828D01*
X164101918Y-98631994D01*
X164012949Y-98586760D01*
X164007855Y-98585178D01*
X164007852Y-98585177D01*
X163797871Y-98519976D01*
X163792773Y-98518393D01*
X163787484Y-98517692D01*
X163569511Y-98488802D01*
X163569506Y-98488802D01*
X163564226Y-98488102D01*
X163558897Y-98488302D01*
X163558895Y-98488302D01*
X163450193Y-98492383D01*
X163333842Y-98496751D01*
X163328623Y-98497846D01*
X163266369Y-98510908D01*
X163108209Y-98544093D01*
X163103250Y-98546051D01*
X163103248Y-98546052D01*
X162898744Y-98626815D01*
X162898742Y-98626816D01*
X162893779Y-98628776D01*
X162889219Y-98631543D01*
X162889211Y-98631547D01*
X162876865Y-98639039D01*
X162808251Y-98657278D01*
X162740669Y-98635526D01*
X162695575Y-98580690D01*
X162685500Y-98531320D01*
X162685500Y-90406500D01*
X162705502Y-90338379D01*
X162759158Y-90291886D01*
X162811500Y-90280500D01*
X162950134Y-90280500D01*
X163012316Y-90273745D01*
X163148705Y-90222615D01*
X163220383Y-90168895D01*
X163246852Y-90149058D01*
X163313358Y-90124210D01*
X163382741Y-90139263D01*
X163397982Y-90149058D01*
X163488351Y-90216786D01*
X163503946Y-90225324D01*
X163624394Y-90270478D01*
X163639649Y-90274105D01*
X163690514Y-90279631D01*
X163697328Y-90280000D01*
X164319885Y-90280000D01*
X164335124Y-90275525D01*
X164336329Y-90274135D01*
X164338000Y-90266452D01*
X164338000Y-85782116D01*
X164333525Y-85766877D01*
X164332135Y-85765672D01*
X164324452Y-85764001D01*
X163697331Y-85764001D01*
X163690510Y-85764371D01*
X163639648Y-85769895D01*
X163624396Y-85773521D01*
X163503946Y-85818676D01*
X163488351Y-85827214D01*
X163397982Y-85894942D01*
X163331475Y-85919790D01*
X163262093Y-85904737D01*
X163246852Y-85894942D01*
X163215677Y-85871578D01*
X163148705Y-85821385D01*
X163012316Y-85770255D01*
X162950134Y-85763500D01*
X162066985Y-85763500D01*
X162065446Y-85763491D01*
X161962081Y-85762228D01*
X161962079Y-85762228D01*
X161956911Y-85762165D01*
X161951797Y-85762948D01*
X161948289Y-85763193D01*
X161939496Y-85763500D01*
X161153866Y-85763500D01*
X161091684Y-85770255D01*
X160955295Y-85821385D01*
X160857565Y-85894630D01*
X160791059Y-85919478D01*
X160721676Y-85904425D01*
X160706435Y-85894630D01*
X160608705Y-85821385D01*
X160472316Y-85770255D01*
X160410134Y-85763500D01*
X159526985Y-85763500D01*
X159525446Y-85763491D01*
X159422081Y-85762228D01*
X159422079Y-85762228D01*
X159416911Y-85762165D01*
X159411797Y-85762948D01*
X159408289Y-85763193D01*
X159399496Y-85763500D01*
X158613866Y-85763500D01*
X158551684Y-85770255D01*
X158415295Y-85821385D01*
X158298739Y-85908739D01*
X158293358Y-85915919D01*
X158215326Y-86020037D01*
X158158467Y-86062552D01*
X158087648Y-86067578D01*
X158025355Y-86033518D01*
X157991365Y-85971187D01*
X157988500Y-85944472D01*
X157988500Y-70519528D01*
X158008502Y-70451407D01*
X158062158Y-70404914D01*
X158132432Y-70394810D01*
X158197012Y-70424304D01*
X158215324Y-70443961D01*
X158298739Y-70555261D01*
X158415295Y-70642615D01*
X158551684Y-70693745D01*
X158613866Y-70700500D01*
X159482826Y-70700500D01*
X159487443Y-70700585D01*
X159568673Y-70703564D01*
X159568677Y-70703564D01*
X159573837Y-70703753D01*
X159578957Y-70703097D01*
X159578959Y-70703097D01*
X159591261Y-70701521D01*
X159607271Y-70700500D01*
X159745629Y-70700500D01*
X159813750Y-70720502D01*
X159834724Y-70737405D01*
X163500230Y-74402911D01*
X163512616Y-74417323D01*
X163521149Y-74428918D01*
X163521154Y-74428923D01*
X163525492Y-74434818D01*
X163531070Y-74439557D01*
X163531073Y-74439560D01*
X163565768Y-74469035D01*
X163573284Y-74475965D01*
X163578979Y-74481660D01*
X163581861Y-74483940D01*
X163601251Y-74499281D01*
X163604655Y-74502072D01*
X163654703Y-74544591D01*
X163660285Y-74549333D01*
X163666801Y-74552661D01*
X163671850Y-74556028D01*
X163676979Y-74559195D01*
X163682716Y-74563734D01*
X163748875Y-74594655D01*
X163752769Y-74596558D01*
X163817808Y-74629769D01*
X163824916Y-74631508D01*
X163830559Y-74633607D01*
X163836322Y-74635524D01*
X163842950Y-74638622D01*
X163909470Y-74652458D01*
X163914412Y-74653486D01*
X163918696Y-74654456D01*
X163989610Y-74671808D01*
X163995212Y-74672156D01*
X163995215Y-74672156D01*
X164000764Y-74672500D01*
X164000762Y-74672536D01*
X164004755Y-74672775D01*
X164008947Y-74673149D01*
X164016115Y-74674640D01*
X164093520Y-74672546D01*
X164096928Y-74672500D01*
X199101413Y-74672500D01*
X199175472Y-74696563D01*
X199181902Y-74701235D01*
X199181909Y-74701239D01*
X199187248Y-74705118D01*
X199193276Y-74707802D01*
X199193278Y-74707803D01*
X199259568Y-74737317D01*
X199361712Y-74782794D01*
X199455113Y-74802647D01*
X199542056Y-74821128D01*
X199542061Y-74821128D01*
X199548513Y-74822500D01*
X199739487Y-74822500D01*
X199745939Y-74821128D01*
X199745944Y-74821128D01*
X199832888Y-74802647D01*
X199926288Y-74782794D01*
X200028432Y-74737317D01*
X200094722Y-74707803D01*
X200094724Y-74707802D01*
X200100752Y-74705118D01*
X200106097Y-74701235D01*
X200170481Y-74654457D01*
X200255253Y-74592866D01*
X200339517Y-74499281D01*
X200378621Y-74455852D01*
X200378622Y-74455851D01*
X200383040Y-74450944D01*
X200450633Y-74333869D01*
X200475223Y-74291279D01*
X200475224Y-74291278D01*
X200478527Y-74285556D01*
X200537542Y-74103928D01*
X200557504Y-73914000D01*
X200542703Y-73773173D01*
X200538232Y-73730635D01*
X200538232Y-73730633D01*
X200537542Y-73724072D01*
X200478527Y-73542444D01*
X200436124Y-73469000D01*
X200419386Y-73400005D01*
X200436124Y-73343000D01*
X200475223Y-73275279D01*
X200475224Y-73275278D01*
X200478527Y-73269556D01*
X200537542Y-73087928D01*
X200557504Y-72898000D01*
X200548650Y-72813760D01*
X200538232Y-72714635D01*
X200538232Y-72714633D01*
X200537542Y-72708072D01*
X200478527Y-72526444D01*
X200383040Y-72361056D01*
X200341206Y-72314594D01*
X200259675Y-72224045D01*
X200259674Y-72224044D01*
X200255253Y-72219134D01*
X200145647Y-72139500D01*
X200106094Y-72110763D01*
X200106093Y-72110762D01*
X200100752Y-72106882D01*
X200094724Y-72104198D01*
X200094722Y-72104197D01*
X199932319Y-72031891D01*
X199932318Y-72031891D01*
X199926288Y-72029206D01*
X199813058Y-72005138D01*
X199745944Y-71990872D01*
X199745939Y-71990872D01*
X199739487Y-71989500D01*
X199548513Y-71989500D01*
X199542061Y-71990872D01*
X199542056Y-71990872D01*
X199474942Y-72005138D01*
X199361712Y-72029206D01*
X199355682Y-72031891D01*
X199355681Y-72031891D01*
X199193278Y-72104197D01*
X199193276Y-72104198D01*
X199187248Y-72106882D01*
X199181909Y-72110761D01*
X199181902Y-72110765D01*
X199175472Y-72115437D01*
X199101413Y-72139500D01*
X173594371Y-72139500D01*
X173526250Y-72119498D01*
X173505276Y-72102595D01*
X172318276Y-70915595D01*
X172284250Y-70853283D01*
X172289315Y-70782468D01*
X172331862Y-70725632D01*
X172398382Y-70700821D01*
X172407371Y-70700500D01*
X173110134Y-70700500D01*
X173172316Y-70693745D01*
X173308705Y-70642615D01*
X173406436Y-70569370D01*
X173472941Y-70544522D01*
X173542324Y-70559575D01*
X173557562Y-70569368D01*
X173655295Y-70642615D01*
X173791684Y-70693745D01*
X173853866Y-70700500D01*
X174722826Y-70700500D01*
X174727443Y-70700585D01*
X174808673Y-70703564D01*
X174808677Y-70703564D01*
X174813837Y-70703753D01*
X174818957Y-70703097D01*
X174818959Y-70703097D01*
X174831261Y-70701521D01*
X174847271Y-70700500D01*
X175650134Y-70700500D01*
X175712316Y-70693745D01*
X175848705Y-70642615D01*
X175915677Y-70592422D01*
X175946852Y-70569058D01*
X176013358Y-70544210D01*
X176082741Y-70559263D01*
X176097982Y-70569058D01*
X176188351Y-70636786D01*
X176203946Y-70645324D01*
X176324394Y-70690478D01*
X176339649Y-70694105D01*
X176390514Y-70699631D01*
X176397328Y-70700000D01*
X177019885Y-70700000D01*
X177035124Y-70695525D01*
X177036329Y-70694135D01*
X177038000Y-70686452D01*
X177038000Y-70681884D01*
X177546000Y-70681884D01*
X177550475Y-70697123D01*
X177551865Y-70698328D01*
X177559548Y-70699999D01*
X178186669Y-70699999D01*
X178193490Y-70699629D01*
X178244352Y-70694105D01*
X178259604Y-70690479D01*
X178380054Y-70645324D01*
X178395649Y-70636786D01*
X178486018Y-70569058D01*
X178552525Y-70544210D01*
X178621907Y-70559263D01*
X178637148Y-70569058D01*
X178668323Y-70592422D01*
X178735295Y-70642615D01*
X178871684Y-70693745D01*
X178933866Y-70700500D01*
X179802826Y-70700500D01*
X179807443Y-70700585D01*
X179888673Y-70703564D01*
X179888677Y-70703564D01*
X179893837Y-70703753D01*
X179898957Y-70703097D01*
X179898959Y-70703097D01*
X179911261Y-70701521D01*
X179927271Y-70700500D01*
X180730134Y-70700500D01*
X180792316Y-70693745D01*
X180928705Y-70642615D01*
X181026436Y-70569370D01*
X181092941Y-70544522D01*
X181162324Y-70559575D01*
X181177562Y-70569368D01*
X181275295Y-70642615D01*
X181411684Y-70693745D01*
X181473866Y-70700500D01*
X182342826Y-70700500D01*
X182347443Y-70700585D01*
X182428673Y-70703564D01*
X182428677Y-70703564D01*
X182433837Y-70703753D01*
X182438957Y-70703097D01*
X182438959Y-70703097D01*
X182451261Y-70701521D01*
X182467271Y-70700500D01*
X183270134Y-70700500D01*
X183332316Y-70693745D01*
X183468705Y-70642615D01*
X183566436Y-70569370D01*
X183632941Y-70544522D01*
X183702324Y-70559575D01*
X183717562Y-70569368D01*
X183815295Y-70642615D01*
X183951684Y-70693745D01*
X184013866Y-70700500D01*
X184882826Y-70700500D01*
X184887443Y-70700585D01*
X184968673Y-70703564D01*
X184968677Y-70703564D01*
X184973837Y-70703753D01*
X184978957Y-70703097D01*
X184978959Y-70703097D01*
X184991261Y-70701521D01*
X185007271Y-70700500D01*
X185810134Y-70700500D01*
X185872316Y-70693745D01*
X186008705Y-70642615D01*
X186075677Y-70592422D01*
X186106852Y-70569058D01*
X186173358Y-70544210D01*
X186242741Y-70559263D01*
X186257982Y-70569058D01*
X186348351Y-70636786D01*
X186363946Y-70645324D01*
X186484394Y-70690478D01*
X186499649Y-70694105D01*
X186550514Y-70699631D01*
X186557328Y-70700000D01*
X187179885Y-70700000D01*
X187195124Y-70695525D01*
X187196329Y-70694135D01*
X187198000Y-70686452D01*
X187198000Y-70681884D01*
X187706000Y-70681884D01*
X187710475Y-70697123D01*
X187711865Y-70698328D01*
X187719548Y-70699999D01*
X188346669Y-70699999D01*
X188353490Y-70699629D01*
X188404352Y-70694105D01*
X188419604Y-70690479D01*
X188540054Y-70645324D01*
X188555644Y-70636789D01*
X188646435Y-70568745D01*
X188712942Y-70543898D01*
X188782324Y-70558951D01*
X188797565Y-70568745D01*
X188888356Y-70636789D01*
X188903946Y-70645324D01*
X189024394Y-70690478D01*
X189039649Y-70694105D01*
X189090514Y-70699631D01*
X189097328Y-70700000D01*
X189719885Y-70700000D01*
X189735124Y-70695525D01*
X189736329Y-70694135D01*
X189738000Y-70686452D01*
X189738000Y-69614115D01*
X189733525Y-69598876D01*
X189732135Y-69597671D01*
X189724452Y-69596000D01*
X187724115Y-69596000D01*
X187708876Y-69600475D01*
X187707671Y-69601865D01*
X187706000Y-69609548D01*
X187706000Y-70681884D01*
X187198000Y-70681884D01*
X187198000Y-69069885D01*
X187706000Y-69069885D01*
X187710475Y-69085124D01*
X187711865Y-69086329D01*
X187719548Y-69088000D01*
X189719885Y-69088000D01*
X189735124Y-69083525D01*
X189736329Y-69082135D01*
X189738000Y-69074452D01*
X189738000Y-68714115D01*
X189733525Y-68698876D01*
X189732135Y-68697671D01*
X189724452Y-68696000D01*
X187724115Y-68696000D01*
X187708876Y-68700475D01*
X187707671Y-68701865D01*
X187706000Y-68709548D01*
X187706000Y-69069885D01*
X187198000Y-69069885D01*
X187198000Y-68169885D01*
X187706000Y-68169885D01*
X187710475Y-68185124D01*
X187711865Y-68186329D01*
X187719548Y-68188000D01*
X189719885Y-68188000D01*
X189735124Y-68183525D01*
X189736329Y-68182135D01*
X189738000Y-68174452D01*
X189738000Y-66202116D01*
X189733525Y-66186877D01*
X189732135Y-66185672D01*
X189724452Y-66184001D01*
X189097331Y-66184001D01*
X189090510Y-66184371D01*
X189039648Y-66189895D01*
X189024396Y-66193521D01*
X188903946Y-66238676D01*
X188888356Y-66247211D01*
X188797565Y-66315255D01*
X188731058Y-66340102D01*
X188661676Y-66325049D01*
X188646435Y-66315255D01*
X188555644Y-66247211D01*
X188540054Y-66238676D01*
X188419606Y-66193522D01*
X188404351Y-66189895D01*
X188353486Y-66184369D01*
X188346672Y-66184000D01*
X187724115Y-66184000D01*
X187708876Y-66188475D01*
X187707671Y-66189865D01*
X187706000Y-66197548D01*
X187706000Y-68169885D01*
X187198000Y-68169885D01*
X187198000Y-66202116D01*
X187193525Y-66186877D01*
X187192135Y-66185672D01*
X187184452Y-66184001D01*
X186557331Y-66184001D01*
X186550510Y-66184371D01*
X186499648Y-66189895D01*
X186484396Y-66193521D01*
X186363946Y-66238676D01*
X186348351Y-66247214D01*
X186257982Y-66314942D01*
X186191475Y-66339790D01*
X186122093Y-66324737D01*
X186106852Y-66314942D01*
X186075677Y-66291578D01*
X186008705Y-66241385D01*
X185872316Y-66190255D01*
X185810134Y-66183500D01*
X184013866Y-66183500D01*
X183951684Y-66190255D01*
X183815295Y-66241385D01*
X183717565Y-66314630D01*
X183651059Y-66339478D01*
X183581676Y-66324425D01*
X183566435Y-66314630D01*
X183468705Y-66241385D01*
X183332316Y-66190255D01*
X183270134Y-66183500D01*
X181473866Y-66183500D01*
X181411684Y-66190255D01*
X181275295Y-66241385D01*
X181177565Y-66314630D01*
X181111059Y-66339478D01*
X181041676Y-66324425D01*
X181026435Y-66314630D01*
X180928705Y-66241385D01*
X180792316Y-66190255D01*
X180730134Y-66183500D01*
X178933866Y-66183500D01*
X178871684Y-66190255D01*
X178735295Y-66241385D01*
X178668323Y-66291578D01*
X178637148Y-66314942D01*
X178570642Y-66339790D01*
X178501259Y-66324737D01*
X178486018Y-66314942D01*
X178395649Y-66247214D01*
X178380054Y-66238676D01*
X178259606Y-66193522D01*
X178244351Y-66189895D01*
X178193486Y-66184369D01*
X178186672Y-66184000D01*
X177564115Y-66184000D01*
X177548876Y-66188475D01*
X177547671Y-66189865D01*
X177546000Y-66197548D01*
X177546000Y-70681884D01*
X177038000Y-70681884D01*
X177038000Y-66202116D01*
X177033525Y-66186877D01*
X177032135Y-66185672D01*
X177024452Y-66184001D01*
X176397331Y-66184001D01*
X176390510Y-66184371D01*
X176339648Y-66189895D01*
X176324396Y-66193521D01*
X176203946Y-66238676D01*
X176188351Y-66247214D01*
X176097982Y-66314942D01*
X176031475Y-66339790D01*
X175962093Y-66324737D01*
X175946852Y-66314942D01*
X175915677Y-66291578D01*
X175848705Y-66241385D01*
X175712316Y-66190255D01*
X175650134Y-66183500D01*
X173853866Y-66183500D01*
X173791684Y-66190255D01*
X173655295Y-66241385D01*
X173557565Y-66314630D01*
X173491059Y-66339478D01*
X173421676Y-66324425D01*
X173406435Y-66314630D01*
X173308705Y-66241385D01*
X173172316Y-66190255D01*
X173110134Y-66183500D01*
X171313866Y-66183500D01*
X171251684Y-66190255D01*
X171115295Y-66241385D01*
X171017565Y-66314630D01*
X170951059Y-66339478D01*
X170881676Y-66324425D01*
X170866435Y-66314630D01*
X170768705Y-66241385D01*
X170632316Y-66190255D01*
X170570134Y-66183500D01*
X168773866Y-66183500D01*
X168711684Y-66190255D01*
X168575295Y-66241385D01*
X168477565Y-66314630D01*
X168411059Y-66339478D01*
X168341676Y-66324425D01*
X168326435Y-66314630D01*
X168228705Y-66241385D01*
X168092316Y-66190255D01*
X168030134Y-66183500D01*
X166233866Y-66183500D01*
X166171684Y-66190255D01*
X166035295Y-66241385D01*
X165968323Y-66291578D01*
X165937148Y-66314942D01*
X165870642Y-66339790D01*
X165801259Y-66324737D01*
X165786018Y-66314942D01*
X165695649Y-66247214D01*
X165680054Y-66238676D01*
X165559606Y-66193522D01*
X165544351Y-66189895D01*
X165493486Y-66184369D01*
X165486672Y-66184000D01*
X164864115Y-66184000D01*
X164848876Y-66188475D01*
X164847671Y-66189865D01*
X164846000Y-66197548D01*
X164846000Y-70681884D01*
X164850475Y-70697123D01*
X164851865Y-70698328D01*
X164859548Y-70699999D01*
X165486669Y-70699999D01*
X165493490Y-70699629D01*
X165544352Y-70694105D01*
X165559604Y-70690479D01*
X165680054Y-70645324D01*
X165695649Y-70636786D01*
X165786018Y-70569058D01*
X165852525Y-70544210D01*
X165921907Y-70559263D01*
X165937148Y-70569058D01*
X165968323Y-70592422D01*
X166035295Y-70642615D01*
X166171684Y-70693745D01*
X166233866Y-70700500D01*
X167102826Y-70700500D01*
X167107443Y-70700585D01*
X167188673Y-70703564D01*
X167188677Y-70703564D01*
X167193837Y-70703753D01*
X167198957Y-70703097D01*
X167198959Y-70703097D01*
X167211261Y-70701521D01*
X167227271Y-70700500D01*
X168030134Y-70700500D01*
X168092316Y-70693745D01*
X168228705Y-70642615D01*
X168326436Y-70569370D01*
X168392941Y-70544522D01*
X168462324Y-70559575D01*
X168477562Y-70569368D01*
X168575295Y-70642615D01*
X168711684Y-70693745D01*
X168773866Y-70700500D01*
X169642826Y-70700500D01*
X169647443Y-70700585D01*
X169728673Y-70703564D01*
X169728677Y-70703564D01*
X169733837Y-70703753D01*
X169738957Y-70703097D01*
X169738959Y-70703097D01*
X169751261Y-70701521D01*
X169767271Y-70700500D01*
X169905629Y-70700500D01*
X169973750Y-70720502D01*
X169994724Y-70737405D01*
X172197724Y-72940405D01*
X172231750Y-73002717D01*
X172226685Y-73073532D01*
X172184138Y-73130368D01*
X172117618Y-73155179D01*
X172108629Y-73155500D01*
X164450371Y-73155500D01*
X164382250Y-73135498D01*
X164361276Y-73118595D01*
X162158276Y-70915595D01*
X162124250Y-70853283D01*
X162129315Y-70782468D01*
X162171862Y-70725632D01*
X162238382Y-70700821D01*
X162247371Y-70700500D01*
X162950134Y-70700500D01*
X163012316Y-70693745D01*
X163148705Y-70642615D01*
X163215677Y-70592422D01*
X163246852Y-70569058D01*
X163313358Y-70544210D01*
X163382741Y-70559263D01*
X163397982Y-70569058D01*
X163488351Y-70636786D01*
X163503946Y-70645324D01*
X163624394Y-70690478D01*
X163639649Y-70694105D01*
X163690514Y-70699631D01*
X163697328Y-70700000D01*
X164319885Y-70700000D01*
X164335124Y-70695525D01*
X164336329Y-70694135D01*
X164338000Y-70686452D01*
X164338000Y-66202116D01*
X164333525Y-66186877D01*
X164332135Y-66185672D01*
X164324452Y-66184001D01*
X163697331Y-66184001D01*
X163690510Y-66184371D01*
X163639648Y-66189895D01*
X163624396Y-66193521D01*
X163503946Y-66238676D01*
X163488351Y-66247214D01*
X163397982Y-66314942D01*
X163331475Y-66339790D01*
X163262093Y-66324737D01*
X163246852Y-66314942D01*
X163215677Y-66291578D01*
X163148705Y-66241385D01*
X163012316Y-66190255D01*
X162950134Y-66183500D01*
X161153866Y-66183500D01*
X161091684Y-66190255D01*
X160955295Y-66241385D01*
X160857565Y-66314630D01*
X160791059Y-66339478D01*
X160721676Y-66324425D01*
X160706435Y-66314630D01*
X160608705Y-66241385D01*
X160472316Y-66190255D01*
X160410134Y-66183500D01*
X158613866Y-66183500D01*
X158551684Y-66190255D01*
X158415295Y-66241385D01*
X158298739Y-66328739D01*
X158293358Y-66335919D01*
X158215326Y-66440037D01*
X158158467Y-66482552D01*
X158087648Y-66487578D01*
X158025355Y-66453518D01*
X157991365Y-66391187D01*
X157988500Y-66364472D01*
X157988500Y-62616703D01*
X158926743Y-62616703D01*
X158964268Y-62901734D01*
X159040129Y-63179036D01*
X159152923Y-63443476D01*
X159199506Y-63521310D01*
X159275207Y-63647797D01*
X159300561Y-63690161D01*
X159480313Y-63914528D01*
X159497397Y-63930740D01*
X159645169Y-64070970D01*
X159688851Y-64112423D01*
X159922317Y-64280186D01*
X159926112Y-64282195D01*
X159926113Y-64282196D01*
X159947869Y-64293715D01*
X160176392Y-64414712D01*
X160446373Y-64513511D01*
X160727264Y-64574755D01*
X160755841Y-64577004D01*
X160950282Y-64592307D01*
X160950291Y-64592307D01*
X160952739Y-64592500D01*
X161108271Y-64592500D01*
X161110407Y-64592354D01*
X161110418Y-64592354D01*
X161318548Y-64578165D01*
X161318554Y-64578164D01*
X161322825Y-64577873D01*
X161327020Y-64577004D01*
X161327022Y-64577004D01*
X161463583Y-64548724D01*
X161604342Y-64519574D01*
X161875343Y-64423607D01*
X162130812Y-64291750D01*
X162134313Y-64289289D01*
X162134317Y-64289287D01*
X162305231Y-64169166D01*
X162366023Y-64126441D01*
X162576622Y-63930740D01*
X162758713Y-63708268D01*
X162866000Y-63533193D01*
X211793289Y-63533193D01*
X211802124Y-63637325D01*
X211803914Y-63647797D01*
X211859130Y-63860535D01*
X211862665Y-63870575D01*
X211952937Y-64070970D01*
X211958106Y-64080256D01*
X212080850Y-64262575D01*
X212087519Y-64270870D01*
X212239228Y-64429900D01*
X212247186Y-64436941D01*
X212423525Y-64568141D01*
X212432562Y-64573745D01*
X212628484Y-64673357D01*
X212638335Y-64677357D01*
X212848240Y-64742534D01*
X212858624Y-64744817D01*
X212874043Y-64746861D01*
X212888207Y-64744665D01*
X212892000Y-64731478D01*
X212892000Y-63535115D01*
X212887525Y-63519876D01*
X212886135Y-63518671D01*
X212878452Y-63517000D01*
X211810030Y-63517000D01*
X211795352Y-63521310D01*
X211793289Y-63533193D01*
X162866000Y-63533193D01*
X162908927Y-63463142D01*
X163024483Y-63199898D01*
X163083312Y-62993376D01*
X211788732Y-62993376D01*
X211792475Y-63006124D01*
X211793865Y-63007329D01*
X211801548Y-63009000D01*
X212873885Y-63009000D01*
X212889124Y-63004525D01*
X212890329Y-63003135D01*
X212892000Y-62995452D01*
X212892000Y-61796808D01*
X212888027Y-61783277D01*
X212877420Y-61781752D01*
X212759579Y-61806477D01*
X212749383Y-61809537D01*
X212544971Y-61890263D01*
X212535439Y-61894994D01*
X212347538Y-62009016D01*
X212338948Y-62015280D01*
X212172948Y-62159327D01*
X212165528Y-62166958D01*
X212026174Y-62336911D01*
X212020150Y-62345678D01*
X211911424Y-62536682D01*
X211906959Y-62546346D01*
X211831969Y-62752941D01*
X211829198Y-62763208D01*
X211789877Y-62980655D01*
X211788944Y-62988884D01*
X211788732Y-62993376D01*
X163083312Y-62993376D01*
X163103244Y-62923406D01*
X163143751Y-62638784D01*
X163143845Y-62620951D01*
X163145235Y-62355583D01*
X163145235Y-62355576D01*
X163145257Y-62351297D01*
X163144518Y-62345678D01*
X163111659Y-62096094D01*
X163107732Y-62066266D01*
X163101882Y-62044880D01*
X163059583Y-61890263D01*
X163031871Y-61788964D01*
X162919077Y-61524524D01*
X162771439Y-61277839D01*
X162591687Y-61053472D01*
X162383149Y-60855577D01*
X162149683Y-60687814D01*
X162127843Y-60676250D01*
X162104654Y-60663972D01*
X161895608Y-60553288D01*
X161625627Y-60454489D01*
X161344736Y-60393245D01*
X161313685Y-60390801D01*
X161121718Y-60375693D01*
X161121709Y-60375693D01*
X161119261Y-60375500D01*
X160963729Y-60375500D01*
X160961593Y-60375646D01*
X160961582Y-60375646D01*
X160753452Y-60389835D01*
X160753446Y-60389836D01*
X160749175Y-60390127D01*
X160744980Y-60390996D01*
X160744978Y-60390996D01*
X160608416Y-60419277D01*
X160467658Y-60448426D01*
X160196657Y-60544393D01*
X159941188Y-60676250D01*
X159937687Y-60678711D01*
X159937683Y-60678713D01*
X159823582Y-60758905D01*
X159705977Y-60841559D01*
X159495378Y-61037260D01*
X159313287Y-61259732D01*
X159163073Y-61504858D01*
X159047517Y-61768102D01*
X159046342Y-61772229D01*
X159046341Y-61772230D01*
X159035714Y-61809537D01*
X158968756Y-62044594D01*
X158928249Y-62329216D01*
X158928227Y-62333505D01*
X158928226Y-62333512D01*
X158926765Y-62612417D01*
X158926743Y-62616703D01*
X157988500Y-62616703D01*
X157988500Y-61521250D01*
X157990246Y-61500345D01*
X157992770Y-61485344D01*
X157992770Y-61485341D01*
X157993576Y-61480552D01*
X157993729Y-61468000D01*
X157992003Y-61455947D01*
X157991001Y-61429845D01*
X158005340Y-61211078D01*
X158007491Y-61194738D01*
X158056111Y-60950307D01*
X158060375Y-60934394D01*
X158140485Y-60698398D01*
X158146791Y-60683174D01*
X158257016Y-60459658D01*
X158265257Y-60445384D01*
X158403713Y-60238171D01*
X158413746Y-60225095D01*
X158578068Y-60037722D01*
X158589722Y-60026068D01*
X158777095Y-59861746D01*
X158790171Y-59851713D01*
X158997384Y-59713257D01*
X159011658Y-59705016D01*
X159235174Y-59594791D01*
X159250400Y-59588484D01*
X159486394Y-59508375D01*
X159502304Y-59504112D01*
X159624522Y-59479801D01*
X159746738Y-59455491D01*
X159763078Y-59453340D01*
X159911866Y-59443587D01*
X159978237Y-59439237D01*
X160001350Y-59440267D01*
X160004854Y-59440310D01*
X160013724Y-59441691D01*
X160022626Y-59440527D01*
X160022628Y-59440527D01*
X160039449Y-59438327D01*
X160045286Y-59437564D01*
X160061621Y-59436500D01*
X228042633Y-59436500D01*
X228062018Y-59438000D01*
G37*
%TD.AperFunction*%
%TA.AperFunction,Conductor*%
G36*
X168696121Y-99741002D02*
G01*
X168742614Y-99794658D01*
X168754000Y-99847000D01*
X168754000Y-101416192D01*
X168757973Y-101429723D01*
X168768580Y-101431248D01*
X168886421Y-101406523D01*
X168896617Y-101403463D01*
X169101029Y-101322737D01*
X169110561Y-101318006D01*
X169175134Y-101278822D01*
X169243748Y-101260583D01*
X169311331Y-101282334D01*
X169356425Y-101337171D01*
X169366500Y-101386541D01*
X169366500Y-101697476D01*
X169346498Y-101765597D01*
X169334142Y-101781779D01*
X169260960Y-101863056D01*
X169165473Y-102028444D01*
X169106458Y-102210072D01*
X169086496Y-102400000D01*
X169087186Y-102406565D01*
X169097251Y-102502330D01*
X169084479Y-102572168D01*
X169035977Y-102624015D01*
X168971941Y-102641500D01*
X168766371Y-102641500D01*
X168698250Y-102621498D01*
X168677276Y-102604595D01*
X167123831Y-101051150D01*
X167089805Y-100988838D01*
X167094870Y-100918023D01*
X167115491Y-100882165D01*
X167120235Y-100876379D01*
X167120239Y-100876373D01*
X167123624Y-100872245D01*
X167126265Y-100867605D01*
X167126270Y-100867598D01*
X167141829Y-100840265D01*
X167192912Y-100790959D01*
X167262542Y-100777098D01*
X167328613Y-100803082D01*
X167355851Y-100832232D01*
X167434852Y-100949578D01*
X167441519Y-100957870D01*
X167593228Y-101116900D01*
X167601186Y-101123941D01*
X167777525Y-101255141D01*
X167786562Y-101260745D01*
X167982484Y-101360357D01*
X167992335Y-101364357D01*
X168202240Y-101429534D01*
X168212624Y-101431817D01*
X168228043Y-101433861D01*
X168242207Y-101431665D01*
X168246000Y-101418478D01*
X168246000Y-99847000D01*
X168266002Y-99778879D01*
X168319658Y-99732386D01*
X168372000Y-99721000D01*
X168628000Y-99721000D01*
X168696121Y-99741002D01*
G37*
%TD.AperFunction*%
%TA.AperFunction,Conductor*%
G36*
X182196121Y-99741002D02*
G01*
X182242614Y-99794658D01*
X182254000Y-99847000D01*
X182254000Y-101416192D01*
X182257973Y-101429723D01*
X182268580Y-101431248D01*
X182386421Y-101406523D01*
X182396617Y-101403463D01*
X182594219Y-101325427D01*
X182664925Y-101319009D01*
X182727876Y-101351837D01*
X182763086Y-101413487D01*
X182766500Y-101442619D01*
X182766500Y-101697476D01*
X182746498Y-101765597D01*
X182734142Y-101781779D01*
X182660960Y-101863056D01*
X182565473Y-102028444D01*
X182506458Y-102210072D01*
X182486496Y-102400000D01*
X182487186Y-102406565D01*
X182497251Y-102502330D01*
X182484479Y-102572168D01*
X182435977Y-102624015D01*
X182371941Y-102641500D01*
X182366371Y-102641500D01*
X182298250Y-102621498D01*
X182277276Y-102604595D01*
X181127219Y-101454538D01*
X181093193Y-101392226D01*
X181098258Y-101321411D01*
X181140805Y-101264575D01*
X181207325Y-101239764D01*
X181282712Y-101258358D01*
X181286556Y-101260742D01*
X181482484Y-101360357D01*
X181492335Y-101364357D01*
X181702240Y-101429534D01*
X181712624Y-101431817D01*
X181728043Y-101433861D01*
X181742207Y-101431665D01*
X181746000Y-101418478D01*
X181746000Y-99847000D01*
X181766002Y-99778879D01*
X181819658Y-99732386D01*
X181872000Y-99721000D01*
X182128000Y-99721000D01*
X182196121Y-99741002D01*
G37*
%TD.AperFunction*%
%TA.AperFunction,Conductor*%
G36*
X195696121Y-99741002D02*
G01*
X195742614Y-99794658D01*
X195754000Y-99847000D01*
X195754000Y-101416192D01*
X195757973Y-101429723D01*
X195768580Y-101431248D01*
X195886421Y-101406523D01*
X195896617Y-101403463D01*
X196101029Y-101322737D01*
X196110561Y-101318006D01*
X196175134Y-101278822D01*
X196243748Y-101260583D01*
X196311331Y-101282334D01*
X196356425Y-101337171D01*
X196366500Y-101386541D01*
X196366500Y-101697476D01*
X196346498Y-101765597D01*
X196334142Y-101781779D01*
X196260960Y-101863056D01*
X196165473Y-102028444D01*
X196106458Y-102210072D01*
X196086496Y-102400000D01*
X196087186Y-102406565D01*
X196097251Y-102502330D01*
X196084479Y-102572168D01*
X196035977Y-102624015D01*
X195971941Y-102641500D01*
X195766371Y-102641500D01*
X195698250Y-102621498D01*
X195677276Y-102604595D01*
X194123831Y-101051150D01*
X194089805Y-100988838D01*
X194094870Y-100918023D01*
X194115491Y-100882165D01*
X194120235Y-100876379D01*
X194120239Y-100876373D01*
X194123624Y-100872245D01*
X194126265Y-100867605D01*
X194126270Y-100867598D01*
X194141829Y-100840265D01*
X194192912Y-100790959D01*
X194262542Y-100777098D01*
X194328613Y-100803082D01*
X194355851Y-100832232D01*
X194434852Y-100949578D01*
X194441519Y-100957870D01*
X194593228Y-101116900D01*
X194601186Y-101123941D01*
X194777525Y-101255141D01*
X194786562Y-101260745D01*
X194982484Y-101360357D01*
X194992335Y-101364357D01*
X195202240Y-101429534D01*
X195212624Y-101431817D01*
X195228043Y-101433861D01*
X195242207Y-101431665D01*
X195246000Y-101418478D01*
X195246000Y-99847000D01*
X195266002Y-99778879D01*
X195319658Y-99732386D01*
X195372000Y-99721000D01*
X195628000Y-99721000D01*
X195696121Y-99741002D01*
G37*
%TD.AperFunction*%
%TA.AperFunction,Conductor*%
G36*
X209196121Y-99741002D02*
G01*
X209242614Y-99794658D01*
X209254000Y-99847000D01*
X209254000Y-101416192D01*
X209257973Y-101429723D01*
X209268580Y-101431248D01*
X209386421Y-101406523D01*
X209396617Y-101403463D01*
X209601029Y-101322737D01*
X209610561Y-101318006D01*
X209775134Y-101218140D01*
X209843748Y-101199901D01*
X209911330Y-101221652D01*
X209956425Y-101276489D01*
X209966500Y-101325859D01*
X209966500Y-101697476D01*
X209946498Y-101765597D01*
X209934142Y-101781779D01*
X209860960Y-101863056D01*
X209765473Y-102028444D01*
X209706458Y-102210072D01*
X209686496Y-102400000D01*
X209687186Y-102406565D01*
X209697251Y-102502330D01*
X209684479Y-102572168D01*
X209635977Y-102624015D01*
X209571941Y-102641500D01*
X209366371Y-102641500D01*
X209298250Y-102621498D01*
X209277276Y-102604595D01*
X208127219Y-101454538D01*
X208093193Y-101392226D01*
X208098258Y-101321411D01*
X208140805Y-101264575D01*
X208207325Y-101239764D01*
X208282712Y-101258358D01*
X208286556Y-101260742D01*
X208482484Y-101360357D01*
X208492335Y-101364357D01*
X208702240Y-101429534D01*
X208712624Y-101431817D01*
X208728043Y-101433861D01*
X208742207Y-101431665D01*
X208746000Y-101418478D01*
X208746000Y-99847000D01*
X208766002Y-99778879D01*
X208819658Y-99732386D01*
X208872000Y-99721000D01*
X209128000Y-99721000D01*
X209196121Y-99741002D01*
G37*
%TD.AperFunction*%
%TA.AperFunction,Conductor*%
G36*
X215962395Y-76838502D02*
G01*
X216001707Y-76878665D01*
X216069987Y-76990088D01*
X216216250Y-77158938D01*
X216388126Y-77301632D01*
X216437545Y-77330510D01*
X216461445Y-77344476D01*
X216510169Y-77396114D01*
X216523240Y-77465897D01*
X216496509Y-77531669D01*
X216456055Y-77565027D01*
X216443607Y-77571507D01*
X216439474Y-77574610D01*
X216439471Y-77574612D01*
X216269100Y-77702530D01*
X216264965Y-77705635D01*
X216110629Y-77867138D01*
X216107715Y-77871410D01*
X216107714Y-77871411D01*
X215995095Y-78036504D01*
X215940184Y-78081507D01*
X215891007Y-78091500D01*
X212183767Y-78091500D01*
X212172584Y-78090973D01*
X212165091Y-78089298D01*
X212157165Y-78089547D01*
X212157164Y-78089547D01*
X212097014Y-78091438D01*
X212093055Y-78091500D01*
X212065144Y-78091500D01*
X212061210Y-78091997D01*
X212061209Y-78091997D01*
X212061144Y-78092005D01*
X212049307Y-78092938D01*
X212017490Y-78093938D01*
X212013029Y-78094078D01*
X212005110Y-78094327D01*
X211987454Y-78099456D01*
X211985658Y-78099978D01*
X211966306Y-78103986D01*
X211959235Y-78104880D01*
X211946203Y-78106526D01*
X211938834Y-78109443D01*
X211938832Y-78109444D01*
X211905097Y-78122800D01*
X211893870Y-78126645D01*
X211891687Y-78127279D01*
X211851407Y-78138982D01*
X211844585Y-78143016D01*
X211844579Y-78143019D01*
X211833968Y-78149294D01*
X211816218Y-78157990D01*
X211804756Y-78162528D01*
X211804751Y-78162531D01*
X211797383Y-78165448D01*
X211790968Y-78170109D01*
X211761625Y-78191427D01*
X211751707Y-78197943D01*
X211733019Y-78208995D01*
X211713637Y-78220458D01*
X211699313Y-78234782D01*
X211684281Y-78247621D01*
X211667893Y-78259528D01*
X211650168Y-78280954D01*
X211639712Y-78293593D01*
X211631722Y-78302373D01*
X210915095Y-79019000D01*
X210852783Y-79053026D01*
X210781968Y-79047961D01*
X210725132Y-79005414D01*
X210700321Y-78938894D01*
X210700000Y-78929905D01*
X210700000Y-78504115D01*
X210695525Y-78488876D01*
X210694135Y-78487671D01*
X210686452Y-78486000D01*
X206753500Y-78486000D01*
X206685379Y-78465998D01*
X206638886Y-78412342D01*
X206627500Y-78360000D01*
X206627500Y-78104000D01*
X206647502Y-78035879D01*
X206701158Y-77989386D01*
X206753500Y-77978000D01*
X210681884Y-77978000D01*
X210697123Y-77973525D01*
X210698328Y-77972135D01*
X210699999Y-77964452D01*
X210699999Y-77337331D01*
X210699629Y-77330510D01*
X210694105Y-77279648D01*
X210690479Y-77264396D01*
X210645324Y-77143946D01*
X210636786Y-77128351D01*
X210569058Y-77037982D01*
X210544210Y-76971475D01*
X210559263Y-76902093D01*
X210569058Y-76886852D01*
X210582486Y-76868935D01*
X210639345Y-76826420D01*
X210683312Y-76818500D01*
X215894274Y-76818500D01*
X215962395Y-76838502D01*
G37*
%TD.AperFunction*%
%TD*%
M02*
