M48
; DRILL file {KiCad (6.0.8)} date Thu Jan  5 14:05:38 2023
; FORMAT={-:-/ absolute / inch / decimal}
; #@! TF.CreationDate,2023-01-05T14:05:38-07:00
; #@! TF.GenerationSoftware,Kicad,Pcbnew,(6.0.8)
; #@! TF.FileFunction,Plated,1,2,PTH
FMAT,2
INCH
; #@! TA.AperFunction,Plated,PTH,ViaDrill
T1C0.0157
; #@! TA.AperFunction,Plated,PTH,ComponentDrill
T2C0.0374
; #@! TA.AperFunction,Plated,PTH,ComponentDrill
T3C0.0394
; #@! TA.AperFunction,Plated,PTH,ComponentDrill
T4C0.0402
%
G90
G05
T1
X6.6378Y-4.3307
X6.6929Y-3.8189
X6.6929Y-4.0315
X6.6929Y-4.1102
X7.1732Y-4.3307
X7.2205Y-4.0315
X7.2205Y-4.1102
X7.2283Y-3.8189
X7.7087Y-4.3307
X7.7559Y-3.8189
X7.7559Y-4.0315
X7.7559Y-4.1181
X7.86Y-2.87
X7.86Y-2.91
X8.2362Y-4.3307
X8.2913Y-3.8189
X8.2913Y-4.0315
X8.2913Y-4.1181
X8.3858Y-3.7874
T2
X6.3386Y-3.936
X6.3386Y-4.2028
X6.437Y-3.936
X6.437Y-4.2028
X6.5354Y-3.936
X6.5354Y-4.2028
X6.6339Y-3.936
X6.6339Y-4.2028
X6.8701Y-3.936
X6.8701Y-4.2028
X6.9685Y-3.936
X6.9685Y-4.2028
X7.0669Y-3.936
X7.0669Y-4.2028
X7.1654Y-3.936
X7.1654Y-4.2028
X7.4016Y-3.936
X7.4016Y-4.2028
X7.5Y-3.936
X7.5Y-4.2028
X7.5984Y-3.936
X7.5984Y-4.2028
X7.6969Y-3.936
X7.6969Y-4.2028
X7.9331Y-3.936
X7.9331Y-4.2028
X8.0315Y-3.936
X8.0315Y-4.2028
X8.1299Y-3.936
X8.1299Y-4.2028
X8.2283Y-3.936
X8.2283Y-4.2028
X8.4646Y-3.936
X8.4646Y-4.2028
X8.563Y-3.936
X8.563Y-4.2028
X8.6614Y-3.936
X8.6614Y-4.2028
X8.7598Y-3.936
X8.7598Y-4.2028
X8.8993Y-3.4492
X8.8993Y-3.5476
X8.8993Y-3.6461
X8.9Y-2.7139
X8.9Y-2.8124
X8.9Y-2.9108
X8.9Y-3.0092
X8.9Y-3.1076
X8.9Y-3.2061
T3
X8.3916Y-2.4907
X8.49Y-2.4907
X8.55Y-2.9994
X8.55Y-3.0994
X8.55Y-3.1994
T4
X6.28Y-2.73
X6.28Y-3.43
X6.38Y-2.73
X6.38Y-3.43
X6.48Y-2.73
X6.48Y-3.43
X6.58Y-2.73
X6.58Y-3.43
X6.68Y-2.73
X6.68Y-3.43
X6.78Y-2.73
X6.78Y-3.43
X6.88Y-2.73
X6.88Y-3.43
X6.98Y-2.73
X6.98Y-3.43
X7.08Y-2.73
X7.08Y-3.43
X7.18Y-2.73
X7.18Y-3.43
X7.28Y-2.73
X7.28Y-3.43
X7.38Y-2.73
X7.38Y-3.43
X7.48Y-2.73
X7.48Y-3.43
X7.58Y-2.73
X7.58Y-3.43
X7.68Y-2.73
X7.68Y-3.43
X7.78Y-2.73
X7.78Y-3.43
X7.88Y-2.73
X7.88Y-3.43
X7.98Y-2.73
X7.98Y-3.43
X8.08Y-2.73
X8.08Y-3.43
X8.1709Y-2.98
X8.1709Y-3.08
X8.1709Y-3.18
X8.18Y-2.73
X8.18Y-3.43
T0
M30
