%TF.GenerationSoftware,KiCad,Pcbnew,(6.0.8)*%
%TF.CreationDate,2023-01-05T15:01:35-07:00*%
%TF.ProjectId,PicoIO,5069636f-494f-42e6-9b69-6361645f7063,rev?*%
%TF.SameCoordinates,Original*%
%TF.FileFunction,Drillmap*%
%TF.FilePolarity,Positive*%
%FSLAX45Y45*%
G04 Gerber Fmt 4.5, Leading zero omitted, Abs format (unit mm)*
G04 Created by KiCad (PCBNEW (6.0.8)) date 2023-01-05 15:01:35*
%MOMM*%
%LPD*%
G01*
G04 APERTURE LIST*
%ADD10C,0.100000*%
%ADD11C,0.200000*%
%ADD12C,0.320000*%
G04 APERTURE END LIST*
D10*
X15748000Y-11480800D02*
G75*
G03*
X16002000Y-11734800I254000J0D01*
G01*
X22809200Y-11734800D02*
G75*
G03*
X23063200Y-11480800I-10J254010D01*
G01*
X23063200Y-6146800D02*
G75*
G03*
X22809200Y-5892800I-254000J0D01*
G01*
X23063200Y-11480800D02*
X23063200Y-6146800D01*
X15748000Y-6146800D02*
X15748000Y-11480800D01*
X16002000Y-5892800D02*
G75*
G03*
X15748000Y-6146800I0J-254000D01*
G01*
X16002000Y-11734800D02*
X22809200Y-11734800D01*
X16002000Y-5892800D02*
X22809200Y-5892800D01*
D11*
D12*
X15943600Y-6088400D02*
X16263600Y-6408400D01*
X16263600Y-6088400D02*
X15943600Y-6408400D01*
X22547600Y-6088400D02*
X22867600Y-6408400D01*
X22867600Y-6088400D02*
X22547600Y-6408400D01*
X22547600Y-11221005D02*
X22867600Y-11541005D01*
X22867600Y-11221005D02*
X22547600Y-11541005D01*
D11*
X16000619Y-12050276D02*
X16000619Y-11850276D01*
X16048238Y-11850276D01*
X16076809Y-11859800D01*
X16095857Y-11878848D01*
X16105381Y-11897895D01*
X16114905Y-11935990D01*
X16114905Y-11964562D01*
X16105381Y-12002657D01*
X16095857Y-12021705D01*
X16076809Y-12040752D01*
X16048238Y-12050276D01*
X16000619Y-12050276D01*
X16200619Y-12050276D02*
X16200619Y-11916943D01*
X16200619Y-11955038D02*
X16210143Y-11935990D01*
X16219667Y-11926467D01*
X16238714Y-11916943D01*
X16257762Y-11916943D01*
X16324428Y-12050276D02*
X16324428Y-11916943D01*
X16324428Y-11850276D02*
X16314905Y-11859800D01*
X16324428Y-11869324D01*
X16333952Y-11859800D01*
X16324428Y-11850276D01*
X16324428Y-11869324D01*
X16448238Y-12050276D02*
X16429190Y-12040752D01*
X16419667Y-12021705D01*
X16419667Y-11850276D01*
X16553000Y-12050276D02*
X16533952Y-12040752D01*
X16524428Y-12021705D01*
X16524428Y-11850276D01*
X16781571Y-12050276D02*
X16781571Y-11850276D01*
X16848238Y-11993133D01*
X16914905Y-11850276D01*
X16914905Y-12050276D01*
X17095857Y-12050276D02*
X17095857Y-11945514D01*
X17086333Y-11926467D01*
X17067286Y-11916943D01*
X17029190Y-11916943D01*
X17010143Y-11926467D01*
X17095857Y-12040752D02*
X17076810Y-12050276D01*
X17029190Y-12050276D01*
X17010143Y-12040752D01*
X17000619Y-12021705D01*
X17000619Y-12002657D01*
X17010143Y-11983609D01*
X17029190Y-11974086D01*
X17076810Y-11974086D01*
X17095857Y-11964562D01*
X17191095Y-11916943D02*
X17191095Y-12116943D01*
X17191095Y-11926467D02*
X17210143Y-11916943D01*
X17248238Y-11916943D01*
X17267286Y-11926467D01*
X17276810Y-11935990D01*
X17286333Y-11955038D01*
X17286333Y-12012181D01*
X17276810Y-12031228D01*
X17267286Y-12040752D01*
X17248238Y-12050276D01*
X17210143Y-12050276D01*
X17191095Y-12040752D01*
X17372048Y-12031228D02*
X17381571Y-12040752D01*
X17372048Y-12050276D01*
X17362524Y-12040752D01*
X17372048Y-12031228D01*
X17372048Y-12050276D01*
X17372048Y-11926467D02*
X17381571Y-11935990D01*
X17372048Y-11945514D01*
X17362524Y-11935990D01*
X17372048Y-11926467D01*
X17372048Y-11945514D01*
X15543000Y-12279800D02*
X15743000Y-12479800D01*
X15743000Y-12279800D02*
X15543000Y-12479800D01*
X15981571Y-12270276D02*
X16105381Y-12270276D01*
X16038714Y-12346467D01*
X16067286Y-12346467D01*
X16086333Y-12355990D01*
X16095857Y-12365514D01*
X16105381Y-12384562D01*
X16105381Y-12432181D01*
X16095857Y-12451228D01*
X16086333Y-12460752D01*
X16067286Y-12470276D01*
X16010143Y-12470276D01*
X15991095Y-12460752D01*
X15981571Y-12451228D01*
X16191095Y-12451228D02*
X16200619Y-12460752D01*
X16191095Y-12470276D01*
X16181571Y-12460752D01*
X16191095Y-12451228D01*
X16191095Y-12470276D01*
X16276809Y-12289324D02*
X16286333Y-12279800D01*
X16305381Y-12270276D01*
X16353000Y-12270276D01*
X16372048Y-12279800D01*
X16381571Y-12289324D01*
X16391095Y-12308371D01*
X16391095Y-12327419D01*
X16381571Y-12355990D01*
X16267286Y-12470276D01*
X16391095Y-12470276D01*
X16514905Y-12270276D02*
X16533952Y-12270276D01*
X16553000Y-12279800D01*
X16562524Y-12289324D01*
X16572048Y-12308371D01*
X16581571Y-12346467D01*
X16581571Y-12394086D01*
X16572048Y-12432181D01*
X16562524Y-12451228D01*
X16553000Y-12460752D01*
X16533952Y-12470276D01*
X16514905Y-12470276D01*
X16495857Y-12460752D01*
X16486333Y-12451228D01*
X16476809Y-12432181D01*
X16467286Y-12394086D01*
X16467286Y-12346467D01*
X16476809Y-12308371D01*
X16486333Y-12289324D01*
X16495857Y-12279800D01*
X16514905Y-12270276D01*
X16705381Y-12270276D02*
X16724428Y-12270276D01*
X16743476Y-12279800D01*
X16753000Y-12289324D01*
X16762524Y-12308371D01*
X16772048Y-12346467D01*
X16772048Y-12394086D01*
X16762524Y-12432181D01*
X16753000Y-12451228D01*
X16743476Y-12460752D01*
X16724428Y-12470276D01*
X16705381Y-12470276D01*
X16686333Y-12460752D01*
X16676809Y-12451228D01*
X16667286Y-12432181D01*
X16657762Y-12394086D01*
X16657762Y-12346467D01*
X16667286Y-12308371D01*
X16676809Y-12289324D01*
X16686333Y-12279800D01*
X16705381Y-12270276D01*
X16857762Y-12470276D02*
X16857762Y-12336943D01*
X16857762Y-12355990D02*
X16867286Y-12346467D01*
X16886333Y-12336943D01*
X16914905Y-12336943D01*
X16933952Y-12346467D01*
X16943476Y-12365514D01*
X16943476Y-12470276D01*
X16943476Y-12365514D02*
X16953000Y-12346467D01*
X16972048Y-12336943D01*
X17000619Y-12336943D01*
X17019667Y-12346467D01*
X17029190Y-12365514D01*
X17029190Y-12470276D01*
X17124429Y-12470276D02*
X17124429Y-12336943D01*
X17124429Y-12355990D02*
X17133952Y-12346467D01*
X17153000Y-12336943D01*
X17181571Y-12336943D01*
X17200619Y-12346467D01*
X17210143Y-12365514D01*
X17210143Y-12470276D01*
X17210143Y-12365514D02*
X17219667Y-12346467D01*
X17238714Y-12336943D01*
X17267286Y-12336943D01*
X17286333Y-12346467D01*
X17295857Y-12365514D01*
X17295857Y-12470276D01*
X17686333Y-12260752D02*
X17514905Y-12517895D01*
X17943476Y-12270276D02*
X17962524Y-12270276D01*
X17981571Y-12279800D01*
X17991095Y-12289324D01*
X18000619Y-12308371D01*
X18010143Y-12346467D01*
X18010143Y-12394086D01*
X18000619Y-12432181D01*
X17991095Y-12451228D01*
X17981571Y-12460752D01*
X17962524Y-12470276D01*
X17943476Y-12470276D01*
X17924429Y-12460752D01*
X17914905Y-12451228D01*
X17905381Y-12432181D01*
X17895857Y-12394086D01*
X17895857Y-12346467D01*
X17905381Y-12308371D01*
X17914905Y-12289324D01*
X17924429Y-12279800D01*
X17943476Y-12270276D01*
X18095857Y-12451228D02*
X18105381Y-12460752D01*
X18095857Y-12470276D01*
X18086333Y-12460752D01*
X18095857Y-12451228D01*
X18095857Y-12470276D01*
X18295857Y-12470276D02*
X18181571Y-12470276D01*
X18238714Y-12470276D02*
X18238714Y-12270276D01*
X18219667Y-12298848D01*
X18200619Y-12317895D01*
X18181571Y-12327419D01*
X18372048Y-12289324D02*
X18381571Y-12279800D01*
X18400619Y-12270276D01*
X18448238Y-12270276D01*
X18467286Y-12279800D01*
X18476810Y-12289324D01*
X18486333Y-12308371D01*
X18486333Y-12327419D01*
X18476810Y-12355990D01*
X18362524Y-12470276D01*
X18486333Y-12470276D01*
X18657762Y-12270276D02*
X18619667Y-12270276D01*
X18600619Y-12279800D01*
X18591095Y-12289324D01*
X18572048Y-12317895D01*
X18562524Y-12355990D01*
X18562524Y-12432181D01*
X18572048Y-12451228D01*
X18581571Y-12460752D01*
X18600619Y-12470276D01*
X18638714Y-12470276D01*
X18657762Y-12460752D01*
X18667286Y-12451228D01*
X18676810Y-12432181D01*
X18676810Y-12384562D01*
X18667286Y-12365514D01*
X18657762Y-12355990D01*
X18638714Y-12346467D01*
X18600619Y-12346467D01*
X18581571Y-12355990D01*
X18572048Y-12365514D01*
X18562524Y-12384562D01*
X18800619Y-12270276D02*
X18819667Y-12270276D01*
X18838714Y-12279800D01*
X18848238Y-12289324D01*
X18857762Y-12308371D01*
X18867286Y-12346467D01*
X18867286Y-12394086D01*
X18857762Y-12432181D01*
X18848238Y-12451228D01*
X18838714Y-12460752D01*
X18819667Y-12470276D01*
X18800619Y-12470276D01*
X18781571Y-12460752D01*
X18772048Y-12451228D01*
X18762524Y-12432181D01*
X18753000Y-12394086D01*
X18753000Y-12346467D01*
X18762524Y-12308371D01*
X18772048Y-12289324D01*
X18781571Y-12279800D01*
X18800619Y-12270276D01*
X18943476Y-12270276D02*
X18943476Y-12308371D01*
X19019667Y-12270276D02*
X19019667Y-12308371D01*
X19314905Y-12546467D02*
X19305381Y-12536943D01*
X19286333Y-12508371D01*
X19276810Y-12489324D01*
X19267286Y-12460752D01*
X19257762Y-12413133D01*
X19257762Y-12375038D01*
X19267286Y-12327419D01*
X19276810Y-12298848D01*
X19286333Y-12279800D01*
X19305381Y-12251228D01*
X19314905Y-12241705D01*
X19372048Y-12270276D02*
X19495857Y-12270276D01*
X19429190Y-12346467D01*
X19457762Y-12346467D01*
X19476810Y-12355990D01*
X19486333Y-12365514D01*
X19495857Y-12384562D01*
X19495857Y-12432181D01*
X19486333Y-12451228D01*
X19476810Y-12460752D01*
X19457762Y-12470276D01*
X19400619Y-12470276D01*
X19381571Y-12460752D01*
X19372048Y-12451228D01*
X19733952Y-12470276D02*
X19733952Y-12270276D01*
X19819667Y-12470276D02*
X19819667Y-12365514D01*
X19810143Y-12346467D01*
X19791095Y-12336943D01*
X19762524Y-12336943D01*
X19743476Y-12346467D01*
X19733952Y-12355990D01*
X19943476Y-12470276D02*
X19924429Y-12460752D01*
X19914905Y-12451228D01*
X19905381Y-12432181D01*
X19905381Y-12375038D01*
X19914905Y-12355990D01*
X19924429Y-12346467D01*
X19943476Y-12336943D01*
X19972048Y-12336943D01*
X19991095Y-12346467D01*
X20000619Y-12355990D01*
X20010143Y-12375038D01*
X20010143Y-12432181D01*
X20000619Y-12451228D01*
X19991095Y-12460752D01*
X19972048Y-12470276D01*
X19943476Y-12470276D01*
X20124429Y-12470276D02*
X20105381Y-12460752D01*
X20095857Y-12441705D01*
X20095857Y-12270276D01*
X20276810Y-12460752D02*
X20257762Y-12470276D01*
X20219667Y-12470276D01*
X20200619Y-12460752D01*
X20191095Y-12441705D01*
X20191095Y-12365514D01*
X20200619Y-12346467D01*
X20219667Y-12336943D01*
X20257762Y-12336943D01*
X20276810Y-12346467D01*
X20286333Y-12365514D01*
X20286333Y-12384562D01*
X20191095Y-12403609D01*
X20362524Y-12460752D02*
X20381571Y-12470276D01*
X20419667Y-12470276D01*
X20438714Y-12460752D01*
X20448238Y-12441705D01*
X20448238Y-12432181D01*
X20438714Y-12413133D01*
X20419667Y-12403609D01*
X20391095Y-12403609D01*
X20372048Y-12394086D01*
X20362524Y-12375038D01*
X20362524Y-12365514D01*
X20372048Y-12346467D01*
X20391095Y-12336943D01*
X20419667Y-12336943D01*
X20438714Y-12346467D01*
X20514905Y-12546467D02*
X20524429Y-12536943D01*
X20543476Y-12508371D01*
X20553000Y-12489324D01*
X20562524Y-12460752D01*
X20572048Y-12413133D01*
X20572048Y-12375038D01*
X20562524Y-12327419D01*
X20553000Y-12298848D01*
X20543476Y-12279800D01*
X20524429Y-12251228D01*
X20514905Y-12241705D01*
X20876810Y-12546467D02*
X20867286Y-12536943D01*
X20848238Y-12508371D01*
X20838714Y-12489324D01*
X20829190Y-12460752D01*
X20819667Y-12413133D01*
X20819667Y-12375038D01*
X20829190Y-12327419D01*
X20838714Y-12298848D01*
X20848238Y-12279800D01*
X20867286Y-12251228D01*
X20876810Y-12241705D01*
X20953000Y-12336943D02*
X20953000Y-12470276D01*
X20953000Y-12355990D02*
X20962524Y-12346467D01*
X20981571Y-12336943D01*
X21010143Y-12336943D01*
X21029190Y-12346467D01*
X21038714Y-12365514D01*
X21038714Y-12470276D01*
X21162524Y-12470276D02*
X21143476Y-12460752D01*
X21133952Y-12451228D01*
X21124429Y-12432181D01*
X21124429Y-12375038D01*
X21133952Y-12355990D01*
X21143476Y-12346467D01*
X21162524Y-12336943D01*
X21191095Y-12336943D01*
X21210143Y-12346467D01*
X21219667Y-12355990D01*
X21229190Y-12375038D01*
X21229190Y-12432181D01*
X21219667Y-12451228D01*
X21210143Y-12460752D01*
X21191095Y-12470276D01*
X21162524Y-12470276D01*
X21286333Y-12336943D02*
X21362524Y-12336943D01*
X21314905Y-12270276D02*
X21314905Y-12441705D01*
X21324429Y-12460752D01*
X21343476Y-12470276D01*
X21362524Y-12470276D01*
X21581571Y-12336943D02*
X21581571Y-12536943D01*
X21581571Y-12346467D02*
X21600619Y-12336943D01*
X21638714Y-12336943D01*
X21657762Y-12346467D01*
X21667286Y-12355990D01*
X21676810Y-12375038D01*
X21676810Y-12432181D01*
X21667286Y-12451228D01*
X21657762Y-12460752D01*
X21638714Y-12470276D01*
X21600619Y-12470276D01*
X21581571Y-12460752D01*
X21791095Y-12470276D02*
X21772048Y-12460752D01*
X21762524Y-12441705D01*
X21762524Y-12270276D01*
X21953000Y-12470276D02*
X21953000Y-12365514D01*
X21943476Y-12346467D01*
X21924429Y-12336943D01*
X21886333Y-12336943D01*
X21867286Y-12346467D01*
X21953000Y-12460752D02*
X21933952Y-12470276D01*
X21886333Y-12470276D01*
X21867286Y-12460752D01*
X21857762Y-12441705D01*
X21857762Y-12422657D01*
X21867286Y-12403609D01*
X21886333Y-12394086D01*
X21933952Y-12394086D01*
X21953000Y-12384562D01*
X22019667Y-12336943D02*
X22095857Y-12336943D01*
X22048238Y-12270276D02*
X22048238Y-12441705D01*
X22057762Y-12460752D01*
X22076810Y-12470276D01*
X22095857Y-12470276D01*
X22238714Y-12460752D02*
X22219667Y-12470276D01*
X22181571Y-12470276D01*
X22162524Y-12460752D01*
X22153000Y-12441705D01*
X22153000Y-12365514D01*
X22162524Y-12346467D01*
X22181571Y-12336943D01*
X22219667Y-12336943D01*
X22238714Y-12346467D01*
X22248238Y-12365514D01*
X22248238Y-12384562D01*
X22153000Y-12403609D01*
X22419667Y-12470276D02*
X22419667Y-12270276D01*
X22419667Y-12460752D02*
X22400619Y-12470276D01*
X22362524Y-12470276D01*
X22343476Y-12460752D01*
X22333952Y-12451228D01*
X22324429Y-12432181D01*
X22324429Y-12375038D01*
X22333952Y-12355990D01*
X22343476Y-12346467D01*
X22362524Y-12336943D01*
X22400619Y-12336943D01*
X22419667Y-12346467D01*
X22495857Y-12546467D02*
X22505381Y-12536943D01*
X22524428Y-12508371D01*
X22533952Y-12489324D01*
X22543476Y-12460752D01*
X22553000Y-12413133D01*
X22553000Y-12375038D01*
X22543476Y-12327419D01*
X22533952Y-12298848D01*
X22524428Y-12279800D01*
X22505381Y-12251228D01*
X22495857Y-12241705D01*
M02*
