%TF.GenerationSoftware,KiCad,Pcbnew,(6.0.8)*%
%TF.CreationDate,2023-01-05T18:41:51-07:00*%
%TF.ProjectId,PicoIO,5069636f-494f-42e6-9b69-6361645f7063,rev?*%
%TF.SameCoordinates,Original*%
%TF.FileFunction,Soldermask,Top*%
%TF.FilePolarity,Negative*%
%FSLAX46Y46*%
G04 Gerber Fmt 4.6, Leading zero omitted, Abs format (unit mm)*
G04 Created by KiCad (PCBNEW (6.0.8)) date 2023-01-05 18:41:51*
%MOMM*%
%LPD*%
G01*
G04 APERTURE LIST*
G04 Aperture macros list*
%AMRoundRect*
0 Rectangle with rounded corners*
0 $1 Rounding radius*
0 $2 $3 $4 $5 $6 $7 $8 $9 X,Y pos of 4 corners*
0 Add a 4 corners polygon primitive as box body*
4,1,4,$2,$3,$4,$5,$6,$7,$8,$9,$2,$3,0*
0 Add four circle primitives for the rounded corners*
1,1,$1+$1,$2,$3*
1,1,$1+$1,$4,$5*
1,1,$1+$1,$6,$7*
1,1,$1+$1,$8,$9*
0 Add four rect primitives between the rounded corners*
20,1,$1+$1,$2,$3,$4,$5,0*
20,1,$1+$1,$4,$5,$6,$7,0*
20,1,$1+$1,$6,$7,$8,$9,0*
20,1,$1+$1,$8,$9,$2,$3,0*%
G04 Aperture macros list end*
%ADD10C,0.150000*%
%ADD11RoundRect,0.250000X-0.600000X-0.725000X0.600000X-0.725000X0.600000X0.725000X-0.600000X0.725000X0*%
%ADD12O,1.700000X1.950000*%
%ADD13R,1.700000X3.500000*%
%ADD14O,1.700000X1.700000*%
%ADD15R,1.700000X1.700000*%
%ADD16R,3.500000X1.700000*%
%ADD17RoundRect,0.250000X0.725000X-0.600000X0.725000X0.600000X-0.725000X0.600000X-0.725000X-0.600000X0*%
%ADD18O,1.950000X1.700000*%
%ADD19C,3.200000*%
%ADD20RoundRect,0.250000X0.600000X0.750000X-0.600000X0.750000X-0.600000X-0.750000X0.600000X-0.750000X0*%
%ADD21O,1.700000X2.000000*%
G04 APERTURE END LIST*
D10*
X125192857Y-67664380D02*
X125192857Y-67854857D01*
X125573809Y-67664380D02*
X125573809Y-67854857D01*
X125907142Y-67664380D02*
X126145238Y-68664380D01*
X126335714Y-67950095D01*
X126526190Y-68664380D01*
X126764285Y-67664380D01*
X127145238Y-68664380D02*
X127145238Y-67664380D01*
X127573809Y-68664380D02*
X127573809Y-68140571D01*
X127526190Y-68045333D01*
X127430952Y-67997714D01*
X127288095Y-67997714D01*
X127192857Y-68045333D01*
X127145238Y-68092952D01*
X127954761Y-67997714D02*
X128192857Y-68664380D01*
X128430952Y-67997714D02*
X128192857Y-68664380D01*
X128097619Y-68902476D01*
X128050000Y-68950095D01*
X127954761Y-68997714D01*
X129526190Y-68616761D02*
X129621428Y-68664380D01*
X129811904Y-68664380D01*
X129907142Y-68616761D01*
X129954761Y-68521523D01*
X129954761Y-68473904D01*
X129907142Y-68378666D01*
X129811904Y-68331047D01*
X129669047Y-68331047D01*
X129573809Y-68283428D01*
X129526190Y-68188190D01*
X129526190Y-68140571D01*
X129573809Y-68045333D01*
X129669047Y-67997714D01*
X129811904Y-67997714D01*
X129907142Y-68045333D01*
X130764285Y-68616761D02*
X130669047Y-68664380D01*
X130478571Y-68664380D01*
X130383333Y-68616761D01*
X130335714Y-68521523D01*
X130335714Y-68140571D01*
X130383333Y-68045333D01*
X130478571Y-67997714D01*
X130669047Y-67997714D01*
X130764285Y-68045333D01*
X130811904Y-68140571D01*
X130811904Y-68235809D01*
X130335714Y-68331047D01*
X131097619Y-67997714D02*
X131478571Y-67997714D01*
X131240476Y-67664380D02*
X131240476Y-68521523D01*
X131288095Y-68616761D01*
X131383333Y-68664380D01*
X131478571Y-68664380D01*
X131669047Y-67997714D02*
X132050000Y-67997714D01*
X131811904Y-67664380D02*
X131811904Y-68521523D01*
X131859523Y-68616761D01*
X131954761Y-68664380D01*
X132050000Y-68664380D01*
X132526190Y-68664380D02*
X132430952Y-68616761D01*
X132383333Y-68521523D01*
X132383333Y-67664380D01*
X133288095Y-68616761D02*
X133192857Y-68664380D01*
X133002380Y-68664380D01*
X132907142Y-68616761D01*
X132859523Y-68521523D01*
X132859523Y-68140571D01*
X132907142Y-68045333D01*
X133002380Y-67997714D01*
X133192857Y-67997714D01*
X133288095Y-68045333D01*
X133335714Y-68140571D01*
X133335714Y-68235809D01*
X132859523Y-68331047D01*
X134383333Y-67997714D02*
X134764285Y-67997714D01*
X134526190Y-68664380D02*
X134526190Y-67807238D01*
X134573809Y-67712000D01*
X134669047Y-67664380D01*
X134764285Y-67664380D01*
X135240476Y-68664380D02*
X135145238Y-68616761D01*
X135097619Y-68569142D01*
X135050000Y-68473904D01*
X135050000Y-68188190D01*
X135097619Y-68092952D01*
X135145238Y-68045333D01*
X135240476Y-67997714D01*
X135383333Y-67997714D01*
X135478571Y-68045333D01*
X135526190Y-68092952D01*
X135573809Y-68188190D01*
X135573809Y-68473904D01*
X135526190Y-68569142D01*
X135478571Y-68616761D01*
X135383333Y-68664380D01*
X135240476Y-68664380D01*
X136002380Y-68664380D02*
X136002380Y-67997714D01*
X136002380Y-68188190D02*
X136050000Y-68092952D01*
X136097619Y-68045333D01*
X136192857Y-67997714D01*
X136288095Y-67997714D01*
X137811904Y-67997714D02*
X137811904Y-68664380D01*
X137573809Y-67616761D02*
X137335714Y-68331047D01*
X137954761Y-68331047D01*
X122692857Y-69607714D02*
X122883333Y-70274380D01*
X123073809Y-69798190D01*
X123264285Y-70274380D01*
X123454761Y-69607714D01*
X123835714Y-70274380D02*
X123835714Y-69274380D01*
X124264285Y-70274380D02*
X124264285Y-69750571D01*
X124216666Y-69655333D01*
X124121428Y-69607714D01*
X123978571Y-69607714D01*
X123883333Y-69655333D01*
X123835714Y-69702952D01*
X125121428Y-70226761D02*
X125026190Y-70274380D01*
X124835714Y-70274380D01*
X124740476Y-70226761D01*
X124692857Y-70131523D01*
X124692857Y-69750571D01*
X124740476Y-69655333D01*
X124835714Y-69607714D01*
X125026190Y-69607714D01*
X125121428Y-69655333D01*
X125169047Y-69750571D01*
X125169047Y-69845809D01*
X124692857Y-69941047D01*
X125597619Y-69607714D02*
X125597619Y-70274380D01*
X125597619Y-69702952D02*
X125645238Y-69655333D01*
X125740476Y-69607714D01*
X125883333Y-69607714D01*
X125978571Y-69655333D01*
X126026190Y-69750571D01*
X126026190Y-70274380D01*
X127169047Y-69607714D02*
X127407142Y-70274380D01*
X127645238Y-69607714D02*
X127407142Y-70274380D01*
X127311904Y-70512476D01*
X127264285Y-70560095D01*
X127169047Y-70607714D01*
X128169047Y-70274380D02*
X128073809Y-70226761D01*
X128026190Y-70179142D01*
X127978571Y-70083904D01*
X127978571Y-69798190D01*
X128026190Y-69702952D01*
X128073809Y-69655333D01*
X128169047Y-69607714D01*
X128311904Y-69607714D01*
X128407142Y-69655333D01*
X128454761Y-69702952D01*
X128502380Y-69798190D01*
X128502380Y-70083904D01*
X128454761Y-70179142D01*
X128407142Y-70226761D01*
X128311904Y-70274380D01*
X128169047Y-70274380D01*
X129359523Y-69607714D02*
X129359523Y-70274380D01*
X128930952Y-69607714D02*
X128930952Y-70131523D01*
X128978571Y-70226761D01*
X129073809Y-70274380D01*
X129216666Y-70274380D01*
X129311904Y-70226761D01*
X129359523Y-70179142D01*
X131026190Y-70226761D02*
X130930952Y-70274380D01*
X130740476Y-70274380D01*
X130645238Y-70226761D01*
X130597619Y-70179142D01*
X130550000Y-70083904D01*
X130550000Y-69798190D01*
X130597619Y-69702952D01*
X130645238Y-69655333D01*
X130740476Y-69607714D01*
X130930952Y-69607714D01*
X131026190Y-69655333D01*
X131883333Y-70274380D02*
X131883333Y-69750571D01*
X131835714Y-69655333D01*
X131740476Y-69607714D01*
X131550000Y-69607714D01*
X131454761Y-69655333D01*
X131883333Y-70226761D02*
X131788095Y-70274380D01*
X131550000Y-70274380D01*
X131454761Y-70226761D01*
X131407142Y-70131523D01*
X131407142Y-70036285D01*
X131454761Y-69941047D01*
X131550000Y-69893428D01*
X131788095Y-69893428D01*
X131883333Y-69845809D01*
X132359523Y-69607714D02*
X132359523Y-70274380D01*
X132359523Y-69702952D02*
X132407142Y-69655333D01*
X132502380Y-69607714D01*
X132645238Y-69607714D01*
X132740476Y-69655333D01*
X132788095Y-69750571D01*
X132788095Y-70274380D01*
X134026190Y-70274380D02*
X134026190Y-69274380D01*
X134454761Y-70274380D02*
X134454761Y-69750571D01*
X134407142Y-69655333D01*
X134311904Y-69607714D01*
X134169047Y-69607714D01*
X134073809Y-69655333D01*
X134026190Y-69702952D01*
X135359523Y-70274380D02*
X135359523Y-69750571D01*
X135311904Y-69655333D01*
X135216666Y-69607714D01*
X135026190Y-69607714D01*
X134930952Y-69655333D01*
X135359523Y-70226761D02*
X135264285Y-70274380D01*
X135026190Y-70274380D01*
X134930952Y-70226761D01*
X134883333Y-70131523D01*
X134883333Y-70036285D01*
X134930952Y-69941047D01*
X135026190Y-69893428D01*
X135264285Y-69893428D01*
X135359523Y-69845809D01*
X135740476Y-69607714D02*
X135978571Y-70274380D01*
X136216666Y-69607714D01*
X136978571Y-70226761D02*
X136883333Y-70274380D01*
X136692857Y-70274380D01*
X136597619Y-70226761D01*
X136550000Y-70131523D01*
X136550000Y-69750571D01*
X136597619Y-69655333D01*
X136692857Y-69607714D01*
X136883333Y-69607714D01*
X136978571Y-69655333D01*
X137026190Y-69750571D01*
X137026190Y-69845809D01*
X136550000Y-69941047D01*
X138692857Y-69274380D02*
X138216666Y-69274380D01*
X138169047Y-69750571D01*
X138216666Y-69702952D01*
X138311904Y-69655333D01*
X138550000Y-69655333D01*
X138645238Y-69702952D01*
X138692857Y-69750571D01*
X138740476Y-69845809D01*
X138740476Y-70083904D01*
X138692857Y-70179142D01*
X138645238Y-70226761D01*
X138550000Y-70274380D01*
X138311904Y-70274380D01*
X138216666Y-70226761D01*
X138169047Y-70179142D01*
X139311904Y-70179142D02*
X139359523Y-70226761D01*
X139311904Y-70274380D01*
X139264285Y-70226761D01*
X139311904Y-70179142D01*
X139311904Y-70274380D01*
X139121428Y-69322000D02*
X139216666Y-69274380D01*
X139454761Y-69274380D01*
X139550000Y-69322000D01*
X139597619Y-69417238D01*
X139597619Y-69512476D01*
X139550000Y-69607714D01*
X139502380Y-69655333D01*
X139407142Y-69702952D01*
X139359523Y-69750571D01*
X139311904Y-69845809D01*
X139311904Y-69893428D01*
X139978571Y-69274380D02*
X139978571Y-69464857D01*
X140359523Y-69274380D02*
X140359523Y-69464857D01*
X115375595Y-120226380D02*
X115375595Y-119226380D01*
X115756547Y-119226380D01*
X115851785Y-119274000D01*
X115899404Y-119321619D01*
X115947023Y-119416857D01*
X115947023Y-119559714D01*
X115899404Y-119654952D01*
X115851785Y-119702571D01*
X115756547Y-119750190D01*
X115375595Y-119750190D01*
X116375595Y-120226380D02*
X116375595Y-119559714D01*
X116375595Y-119226380D02*
X116327976Y-119274000D01*
X116375595Y-119321619D01*
X116423214Y-119274000D01*
X116375595Y-119226380D01*
X116375595Y-119321619D01*
X117280357Y-120178761D02*
X117185119Y-120226380D01*
X116994642Y-120226380D01*
X116899404Y-120178761D01*
X116851785Y-120131142D01*
X116804166Y-120035904D01*
X116804166Y-119750190D01*
X116851785Y-119654952D01*
X116899404Y-119607333D01*
X116994642Y-119559714D01*
X117185119Y-119559714D01*
X117280357Y-119607333D01*
X117851785Y-120226380D02*
X117756547Y-120178761D01*
X117708928Y-120131142D01*
X117661309Y-120035904D01*
X117661309Y-119750190D01*
X117708928Y-119654952D01*
X117756547Y-119607333D01*
X117851785Y-119559714D01*
X117994642Y-119559714D01*
X118089880Y-119607333D01*
X118137500Y-119654952D01*
X118185119Y-119750190D01*
X118185119Y-120035904D01*
X118137500Y-120131142D01*
X118089880Y-120178761D01*
X117994642Y-120226380D01*
X117851785Y-120226380D01*
X118613690Y-120226380D02*
X118613690Y-119226380D01*
X119280357Y-119226380D02*
X119470833Y-119226380D01*
X119566071Y-119274000D01*
X119661309Y-119369238D01*
X119708928Y-119559714D01*
X119708928Y-119893047D01*
X119661309Y-120083523D01*
X119566071Y-120178761D01*
X119470833Y-120226380D01*
X119280357Y-120226380D01*
X119185119Y-120178761D01*
X119089880Y-120083523D01*
X119042261Y-119893047D01*
X119042261Y-119559714D01*
X119089880Y-119369238D01*
X119185119Y-119274000D01*
X119280357Y-119226380D01*
X120899404Y-120226380D02*
X120899404Y-119226380D01*
X121280357Y-119226380D01*
X121375595Y-119274000D01*
X121423214Y-119321619D01*
X121470833Y-119416857D01*
X121470833Y-119559714D01*
X121423214Y-119654952D01*
X121375595Y-119702571D01*
X121280357Y-119750190D01*
X120899404Y-119750190D01*
X122470833Y-120131142D02*
X122423214Y-120178761D01*
X122280357Y-120226380D01*
X122185119Y-120226380D01*
X122042261Y-120178761D01*
X121947023Y-120083523D01*
X121899404Y-119988285D01*
X121851785Y-119797809D01*
X121851785Y-119654952D01*
X121899404Y-119464476D01*
X121947023Y-119369238D01*
X122042261Y-119274000D01*
X122185119Y-119226380D01*
X122280357Y-119226380D01*
X122423214Y-119274000D01*
X122470833Y-119321619D01*
X123232738Y-119702571D02*
X123375595Y-119750190D01*
X123423214Y-119797809D01*
X123470833Y-119893047D01*
X123470833Y-120035904D01*
X123423214Y-120131142D01*
X123375595Y-120178761D01*
X123280357Y-120226380D01*
X122899404Y-120226380D01*
X122899404Y-119226380D01*
X123232738Y-119226380D01*
X123327976Y-119274000D01*
X123375595Y-119321619D01*
X123423214Y-119416857D01*
X123423214Y-119512095D01*
X123375595Y-119607333D01*
X123327976Y-119654952D01*
X123232738Y-119702571D01*
X122899404Y-119702571D01*
X125232738Y-120226380D02*
X124899404Y-119750190D01*
X124661309Y-120226380D02*
X124661309Y-119226380D01*
X125042261Y-119226380D01*
X125137500Y-119274000D01*
X125185119Y-119321619D01*
X125232738Y-119416857D01*
X125232738Y-119559714D01*
X125185119Y-119654952D01*
X125137500Y-119702571D01*
X125042261Y-119750190D01*
X124661309Y-119750190D01*
X126042261Y-120178761D02*
X125947023Y-120226380D01*
X125756547Y-120226380D01*
X125661309Y-120178761D01*
X125613690Y-120083523D01*
X125613690Y-119702571D01*
X125661309Y-119607333D01*
X125756547Y-119559714D01*
X125947023Y-119559714D01*
X126042261Y-119607333D01*
X126089880Y-119702571D01*
X126089880Y-119797809D01*
X125613690Y-119893047D01*
X126423214Y-119559714D02*
X126661309Y-120226380D01*
X126899404Y-119559714D01*
X127280357Y-120131142D02*
X127327976Y-120178761D01*
X127280357Y-120226380D01*
X127232738Y-120178761D01*
X127280357Y-120131142D01*
X127280357Y-120226380D01*
X129042261Y-120226380D02*
X128470833Y-120226380D01*
X128756547Y-120226380D02*
X128756547Y-119226380D01*
X128661309Y-119369238D01*
X128566071Y-119464476D01*
X128470833Y-119512095D01*
X115375595Y-121836380D02*
X115375595Y-120836380D01*
X115804166Y-121836380D02*
X115804166Y-121312571D01*
X115756547Y-121217333D01*
X115661309Y-121169714D01*
X115518452Y-121169714D01*
X115423214Y-121217333D01*
X115375595Y-121264952D01*
X116137500Y-121169714D02*
X116518452Y-121169714D01*
X116280357Y-120836380D02*
X116280357Y-121693523D01*
X116327976Y-121788761D01*
X116423214Y-121836380D01*
X116518452Y-121836380D01*
X116708928Y-121169714D02*
X117089880Y-121169714D01*
X116851785Y-120836380D02*
X116851785Y-121693523D01*
X116899404Y-121788761D01*
X116994642Y-121836380D01*
X117089880Y-121836380D01*
X117423214Y-121169714D02*
X117423214Y-122169714D01*
X117423214Y-121217333D02*
X117518452Y-121169714D01*
X117708928Y-121169714D01*
X117804166Y-121217333D01*
X117851785Y-121264952D01*
X117899404Y-121360190D01*
X117899404Y-121645904D01*
X117851785Y-121741142D01*
X117804166Y-121788761D01*
X117708928Y-121836380D01*
X117518452Y-121836380D01*
X117423214Y-121788761D01*
X118280357Y-121788761D02*
X118375595Y-121836380D01*
X118566071Y-121836380D01*
X118661309Y-121788761D01*
X118708928Y-121693523D01*
X118708928Y-121645904D01*
X118661309Y-121550666D01*
X118566071Y-121503047D01*
X118423214Y-121503047D01*
X118327976Y-121455428D01*
X118280357Y-121360190D01*
X118280357Y-121312571D01*
X118327976Y-121217333D01*
X118423214Y-121169714D01*
X118566071Y-121169714D01*
X118661309Y-121217333D01*
X119137500Y-121741142D02*
X119185119Y-121788761D01*
X119137500Y-121836380D01*
X119089880Y-121788761D01*
X119137500Y-121741142D01*
X119137500Y-121836380D01*
X119137500Y-121217333D02*
X119185119Y-121264952D01*
X119137500Y-121312571D01*
X119089880Y-121264952D01*
X119137500Y-121217333D01*
X119137500Y-121312571D01*
X120327976Y-120788761D02*
X119470833Y-122074476D01*
X121375595Y-120788761D02*
X120518452Y-122074476D01*
X122137500Y-121169714D02*
X122137500Y-121979238D01*
X122089880Y-122074476D01*
X122042261Y-122122095D01*
X121947023Y-122169714D01*
X121804166Y-122169714D01*
X121708928Y-122122095D01*
X122137500Y-121788761D02*
X122042261Y-121836380D01*
X121851785Y-121836380D01*
X121756547Y-121788761D01*
X121708928Y-121741142D01*
X121661309Y-121645904D01*
X121661309Y-121360190D01*
X121708928Y-121264952D01*
X121756547Y-121217333D01*
X121851785Y-121169714D01*
X122042261Y-121169714D01*
X122137500Y-121217333D01*
X122613690Y-121836380D02*
X122613690Y-121169714D01*
X122613690Y-120836380D02*
X122566071Y-120884000D01*
X122613690Y-120931619D01*
X122661309Y-120884000D01*
X122613690Y-120836380D01*
X122613690Y-120931619D01*
X122947023Y-121169714D02*
X123327976Y-121169714D01*
X123089880Y-120836380D02*
X123089880Y-121693523D01*
X123137500Y-121788761D01*
X123232738Y-121836380D01*
X123327976Y-121836380D01*
X123661309Y-121836380D02*
X123661309Y-120836380D01*
X124089880Y-121836380D02*
X124089880Y-121312571D01*
X124042261Y-121217333D01*
X123947023Y-121169714D01*
X123804166Y-121169714D01*
X123708928Y-121217333D01*
X123661309Y-121264952D01*
X124994642Y-121169714D02*
X124994642Y-121836380D01*
X124566071Y-121169714D02*
X124566071Y-121693523D01*
X124613690Y-121788761D01*
X124708928Y-121836380D01*
X124851785Y-121836380D01*
X124947023Y-121788761D01*
X124994642Y-121741142D01*
X125470833Y-121836380D02*
X125470833Y-120836380D01*
X125470833Y-121217333D02*
X125566071Y-121169714D01*
X125756547Y-121169714D01*
X125851785Y-121217333D01*
X125899404Y-121264952D01*
X125947023Y-121360190D01*
X125947023Y-121645904D01*
X125899404Y-121741142D01*
X125851785Y-121788761D01*
X125756547Y-121836380D01*
X125566071Y-121836380D01*
X125470833Y-121788761D01*
X126375595Y-121741142D02*
X126423214Y-121788761D01*
X126375595Y-121836380D01*
X126327976Y-121788761D01*
X126375595Y-121741142D01*
X126375595Y-121836380D01*
X127280357Y-121788761D02*
X127185119Y-121836380D01*
X126994642Y-121836380D01*
X126899404Y-121788761D01*
X126851785Y-121741142D01*
X126804166Y-121645904D01*
X126804166Y-121360190D01*
X126851785Y-121264952D01*
X126899404Y-121217333D01*
X126994642Y-121169714D01*
X127185119Y-121169714D01*
X127280357Y-121217333D01*
X127851785Y-121836380D02*
X127756547Y-121788761D01*
X127708928Y-121741142D01*
X127661309Y-121645904D01*
X127661309Y-121360190D01*
X127708928Y-121264952D01*
X127756547Y-121217333D01*
X127851785Y-121169714D01*
X127994642Y-121169714D01*
X128089880Y-121217333D01*
X128137500Y-121264952D01*
X128185119Y-121360190D01*
X128185119Y-121645904D01*
X128137500Y-121741142D01*
X128089880Y-121788761D01*
X127994642Y-121836380D01*
X127851785Y-121836380D01*
X128613690Y-121836380D02*
X128613690Y-121169714D01*
X128613690Y-121264952D02*
X128661309Y-121217333D01*
X128756547Y-121169714D01*
X128899404Y-121169714D01*
X128994642Y-121217333D01*
X129042261Y-121312571D01*
X129042261Y-121836380D01*
X129042261Y-121312571D02*
X129089880Y-121217333D01*
X129185119Y-121169714D01*
X129327976Y-121169714D01*
X129423214Y-121217333D01*
X129470833Y-121312571D01*
X129470833Y-121836380D01*
X130661309Y-120788761D02*
X129804166Y-122074476D01*
X131423214Y-121836380D02*
X131423214Y-120836380D01*
X131423214Y-121788761D02*
X131327976Y-121836380D01*
X131137500Y-121836380D01*
X131042261Y-121788761D01*
X130994642Y-121741142D01*
X130947023Y-121645904D01*
X130947023Y-121360190D01*
X130994642Y-121264952D01*
X131042261Y-121217333D01*
X131137500Y-121169714D01*
X131327976Y-121169714D01*
X131423214Y-121217333D01*
X131899404Y-121169714D02*
X131899404Y-122026857D01*
X131851785Y-122122095D01*
X131756547Y-122169714D01*
X131708928Y-122169714D01*
X131899404Y-120836380D02*
X131851785Y-120884000D01*
X131899404Y-120931619D01*
X131947023Y-120884000D01*
X131899404Y-120836380D01*
X131899404Y-120931619D01*
X132851785Y-120836380D02*
X132375595Y-120836380D01*
X132327976Y-121312571D01*
X132375595Y-121264952D01*
X132470833Y-121217333D01*
X132708928Y-121217333D01*
X132804166Y-121264952D01*
X132851785Y-121312571D01*
X132899404Y-121407809D01*
X132899404Y-121645904D01*
X132851785Y-121741142D01*
X132804166Y-121788761D01*
X132708928Y-121836380D01*
X132470833Y-121836380D01*
X132375595Y-121788761D01*
X132327976Y-121741142D01*
X133518452Y-120836380D02*
X133613690Y-120836380D01*
X133708928Y-120884000D01*
X133756547Y-120931619D01*
X133804166Y-121026857D01*
X133851785Y-121217333D01*
X133851785Y-121455428D01*
X133804166Y-121645904D01*
X133756547Y-121741142D01*
X133708928Y-121788761D01*
X133613690Y-121836380D01*
X133518452Y-121836380D01*
X133423214Y-121788761D01*
X133375595Y-121741142D01*
X133327976Y-121645904D01*
X133280357Y-121455428D01*
X133280357Y-121217333D01*
X133327976Y-121026857D01*
X133375595Y-120931619D01*
X133423214Y-120884000D01*
X133518452Y-120836380D01*
X134756547Y-120836380D02*
X134280357Y-120836380D01*
X134232738Y-121312571D01*
X134280357Y-121264952D01*
X134375595Y-121217333D01*
X134613690Y-121217333D01*
X134708928Y-121264952D01*
X134756547Y-121312571D01*
X134804166Y-121407809D01*
X134804166Y-121645904D01*
X134756547Y-121741142D01*
X134708928Y-121788761D01*
X134613690Y-121836380D01*
X134375595Y-121836380D01*
X134280357Y-121788761D01*
X134232738Y-121741142D01*
X135947023Y-120788761D02*
X135089880Y-122074476D01*
X136280357Y-121836380D02*
X136280357Y-120836380D01*
X136661309Y-120836380D01*
X136756547Y-120884000D01*
X136804166Y-120931619D01*
X136851785Y-121026857D01*
X136851785Y-121169714D01*
X136804166Y-121264952D01*
X136756547Y-121312571D01*
X136661309Y-121360190D01*
X136280357Y-121360190D01*
X137280357Y-121836380D02*
X137280357Y-121169714D01*
X137280357Y-120836380D02*
X137232738Y-120884000D01*
X137280357Y-120931619D01*
X137327976Y-120884000D01*
X137280357Y-120836380D01*
X137280357Y-120931619D01*
X138185119Y-121788761D02*
X138089880Y-121836380D01*
X137899404Y-121836380D01*
X137804166Y-121788761D01*
X137756547Y-121741142D01*
X137708928Y-121645904D01*
X137708928Y-121360190D01*
X137756547Y-121264952D01*
X137804166Y-121217333D01*
X137899404Y-121169714D01*
X138089880Y-121169714D01*
X138185119Y-121217333D01*
X138756547Y-121836380D02*
X138661309Y-121788761D01*
X138613690Y-121741142D01*
X138566071Y-121645904D01*
X138566071Y-121360190D01*
X138613690Y-121264952D01*
X138661309Y-121217333D01*
X138756547Y-121169714D01*
X138899404Y-121169714D01*
X138994642Y-121217333D01*
X139042261Y-121264952D01*
X139089880Y-121360190D01*
X139089880Y-121645904D01*
X139042261Y-121741142D01*
X138994642Y-121788761D01*
X138899404Y-121836380D01*
X138756547Y-121836380D01*
X139518452Y-121836380D02*
X139518452Y-120836380D01*
X140185119Y-120836380D02*
X140375595Y-120836380D01*
X140470833Y-120884000D01*
X140566071Y-120979238D01*
X140613690Y-121169714D01*
X140613690Y-121503047D01*
X140566071Y-121693523D01*
X140470833Y-121788761D01*
X140375595Y-121836380D01*
X140185119Y-121836380D01*
X140089880Y-121788761D01*
X139994642Y-121693523D01*
X139947023Y-121503047D01*
X139947023Y-121169714D01*
X139994642Y-120979238D01*
X140089880Y-120884000D01*
X140185119Y-120836380D01*
D11*
%TO.C,J5*%
X167480000Y-106508000D03*
D12*
X169980000Y-106508000D03*
X172480000Y-106508000D03*
X174980000Y-106508000D03*
%TD*%
D13*
%TO.C,U1*%
X111992000Y-94555000D03*
D14*
X111992000Y-93655000D03*
D13*
X114532000Y-94555000D03*
D14*
X114532000Y-93655000D03*
D13*
X117072000Y-94555000D03*
D15*
X117072000Y-93655000D03*
D13*
X119612000Y-94555000D03*
D14*
X119612000Y-93655000D03*
D13*
X122152000Y-94555000D03*
D14*
X122152000Y-93655000D03*
X124692000Y-93655000D03*
D13*
X124692000Y-94555000D03*
X127232000Y-94555000D03*
D14*
X127232000Y-93655000D03*
D15*
X129772000Y-93655000D03*
D13*
X129772000Y-94555000D03*
D14*
X132312000Y-93655000D03*
D13*
X132312000Y-94555000D03*
D14*
X134852000Y-93655000D03*
D13*
X134852000Y-94555000D03*
X137392000Y-94555000D03*
D14*
X137392000Y-93655000D03*
D13*
X139932000Y-94555000D03*
D14*
X139932000Y-93655000D03*
D13*
X142472000Y-94555000D03*
D15*
X142472000Y-93655000D03*
D14*
X145012000Y-93655000D03*
D13*
X145012000Y-94555000D03*
X147552000Y-94555000D03*
D14*
X147552000Y-93655000D03*
D13*
X150092000Y-94555000D03*
D14*
X150092000Y-93655000D03*
X152632000Y-93655000D03*
D13*
X152632000Y-94555000D03*
D15*
X155172000Y-93655000D03*
D13*
X155172000Y-94555000D03*
X157712000Y-94555000D03*
D14*
X157712000Y-93655000D03*
D13*
X160252000Y-94555000D03*
D14*
X160252000Y-93655000D03*
D13*
X160252000Y-74975000D03*
D14*
X160252000Y-75875000D03*
X157712000Y-75875000D03*
D13*
X157712000Y-74975000D03*
D15*
X155172000Y-75875000D03*
D13*
X155172000Y-74975000D03*
X152632000Y-74975000D03*
D14*
X152632000Y-75875000D03*
D13*
X150092000Y-74975000D03*
D14*
X150092000Y-75875000D03*
D13*
X147552000Y-74975000D03*
D14*
X147552000Y-75875000D03*
X145012000Y-75875000D03*
D13*
X145012000Y-74975000D03*
X142472000Y-74975000D03*
D15*
X142472000Y-75875000D03*
D13*
X139932000Y-74975000D03*
D14*
X139932000Y-75875000D03*
X137392000Y-75875000D03*
D13*
X137392000Y-74975000D03*
X134852000Y-74975000D03*
D14*
X134852000Y-75875000D03*
X132312000Y-75875000D03*
D13*
X132312000Y-74975000D03*
X129772000Y-74975000D03*
D15*
X129772000Y-75875000D03*
D14*
X127232000Y-75875000D03*
D13*
X127232000Y-74975000D03*
D14*
X124692000Y-75875000D03*
D13*
X124692000Y-74975000D03*
X122152000Y-74975000D03*
D14*
X122152000Y-75875000D03*
X119612000Y-75875000D03*
D13*
X119612000Y-74975000D03*
X117072000Y-74975000D03*
D15*
X117072000Y-75875000D03*
D14*
X114532000Y-75875000D03*
D13*
X114532000Y-74975000D03*
D14*
X111992000Y-75875000D03*
D13*
X111992000Y-74975000D03*
D16*
X160922000Y-87305000D03*
D14*
X160022000Y-87305000D03*
D15*
X160022000Y-84765000D03*
D16*
X160922000Y-84765000D03*
X160922000Y-82225000D03*
D14*
X160022000Y-82225000D03*
%TD*%
D11*
%TO.C,J10*%
X167480000Y-113283000D03*
D12*
X169980000Y-113283000D03*
X172480000Y-113283000D03*
X174980000Y-113283000D03*
%TD*%
D17*
%TO.C,J11*%
X178523000Y-99143000D03*
D18*
X178523000Y-96643000D03*
X178523000Y-94143000D03*
%TD*%
D11*
%TO.C,J6*%
X113480000Y-113283000D03*
D12*
X115980000Y-113283000D03*
X118480000Y-113283000D03*
X120980000Y-113283000D03*
%TD*%
D19*
%TO.C,REF\u002A\u002A*%
X179556000Y-69017000D03*
%TD*%
D11*
%TO.C,J7*%
X126980000Y-113283000D03*
D12*
X129480000Y-113283000D03*
X131980000Y-113283000D03*
X134480000Y-113283000D03*
%TD*%
D11*
%TO.C,J3*%
X140480000Y-106508000D03*
D12*
X142980000Y-106508000D03*
X145480000Y-106508000D03*
X147980000Y-106508000D03*
%TD*%
D11*
%TO.C,J4*%
X153980000Y-106508000D03*
D12*
X156480000Y-106508000D03*
X158980000Y-106508000D03*
X161480000Y-106508000D03*
%TD*%
D11*
%TO.C,J1*%
X113480000Y-106508000D03*
D12*
X115980000Y-106508000D03*
X118480000Y-106508000D03*
X120980000Y-106508000D03*
%TD*%
D17*
%TO.C,J12*%
X178540000Y-87967000D03*
D18*
X178540000Y-85467000D03*
X178540000Y-82967000D03*
X178540000Y-80467000D03*
X178540000Y-77967000D03*
X178540000Y-75467000D03*
%TD*%
D11*
%TO.C,J2*%
X126980000Y-106508000D03*
D12*
X129480000Y-106508000D03*
X131980000Y-106508000D03*
X134480000Y-106508000D03*
%TD*%
D15*
%TO.C,J13*%
X169650000Y-87290000D03*
D14*
X169650000Y-84750000D03*
X169650000Y-82210000D03*
%TD*%
D11*
%TO.C,J9*%
X153980000Y-113283000D03*
D12*
X156480000Y-113283000D03*
X158980000Y-113283000D03*
X161480000Y-113283000D03*
%TD*%
D19*
%TO.C,REF\u002A\u002A*%
X179556000Y-120343051D03*
%TD*%
%TO.C,REF\u002A\u002A*%
X113516000Y-69017000D03*
%TD*%
D20*
%TO.C,J14*%
X168126000Y-69796000D03*
D21*
X165626000Y-69796000D03*
%TD*%
D11*
%TO.C,J8*%
X140480000Y-113283000D03*
D12*
X142980000Y-113283000D03*
X145480000Y-113283000D03*
X147980000Y-113283000D03*
%TD*%
M02*
