%TF.GenerationSoftware,KiCad,Pcbnew,(6.0.8)*%
%TF.CreationDate,2023-01-05T14:05:36-07:00*%
%TF.ProjectId,PicoIO,5069636f-494f-42e6-9b69-6361645f7063,rev?*%
%TF.SameCoordinates,Original*%
%TF.FileFunction,Paste,Bot*%
%TF.FilePolarity,Positive*%
%FSLAX46Y46*%
G04 Gerber Fmt 4.6, Leading zero omitted, Abs format (unit mm)*
G04 Created by KiCad (PCBNEW (6.0.8)) date 2023-01-05 14:05:36*
%MOMM*%
%LPD*%
G01*
G04 APERTURE LIST*
G04 Aperture macros list*
%AMRoundRect*
0 Rectangle with rounded corners*
0 $1 Rounding radius*
0 $2 $3 $4 $5 $6 $7 $8 $9 X,Y pos of 4 corners*
0 Add a 4 corners polygon primitive as box body*
4,1,4,$2,$3,$4,$5,$6,$7,$8,$9,$2,$3,0*
0 Add four circle primitives for the rounded corners*
1,1,$1+$1,$2,$3*
1,1,$1+$1,$4,$5*
1,1,$1+$1,$6,$7*
1,1,$1+$1,$8,$9*
0 Add four rect primitives between the rounded corners*
20,1,$1+$1,$2,$3,$4,$5,0*
20,1,$1+$1,$4,$5,$6,$7,0*
20,1,$1+$1,$6,$7,$8,$9,0*
20,1,$1+$1,$8,$9,$2,$3,0*%
G04 Aperture macros list end*
%ADD10RoundRect,0.150000X-0.587500X-0.150000X0.587500X-0.150000X0.587500X0.150000X-0.587500X0.150000X0*%
%ADD11RoundRect,0.250000X0.450000X-0.350000X0.450000X0.350000X-0.450000X0.350000X-0.450000X-0.350000X0*%
%ADD12RoundRect,0.150000X0.587500X0.150000X-0.587500X0.150000X-0.587500X-0.150000X0.587500X-0.150000X0*%
%ADD13RoundRect,0.250000X-0.450000X0.350000X-0.450000X-0.350000X0.450000X-0.350000X0.450000X0.350000X0*%
G04 APERTURE END LIST*
D10*
%TO.C,Q9*%
X204062500Y-113550000D03*
X204062500Y-111650000D03*
X205937500Y-112600000D03*
%TD*%
D11*
%TO.C,R2*%
X177000000Y-96200000D03*
X177000000Y-94200000D03*
%TD*%
D12*
%TO.C,Q5*%
X222537500Y-94250000D03*
X222537500Y-96150000D03*
X220662500Y-95200000D03*
%TD*%
%TO.C,Q3*%
X195537500Y-94250000D03*
X195537500Y-96150000D03*
X193662500Y-95200000D03*
%TD*%
D11*
%TO.C,R4*%
X204000000Y-96200000D03*
X204000000Y-94200000D03*
%TD*%
%TO.C,R3*%
X190400000Y-96200000D03*
X190400000Y-94200000D03*
%TD*%
%TO.C,R5*%
X217400000Y-96200000D03*
X217400000Y-94200000D03*
%TD*%
%TO.C,R1*%
X163400000Y-96200000D03*
X163400000Y-94200000D03*
%TD*%
D13*
%TO.C,R7*%
X182200000Y-111600000D03*
X182200000Y-113600000D03*
%TD*%
D12*
%TO.C,Q2*%
X182137500Y-94250000D03*
X182137500Y-96150000D03*
X180262500Y-95200000D03*
%TD*%
%TO.C,Q4*%
X209137500Y-94250000D03*
X209137500Y-96150000D03*
X207262500Y-95200000D03*
%TD*%
D10*
%TO.C,Q7*%
X177062500Y-113550000D03*
X177062500Y-111650000D03*
X178937500Y-112600000D03*
%TD*%
D13*
%TO.C,R10*%
X222600000Y-111600000D03*
X222600000Y-113600000D03*
%TD*%
%TO.C,R8*%
X195800000Y-111600000D03*
X195800000Y-113600000D03*
%TD*%
D10*
%TO.C,Q10*%
X217462500Y-113550000D03*
X217462500Y-111650000D03*
X219337500Y-112600000D03*
%TD*%
%TO.C,Q8*%
X190662500Y-113550000D03*
X190662500Y-111650000D03*
X192537500Y-112600000D03*
%TD*%
D12*
%TO.C,Q1*%
X168537500Y-94250000D03*
X168537500Y-96150000D03*
X166662500Y-95200000D03*
%TD*%
D13*
%TO.C,R9*%
X209200000Y-111600000D03*
X209200000Y-113600000D03*
%TD*%
D10*
%TO.C,Q6*%
X163462500Y-113550000D03*
X163462500Y-111650000D03*
X165337500Y-112600000D03*
%TD*%
D13*
%TO.C,R6*%
X168600000Y-111600000D03*
X168600000Y-113600000D03*
%TD*%
M02*
