%TF.GenerationSoftware,KiCad,Pcbnew,(6.0.8)*%
%TF.CreationDate,2023-01-05T18:41:58-07:00*%
%TF.ProjectId,PicoIO,5069636f-494f-42e6-9b69-6361645f7063,rev?*%
%TF.SameCoordinates,Original*%
%TF.FileFunction,Drillmap*%
%TF.FilePolarity,Positive*%
%FSLAX45Y45*%
G04 Gerber Fmt 4.5, Leading zero omitted, Abs format (unit mm)*
G04 Created by KiCad (PCBNEW (6.0.8)) date 2023-01-05 18:41:58*
%MOMM*%
%LPD*%
G01*
G04 APERTURE LIST*
%ADD10C,0.100000*%
%ADD11C,0.200000*%
%ADD12C,0.040000*%
%ADD13C,0.095000*%
%ADD14C,0.102000*%
G04 APERTURE END LIST*
D10*
X10996000Y-12134100D02*
G75*
G03*
X11250000Y-12388100I254000J0D01*
G01*
X18057200Y-12388100D02*
G75*
G03*
X18311200Y-12134100I-10J254010D01*
G01*
X18311200Y-6800100D02*
G75*
G03*
X18057200Y-6546100I-254000J0D01*
G01*
X18311200Y-12134100D02*
X18311200Y-6800100D01*
X10996000Y-6800100D02*
X10996000Y-12134100D01*
X11250000Y-6546100D02*
G75*
G03*
X10996000Y-6800100I0J-254000D01*
G01*
X11250000Y-12388100D02*
X18057200Y-12388100D01*
X11250000Y-6546100D02*
X18057200Y-6546100D01*
D11*
D12*
X12088000Y-11633300D02*
X12128000Y-11673300D01*
X12128000Y-11633300D02*
X12088000Y-11673300D01*
X12228000Y-10333300D02*
X12268000Y-10373300D01*
X12268000Y-10333300D02*
X12228000Y-10373300D01*
X12228000Y-10873300D02*
X12268000Y-10913300D01*
X12268000Y-10873300D02*
X12228000Y-10913300D01*
X12228000Y-11073300D02*
X12268000Y-11113300D01*
X12268000Y-11073300D02*
X12228000Y-11113300D01*
X13448000Y-11633300D02*
X13488000Y-11673300D01*
X13488000Y-11633300D02*
X13448000Y-11673300D01*
X13568000Y-10873300D02*
X13608000Y-10913300D01*
X13608000Y-10873300D02*
X13568000Y-10913300D01*
X13568000Y-11073300D02*
X13608000Y-11113300D01*
X13608000Y-11073300D02*
X13568000Y-11113300D01*
X13588000Y-10333300D02*
X13628000Y-10373300D01*
X13628000Y-10333300D02*
X13588000Y-10373300D01*
X14808000Y-11633300D02*
X14848000Y-11673300D01*
X14848000Y-11633300D02*
X14808000Y-11673300D01*
X14928000Y-10333300D02*
X14968000Y-10373300D01*
X14968000Y-10333300D02*
X14928000Y-10373300D01*
X14928000Y-10873300D02*
X14968000Y-10913300D01*
X14968000Y-10873300D02*
X14928000Y-10913300D01*
X14928000Y-11093300D02*
X14968000Y-11133300D01*
X14968000Y-11093300D02*
X14928000Y-11133300D01*
X15192400Y-7923100D02*
X15232400Y-7963100D01*
X15232400Y-7923100D02*
X15192400Y-7963100D01*
X15192400Y-8024700D02*
X15232400Y-8064700D01*
X15232400Y-8024700D02*
X15192400Y-8064700D01*
X16148000Y-11633300D02*
X16188000Y-11673300D01*
X16188000Y-11633300D02*
X16148000Y-11673300D01*
X16288000Y-10333300D02*
X16328000Y-10373300D01*
X16328000Y-10333300D02*
X16288000Y-10373300D01*
X16288000Y-10873300D02*
X16328000Y-10913300D01*
X16328000Y-10873300D02*
X16288000Y-10913300D01*
X16288000Y-11093300D02*
X16328000Y-11133300D01*
X16328000Y-11093300D02*
X16288000Y-11133300D01*
X16528000Y-10253300D02*
X16568000Y-10293300D01*
X16568000Y-10253300D02*
X16528000Y-10293300D01*
D13*
X11395500Y-10650800D02*
G75*
G03*
X11395500Y-10650800I-47500J0D01*
G01*
X11395500Y-11328300D02*
G75*
G03*
X11395500Y-11328300I-47500J0D01*
G01*
X11645500Y-10650800D02*
G75*
G03*
X11645500Y-10650800I-47500J0D01*
G01*
X11645500Y-11328300D02*
G75*
G03*
X11645500Y-11328300I-47500J0D01*
G01*
X11895500Y-10650800D02*
G75*
G03*
X11895500Y-10650800I-47500J0D01*
G01*
X11895500Y-11328300D02*
G75*
G03*
X11895500Y-11328300I-47500J0D01*
G01*
X12145500Y-10650800D02*
G75*
G03*
X12145500Y-10650800I-47500J0D01*
G01*
X12145500Y-11328300D02*
G75*
G03*
X12145500Y-11328300I-47500J0D01*
G01*
X12745500Y-10650800D02*
G75*
G03*
X12745500Y-10650800I-47500J0D01*
G01*
X12745500Y-11328300D02*
G75*
G03*
X12745500Y-11328300I-47500J0D01*
G01*
X12995500Y-10650800D02*
G75*
G03*
X12995500Y-10650800I-47500J0D01*
G01*
X12995500Y-11328300D02*
G75*
G03*
X12995500Y-11328300I-47500J0D01*
G01*
X13245500Y-10650800D02*
G75*
G03*
X13245500Y-10650800I-47500J0D01*
G01*
X13245500Y-11328300D02*
G75*
G03*
X13245500Y-11328300I-47500J0D01*
G01*
X13495500Y-10650800D02*
G75*
G03*
X13495500Y-10650800I-47500J0D01*
G01*
X13495500Y-11328300D02*
G75*
G03*
X13495500Y-11328300I-47500J0D01*
G01*
X14095500Y-10650800D02*
G75*
G03*
X14095500Y-10650800I-47500J0D01*
G01*
X14095500Y-11328300D02*
G75*
G03*
X14095500Y-11328300I-47500J0D01*
G01*
X14345500Y-10650800D02*
G75*
G03*
X14345500Y-10650800I-47500J0D01*
G01*
X14345500Y-11328300D02*
G75*
G03*
X14345500Y-11328300I-47500J0D01*
G01*
X14595500Y-10650800D02*
G75*
G03*
X14595500Y-10650800I-47500J0D01*
G01*
X14595500Y-11328300D02*
G75*
G03*
X14595500Y-11328300I-47500J0D01*
G01*
X14845500Y-10650800D02*
G75*
G03*
X14845500Y-10650800I-47500J0D01*
G01*
X14845500Y-11328300D02*
G75*
G03*
X14845500Y-11328300I-47500J0D01*
G01*
X15445500Y-10650800D02*
G75*
G03*
X15445500Y-10650800I-47500J0D01*
G01*
X15445500Y-11328300D02*
G75*
G03*
X15445500Y-11328300I-47500J0D01*
G01*
X15695500Y-10650800D02*
G75*
G03*
X15695500Y-10650800I-47500J0D01*
G01*
X15695500Y-11328300D02*
G75*
G03*
X15695500Y-11328300I-47500J0D01*
G01*
X15945500Y-10650800D02*
G75*
G03*
X15945500Y-10650800I-47500J0D01*
G01*
X15945500Y-11328300D02*
G75*
G03*
X15945500Y-11328300I-47500J0D01*
G01*
X16195500Y-10650800D02*
G75*
G03*
X16195500Y-10650800I-47500J0D01*
G01*
X16195500Y-11328300D02*
G75*
G03*
X16195500Y-11328300I-47500J0D01*
G01*
X16795500Y-10650800D02*
G75*
G03*
X16795500Y-10650800I-47500J0D01*
G01*
X16795500Y-11328300D02*
G75*
G03*
X16795500Y-11328300I-47500J0D01*
G01*
X17045500Y-10650800D02*
G75*
G03*
X17045500Y-10650800I-47500J0D01*
G01*
X17045500Y-11328300D02*
G75*
G03*
X17045500Y-11328300I-47500J0D01*
G01*
X17295500Y-10650800D02*
G75*
G03*
X17295500Y-10650800I-47500J0D01*
G01*
X17295500Y-11328300D02*
G75*
G03*
X17295500Y-11328300I-47500J0D01*
G01*
X17545500Y-10650800D02*
G75*
G03*
X17545500Y-10650800I-47500J0D01*
G01*
X17545500Y-11328300D02*
G75*
G03*
X17545500Y-11328300I-47500J0D01*
G01*
X17899800Y-9414300D02*
G75*
G03*
X17899800Y-9414300I-47500J0D01*
G01*
X17899800Y-9664300D02*
G75*
G03*
X17899800Y-9664300I-47500J0D01*
G01*
X17899800Y-9914300D02*
G75*
G03*
X17899800Y-9914300I-47500J0D01*
G01*
X17901500Y-7546700D02*
G75*
G03*
X17901500Y-7546700I-47500J0D01*
G01*
X17901500Y-7796700D02*
G75*
G03*
X17901500Y-7796700I-47500J0D01*
G01*
X17901500Y-8046700D02*
G75*
G03*
X17901500Y-8046700I-47500J0D01*
G01*
X17901500Y-8296700D02*
G75*
G03*
X17901500Y-8296700I-47500J0D01*
G01*
X17901500Y-8546700D02*
G75*
G03*
X17901500Y-8546700I-47500J0D01*
G01*
X17901500Y-8796700D02*
G75*
G03*
X17901500Y-8796700I-47500J0D01*
G01*
D10*
X16562600Y-6929600D02*
X16562600Y-7029600D01*
X16512600Y-6979600D02*
X16612600Y-6979600D01*
X16812600Y-6929600D02*
X16812600Y-7029600D01*
X16762600Y-6979600D02*
X16862600Y-6979600D01*
X16965000Y-8171000D02*
X16965000Y-8271000D01*
X16915000Y-8221000D02*
X17015000Y-8221000D01*
X16965000Y-8425000D02*
X16965000Y-8525000D01*
X16915000Y-8475000D02*
X17015000Y-8475000D01*
X16965000Y-8679000D02*
X16965000Y-8779000D01*
X16915000Y-8729000D02*
X17015000Y-8729000D01*
D14*
X11235263Y-7623563D02*
X11235263Y-7551437D01*
X11163137Y-7551437D01*
X11163137Y-7623563D01*
X11235263Y-7623563D01*
X11235263Y-9401563D02*
X11235263Y-9329437D01*
X11163137Y-9329437D01*
X11163137Y-9401563D01*
X11235263Y-9401563D01*
X11489263Y-7623563D02*
X11489263Y-7551437D01*
X11417137Y-7551437D01*
X11417137Y-7623563D01*
X11489263Y-7623563D01*
X11489263Y-9401563D02*
X11489263Y-9329437D01*
X11417137Y-9329437D01*
X11417137Y-9401563D01*
X11489263Y-9401563D01*
X11743263Y-7623563D02*
X11743263Y-7551437D01*
X11671137Y-7551437D01*
X11671137Y-7623563D01*
X11743263Y-7623563D01*
X11743263Y-9401563D02*
X11743263Y-9329437D01*
X11671137Y-9329437D01*
X11671137Y-9401563D01*
X11743263Y-9401563D01*
X11997263Y-7623563D02*
X11997263Y-7551437D01*
X11925137Y-7551437D01*
X11925137Y-7623563D01*
X11997263Y-7623563D01*
X11997263Y-9401563D02*
X11997263Y-9329437D01*
X11925137Y-9329437D01*
X11925137Y-9401563D01*
X11997263Y-9401563D01*
X12251263Y-7623563D02*
X12251263Y-7551437D01*
X12179137Y-7551437D01*
X12179137Y-7623563D01*
X12251263Y-7623563D01*
X12251263Y-9401563D02*
X12251263Y-9329437D01*
X12179137Y-9329437D01*
X12179137Y-9401563D01*
X12251263Y-9401563D01*
X12505263Y-7623563D02*
X12505263Y-7551437D01*
X12433137Y-7551437D01*
X12433137Y-7623563D01*
X12505263Y-7623563D01*
X12505263Y-9401563D02*
X12505263Y-9329437D01*
X12433137Y-9329437D01*
X12433137Y-9401563D01*
X12505263Y-9401563D01*
X12759263Y-7623563D02*
X12759263Y-7551437D01*
X12687137Y-7551437D01*
X12687137Y-7623563D01*
X12759263Y-7623563D01*
X12759263Y-9401563D02*
X12759263Y-9329437D01*
X12687137Y-9329437D01*
X12687137Y-9401563D01*
X12759263Y-9401563D01*
X13013263Y-7623563D02*
X13013263Y-7551437D01*
X12941137Y-7551437D01*
X12941137Y-7623563D01*
X13013263Y-7623563D01*
X13013263Y-9401563D02*
X13013263Y-9329437D01*
X12941137Y-9329437D01*
X12941137Y-9401563D01*
X13013263Y-9401563D01*
X13267263Y-7623563D02*
X13267263Y-7551437D01*
X13195137Y-7551437D01*
X13195137Y-7623563D01*
X13267263Y-7623563D01*
X13267263Y-9401563D02*
X13267263Y-9329437D01*
X13195137Y-9329437D01*
X13195137Y-9401563D01*
X13267263Y-9401563D01*
X13521263Y-7623563D02*
X13521263Y-7551437D01*
X13449137Y-7551437D01*
X13449137Y-7623563D01*
X13521263Y-7623563D01*
X13521263Y-9401563D02*
X13521263Y-9329437D01*
X13449137Y-9329437D01*
X13449137Y-9401563D01*
X13521263Y-9401563D01*
X13775263Y-7623563D02*
X13775263Y-7551437D01*
X13703137Y-7551437D01*
X13703137Y-7623563D01*
X13775263Y-7623563D01*
X13775263Y-9401563D02*
X13775263Y-9329437D01*
X13703137Y-9329437D01*
X13703137Y-9401563D01*
X13775263Y-9401563D01*
X14029263Y-7623563D02*
X14029263Y-7551437D01*
X13957137Y-7551437D01*
X13957137Y-7623563D01*
X14029263Y-7623563D01*
X14029263Y-9401563D02*
X14029263Y-9329437D01*
X13957137Y-9329437D01*
X13957137Y-9401563D01*
X14029263Y-9401563D01*
X14283263Y-7623563D02*
X14283263Y-7551437D01*
X14211137Y-7551437D01*
X14211137Y-7623563D01*
X14283263Y-7623563D01*
X14283263Y-9401563D02*
X14283263Y-9329437D01*
X14211137Y-9329437D01*
X14211137Y-9401563D01*
X14283263Y-9401563D01*
X14537263Y-7623563D02*
X14537263Y-7551437D01*
X14465137Y-7551437D01*
X14465137Y-7623563D01*
X14537263Y-7623563D01*
X14537263Y-9401563D02*
X14537263Y-9329437D01*
X14465137Y-9329437D01*
X14465137Y-9401563D01*
X14537263Y-9401563D01*
X14791263Y-7623563D02*
X14791263Y-7551437D01*
X14719137Y-7551437D01*
X14719137Y-7623563D01*
X14791263Y-7623563D01*
X14791263Y-9401563D02*
X14791263Y-9329437D01*
X14719137Y-9329437D01*
X14719137Y-9401563D01*
X14791263Y-9401563D01*
X15045263Y-7623563D02*
X15045263Y-7551437D01*
X14973137Y-7551437D01*
X14973137Y-7623563D01*
X15045263Y-7623563D01*
X15045263Y-9401563D02*
X15045263Y-9329437D01*
X14973137Y-9329437D01*
X14973137Y-9401563D01*
X15045263Y-9401563D01*
X15299263Y-7623563D02*
X15299263Y-7551437D01*
X15227137Y-7551437D01*
X15227137Y-7623563D01*
X15299263Y-7623563D01*
X15299263Y-9401563D02*
X15299263Y-9329437D01*
X15227137Y-9329437D01*
X15227137Y-9401563D01*
X15299263Y-9401563D01*
X15553263Y-7623563D02*
X15553263Y-7551437D01*
X15481137Y-7551437D01*
X15481137Y-7623563D01*
X15553263Y-7623563D01*
X15553263Y-9401563D02*
X15553263Y-9329437D01*
X15481137Y-9329437D01*
X15481137Y-9401563D01*
X15553263Y-9401563D01*
X15807263Y-7623563D02*
X15807263Y-7551437D01*
X15735137Y-7551437D01*
X15735137Y-7623563D01*
X15807263Y-7623563D01*
X15807263Y-9401563D02*
X15807263Y-9329437D01*
X15735137Y-9329437D01*
X15735137Y-9401563D01*
X15807263Y-9401563D01*
X16038263Y-8258563D02*
X16038263Y-8186437D01*
X15966137Y-8186437D01*
X15966137Y-8258563D01*
X16038263Y-8258563D01*
X16038263Y-8512563D02*
X16038263Y-8440437D01*
X15966137Y-8440437D01*
X15966137Y-8512563D01*
X16038263Y-8512563D01*
X16038263Y-8766563D02*
X16038263Y-8694437D01*
X15966137Y-8694437D01*
X15966137Y-8766563D01*
X16038263Y-8766563D01*
X16061263Y-7623563D02*
X16061263Y-7551437D01*
X15989137Y-7551437D01*
X15989137Y-7623563D01*
X16061263Y-7623563D01*
X16061263Y-9401563D02*
X16061263Y-9329437D01*
X15989137Y-9329437D01*
X15989137Y-9401563D01*
X16061263Y-9401563D01*
D11*
X11248619Y-12703576D02*
X11248619Y-12503576D01*
X11296238Y-12503576D01*
X11324809Y-12513100D01*
X11343857Y-12532148D01*
X11353381Y-12551195D01*
X11362905Y-12589290D01*
X11362905Y-12617862D01*
X11353381Y-12655957D01*
X11343857Y-12675005D01*
X11324809Y-12694052D01*
X11296238Y-12703576D01*
X11248619Y-12703576D01*
X11448619Y-12703576D02*
X11448619Y-12570243D01*
X11448619Y-12608338D02*
X11458143Y-12589290D01*
X11467667Y-12579767D01*
X11486714Y-12570243D01*
X11505762Y-12570243D01*
X11572428Y-12703576D02*
X11572428Y-12570243D01*
X11572428Y-12503576D02*
X11562905Y-12513100D01*
X11572428Y-12522624D01*
X11581952Y-12513100D01*
X11572428Y-12503576D01*
X11572428Y-12522624D01*
X11696238Y-12703576D02*
X11677190Y-12694052D01*
X11667667Y-12675005D01*
X11667667Y-12503576D01*
X11801000Y-12703576D02*
X11781952Y-12694052D01*
X11772428Y-12675005D01*
X11772428Y-12503576D01*
X12029571Y-12703576D02*
X12029571Y-12503576D01*
X12096238Y-12646433D01*
X12162905Y-12503576D01*
X12162905Y-12703576D01*
X12343857Y-12703576D02*
X12343857Y-12598814D01*
X12334333Y-12579767D01*
X12315286Y-12570243D01*
X12277190Y-12570243D01*
X12258143Y-12579767D01*
X12343857Y-12694052D02*
X12324809Y-12703576D01*
X12277190Y-12703576D01*
X12258143Y-12694052D01*
X12248619Y-12675005D01*
X12248619Y-12655957D01*
X12258143Y-12636909D01*
X12277190Y-12627386D01*
X12324809Y-12627386D01*
X12343857Y-12617862D01*
X12439095Y-12570243D02*
X12439095Y-12770243D01*
X12439095Y-12579767D02*
X12458143Y-12570243D01*
X12496238Y-12570243D01*
X12515286Y-12579767D01*
X12524809Y-12589290D01*
X12534333Y-12608338D01*
X12534333Y-12665481D01*
X12524809Y-12684528D01*
X12515286Y-12694052D01*
X12496238Y-12703576D01*
X12458143Y-12703576D01*
X12439095Y-12694052D01*
X12620048Y-12684528D02*
X12629571Y-12694052D01*
X12620048Y-12703576D01*
X12610524Y-12694052D01*
X12620048Y-12684528D01*
X12620048Y-12703576D01*
X12620048Y-12579767D02*
X12629571Y-12589290D01*
X12620048Y-12598814D01*
X12610524Y-12589290D01*
X12620048Y-12579767D01*
X12620048Y-12598814D01*
D12*
X10951000Y-13013100D02*
X10991000Y-13053100D01*
X10991000Y-13013100D02*
X10951000Y-13053100D01*
D11*
X11286714Y-12923576D02*
X11305762Y-12923576D01*
X11324809Y-12933100D01*
X11334333Y-12942624D01*
X11343857Y-12961671D01*
X11353381Y-12999767D01*
X11353381Y-13047386D01*
X11343857Y-13085481D01*
X11334333Y-13104528D01*
X11324809Y-13114052D01*
X11305762Y-13123576D01*
X11286714Y-13123576D01*
X11267667Y-13114052D01*
X11258143Y-13104528D01*
X11248619Y-13085481D01*
X11239095Y-13047386D01*
X11239095Y-12999767D01*
X11248619Y-12961671D01*
X11258143Y-12942624D01*
X11267667Y-12933100D01*
X11286714Y-12923576D01*
X11439095Y-13104528D02*
X11448619Y-13114052D01*
X11439095Y-13123576D01*
X11429571Y-13114052D01*
X11439095Y-13104528D01*
X11439095Y-13123576D01*
X11620048Y-12990243D02*
X11620048Y-13123576D01*
X11572428Y-12914052D02*
X11524809Y-13056909D01*
X11648619Y-13056909D01*
X11762905Y-12923576D02*
X11781952Y-12923576D01*
X11801000Y-12933100D01*
X11810524Y-12942624D01*
X11820048Y-12961671D01*
X11829571Y-12999767D01*
X11829571Y-13047386D01*
X11820048Y-13085481D01*
X11810524Y-13104528D01*
X11801000Y-13114052D01*
X11781952Y-13123576D01*
X11762905Y-13123576D01*
X11743857Y-13114052D01*
X11734333Y-13104528D01*
X11724809Y-13085481D01*
X11715286Y-13047386D01*
X11715286Y-12999767D01*
X11724809Y-12961671D01*
X11734333Y-12942624D01*
X11743857Y-12933100D01*
X11762905Y-12923576D01*
X11953381Y-12923576D02*
X11972428Y-12923576D01*
X11991476Y-12933100D01*
X12001000Y-12942624D01*
X12010524Y-12961671D01*
X12020048Y-12999767D01*
X12020048Y-13047386D01*
X12010524Y-13085481D01*
X12001000Y-13104528D01*
X11991476Y-13114052D01*
X11972428Y-13123576D01*
X11953381Y-13123576D01*
X11934333Y-13114052D01*
X11924809Y-13104528D01*
X11915286Y-13085481D01*
X11905762Y-13047386D01*
X11905762Y-12999767D01*
X11915286Y-12961671D01*
X11924809Y-12942624D01*
X11934333Y-12933100D01*
X11953381Y-12923576D01*
X12105762Y-13123576D02*
X12105762Y-12990243D01*
X12105762Y-13009290D02*
X12115286Y-12999767D01*
X12134333Y-12990243D01*
X12162905Y-12990243D01*
X12181952Y-12999767D01*
X12191476Y-13018814D01*
X12191476Y-13123576D01*
X12191476Y-13018814D02*
X12201000Y-12999767D01*
X12220048Y-12990243D01*
X12248619Y-12990243D01*
X12267667Y-12999767D01*
X12277190Y-13018814D01*
X12277190Y-13123576D01*
X12372428Y-13123576D02*
X12372428Y-12990243D01*
X12372428Y-13009290D02*
X12381952Y-12999767D01*
X12401000Y-12990243D01*
X12429571Y-12990243D01*
X12448619Y-12999767D01*
X12458143Y-13018814D01*
X12458143Y-13123576D01*
X12458143Y-13018814D02*
X12467667Y-12999767D01*
X12486714Y-12990243D01*
X12515286Y-12990243D01*
X12534333Y-12999767D01*
X12543857Y-13018814D01*
X12543857Y-13123576D01*
X12934333Y-12914052D02*
X12762905Y-13171195D01*
X13191476Y-12923576D02*
X13210524Y-12923576D01*
X13229571Y-12933100D01*
X13239095Y-12942624D01*
X13248619Y-12961671D01*
X13258143Y-12999767D01*
X13258143Y-13047386D01*
X13248619Y-13085481D01*
X13239095Y-13104528D01*
X13229571Y-13114052D01*
X13210524Y-13123576D01*
X13191476Y-13123576D01*
X13172428Y-13114052D01*
X13162905Y-13104528D01*
X13153381Y-13085481D01*
X13143857Y-13047386D01*
X13143857Y-12999767D01*
X13153381Y-12961671D01*
X13162905Y-12942624D01*
X13172428Y-12933100D01*
X13191476Y-12923576D01*
X13343857Y-13104528D02*
X13353381Y-13114052D01*
X13343857Y-13123576D01*
X13334333Y-13114052D01*
X13343857Y-13104528D01*
X13343857Y-13123576D01*
X13477190Y-12923576D02*
X13496238Y-12923576D01*
X13515286Y-12933100D01*
X13524809Y-12942624D01*
X13534333Y-12961671D01*
X13543857Y-12999767D01*
X13543857Y-13047386D01*
X13534333Y-13085481D01*
X13524809Y-13104528D01*
X13515286Y-13114052D01*
X13496238Y-13123576D01*
X13477190Y-13123576D01*
X13458143Y-13114052D01*
X13448619Y-13104528D01*
X13439095Y-13085481D01*
X13429571Y-13047386D01*
X13429571Y-12999767D01*
X13439095Y-12961671D01*
X13448619Y-12942624D01*
X13458143Y-12933100D01*
X13477190Y-12923576D01*
X13734333Y-13123576D02*
X13620048Y-13123576D01*
X13677190Y-13123576D02*
X13677190Y-12923576D01*
X13658143Y-12952148D01*
X13639095Y-12971195D01*
X13620048Y-12980719D01*
X13915286Y-12923576D02*
X13820048Y-12923576D01*
X13810524Y-13018814D01*
X13820048Y-13009290D01*
X13839095Y-12999767D01*
X13886714Y-12999767D01*
X13905762Y-13009290D01*
X13915286Y-13018814D01*
X13924809Y-13037862D01*
X13924809Y-13085481D01*
X13915286Y-13104528D01*
X13905762Y-13114052D01*
X13886714Y-13123576D01*
X13839095Y-13123576D01*
X13820048Y-13114052D01*
X13810524Y-13104528D01*
X13991476Y-12923576D02*
X14124809Y-12923576D01*
X14039095Y-13123576D01*
X14191476Y-12923576D02*
X14191476Y-12961671D01*
X14267667Y-12923576D02*
X14267667Y-12961671D01*
X14562905Y-13199767D02*
X14553381Y-13190243D01*
X14534333Y-13161671D01*
X14524809Y-13142624D01*
X14515286Y-13114052D01*
X14505762Y-13066433D01*
X14505762Y-13028338D01*
X14515286Y-12980719D01*
X14524809Y-12952148D01*
X14534333Y-12933100D01*
X14553381Y-12904528D01*
X14562905Y-12895005D01*
X14743857Y-13123576D02*
X14629571Y-13123576D01*
X14686714Y-13123576D02*
X14686714Y-12923576D01*
X14667667Y-12952148D01*
X14648619Y-12971195D01*
X14629571Y-12980719D01*
X14839095Y-13123576D02*
X14877190Y-13123576D01*
X14896238Y-13114052D01*
X14905762Y-13104528D01*
X14924809Y-13075957D01*
X14934333Y-13037862D01*
X14934333Y-12961671D01*
X14924809Y-12942624D01*
X14915286Y-12933100D01*
X14896238Y-12923576D01*
X14858143Y-12923576D01*
X14839095Y-12933100D01*
X14829571Y-12942624D01*
X14820048Y-12961671D01*
X14820048Y-13009290D01*
X14829571Y-13028338D01*
X14839095Y-13037862D01*
X14858143Y-13047386D01*
X14896238Y-13047386D01*
X14915286Y-13037862D01*
X14924809Y-13028338D01*
X14934333Y-13009290D01*
X15172428Y-13123576D02*
X15172428Y-12923576D01*
X15258143Y-13123576D02*
X15258143Y-13018814D01*
X15248619Y-12999767D01*
X15229571Y-12990243D01*
X15201000Y-12990243D01*
X15181952Y-12999767D01*
X15172428Y-13009290D01*
X15381952Y-13123576D02*
X15362905Y-13114052D01*
X15353381Y-13104528D01*
X15343857Y-13085481D01*
X15343857Y-13028338D01*
X15353381Y-13009290D01*
X15362905Y-12999767D01*
X15381952Y-12990243D01*
X15410524Y-12990243D01*
X15429571Y-12999767D01*
X15439095Y-13009290D01*
X15448619Y-13028338D01*
X15448619Y-13085481D01*
X15439095Y-13104528D01*
X15429571Y-13114052D01*
X15410524Y-13123576D01*
X15381952Y-13123576D01*
X15562905Y-13123576D02*
X15543857Y-13114052D01*
X15534333Y-13095005D01*
X15534333Y-12923576D01*
X15715286Y-13114052D02*
X15696238Y-13123576D01*
X15658143Y-13123576D01*
X15639095Y-13114052D01*
X15629571Y-13095005D01*
X15629571Y-13018814D01*
X15639095Y-12999767D01*
X15658143Y-12990243D01*
X15696238Y-12990243D01*
X15715286Y-12999767D01*
X15724809Y-13018814D01*
X15724809Y-13037862D01*
X15629571Y-13056909D01*
X15801000Y-13114052D02*
X15820048Y-13123576D01*
X15858143Y-13123576D01*
X15877190Y-13114052D01*
X15886714Y-13095005D01*
X15886714Y-13085481D01*
X15877190Y-13066433D01*
X15858143Y-13056909D01*
X15829571Y-13056909D01*
X15810524Y-13047386D01*
X15801000Y-13028338D01*
X15801000Y-13018814D01*
X15810524Y-12999767D01*
X15829571Y-12990243D01*
X15858143Y-12990243D01*
X15877190Y-12999767D01*
X15953381Y-13199767D02*
X15962905Y-13190243D01*
X15981952Y-13161671D01*
X15991476Y-13142624D01*
X16001000Y-13114052D01*
X16010524Y-13066433D01*
X16010524Y-13028338D01*
X16001000Y-12980719D01*
X15991476Y-12952148D01*
X15981952Y-12933100D01*
X15962905Y-12904528D01*
X15953381Y-12895005D01*
D13*
X10991000Y-13297100D02*
G75*
G03*
X10991000Y-13297100I-47500J0D01*
G01*
D11*
X11286714Y-13187576D02*
X11305762Y-13187576D01*
X11324809Y-13197100D01*
X11334333Y-13206624D01*
X11343857Y-13225671D01*
X11353381Y-13263767D01*
X11353381Y-13311386D01*
X11343857Y-13349481D01*
X11334333Y-13368528D01*
X11324809Y-13378052D01*
X11305762Y-13387576D01*
X11286714Y-13387576D01*
X11267667Y-13378052D01*
X11258143Y-13368528D01*
X11248619Y-13349481D01*
X11239095Y-13311386D01*
X11239095Y-13263767D01*
X11248619Y-13225671D01*
X11258143Y-13206624D01*
X11267667Y-13197100D01*
X11286714Y-13187576D01*
X11439095Y-13368528D02*
X11448619Y-13378052D01*
X11439095Y-13387576D01*
X11429571Y-13378052D01*
X11439095Y-13368528D01*
X11439095Y-13387576D01*
X11543857Y-13387576D02*
X11581952Y-13387576D01*
X11601000Y-13378052D01*
X11610524Y-13368528D01*
X11629571Y-13339957D01*
X11639095Y-13301862D01*
X11639095Y-13225671D01*
X11629571Y-13206624D01*
X11620048Y-13197100D01*
X11601000Y-13187576D01*
X11562905Y-13187576D01*
X11543857Y-13197100D01*
X11534333Y-13206624D01*
X11524809Y-13225671D01*
X11524809Y-13273290D01*
X11534333Y-13292338D01*
X11543857Y-13301862D01*
X11562905Y-13311386D01*
X11601000Y-13311386D01*
X11620048Y-13301862D01*
X11629571Y-13292338D01*
X11639095Y-13273290D01*
X11820048Y-13187576D02*
X11724809Y-13187576D01*
X11715286Y-13282814D01*
X11724809Y-13273290D01*
X11743857Y-13263767D01*
X11791476Y-13263767D01*
X11810524Y-13273290D01*
X11820048Y-13282814D01*
X11829571Y-13301862D01*
X11829571Y-13349481D01*
X11820048Y-13368528D01*
X11810524Y-13378052D01*
X11791476Y-13387576D01*
X11743857Y-13387576D01*
X11724809Y-13378052D01*
X11715286Y-13368528D01*
X11953381Y-13187576D02*
X11972428Y-13187576D01*
X11991476Y-13197100D01*
X12001000Y-13206624D01*
X12010524Y-13225671D01*
X12020048Y-13263767D01*
X12020048Y-13311386D01*
X12010524Y-13349481D01*
X12001000Y-13368528D01*
X11991476Y-13378052D01*
X11972428Y-13387576D01*
X11953381Y-13387576D01*
X11934333Y-13378052D01*
X11924809Y-13368528D01*
X11915286Y-13349481D01*
X11905762Y-13311386D01*
X11905762Y-13263767D01*
X11915286Y-13225671D01*
X11924809Y-13206624D01*
X11934333Y-13197100D01*
X11953381Y-13187576D01*
X12105762Y-13387576D02*
X12105762Y-13254243D01*
X12105762Y-13273290D02*
X12115286Y-13263767D01*
X12134333Y-13254243D01*
X12162905Y-13254243D01*
X12181952Y-13263767D01*
X12191476Y-13282814D01*
X12191476Y-13387576D01*
X12191476Y-13282814D02*
X12201000Y-13263767D01*
X12220048Y-13254243D01*
X12248619Y-13254243D01*
X12267667Y-13263767D01*
X12277190Y-13282814D01*
X12277190Y-13387576D01*
X12372428Y-13387576D02*
X12372428Y-13254243D01*
X12372428Y-13273290D02*
X12381952Y-13263767D01*
X12401000Y-13254243D01*
X12429571Y-13254243D01*
X12448619Y-13263767D01*
X12458143Y-13282814D01*
X12458143Y-13387576D01*
X12458143Y-13282814D02*
X12467667Y-13263767D01*
X12486714Y-13254243D01*
X12515286Y-13254243D01*
X12534333Y-13263767D01*
X12543857Y-13282814D01*
X12543857Y-13387576D01*
X12934333Y-13178052D02*
X12762905Y-13435195D01*
X13191476Y-13187576D02*
X13210524Y-13187576D01*
X13229571Y-13197100D01*
X13239095Y-13206624D01*
X13248619Y-13225671D01*
X13258143Y-13263767D01*
X13258143Y-13311386D01*
X13248619Y-13349481D01*
X13239095Y-13368528D01*
X13229571Y-13378052D01*
X13210524Y-13387576D01*
X13191476Y-13387576D01*
X13172428Y-13378052D01*
X13162905Y-13368528D01*
X13153381Y-13349481D01*
X13143857Y-13311386D01*
X13143857Y-13263767D01*
X13153381Y-13225671D01*
X13162905Y-13206624D01*
X13172428Y-13197100D01*
X13191476Y-13187576D01*
X13343857Y-13368528D02*
X13353381Y-13378052D01*
X13343857Y-13387576D01*
X13334333Y-13378052D01*
X13343857Y-13368528D01*
X13343857Y-13387576D01*
X13477190Y-13187576D02*
X13496238Y-13187576D01*
X13515286Y-13197100D01*
X13524809Y-13206624D01*
X13534333Y-13225671D01*
X13543857Y-13263767D01*
X13543857Y-13311386D01*
X13534333Y-13349481D01*
X13524809Y-13368528D01*
X13515286Y-13378052D01*
X13496238Y-13387576D01*
X13477190Y-13387576D01*
X13458143Y-13378052D01*
X13448619Y-13368528D01*
X13439095Y-13349481D01*
X13429571Y-13311386D01*
X13429571Y-13263767D01*
X13439095Y-13225671D01*
X13448619Y-13206624D01*
X13458143Y-13197100D01*
X13477190Y-13187576D01*
X13610524Y-13187576D02*
X13734333Y-13187576D01*
X13667667Y-13263767D01*
X13696238Y-13263767D01*
X13715286Y-13273290D01*
X13724809Y-13282814D01*
X13734333Y-13301862D01*
X13734333Y-13349481D01*
X13724809Y-13368528D01*
X13715286Y-13378052D01*
X13696238Y-13387576D01*
X13639095Y-13387576D01*
X13620048Y-13378052D01*
X13610524Y-13368528D01*
X13801000Y-13187576D02*
X13934333Y-13187576D01*
X13848619Y-13387576D01*
X14096238Y-13254243D02*
X14096238Y-13387576D01*
X14048619Y-13178052D02*
X14001000Y-13320909D01*
X14124809Y-13320909D01*
X14191476Y-13187576D02*
X14191476Y-13225671D01*
X14267667Y-13187576D02*
X14267667Y-13225671D01*
X14562905Y-13463767D02*
X14553381Y-13454243D01*
X14534333Y-13425671D01*
X14524809Y-13406624D01*
X14515286Y-13378052D01*
X14505762Y-13330433D01*
X14505762Y-13292338D01*
X14515286Y-13244719D01*
X14524809Y-13216148D01*
X14534333Y-13197100D01*
X14553381Y-13168528D01*
X14562905Y-13159005D01*
X14724809Y-13254243D02*
X14724809Y-13387576D01*
X14677190Y-13178052D02*
X14629571Y-13320909D01*
X14753381Y-13320909D01*
X14839095Y-13387576D02*
X14877190Y-13387576D01*
X14896238Y-13378052D01*
X14905762Y-13368528D01*
X14924809Y-13339957D01*
X14934333Y-13301862D01*
X14934333Y-13225671D01*
X14924809Y-13206624D01*
X14915286Y-13197100D01*
X14896238Y-13187576D01*
X14858143Y-13187576D01*
X14839095Y-13197100D01*
X14829571Y-13206624D01*
X14820048Y-13225671D01*
X14820048Y-13273290D01*
X14829571Y-13292338D01*
X14839095Y-13301862D01*
X14858143Y-13311386D01*
X14896238Y-13311386D01*
X14915286Y-13301862D01*
X14924809Y-13292338D01*
X14934333Y-13273290D01*
X15172428Y-13387576D02*
X15172428Y-13187576D01*
X15258143Y-13387576D02*
X15258143Y-13282814D01*
X15248619Y-13263767D01*
X15229571Y-13254243D01*
X15201000Y-13254243D01*
X15181952Y-13263767D01*
X15172428Y-13273290D01*
X15381952Y-13387576D02*
X15362905Y-13378052D01*
X15353381Y-13368528D01*
X15343857Y-13349481D01*
X15343857Y-13292338D01*
X15353381Y-13273290D01*
X15362905Y-13263767D01*
X15381952Y-13254243D01*
X15410524Y-13254243D01*
X15429571Y-13263767D01*
X15439095Y-13273290D01*
X15448619Y-13292338D01*
X15448619Y-13349481D01*
X15439095Y-13368528D01*
X15429571Y-13378052D01*
X15410524Y-13387576D01*
X15381952Y-13387576D01*
X15562905Y-13387576D02*
X15543857Y-13378052D01*
X15534333Y-13359005D01*
X15534333Y-13187576D01*
X15715286Y-13378052D02*
X15696238Y-13387576D01*
X15658143Y-13387576D01*
X15639095Y-13378052D01*
X15629571Y-13359005D01*
X15629571Y-13282814D01*
X15639095Y-13263767D01*
X15658143Y-13254243D01*
X15696238Y-13254243D01*
X15715286Y-13263767D01*
X15724809Y-13282814D01*
X15724809Y-13301862D01*
X15629571Y-13320909D01*
X15801000Y-13378052D02*
X15820048Y-13387576D01*
X15858143Y-13387576D01*
X15877190Y-13378052D01*
X15886714Y-13359005D01*
X15886714Y-13349481D01*
X15877190Y-13330433D01*
X15858143Y-13320909D01*
X15829571Y-13320909D01*
X15810524Y-13311386D01*
X15801000Y-13292338D01*
X15801000Y-13282814D01*
X15810524Y-13263767D01*
X15829571Y-13254243D01*
X15858143Y-13254243D01*
X15877190Y-13263767D01*
X15953381Y-13463767D02*
X15962905Y-13454243D01*
X15981952Y-13425671D01*
X15991476Y-13406624D01*
X16001000Y-13378052D01*
X16010524Y-13330433D01*
X16010524Y-13292338D01*
X16001000Y-13244719D01*
X15991476Y-13216148D01*
X15981952Y-13197100D01*
X15962905Y-13168528D01*
X15953381Y-13159005D01*
D10*
X10941000Y-13511100D02*
X10941000Y-13611100D01*
X10891000Y-13561100D02*
X10991000Y-13561100D01*
D11*
X11353381Y-13651576D02*
X11239095Y-13651576D01*
X11296238Y-13651576D02*
X11296238Y-13451576D01*
X11277190Y-13480148D01*
X11258143Y-13499195D01*
X11239095Y-13508719D01*
X11439095Y-13632528D02*
X11448619Y-13642052D01*
X11439095Y-13651576D01*
X11429571Y-13642052D01*
X11439095Y-13632528D01*
X11439095Y-13651576D01*
X11572428Y-13451576D02*
X11591476Y-13451576D01*
X11610524Y-13461100D01*
X11620048Y-13470624D01*
X11629571Y-13489671D01*
X11639095Y-13527767D01*
X11639095Y-13575386D01*
X11629571Y-13613481D01*
X11620048Y-13632528D01*
X11610524Y-13642052D01*
X11591476Y-13651576D01*
X11572428Y-13651576D01*
X11553381Y-13642052D01*
X11543857Y-13632528D01*
X11534333Y-13613481D01*
X11524809Y-13575386D01*
X11524809Y-13527767D01*
X11534333Y-13489671D01*
X11543857Y-13470624D01*
X11553381Y-13461100D01*
X11572428Y-13451576D01*
X11762905Y-13451576D02*
X11781952Y-13451576D01*
X11801000Y-13461100D01*
X11810524Y-13470624D01*
X11820048Y-13489671D01*
X11829571Y-13527767D01*
X11829571Y-13575386D01*
X11820048Y-13613481D01*
X11810524Y-13632528D01*
X11801000Y-13642052D01*
X11781952Y-13651576D01*
X11762905Y-13651576D01*
X11743857Y-13642052D01*
X11734333Y-13632528D01*
X11724809Y-13613481D01*
X11715286Y-13575386D01*
X11715286Y-13527767D01*
X11724809Y-13489671D01*
X11734333Y-13470624D01*
X11743857Y-13461100D01*
X11762905Y-13451576D01*
X11953381Y-13451576D02*
X11972428Y-13451576D01*
X11991476Y-13461100D01*
X12001000Y-13470624D01*
X12010524Y-13489671D01*
X12020048Y-13527767D01*
X12020048Y-13575386D01*
X12010524Y-13613481D01*
X12001000Y-13632528D01*
X11991476Y-13642052D01*
X11972428Y-13651576D01*
X11953381Y-13651576D01*
X11934333Y-13642052D01*
X11924809Y-13632528D01*
X11915286Y-13613481D01*
X11905762Y-13575386D01*
X11905762Y-13527767D01*
X11915286Y-13489671D01*
X11924809Y-13470624D01*
X11934333Y-13461100D01*
X11953381Y-13451576D01*
X12105762Y-13651576D02*
X12105762Y-13518243D01*
X12105762Y-13537290D02*
X12115286Y-13527767D01*
X12134333Y-13518243D01*
X12162905Y-13518243D01*
X12181952Y-13527767D01*
X12191476Y-13546814D01*
X12191476Y-13651576D01*
X12191476Y-13546814D02*
X12201000Y-13527767D01*
X12220048Y-13518243D01*
X12248619Y-13518243D01*
X12267667Y-13527767D01*
X12277190Y-13546814D01*
X12277190Y-13651576D01*
X12372428Y-13651576D02*
X12372428Y-13518243D01*
X12372428Y-13537290D02*
X12381952Y-13527767D01*
X12401000Y-13518243D01*
X12429571Y-13518243D01*
X12448619Y-13527767D01*
X12458143Y-13546814D01*
X12458143Y-13651576D01*
X12458143Y-13546814D02*
X12467667Y-13527767D01*
X12486714Y-13518243D01*
X12515286Y-13518243D01*
X12534333Y-13527767D01*
X12543857Y-13546814D01*
X12543857Y-13651576D01*
X12934333Y-13442052D02*
X12762905Y-13699195D01*
X13191476Y-13451576D02*
X13210524Y-13451576D01*
X13229571Y-13461100D01*
X13239095Y-13470624D01*
X13248619Y-13489671D01*
X13258143Y-13527767D01*
X13258143Y-13575386D01*
X13248619Y-13613481D01*
X13239095Y-13632528D01*
X13229571Y-13642052D01*
X13210524Y-13651576D01*
X13191476Y-13651576D01*
X13172428Y-13642052D01*
X13162905Y-13632528D01*
X13153381Y-13613481D01*
X13143857Y-13575386D01*
X13143857Y-13527767D01*
X13153381Y-13489671D01*
X13162905Y-13470624D01*
X13172428Y-13461100D01*
X13191476Y-13451576D01*
X13343857Y-13632528D02*
X13353381Y-13642052D01*
X13343857Y-13651576D01*
X13334333Y-13642052D01*
X13343857Y-13632528D01*
X13343857Y-13651576D01*
X13477190Y-13451576D02*
X13496238Y-13451576D01*
X13515286Y-13461100D01*
X13524809Y-13470624D01*
X13534333Y-13489671D01*
X13543857Y-13527767D01*
X13543857Y-13575386D01*
X13534333Y-13613481D01*
X13524809Y-13632528D01*
X13515286Y-13642052D01*
X13496238Y-13651576D01*
X13477190Y-13651576D01*
X13458143Y-13642052D01*
X13448619Y-13632528D01*
X13439095Y-13613481D01*
X13429571Y-13575386D01*
X13429571Y-13527767D01*
X13439095Y-13489671D01*
X13448619Y-13470624D01*
X13458143Y-13461100D01*
X13477190Y-13451576D01*
X13610524Y-13451576D02*
X13734333Y-13451576D01*
X13667667Y-13527767D01*
X13696238Y-13527767D01*
X13715286Y-13537290D01*
X13724809Y-13546814D01*
X13734333Y-13565862D01*
X13734333Y-13613481D01*
X13724809Y-13632528D01*
X13715286Y-13642052D01*
X13696238Y-13651576D01*
X13639095Y-13651576D01*
X13620048Y-13642052D01*
X13610524Y-13632528D01*
X13829571Y-13651576D02*
X13867667Y-13651576D01*
X13886714Y-13642052D01*
X13896238Y-13632528D01*
X13915286Y-13603957D01*
X13924809Y-13565862D01*
X13924809Y-13489671D01*
X13915286Y-13470624D01*
X13905762Y-13461100D01*
X13886714Y-13451576D01*
X13848619Y-13451576D01*
X13829571Y-13461100D01*
X13820048Y-13470624D01*
X13810524Y-13489671D01*
X13810524Y-13537290D01*
X13820048Y-13556338D01*
X13829571Y-13565862D01*
X13848619Y-13575386D01*
X13886714Y-13575386D01*
X13905762Y-13565862D01*
X13915286Y-13556338D01*
X13924809Y-13537290D01*
X14096238Y-13518243D02*
X14096238Y-13651576D01*
X14048619Y-13442052D02*
X14001000Y-13584909D01*
X14124809Y-13584909D01*
X14191476Y-13451576D02*
X14191476Y-13489671D01*
X14267667Y-13451576D02*
X14267667Y-13489671D01*
X14562905Y-13727767D02*
X14553381Y-13718243D01*
X14534333Y-13689671D01*
X14524809Y-13670624D01*
X14515286Y-13642052D01*
X14505762Y-13594433D01*
X14505762Y-13556338D01*
X14515286Y-13508719D01*
X14524809Y-13480148D01*
X14534333Y-13461100D01*
X14553381Y-13432528D01*
X14562905Y-13423005D01*
X14734333Y-13451576D02*
X14639095Y-13451576D01*
X14629571Y-13546814D01*
X14639095Y-13537290D01*
X14658143Y-13527767D01*
X14705762Y-13527767D01*
X14724809Y-13537290D01*
X14734333Y-13546814D01*
X14743857Y-13565862D01*
X14743857Y-13613481D01*
X14734333Y-13632528D01*
X14724809Y-13642052D01*
X14705762Y-13651576D01*
X14658143Y-13651576D01*
X14639095Y-13642052D01*
X14629571Y-13632528D01*
X14981952Y-13651576D02*
X14981952Y-13451576D01*
X15067667Y-13651576D02*
X15067667Y-13546814D01*
X15058143Y-13527767D01*
X15039095Y-13518243D01*
X15010524Y-13518243D01*
X14991476Y-13527767D01*
X14981952Y-13537290D01*
X15191476Y-13651576D02*
X15172428Y-13642052D01*
X15162905Y-13632528D01*
X15153381Y-13613481D01*
X15153381Y-13556338D01*
X15162905Y-13537290D01*
X15172428Y-13527767D01*
X15191476Y-13518243D01*
X15220048Y-13518243D01*
X15239095Y-13527767D01*
X15248619Y-13537290D01*
X15258143Y-13556338D01*
X15258143Y-13613481D01*
X15248619Y-13632528D01*
X15239095Y-13642052D01*
X15220048Y-13651576D01*
X15191476Y-13651576D01*
X15372428Y-13651576D02*
X15353381Y-13642052D01*
X15343857Y-13623005D01*
X15343857Y-13451576D01*
X15524809Y-13642052D02*
X15505762Y-13651576D01*
X15467667Y-13651576D01*
X15448619Y-13642052D01*
X15439095Y-13623005D01*
X15439095Y-13546814D01*
X15448619Y-13527767D01*
X15467667Y-13518243D01*
X15505762Y-13518243D01*
X15524809Y-13527767D01*
X15534333Y-13546814D01*
X15534333Y-13565862D01*
X15439095Y-13584909D01*
X15610524Y-13642052D02*
X15629571Y-13651576D01*
X15667667Y-13651576D01*
X15686714Y-13642052D01*
X15696238Y-13623005D01*
X15696238Y-13613481D01*
X15686714Y-13594433D01*
X15667667Y-13584909D01*
X15639095Y-13584909D01*
X15620048Y-13575386D01*
X15610524Y-13556338D01*
X15610524Y-13546814D01*
X15620048Y-13527767D01*
X15639095Y-13518243D01*
X15667667Y-13518243D01*
X15686714Y-13527767D01*
X15762905Y-13727767D02*
X15772428Y-13718243D01*
X15791476Y-13689671D01*
X15801000Y-13670624D01*
X15810524Y-13642052D01*
X15820048Y-13594433D01*
X15820048Y-13556338D01*
X15810524Y-13508719D01*
X15801000Y-13480148D01*
X15791476Y-13461100D01*
X15772428Y-13432528D01*
X15762905Y-13423005D01*
D14*
X10976063Y-13861163D02*
X10976063Y-13789037D01*
X10903937Y-13789037D01*
X10903937Y-13861163D01*
X10976063Y-13861163D01*
D11*
X11353381Y-13915576D02*
X11239095Y-13915576D01*
X11296238Y-13915576D02*
X11296238Y-13715576D01*
X11277190Y-13744148D01*
X11258143Y-13763195D01*
X11239095Y-13772719D01*
X11439095Y-13896528D02*
X11448619Y-13906052D01*
X11439095Y-13915576D01*
X11429571Y-13906052D01*
X11439095Y-13896528D01*
X11439095Y-13915576D01*
X11572428Y-13715576D02*
X11591476Y-13715576D01*
X11610524Y-13725100D01*
X11620048Y-13734624D01*
X11629571Y-13753671D01*
X11639095Y-13791767D01*
X11639095Y-13839386D01*
X11629571Y-13877481D01*
X11620048Y-13896528D01*
X11610524Y-13906052D01*
X11591476Y-13915576D01*
X11572428Y-13915576D01*
X11553381Y-13906052D01*
X11543857Y-13896528D01*
X11534333Y-13877481D01*
X11524809Y-13839386D01*
X11524809Y-13791767D01*
X11534333Y-13753671D01*
X11543857Y-13734624D01*
X11553381Y-13725100D01*
X11572428Y-13715576D01*
X11715286Y-13734624D02*
X11724809Y-13725100D01*
X11743857Y-13715576D01*
X11791476Y-13715576D01*
X11810524Y-13725100D01*
X11820048Y-13734624D01*
X11829571Y-13753671D01*
X11829571Y-13772719D01*
X11820048Y-13801290D01*
X11705762Y-13915576D01*
X11829571Y-13915576D01*
X11953381Y-13715576D02*
X11972428Y-13715576D01*
X11991476Y-13725100D01*
X12001000Y-13734624D01*
X12010524Y-13753671D01*
X12020048Y-13791767D01*
X12020048Y-13839386D01*
X12010524Y-13877481D01*
X12001000Y-13896528D01*
X11991476Y-13906052D01*
X11972428Y-13915576D01*
X11953381Y-13915576D01*
X11934333Y-13906052D01*
X11924809Y-13896528D01*
X11915286Y-13877481D01*
X11905762Y-13839386D01*
X11905762Y-13791767D01*
X11915286Y-13753671D01*
X11924809Y-13734624D01*
X11934333Y-13725100D01*
X11953381Y-13715576D01*
X12105762Y-13915576D02*
X12105762Y-13782243D01*
X12105762Y-13801290D02*
X12115286Y-13791767D01*
X12134333Y-13782243D01*
X12162905Y-13782243D01*
X12181952Y-13791767D01*
X12191476Y-13810814D01*
X12191476Y-13915576D01*
X12191476Y-13810814D02*
X12201000Y-13791767D01*
X12220048Y-13782243D01*
X12248619Y-13782243D01*
X12267667Y-13791767D01*
X12277190Y-13810814D01*
X12277190Y-13915576D01*
X12372428Y-13915576D02*
X12372428Y-13782243D01*
X12372428Y-13801290D02*
X12381952Y-13791767D01*
X12401000Y-13782243D01*
X12429571Y-13782243D01*
X12448619Y-13791767D01*
X12458143Y-13810814D01*
X12458143Y-13915576D01*
X12458143Y-13810814D02*
X12467667Y-13791767D01*
X12486714Y-13782243D01*
X12515286Y-13782243D01*
X12534333Y-13791767D01*
X12543857Y-13810814D01*
X12543857Y-13915576D01*
X12934333Y-13706052D02*
X12762905Y-13963195D01*
X13191476Y-13715576D02*
X13210524Y-13715576D01*
X13229571Y-13725100D01*
X13239095Y-13734624D01*
X13248619Y-13753671D01*
X13258143Y-13791767D01*
X13258143Y-13839386D01*
X13248619Y-13877481D01*
X13239095Y-13896528D01*
X13229571Y-13906052D01*
X13210524Y-13915576D01*
X13191476Y-13915576D01*
X13172428Y-13906052D01*
X13162905Y-13896528D01*
X13153381Y-13877481D01*
X13143857Y-13839386D01*
X13143857Y-13791767D01*
X13153381Y-13753671D01*
X13162905Y-13734624D01*
X13172428Y-13725100D01*
X13191476Y-13715576D01*
X13343857Y-13896528D02*
X13353381Y-13906052D01*
X13343857Y-13915576D01*
X13334333Y-13906052D01*
X13343857Y-13896528D01*
X13343857Y-13915576D01*
X13477190Y-13715576D02*
X13496238Y-13715576D01*
X13515286Y-13725100D01*
X13524809Y-13734624D01*
X13534333Y-13753671D01*
X13543857Y-13791767D01*
X13543857Y-13839386D01*
X13534333Y-13877481D01*
X13524809Y-13896528D01*
X13515286Y-13906052D01*
X13496238Y-13915576D01*
X13477190Y-13915576D01*
X13458143Y-13906052D01*
X13448619Y-13896528D01*
X13439095Y-13877481D01*
X13429571Y-13839386D01*
X13429571Y-13791767D01*
X13439095Y-13753671D01*
X13448619Y-13734624D01*
X13458143Y-13725100D01*
X13477190Y-13715576D01*
X13715286Y-13782243D02*
X13715286Y-13915576D01*
X13667667Y-13706052D02*
X13620048Y-13848909D01*
X13743857Y-13848909D01*
X13858143Y-13715576D02*
X13877190Y-13715576D01*
X13896238Y-13725100D01*
X13905762Y-13734624D01*
X13915286Y-13753671D01*
X13924809Y-13791767D01*
X13924809Y-13839386D01*
X13915286Y-13877481D01*
X13905762Y-13896528D01*
X13896238Y-13906052D01*
X13877190Y-13915576D01*
X13858143Y-13915576D01*
X13839095Y-13906052D01*
X13829571Y-13896528D01*
X13820048Y-13877481D01*
X13810524Y-13839386D01*
X13810524Y-13791767D01*
X13820048Y-13753671D01*
X13829571Y-13734624D01*
X13839095Y-13725100D01*
X13858143Y-13715576D01*
X14001000Y-13734624D02*
X14010524Y-13725100D01*
X14029571Y-13715576D01*
X14077190Y-13715576D01*
X14096238Y-13725100D01*
X14105762Y-13734624D01*
X14115286Y-13753671D01*
X14115286Y-13772719D01*
X14105762Y-13801290D01*
X13991476Y-13915576D01*
X14115286Y-13915576D01*
X14191476Y-13715576D02*
X14191476Y-13753671D01*
X14267667Y-13715576D02*
X14267667Y-13753671D01*
X14562905Y-13991767D02*
X14553381Y-13982243D01*
X14534333Y-13953671D01*
X14524809Y-13934624D01*
X14515286Y-13906052D01*
X14505762Y-13858433D01*
X14505762Y-13820338D01*
X14515286Y-13772719D01*
X14524809Y-13744148D01*
X14534333Y-13725100D01*
X14553381Y-13696528D01*
X14562905Y-13687005D01*
X14724809Y-13782243D02*
X14724809Y-13915576D01*
X14677190Y-13706052D02*
X14629571Y-13848909D01*
X14753381Y-13848909D01*
X14810524Y-13715576D02*
X14934333Y-13715576D01*
X14867667Y-13791767D01*
X14896238Y-13791767D01*
X14915286Y-13801290D01*
X14924809Y-13810814D01*
X14934333Y-13829862D01*
X14934333Y-13877481D01*
X14924809Y-13896528D01*
X14915286Y-13906052D01*
X14896238Y-13915576D01*
X14839095Y-13915576D01*
X14820048Y-13906052D01*
X14810524Y-13896528D01*
X15172428Y-13915576D02*
X15172428Y-13715576D01*
X15258143Y-13915576D02*
X15258143Y-13810814D01*
X15248619Y-13791767D01*
X15229571Y-13782243D01*
X15201000Y-13782243D01*
X15181952Y-13791767D01*
X15172428Y-13801290D01*
X15381952Y-13915576D02*
X15362905Y-13906052D01*
X15353381Y-13896528D01*
X15343857Y-13877481D01*
X15343857Y-13820338D01*
X15353381Y-13801290D01*
X15362905Y-13791767D01*
X15381952Y-13782243D01*
X15410524Y-13782243D01*
X15429571Y-13791767D01*
X15439095Y-13801290D01*
X15448619Y-13820338D01*
X15448619Y-13877481D01*
X15439095Y-13896528D01*
X15429571Y-13906052D01*
X15410524Y-13915576D01*
X15381952Y-13915576D01*
X15562905Y-13915576D02*
X15543857Y-13906052D01*
X15534333Y-13887005D01*
X15534333Y-13715576D01*
X15715286Y-13906052D02*
X15696238Y-13915576D01*
X15658143Y-13915576D01*
X15639095Y-13906052D01*
X15629571Y-13887005D01*
X15629571Y-13810814D01*
X15639095Y-13791767D01*
X15658143Y-13782243D01*
X15696238Y-13782243D01*
X15715286Y-13791767D01*
X15724809Y-13810814D01*
X15724809Y-13829862D01*
X15629571Y-13848909D01*
X15801000Y-13906052D02*
X15820048Y-13915576D01*
X15858143Y-13915576D01*
X15877190Y-13906052D01*
X15886714Y-13887005D01*
X15886714Y-13877481D01*
X15877190Y-13858433D01*
X15858143Y-13848909D01*
X15829571Y-13848909D01*
X15810524Y-13839386D01*
X15801000Y-13820338D01*
X15801000Y-13810814D01*
X15810524Y-13791767D01*
X15829571Y-13782243D01*
X15858143Y-13782243D01*
X15877190Y-13791767D01*
X15953381Y-13991767D02*
X15962905Y-13982243D01*
X15981952Y-13953671D01*
X15991476Y-13934624D01*
X16001000Y-13906052D01*
X16010524Y-13858433D01*
X16010524Y-13820338D01*
X16001000Y-13772719D01*
X15991476Y-13744148D01*
X15981952Y-13725100D01*
X15962905Y-13696528D01*
X15953381Y-13687005D01*
M02*
