%TF.GenerationSoftware,KiCad,Pcbnew,(6.0.8)*%
%TF.CreationDate,2023-01-05T14:05:37-07:00*%
%TF.ProjectId,PicoIO,5069636f-494f-42e6-9b69-6361645f7063,rev?*%
%TF.SameCoordinates,Original*%
%TF.FileFunction,Soldermask,Top*%
%TF.FilePolarity,Negative*%
%FSLAX46Y46*%
G04 Gerber Fmt 4.6, Leading zero omitted, Abs format (unit mm)*
G04 Created by KiCad (PCBNEW (6.0.8)) date 2023-01-05 14:05:37*
%MOMM*%
%LPD*%
G01*
G04 APERTURE LIST*
G04 Aperture macros list*
%AMRoundRect*
0 Rectangle with rounded corners*
0 $1 Rounding radius*
0 $2 $3 $4 $5 $6 $7 $8 $9 X,Y pos of 4 corners*
0 Add a 4 corners polygon primitive as box body*
4,1,4,$2,$3,$4,$5,$6,$7,$8,$9,$2,$3,0*
0 Add four circle primitives for the rounded corners*
1,1,$1+$1,$2,$3*
1,1,$1+$1,$4,$5*
1,1,$1+$1,$6,$7*
1,1,$1+$1,$8,$9*
0 Add four rect primitives between the rounded corners*
20,1,$1+$1,$2,$3,$4,$5,0*
20,1,$1+$1,$4,$5,$6,$7,0*
20,1,$1+$1,$6,$7,$8,$9,0*
20,1,$1+$1,$8,$9,$2,$3,0*%
G04 Aperture macros list end*
%ADD10C,0.150000*%
%ADD11RoundRect,0.250000X-0.600000X-0.725000X0.600000X-0.725000X0.600000X0.725000X-0.600000X0.725000X0*%
%ADD12O,1.700000X1.950000*%
%ADD13R,1.700000X3.500000*%
%ADD14O,1.700000X1.700000*%
%ADD15R,1.700000X1.700000*%
%ADD16R,3.500000X1.700000*%
%ADD17RoundRect,0.250000X0.725000X-0.600000X0.725000X0.600000X-0.725000X0.600000X-0.725000X-0.600000X0*%
%ADD18O,1.950000X1.700000*%
%ADD19C,3.200000*%
%ADD20RoundRect,0.250000X0.600000X0.750000X-0.600000X0.750000X-0.600000X-0.750000X0.600000X-0.750000X0*%
%ADD21O,1.700000X2.000000*%
G04 APERTURE END LIST*
D10*
X172712857Y-61131380D02*
X172712857Y-61321857D01*
X173093809Y-61131380D02*
X173093809Y-61321857D01*
X173427142Y-61131380D02*
X173665238Y-62131380D01*
X173855714Y-61417095D01*
X174046190Y-62131380D01*
X174284285Y-61131380D01*
X174665238Y-62131380D02*
X174665238Y-61131380D01*
X175093809Y-62131380D02*
X175093809Y-61607571D01*
X175046190Y-61512333D01*
X174950952Y-61464714D01*
X174808095Y-61464714D01*
X174712857Y-61512333D01*
X174665238Y-61559952D01*
X175474761Y-61464714D02*
X175712857Y-62131380D01*
X175950952Y-61464714D02*
X175712857Y-62131380D01*
X175617619Y-62369476D01*
X175570000Y-62417095D01*
X175474761Y-62464714D01*
X177046190Y-62083761D02*
X177141428Y-62131380D01*
X177331904Y-62131380D01*
X177427142Y-62083761D01*
X177474761Y-61988523D01*
X177474761Y-61940904D01*
X177427142Y-61845666D01*
X177331904Y-61798047D01*
X177189047Y-61798047D01*
X177093809Y-61750428D01*
X177046190Y-61655190D01*
X177046190Y-61607571D01*
X177093809Y-61512333D01*
X177189047Y-61464714D01*
X177331904Y-61464714D01*
X177427142Y-61512333D01*
X178284285Y-62083761D02*
X178189047Y-62131380D01*
X177998571Y-62131380D01*
X177903333Y-62083761D01*
X177855714Y-61988523D01*
X177855714Y-61607571D01*
X177903333Y-61512333D01*
X177998571Y-61464714D01*
X178189047Y-61464714D01*
X178284285Y-61512333D01*
X178331904Y-61607571D01*
X178331904Y-61702809D01*
X177855714Y-61798047D01*
X178617619Y-61464714D02*
X178998571Y-61464714D01*
X178760476Y-61131380D02*
X178760476Y-61988523D01*
X178808095Y-62083761D01*
X178903333Y-62131380D01*
X178998571Y-62131380D01*
X179189047Y-61464714D02*
X179570000Y-61464714D01*
X179331904Y-61131380D02*
X179331904Y-61988523D01*
X179379523Y-62083761D01*
X179474761Y-62131380D01*
X179570000Y-62131380D01*
X180046190Y-62131380D02*
X179950952Y-62083761D01*
X179903333Y-61988523D01*
X179903333Y-61131380D01*
X180808095Y-62083761D02*
X180712857Y-62131380D01*
X180522380Y-62131380D01*
X180427142Y-62083761D01*
X180379523Y-61988523D01*
X180379523Y-61607571D01*
X180427142Y-61512333D01*
X180522380Y-61464714D01*
X180712857Y-61464714D01*
X180808095Y-61512333D01*
X180855714Y-61607571D01*
X180855714Y-61702809D01*
X180379523Y-61798047D01*
X181903333Y-61464714D02*
X182284285Y-61464714D01*
X182046190Y-62131380D02*
X182046190Y-61274238D01*
X182093809Y-61179000D01*
X182189047Y-61131380D01*
X182284285Y-61131380D01*
X182760476Y-62131380D02*
X182665238Y-62083761D01*
X182617619Y-62036142D01*
X182570000Y-61940904D01*
X182570000Y-61655190D01*
X182617619Y-61559952D01*
X182665238Y-61512333D01*
X182760476Y-61464714D01*
X182903333Y-61464714D01*
X182998571Y-61512333D01*
X183046190Y-61559952D01*
X183093809Y-61655190D01*
X183093809Y-61940904D01*
X183046190Y-62036142D01*
X182998571Y-62083761D01*
X182903333Y-62131380D01*
X182760476Y-62131380D01*
X183522380Y-62131380D02*
X183522380Y-61464714D01*
X183522380Y-61655190D02*
X183570000Y-61559952D01*
X183617619Y-61512333D01*
X183712857Y-61464714D01*
X183808095Y-61464714D01*
X185331904Y-61464714D02*
X185331904Y-62131380D01*
X185093809Y-61083761D02*
X184855714Y-61798047D01*
X185474761Y-61798047D01*
X170212857Y-63074714D02*
X170403333Y-63741380D01*
X170593809Y-63265190D01*
X170784285Y-63741380D01*
X170974761Y-63074714D01*
X171355714Y-63741380D02*
X171355714Y-62741380D01*
X171784285Y-63741380D02*
X171784285Y-63217571D01*
X171736666Y-63122333D01*
X171641428Y-63074714D01*
X171498571Y-63074714D01*
X171403333Y-63122333D01*
X171355714Y-63169952D01*
X172641428Y-63693761D02*
X172546190Y-63741380D01*
X172355714Y-63741380D01*
X172260476Y-63693761D01*
X172212857Y-63598523D01*
X172212857Y-63217571D01*
X172260476Y-63122333D01*
X172355714Y-63074714D01*
X172546190Y-63074714D01*
X172641428Y-63122333D01*
X172689047Y-63217571D01*
X172689047Y-63312809D01*
X172212857Y-63408047D01*
X173117619Y-63074714D02*
X173117619Y-63741380D01*
X173117619Y-63169952D02*
X173165238Y-63122333D01*
X173260476Y-63074714D01*
X173403333Y-63074714D01*
X173498571Y-63122333D01*
X173546190Y-63217571D01*
X173546190Y-63741380D01*
X174689047Y-63074714D02*
X174927142Y-63741380D01*
X175165238Y-63074714D02*
X174927142Y-63741380D01*
X174831904Y-63979476D01*
X174784285Y-64027095D01*
X174689047Y-64074714D01*
X175689047Y-63741380D02*
X175593809Y-63693761D01*
X175546190Y-63646142D01*
X175498571Y-63550904D01*
X175498571Y-63265190D01*
X175546190Y-63169952D01*
X175593809Y-63122333D01*
X175689047Y-63074714D01*
X175831904Y-63074714D01*
X175927142Y-63122333D01*
X175974761Y-63169952D01*
X176022380Y-63265190D01*
X176022380Y-63550904D01*
X175974761Y-63646142D01*
X175927142Y-63693761D01*
X175831904Y-63741380D01*
X175689047Y-63741380D01*
X176879523Y-63074714D02*
X176879523Y-63741380D01*
X176450952Y-63074714D02*
X176450952Y-63598523D01*
X176498571Y-63693761D01*
X176593809Y-63741380D01*
X176736666Y-63741380D01*
X176831904Y-63693761D01*
X176879523Y-63646142D01*
X178546190Y-63693761D02*
X178450952Y-63741380D01*
X178260476Y-63741380D01*
X178165238Y-63693761D01*
X178117619Y-63646142D01*
X178070000Y-63550904D01*
X178070000Y-63265190D01*
X178117619Y-63169952D01*
X178165238Y-63122333D01*
X178260476Y-63074714D01*
X178450952Y-63074714D01*
X178546190Y-63122333D01*
X179403333Y-63741380D02*
X179403333Y-63217571D01*
X179355714Y-63122333D01*
X179260476Y-63074714D01*
X179070000Y-63074714D01*
X178974761Y-63122333D01*
X179403333Y-63693761D02*
X179308095Y-63741380D01*
X179070000Y-63741380D01*
X178974761Y-63693761D01*
X178927142Y-63598523D01*
X178927142Y-63503285D01*
X178974761Y-63408047D01*
X179070000Y-63360428D01*
X179308095Y-63360428D01*
X179403333Y-63312809D01*
X179879523Y-63074714D02*
X179879523Y-63741380D01*
X179879523Y-63169952D02*
X179927142Y-63122333D01*
X180022380Y-63074714D01*
X180165238Y-63074714D01*
X180260476Y-63122333D01*
X180308095Y-63217571D01*
X180308095Y-63741380D01*
X181546190Y-63741380D02*
X181546190Y-62741380D01*
X181974761Y-63741380D02*
X181974761Y-63217571D01*
X181927142Y-63122333D01*
X181831904Y-63074714D01*
X181689047Y-63074714D01*
X181593809Y-63122333D01*
X181546190Y-63169952D01*
X182879523Y-63741380D02*
X182879523Y-63217571D01*
X182831904Y-63122333D01*
X182736666Y-63074714D01*
X182546190Y-63074714D01*
X182450952Y-63122333D01*
X182879523Y-63693761D02*
X182784285Y-63741380D01*
X182546190Y-63741380D01*
X182450952Y-63693761D01*
X182403333Y-63598523D01*
X182403333Y-63503285D01*
X182450952Y-63408047D01*
X182546190Y-63360428D01*
X182784285Y-63360428D01*
X182879523Y-63312809D01*
X183260476Y-63074714D02*
X183498571Y-63741380D01*
X183736666Y-63074714D01*
X184498571Y-63693761D02*
X184403333Y-63741380D01*
X184212857Y-63741380D01*
X184117619Y-63693761D01*
X184070000Y-63598523D01*
X184070000Y-63217571D01*
X184117619Y-63122333D01*
X184212857Y-63074714D01*
X184403333Y-63074714D01*
X184498571Y-63122333D01*
X184546190Y-63217571D01*
X184546190Y-63312809D01*
X184070000Y-63408047D01*
X186212857Y-62741380D02*
X185736666Y-62741380D01*
X185689047Y-63217571D01*
X185736666Y-63169952D01*
X185831904Y-63122333D01*
X186070000Y-63122333D01*
X186165238Y-63169952D01*
X186212857Y-63217571D01*
X186260476Y-63312809D01*
X186260476Y-63550904D01*
X186212857Y-63646142D01*
X186165238Y-63693761D01*
X186070000Y-63741380D01*
X185831904Y-63741380D01*
X185736666Y-63693761D01*
X185689047Y-63646142D01*
X186831904Y-63646142D02*
X186879523Y-63693761D01*
X186831904Y-63741380D01*
X186784285Y-63693761D01*
X186831904Y-63646142D01*
X186831904Y-63741380D01*
X186641428Y-62789000D02*
X186736666Y-62741380D01*
X186974761Y-62741380D01*
X187070000Y-62789000D01*
X187117619Y-62884238D01*
X187117619Y-62979476D01*
X187070000Y-63074714D01*
X187022380Y-63122333D01*
X186927142Y-63169952D01*
X186879523Y-63217571D01*
X186831904Y-63312809D01*
X186831904Y-63360428D01*
X187498571Y-62741380D02*
X187498571Y-62931857D01*
X187879523Y-62741380D02*
X187879523Y-62931857D01*
X162895595Y-113693380D02*
X162895595Y-112693380D01*
X163276547Y-112693380D01*
X163371785Y-112741000D01*
X163419404Y-112788619D01*
X163467023Y-112883857D01*
X163467023Y-113026714D01*
X163419404Y-113121952D01*
X163371785Y-113169571D01*
X163276547Y-113217190D01*
X162895595Y-113217190D01*
X163895595Y-113693380D02*
X163895595Y-113026714D01*
X163895595Y-112693380D02*
X163847976Y-112741000D01*
X163895595Y-112788619D01*
X163943214Y-112741000D01*
X163895595Y-112693380D01*
X163895595Y-112788619D01*
X164800357Y-113645761D02*
X164705119Y-113693380D01*
X164514642Y-113693380D01*
X164419404Y-113645761D01*
X164371785Y-113598142D01*
X164324166Y-113502904D01*
X164324166Y-113217190D01*
X164371785Y-113121952D01*
X164419404Y-113074333D01*
X164514642Y-113026714D01*
X164705119Y-113026714D01*
X164800357Y-113074333D01*
X165371785Y-113693380D02*
X165276547Y-113645761D01*
X165228928Y-113598142D01*
X165181309Y-113502904D01*
X165181309Y-113217190D01*
X165228928Y-113121952D01*
X165276547Y-113074333D01*
X165371785Y-113026714D01*
X165514642Y-113026714D01*
X165609880Y-113074333D01*
X165657500Y-113121952D01*
X165705119Y-113217190D01*
X165705119Y-113502904D01*
X165657500Y-113598142D01*
X165609880Y-113645761D01*
X165514642Y-113693380D01*
X165371785Y-113693380D01*
X166133690Y-113693380D02*
X166133690Y-112693380D01*
X166800357Y-112693380D02*
X166990833Y-112693380D01*
X167086071Y-112741000D01*
X167181309Y-112836238D01*
X167228928Y-113026714D01*
X167228928Y-113360047D01*
X167181309Y-113550523D01*
X167086071Y-113645761D01*
X166990833Y-113693380D01*
X166800357Y-113693380D01*
X166705119Y-113645761D01*
X166609880Y-113550523D01*
X166562261Y-113360047D01*
X166562261Y-113026714D01*
X166609880Y-112836238D01*
X166705119Y-112741000D01*
X166800357Y-112693380D01*
X168419404Y-113693380D02*
X168419404Y-112693380D01*
X168800357Y-112693380D01*
X168895595Y-112741000D01*
X168943214Y-112788619D01*
X168990833Y-112883857D01*
X168990833Y-113026714D01*
X168943214Y-113121952D01*
X168895595Y-113169571D01*
X168800357Y-113217190D01*
X168419404Y-113217190D01*
X169990833Y-113598142D02*
X169943214Y-113645761D01*
X169800357Y-113693380D01*
X169705119Y-113693380D01*
X169562261Y-113645761D01*
X169467023Y-113550523D01*
X169419404Y-113455285D01*
X169371785Y-113264809D01*
X169371785Y-113121952D01*
X169419404Y-112931476D01*
X169467023Y-112836238D01*
X169562261Y-112741000D01*
X169705119Y-112693380D01*
X169800357Y-112693380D01*
X169943214Y-112741000D01*
X169990833Y-112788619D01*
X170752738Y-113169571D02*
X170895595Y-113217190D01*
X170943214Y-113264809D01*
X170990833Y-113360047D01*
X170990833Y-113502904D01*
X170943214Y-113598142D01*
X170895595Y-113645761D01*
X170800357Y-113693380D01*
X170419404Y-113693380D01*
X170419404Y-112693380D01*
X170752738Y-112693380D01*
X170847976Y-112741000D01*
X170895595Y-112788619D01*
X170943214Y-112883857D01*
X170943214Y-112979095D01*
X170895595Y-113074333D01*
X170847976Y-113121952D01*
X170752738Y-113169571D01*
X170419404Y-113169571D01*
X172752738Y-113693380D02*
X172419404Y-113217190D01*
X172181309Y-113693380D02*
X172181309Y-112693380D01*
X172562261Y-112693380D01*
X172657500Y-112741000D01*
X172705119Y-112788619D01*
X172752738Y-112883857D01*
X172752738Y-113026714D01*
X172705119Y-113121952D01*
X172657500Y-113169571D01*
X172562261Y-113217190D01*
X172181309Y-113217190D01*
X173562261Y-113645761D02*
X173467023Y-113693380D01*
X173276547Y-113693380D01*
X173181309Y-113645761D01*
X173133690Y-113550523D01*
X173133690Y-113169571D01*
X173181309Y-113074333D01*
X173276547Y-113026714D01*
X173467023Y-113026714D01*
X173562261Y-113074333D01*
X173609880Y-113169571D01*
X173609880Y-113264809D01*
X173133690Y-113360047D01*
X173943214Y-113026714D02*
X174181309Y-113693380D01*
X174419404Y-113026714D01*
X174800357Y-113598142D02*
X174847976Y-113645761D01*
X174800357Y-113693380D01*
X174752738Y-113645761D01*
X174800357Y-113598142D01*
X174800357Y-113693380D01*
X176562261Y-113693380D02*
X175990833Y-113693380D01*
X176276547Y-113693380D02*
X176276547Y-112693380D01*
X176181309Y-112836238D01*
X176086071Y-112931476D01*
X175990833Y-112979095D01*
X162895595Y-115303380D02*
X162895595Y-114303380D01*
X163324166Y-115303380D02*
X163324166Y-114779571D01*
X163276547Y-114684333D01*
X163181309Y-114636714D01*
X163038452Y-114636714D01*
X162943214Y-114684333D01*
X162895595Y-114731952D01*
X163657500Y-114636714D02*
X164038452Y-114636714D01*
X163800357Y-114303380D02*
X163800357Y-115160523D01*
X163847976Y-115255761D01*
X163943214Y-115303380D01*
X164038452Y-115303380D01*
X164228928Y-114636714D02*
X164609880Y-114636714D01*
X164371785Y-114303380D02*
X164371785Y-115160523D01*
X164419404Y-115255761D01*
X164514642Y-115303380D01*
X164609880Y-115303380D01*
X164943214Y-114636714D02*
X164943214Y-115636714D01*
X164943214Y-114684333D02*
X165038452Y-114636714D01*
X165228928Y-114636714D01*
X165324166Y-114684333D01*
X165371785Y-114731952D01*
X165419404Y-114827190D01*
X165419404Y-115112904D01*
X165371785Y-115208142D01*
X165324166Y-115255761D01*
X165228928Y-115303380D01*
X165038452Y-115303380D01*
X164943214Y-115255761D01*
X165800357Y-115255761D02*
X165895595Y-115303380D01*
X166086071Y-115303380D01*
X166181309Y-115255761D01*
X166228928Y-115160523D01*
X166228928Y-115112904D01*
X166181309Y-115017666D01*
X166086071Y-114970047D01*
X165943214Y-114970047D01*
X165847976Y-114922428D01*
X165800357Y-114827190D01*
X165800357Y-114779571D01*
X165847976Y-114684333D01*
X165943214Y-114636714D01*
X166086071Y-114636714D01*
X166181309Y-114684333D01*
X166657500Y-115208142D02*
X166705119Y-115255761D01*
X166657500Y-115303380D01*
X166609880Y-115255761D01*
X166657500Y-115208142D01*
X166657500Y-115303380D01*
X166657500Y-114684333D02*
X166705119Y-114731952D01*
X166657500Y-114779571D01*
X166609880Y-114731952D01*
X166657500Y-114684333D01*
X166657500Y-114779571D01*
X167847976Y-114255761D02*
X166990833Y-115541476D01*
X168895595Y-114255761D02*
X168038452Y-115541476D01*
X169657500Y-114636714D02*
X169657500Y-115446238D01*
X169609880Y-115541476D01*
X169562261Y-115589095D01*
X169467023Y-115636714D01*
X169324166Y-115636714D01*
X169228928Y-115589095D01*
X169657500Y-115255761D02*
X169562261Y-115303380D01*
X169371785Y-115303380D01*
X169276547Y-115255761D01*
X169228928Y-115208142D01*
X169181309Y-115112904D01*
X169181309Y-114827190D01*
X169228928Y-114731952D01*
X169276547Y-114684333D01*
X169371785Y-114636714D01*
X169562261Y-114636714D01*
X169657500Y-114684333D01*
X170133690Y-115303380D02*
X170133690Y-114636714D01*
X170133690Y-114303380D02*
X170086071Y-114351000D01*
X170133690Y-114398619D01*
X170181309Y-114351000D01*
X170133690Y-114303380D01*
X170133690Y-114398619D01*
X170467023Y-114636714D02*
X170847976Y-114636714D01*
X170609880Y-114303380D02*
X170609880Y-115160523D01*
X170657500Y-115255761D01*
X170752738Y-115303380D01*
X170847976Y-115303380D01*
X171181309Y-115303380D02*
X171181309Y-114303380D01*
X171609880Y-115303380D02*
X171609880Y-114779571D01*
X171562261Y-114684333D01*
X171467023Y-114636714D01*
X171324166Y-114636714D01*
X171228928Y-114684333D01*
X171181309Y-114731952D01*
X172514642Y-114636714D02*
X172514642Y-115303380D01*
X172086071Y-114636714D02*
X172086071Y-115160523D01*
X172133690Y-115255761D01*
X172228928Y-115303380D01*
X172371785Y-115303380D01*
X172467023Y-115255761D01*
X172514642Y-115208142D01*
X172990833Y-115303380D02*
X172990833Y-114303380D01*
X172990833Y-114684333D02*
X173086071Y-114636714D01*
X173276547Y-114636714D01*
X173371785Y-114684333D01*
X173419404Y-114731952D01*
X173467023Y-114827190D01*
X173467023Y-115112904D01*
X173419404Y-115208142D01*
X173371785Y-115255761D01*
X173276547Y-115303380D01*
X173086071Y-115303380D01*
X172990833Y-115255761D01*
X173895595Y-115208142D02*
X173943214Y-115255761D01*
X173895595Y-115303380D01*
X173847976Y-115255761D01*
X173895595Y-115208142D01*
X173895595Y-115303380D01*
X174800357Y-115255761D02*
X174705119Y-115303380D01*
X174514642Y-115303380D01*
X174419404Y-115255761D01*
X174371785Y-115208142D01*
X174324166Y-115112904D01*
X174324166Y-114827190D01*
X174371785Y-114731952D01*
X174419404Y-114684333D01*
X174514642Y-114636714D01*
X174705119Y-114636714D01*
X174800357Y-114684333D01*
X175371785Y-115303380D02*
X175276547Y-115255761D01*
X175228928Y-115208142D01*
X175181309Y-115112904D01*
X175181309Y-114827190D01*
X175228928Y-114731952D01*
X175276547Y-114684333D01*
X175371785Y-114636714D01*
X175514642Y-114636714D01*
X175609880Y-114684333D01*
X175657500Y-114731952D01*
X175705119Y-114827190D01*
X175705119Y-115112904D01*
X175657500Y-115208142D01*
X175609880Y-115255761D01*
X175514642Y-115303380D01*
X175371785Y-115303380D01*
X176133690Y-115303380D02*
X176133690Y-114636714D01*
X176133690Y-114731952D02*
X176181309Y-114684333D01*
X176276547Y-114636714D01*
X176419404Y-114636714D01*
X176514642Y-114684333D01*
X176562261Y-114779571D01*
X176562261Y-115303380D01*
X176562261Y-114779571D02*
X176609880Y-114684333D01*
X176705119Y-114636714D01*
X176847976Y-114636714D01*
X176943214Y-114684333D01*
X176990833Y-114779571D01*
X176990833Y-115303380D01*
X178181309Y-114255761D02*
X177324166Y-115541476D01*
X178943214Y-115303380D02*
X178943214Y-114303380D01*
X178943214Y-115255761D02*
X178847976Y-115303380D01*
X178657500Y-115303380D01*
X178562261Y-115255761D01*
X178514642Y-115208142D01*
X178467023Y-115112904D01*
X178467023Y-114827190D01*
X178514642Y-114731952D01*
X178562261Y-114684333D01*
X178657500Y-114636714D01*
X178847976Y-114636714D01*
X178943214Y-114684333D01*
X179419404Y-114636714D02*
X179419404Y-115493857D01*
X179371785Y-115589095D01*
X179276547Y-115636714D01*
X179228928Y-115636714D01*
X179419404Y-114303380D02*
X179371785Y-114351000D01*
X179419404Y-114398619D01*
X179467023Y-114351000D01*
X179419404Y-114303380D01*
X179419404Y-114398619D01*
X180371785Y-114303380D02*
X179895595Y-114303380D01*
X179847976Y-114779571D01*
X179895595Y-114731952D01*
X179990833Y-114684333D01*
X180228928Y-114684333D01*
X180324166Y-114731952D01*
X180371785Y-114779571D01*
X180419404Y-114874809D01*
X180419404Y-115112904D01*
X180371785Y-115208142D01*
X180324166Y-115255761D01*
X180228928Y-115303380D01*
X179990833Y-115303380D01*
X179895595Y-115255761D01*
X179847976Y-115208142D01*
X181038452Y-114303380D02*
X181133690Y-114303380D01*
X181228928Y-114351000D01*
X181276547Y-114398619D01*
X181324166Y-114493857D01*
X181371785Y-114684333D01*
X181371785Y-114922428D01*
X181324166Y-115112904D01*
X181276547Y-115208142D01*
X181228928Y-115255761D01*
X181133690Y-115303380D01*
X181038452Y-115303380D01*
X180943214Y-115255761D01*
X180895595Y-115208142D01*
X180847976Y-115112904D01*
X180800357Y-114922428D01*
X180800357Y-114684333D01*
X180847976Y-114493857D01*
X180895595Y-114398619D01*
X180943214Y-114351000D01*
X181038452Y-114303380D01*
X182276547Y-114303380D02*
X181800357Y-114303380D01*
X181752738Y-114779571D01*
X181800357Y-114731952D01*
X181895595Y-114684333D01*
X182133690Y-114684333D01*
X182228928Y-114731952D01*
X182276547Y-114779571D01*
X182324166Y-114874809D01*
X182324166Y-115112904D01*
X182276547Y-115208142D01*
X182228928Y-115255761D01*
X182133690Y-115303380D01*
X181895595Y-115303380D01*
X181800357Y-115255761D01*
X181752738Y-115208142D01*
X183467023Y-114255761D02*
X182609880Y-115541476D01*
X183800357Y-115303380D02*
X183800357Y-114303380D01*
X184181309Y-114303380D01*
X184276547Y-114351000D01*
X184324166Y-114398619D01*
X184371785Y-114493857D01*
X184371785Y-114636714D01*
X184324166Y-114731952D01*
X184276547Y-114779571D01*
X184181309Y-114827190D01*
X183800357Y-114827190D01*
X184800357Y-115303380D02*
X184800357Y-114636714D01*
X184800357Y-114303380D02*
X184752738Y-114351000D01*
X184800357Y-114398619D01*
X184847976Y-114351000D01*
X184800357Y-114303380D01*
X184800357Y-114398619D01*
X185705119Y-115255761D02*
X185609880Y-115303380D01*
X185419404Y-115303380D01*
X185324166Y-115255761D01*
X185276547Y-115208142D01*
X185228928Y-115112904D01*
X185228928Y-114827190D01*
X185276547Y-114731952D01*
X185324166Y-114684333D01*
X185419404Y-114636714D01*
X185609880Y-114636714D01*
X185705119Y-114684333D01*
X186276547Y-115303380D02*
X186181309Y-115255761D01*
X186133690Y-115208142D01*
X186086071Y-115112904D01*
X186086071Y-114827190D01*
X186133690Y-114731952D01*
X186181309Y-114684333D01*
X186276547Y-114636714D01*
X186419404Y-114636714D01*
X186514642Y-114684333D01*
X186562261Y-114731952D01*
X186609880Y-114827190D01*
X186609880Y-115112904D01*
X186562261Y-115208142D01*
X186514642Y-115255761D01*
X186419404Y-115303380D01*
X186276547Y-115303380D01*
X187038452Y-115303380D02*
X187038452Y-114303380D01*
X187705119Y-114303380D02*
X187895595Y-114303380D01*
X187990833Y-114351000D01*
X188086071Y-114446238D01*
X188133690Y-114636714D01*
X188133690Y-114970047D01*
X188086071Y-115160523D01*
X187990833Y-115255761D01*
X187895595Y-115303380D01*
X187705119Y-115303380D01*
X187609880Y-115255761D01*
X187514642Y-115160523D01*
X187467023Y-114970047D01*
X187467023Y-114636714D01*
X187514642Y-114446238D01*
X187609880Y-114351000D01*
X187705119Y-114303380D01*
D11*
%TO.C,J5*%
X215000000Y-99975000D03*
D12*
X217500000Y-99975000D03*
X220000000Y-99975000D03*
X222500000Y-99975000D03*
%TD*%
D13*
%TO.C,U1*%
X159512000Y-88022000D03*
D14*
X159512000Y-87122000D03*
D13*
X162052000Y-88022000D03*
D14*
X162052000Y-87122000D03*
D13*
X164592000Y-88022000D03*
D15*
X164592000Y-87122000D03*
D13*
X167132000Y-88022000D03*
D14*
X167132000Y-87122000D03*
D13*
X169672000Y-88022000D03*
D14*
X169672000Y-87122000D03*
X172212000Y-87122000D03*
D13*
X172212000Y-88022000D03*
X174752000Y-88022000D03*
D14*
X174752000Y-87122000D03*
D15*
X177292000Y-87122000D03*
D13*
X177292000Y-88022000D03*
D14*
X179832000Y-87122000D03*
D13*
X179832000Y-88022000D03*
D14*
X182372000Y-87122000D03*
D13*
X182372000Y-88022000D03*
X184912000Y-88022000D03*
D14*
X184912000Y-87122000D03*
D13*
X187452000Y-88022000D03*
D14*
X187452000Y-87122000D03*
D13*
X189992000Y-88022000D03*
D15*
X189992000Y-87122000D03*
D14*
X192532000Y-87122000D03*
D13*
X192532000Y-88022000D03*
X195072000Y-88022000D03*
D14*
X195072000Y-87122000D03*
D13*
X197612000Y-88022000D03*
D14*
X197612000Y-87122000D03*
X200152000Y-87122000D03*
D13*
X200152000Y-88022000D03*
D15*
X202692000Y-87122000D03*
D13*
X202692000Y-88022000D03*
X205232000Y-88022000D03*
D14*
X205232000Y-87122000D03*
D13*
X207772000Y-88022000D03*
D14*
X207772000Y-87122000D03*
D13*
X207772000Y-68442000D03*
D14*
X207772000Y-69342000D03*
X205232000Y-69342000D03*
D13*
X205232000Y-68442000D03*
D15*
X202692000Y-69342000D03*
D13*
X202692000Y-68442000D03*
X200152000Y-68442000D03*
D14*
X200152000Y-69342000D03*
D13*
X197612000Y-68442000D03*
D14*
X197612000Y-69342000D03*
D13*
X195072000Y-68442000D03*
D14*
X195072000Y-69342000D03*
X192532000Y-69342000D03*
D13*
X192532000Y-68442000D03*
X189992000Y-68442000D03*
D15*
X189992000Y-69342000D03*
D13*
X187452000Y-68442000D03*
D14*
X187452000Y-69342000D03*
X184912000Y-69342000D03*
D13*
X184912000Y-68442000D03*
X182372000Y-68442000D03*
D14*
X182372000Y-69342000D03*
X179832000Y-69342000D03*
D13*
X179832000Y-68442000D03*
X177292000Y-68442000D03*
D15*
X177292000Y-69342000D03*
D14*
X174752000Y-69342000D03*
D13*
X174752000Y-68442000D03*
D14*
X172212000Y-69342000D03*
D13*
X172212000Y-68442000D03*
X169672000Y-68442000D03*
D14*
X169672000Y-69342000D03*
X167132000Y-69342000D03*
D13*
X167132000Y-68442000D03*
X164592000Y-68442000D03*
D15*
X164592000Y-69342000D03*
D14*
X162052000Y-69342000D03*
D13*
X162052000Y-68442000D03*
D14*
X159512000Y-69342000D03*
D13*
X159512000Y-68442000D03*
D16*
X208442000Y-80772000D03*
D14*
X207542000Y-80772000D03*
D15*
X207542000Y-78232000D03*
D16*
X208442000Y-78232000D03*
X208442000Y-75692000D03*
D14*
X207542000Y-75692000D03*
%TD*%
D11*
%TO.C,J10*%
X215000000Y-106750000D03*
D12*
X217500000Y-106750000D03*
X220000000Y-106750000D03*
X222500000Y-106750000D03*
%TD*%
D17*
%TO.C,J11*%
X226043000Y-92610000D03*
D18*
X226043000Y-90110000D03*
X226043000Y-87610000D03*
%TD*%
D11*
%TO.C,J6*%
X161000000Y-106750000D03*
D12*
X163500000Y-106750000D03*
X166000000Y-106750000D03*
X168500000Y-106750000D03*
%TD*%
D19*
%TO.C,REF\u002A\u002A*%
X227076000Y-62484000D03*
%TD*%
D11*
%TO.C,J7*%
X174500000Y-106750000D03*
D12*
X177000000Y-106750000D03*
X179500000Y-106750000D03*
X182000000Y-106750000D03*
%TD*%
D11*
%TO.C,J3*%
X188000000Y-99975000D03*
D12*
X190500000Y-99975000D03*
X193000000Y-99975000D03*
X195500000Y-99975000D03*
%TD*%
D11*
%TO.C,J4*%
X201500000Y-99975000D03*
D12*
X204000000Y-99975000D03*
X206500000Y-99975000D03*
X209000000Y-99975000D03*
%TD*%
D11*
%TO.C,J1*%
X161000000Y-99975000D03*
D12*
X163500000Y-99975000D03*
X166000000Y-99975000D03*
X168500000Y-99975000D03*
%TD*%
D17*
%TO.C,J12*%
X226060000Y-81434000D03*
D18*
X226060000Y-78934000D03*
X226060000Y-76434000D03*
X226060000Y-73934000D03*
X226060000Y-71434000D03*
X226060000Y-68934000D03*
%TD*%
D11*
%TO.C,J2*%
X174500000Y-99975000D03*
D12*
X177000000Y-99975000D03*
X179500000Y-99975000D03*
X182000000Y-99975000D03*
%TD*%
D15*
%TO.C,J13*%
X217170000Y-81265000D03*
D14*
X217170000Y-78725000D03*
X217170000Y-76185000D03*
%TD*%
D11*
%TO.C,J9*%
X201500000Y-106750000D03*
D12*
X204000000Y-106750000D03*
X206500000Y-106750000D03*
X209000000Y-106750000D03*
%TD*%
D19*
%TO.C,REF\u002A\u002A*%
X227076000Y-113810051D03*
%TD*%
%TO.C,REF\u002A\u002A*%
X161036000Y-62484000D03*
%TD*%
D20*
%TO.C,J14*%
X215646000Y-63263000D03*
D21*
X213146000Y-63263000D03*
%TD*%
D11*
%TO.C,J8*%
X188000000Y-106750000D03*
D12*
X190500000Y-106750000D03*
X193000000Y-106750000D03*
X195500000Y-106750000D03*
%TD*%
M02*
