%TF.GenerationSoftware,KiCad,Pcbnew,(6.0.8)*%
%TF.CreationDate,2023-01-05T14:05:36-07:00*%
%TF.ProjectId,PicoIO,5069636f-494f-42e6-9b69-6361645f7063,rev?*%
%TF.SameCoordinates,Original*%
%TF.FileFunction,Legend,Bot*%
%TF.FilePolarity,Positive*%
%FSLAX46Y46*%
G04 Gerber Fmt 4.6, Leading zero omitted, Abs format (unit mm)*
G04 Created by KiCad (PCBNEW (6.0.8)) date 2023-01-05 14:05:36*
%MOMM*%
%LPD*%
G01*
G04 APERTURE LIST*
G04 Aperture macros list*
%AMRoundRect*
0 Rectangle with rounded corners*
0 $1 Rounding radius*
0 $2 $3 $4 $5 $6 $7 $8 $9 X,Y pos of 4 corners*
0 Add a 4 corners polygon primitive as box body*
4,1,4,$2,$3,$4,$5,$6,$7,$8,$9,$2,$3,0*
0 Add four circle primitives for the rounded corners*
1,1,$1+$1,$2,$3*
1,1,$1+$1,$4,$5*
1,1,$1+$1,$6,$7*
1,1,$1+$1,$8,$9*
0 Add four rect primitives between the rounded corners*
20,1,$1+$1,$2,$3,$4,$5,0*
20,1,$1+$1,$4,$5,$6,$7,0*
20,1,$1+$1,$6,$7,$8,$9,0*
20,1,$1+$1,$8,$9,$2,$3,0*%
G04 Aperture macros list end*
%ADD10C,0.182500*%
%ADD11C,0.300000*%
%ADD12C,0.150000*%
%ADD13C,0.120000*%
%ADD14RoundRect,0.250000X-0.600000X-0.725000X0.600000X-0.725000X0.600000X0.725000X-0.600000X0.725000X0*%
%ADD15O,1.700000X1.950000*%
%ADD16O,1.700000X1.700000*%
%ADD17R,1.700000X1.700000*%
%ADD18RoundRect,0.250000X0.725000X-0.600000X0.725000X0.600000X-0.725000X0.600000X-0.725000X-0.600000X0*%
%ADD19O,1.950000X1.700000*%
%ADD20C,3.200000*%
%ADD21RoundRect,0.250000X0.600000X0.750000X-0.600000X0.750000X-0.600000X-0.750000X0.600000X-0.750000X0*%
%ADD22O,1.700000X2.000000*%
%ADD23RoundRect,0.150000X-0.587500X-0.150000X0.587500X-0.150000X0.587500X0.150000X-0.587500X0.150000X0*%
%ADD24RoundRect,0.250000X0.450000X-0.350000X0.450000X0.350000X-0.450000X0.350000X-0.450000X-0.350000X0*%
%ADD25RoundRect,0.150000X0.587500X0.150000X-0.587500X0.150000X-0.587500X-0.150000X0.587500X-0.150000X0*%
%ADD26RoundRect,0.250000X-0.450000X0.350000X-0.450000X-0.350000X0.450000X-0.350000X0.450000X0.350000X0*%
G04 APERTURE END LIST*
D10*
X203123714Y-79832238D02*
X203123714Y-79102238D01*
X202810857Y-79832238D02*
X202810857Y-79449857D01*
X202845619Y-79380333D01*
X202915142Y-79345571D01*
X203019428Y-79345571D01*
X203088952Y-79380333D01*
X203123714Y-79415095D01*
X202567523Y-79345571D02*
X202289428Y-79345571D01*
X202463238Y-79102238D02*
X202463238Y-79727952D01*
X202428476Y-79797476D01*
X202358952Y-79832238D01*
X202289428Y-79832238D01*
X202150380Y-79345571D02*
X201872285Y-79345571D01*
X202046095Y-79102238D02*
X202046095Y-79727952D01*
X202011333Y-79797476D01*
X201941809Y-79832238D01*
X201872285Y-79832238D01*
X201628952Y-79345571D02*
X201628952Y-80075571D01*
X201628952Y-79380333D02*
X201559428Y-79345571D01*
X201420380Y-79345571D01*
X201350857Y-79380333D01*
X201316095Y-79415095D01*
X201281333Y-79484619D01*
X201281333Y-79693190D01*
X201316095Y-79762714D01*
X201350857Y-79797476D01*
X201420380Y-79832238D01*
X201559428Y-79832238D01*
X201628952Y-79797476D01*
X201003238Y-79797476D02*
X200933714Y-79832238D01*
X200794666Y-79832238D01*
X200725142Y-79797476D01*
X200690380Y-79727952D01*
X200690380Y-79693190D01*
X200725142Y-79623666D01*
X200794666Y-79588904D01*
X200898952Y-79588904D01*
X200968476Y-79554142D01*
X201003238Y-79484619D01*
X201003238Y-79449857D01*
X200968476Y-79380333D01*
X200898952Y-79345571D01*
X200794666Y-79345571D01*
X200725142Y-79380333D01*
X200377523Y-79762714D02*
X200342761Y-79797476D01*
X200377523Y-79832238D01*
X200412285Y-79797476D01*
X200377523Y-79762714D01*
X200377523Y-79832238D01*
X200377523Y-79380333D02*
X200342761Y-79415095D01*
X200377523Y-79449857D01*
X200412285Y-79415095D01*
X200377523Y-79380333D01*
X200377523Y-79449857D01*
X199508476Y-79067476D02*
X200134190Y-80006047D01*
X198743714Y-79067476D02*
X199369428Y-80006047D01*
X198187523Y-79345571D02*
X198187523Y-79936523D01*
X198222285Y-80006047D01*
X198257047Y-80040809D01*
X198326571Y-80075571D01*
X198430857Y-80075571D01*
X198500380Y-80040809D01*
X198187523Y-79797476D02*
X198257047Y-79832238D01*
X198396095Y-79832238D01*
X198465619Y-79797476D01*
X198500380Y-79762714D01*
X198535142Y-79693190D01*
X198535142Y-79484619D01*
X198500380Y-79415095D01*
X198465619Y-79380333D01*
X198396095Y-79345571D01*
X198257047Y-79345571D01*
X198187523Y-79380333D01*
X197839904Y-79832238D02*
X197839904Y-79345571D01*
X197839904Y-79102238D02*
X197874666Y-79137000D01*
X197839904Y-79171761D01*
X197805142Y-79137000D01*
X197839904Y-79102238D01*
X197839904Y-79171761D01*
X197596571Y-79345571D02*
X197318476Y-79345571D01*
X197492285Y-79102238D02*
X197492285Y-79727952D01*
X197457523Y-79797476D01*
X197388000Y-79832238D01*
X197318476Y-79832238D01*
X197075142Y-79832238D02*
X197075142Y-79102238D01*
X196762285Y-79832238D02*
X196762285Y-79449857D01*
X196797047Y-79380333D01*
X196866571Y-79345571D01*
X196970857Y-79345571D01*
X197040380Y-79380333D01*
X197075142Y-79415095D01*
X196101809Y-79345571D02*
X196101809Y-79832238D01*
X196414666Y-79345571D02*
X196414666Y-79727952D01*
X196379904Y-79797476D01*
X196310380Y-79832238D01*
X196206095Y-79832238D01*
X196136571Y-79797476D01*
X196101809Y-79762714D01*
X195754190Y-79832238D02*
X195754190Y-79102238D01*
X195754190Y-79380333D02*
X195684666Y-79345571D01*
X195545619Y-79345571D01*
X195476095Y-79380333D01*
X195441333Y-79415095D01*
X195406571Y-79484619D01*
X195406571Y-79693190D01*
X195441333Y-79762714D01*
X195476095Y-79797476D01*
X195545619Y-79832238D01*
X195684666Y-79832238D01*
X195754190Y-79797476D01*
X195093714Y-79762714D02*
X195058952Y-79797476D01*
X195093714Y-79832238D01*
X195128476Y-79797476D01*
X195093714Y-79762714D01*
X195093714Y-79832238D01*
X194433238Y-79797476D02*
X194502761Y-79832238D01*
X194641809Y-79832238D01*
X194711333Y-79797476D01*
X194746095Y-79762714D01*
X194780857Y-79693190D01*
X194780857Y-79484619D01*
X194746095Y-79415095D01*
X194711333Y-79380333D01*
X194641809Y-79345571D01*
X194502761Y-79345571D01*
X194433238Y-79380333D01*
X194016095Y-79832238D02*
X194085619Y-79797476D01*
X194120380Y-79762714D01*
X194155142Y-79693190D01*
X194155142Y-79484619D01*
X194120380Y-79415095D01*
X194085619Y-79380333D01*
X194016095Y-79345571D01*
X193911809Y-79345571D01*
X193842285Y-79380333D01*
X193807523Y-79415095D01*
X193772761Y-79484619D01*
X193772761Y-79693190D01*
X193807523Y-79762714D01*
X193842285Y-79797476D01*
X193911809Y-79832238D01*
X194016095Y-79832238D01*
X193459904Y-79832238D02*
X193459904Y-79345571D01*
X193459904Y-79415095D02*
X193425142Y-79380333D01*
X193355619Y-79345571D01*
X193251333Y-79345571D01*
X193181809Y-79380333D01*
X193147047Y-79449857D01*
X193147047Y-79832238D01*
X193147047Y-79449857D02*
X193112285Y-79380333D01*
X193042761Y-79345571D01*
X192938476Y-79345571D01*
X192868952Y-79380333D01*
X192834190Y-79449857D01*
X192834190Y-79832238D01*
X191965142Y-79067476D02*
X192590857Y-80006047D01*
X191408952Y-79832238D02*
X191408952Y-79102238D01*
X191408952Y-79797476D02*
X191478476Y-79832238D01*
X191617523Y-79832238D01*
X191687047Y-79797476D01*
X191721809Y-79762714D01*
X191756571Y-79693190D01*
X191756571Y-79484619D01*
X191721809Y-79415095D01*
X191687047Y-79380333D01*
X191617523Y-79345571D01*
X191478476Y-79345571D01*
X191408952Y-79380333D01*
X191061333Y-79345571D02*
X191061333Y-79971285D01*
X191096095Y-80040809D01*
X191165619Y-80075571D01*
X191200380Y-80075571D01*
X191061333Y-79102238D02*
X191096095Y-79137000D01*
X191061333Y-79171761D01*
X191026571Y-79137000D01*
X191061333Y-79102238D01*
X191061333Y-79171761D01*
X190366095Y-79102238D02*
X190713714Y-79102238D01*
X190748476Y-79449857D01*
X190713714Y-79415095D01*
X190644190Y-79380333D01*
X190470380Y-79380333D01*
X190400857Y-79415095D01*
X190366095Y-79449857D01*
X190331333Y-79519380D01*
X190331333Y-79693190D01*
X190366095Y-79762714D01*
X190400857Y-79797476D01*
X190470380Y-79832238D01*
X190644190Y-79832238D01*
X190713714Y-79797476D01*
X190748476Y-79762714D01*
X189879428Y-79102238D02*
X189809904Y-79102238D01*
X189740380Y-79137000D01*
X189705619Y-79171761D01*
X189670857Y-79241285D01*
X189636095Y-79380333D01*
X189636095Y-79554142D01*
X189670857Y-79693190D01*
X189705619Y-79762714D01*
X189740380Y-79797476D01*
X189809904Y-79832238D01*
X189879428Y-79832238D01*
X189948952Y-79797476D01*
X189983714Y-79762714D01*
X190018476Y-79693190D01*
X190053238Y-79554142D01*
X190053238Y-79380333D01*
X190018476Y-79241285D01*
X189983714Y-79171761D01*
X189948952Y-79137000D01*
X189879428Y-79102238D01*
X188975619Y-79102238D02*
X189323238Y-79102238D01*
X189358000Y-79449857D01*
X189323238Y-79415095D01*
X189253714Y-79380333D01*
X189079904Y-79380333D01*
X189010380Y-79415095D01*
X188975619Y-79449857D01*
X188940857Y-79519380D01*
X188940857Y-79693190D01*
X188975619Y-79762714D01*
X189010380Y-79797476D01*
X189079904Y-79832238D01*
X189253714Y-79832238D01*
X189323238Y-79797476D01*
X189358000Y-79762714D01*
X188106571Y-79067476D02*
X188732285Y-80006047D01*
X187863238Y-79832238D02*
X187863238Y-79102238D01*
X187515619Y-79345571D02*
X187515619Y-79832238D01*
X187515619Y-79415095D02*
X187480857Y-79380333D01*
X187411333Y-79345571D01*
X187307047Y-79345571D01*
X187237523Y-79380333D01*
X187202761Y-79449857D01*
X187202761Y-79832238D01*
X186959428Y-79345571D02*
X186681333Y-79345571D01*
X186855142Y-79832238D02*
X186855142Y-79206523D01*
X186820380Y-79137000D01*
X186750857Y-79102238D01*
X186681333Y-79102238D01*
X186438000Y-79832238D02*
X186438000Y-79345571D01*
X186438000Y-79102238D02*
X186472761Y-79137000D01*
X186438000Y-79171761D01*
X186403238Y-79137000D01*
X186438000Y-79102238D01*
X186438000Y-79171761D01*
X186090380Y-79345571D02*
X186090380Y-79832238D01*
X186090380Y-79415095D02*
X186055619Y-79380333D01*
X185986095Y-79345571D01*
X185881809Y-79345571D01*
X185812285Y-79380333D01*
X185777523Y-79449857D01*
X185777523Y-79832238D01*
X185429904Y-79832238D02*
X185429904Y-79345571D01*
X185429904Y-79102238D02*
X185464666Y-79137000D01*
X185429904Y-79171761D01*
X185395142Y-79137000D01*
X185429904Y-79102238D01*
X185429904Y-79171761D01*
X185186571Y-79345571D02*
X184908476Y-79345571D01*
X185082285Y-79102238D02*
X185082285Y-79727952D01*
X185047523Y-79797476D01*
X184978000Y-79832238D01*
X184908476Y-79832238D01*
X184387047Y-79797476D02*
X184456571Y-79832238D01*
X184595619Y-79832238D01*
X184665142Y-79797476D01*
X184699904Y-79727952D01*
X184699904Y-79449857D01*
X184665142Y-79380333D01*
X184595619Y-79345571D01*
X184456571Y-79345571D01*
X184387047Y-79380333D01*
X184352285Y-79449857D01*
X184352285Y-79519380D01*
X184699904Y-79588904D01*
X184074190Y-79797476D02*
X184004666Y-79832238D01*
X183865619Y-79832238D01*
X183796095Y-79797476D01*
X183761333Y-79727952D01*
X183761333Y-79693190D01*
X183796095Y-79623666D01*
X183865619Y-79588904D01*
X183969904Y-79588904D01*
X184039428Y-79554142D01*
X184074190Y-79484619D01*
X184074190Y-79449857D01*
X184039428Y-79380333D01*
X183969904Y-79345571D01*
X183865619Y-79345571D01*
X183796095Y-79380333D01*
X183448476Y-79832238D02*
X183448476Y-79345571D01*
X183448476Y-79102238D02*
X183483238Y-79137000D01*
X183448476Y-79171761D01*
X183413714Y-79137000D01*
X183448476Y-79102238D01*
X183448476Y-79171761D01*
X183100857Y-79832238D02*
X183100857Y-79345571D01*
X183100857Y-79415095D02*
X183066095Y-79380333D01*
X182996571Y-79345571D01*
X182892285Y-79345571D01*
X182822761Y-79380333D01*
X182788000Y-79449857D01*
X182788000Y-79832238D01*
X182788000Y-79449857D02*
X182753238Y-79380333D01*
X182683714Y-79345571D01*
X182579428Y-79345571D01*
X182509904Y-79380333D01*
X182475142Y-79449857D01*
X182475142Y-79832238D01*
X181814666Y-79832238D02*
X181814666Y-79449857D01*
X181849428Y-79380333D01*
X181918952Y-79345571D01*
X182058000Y-79345571D01*
X182127523Y-79380333D01*
X181814666Y-79797476D02*
X181884190Y-79832238D01*
X182058000Y-79832238D01*
X182127523Y-79797476D01*
X182162285Y-79727952D01*
X182162285Y-79658428D01*
X182127523Y-79588904D01*
X182058000Y-79554142D01*
X181884190Y-79554142D01*
X181814666Y-79519380D01*
X181362761Y-79832238D02*
X181432285Y-79797476D01*
X181467047Y-79727952D01*
X181467047Y-79102238D01*
D11*
X202940666Y-76511666D02*
X201940666Y-76511666D01*
X202440666Y-78261666D02*
X202440666Y-76511666D01*
X201357333Y-78261666D02*
X201357333Y-77095000D01*
X201357333Y-77428333D02*
X201274000Y-77261666D01*
X201190666Y-77178333D01*
X201024000Y-77095000D01*
X200857333Y-77095000D01*
X200440666Y-77095000D02*
X200024000Y-78261666D01*
X199607333Y-77095000D02*
X200024000Y-78261666D01*
X200190666Y-78678333D01*
X200274000Y-78761666D01*
X200440666Y-78845000D01*
X197607333Y-78261666D02*
X197607333Y-76511666D01*
X196774000Y-77095000D02*
X196774000Y-78261666D01*
X196774000Y-77261666D02*
X196690666Y-77178333D01*
X196524000Y-77095000D01*
X196274000Y-77095000D01*
X196107333Y-77178333D01*
X196024000Y-77345000D01*
X196024000Y-78261666D01*
X195440666Y-77095000D02*
X194774000Y-77095000D01*
X195190666Y-78261666D02*
X195190666Y-76761666D01*
X195107333Y-76595000D01*
X194940666Y-76511666D01*
X194774000Y-76511666D01*
X194190666Y-78261666D02*
X194190666Y-77095000D01*
X194190666Y-76511666D02*
X194274000Y-76595000D01*
X194190666Y-76678333D01*
X194107333Y-76595000D01*
X194190666Y-76511666D01*
X194190666Y-76678333D01*
X193357333Y-77095000D02*
X193357333Y-78261666D01*
X193357333Y-77261666D02*
X193274000Y-77178333D01*
X193107333Y-77095000D01*
X192857333Y-77095000D01*
X192690666Y-77178333D01*
X192607333Y-77345000D01*
X192607333Y-78261666D01*
X191774000Y-78261666D02*
X191774000Y-77095000D01*
X191774000Y-76511666D02*
X191857333Y-76595000D01*
X191774000Y-76678333D01*
X191690666Y-76595000D01*
X191774000Y-76511666D01*
X191774000Y-76678333D01*
X191190666Y-77095000D02*
X190524000Y-77095000D01*
X190940666Y-76511666D02*
X190940666Y-78011666D01*
X190857333Y-78178333D01*
X190690666Y-78261666D01*
X190524000Y-78261666D01*
X189274000Y-78178333D02*
X189440666Y-78261666D01*
X189774000Y-78261666D01*
X189940666Y-78178333D01*
X190024000Y-78011666D01*
X190024000Y-77345000D01*
X189940666Y-77178333D01*
X189774000Y-77095000D01*
X189440666Y-77095000D01*
X189274000Y-77178333D01*
X189190666Y-77345000D01*
X189190666Y-77511666D01*
X190024000Y-77678333D01*
X188524000Y-78178333D02*
X188357333Y-78261666D01*
X188024000Y-78261666D01*
X187857333Y-78178333D01*
X187774000Y-78011666D01*
X187774000Y-77928333D01*
X187857333Y-77761666D01*
X188024000Y-77678333D01*
X188274000Y-77678333D01*
X188440666Y-77595000D01*
X188524000Y-77428333D01*
X188524000Y-77345000D01*
X188440666Y-77178333D01*
X188274000Y-77095000D01*
X188024000Y-77095000D01*
X187857333Y-77178333D01*
X187024000Y-78261666D02*
X187024000Y-77095000D01*
X187024000Y-76511666D02*
X187107333Y-76595000D01*
X187024000Y-76678333D01*
X186940666Y-76595000D01*
X187024000Y-76511666D01*
X187024000Y-76678333D01*
X186190666Y-78261666D02*
X186190666Y-77095000D01*
X186190666Y-77261666D02*
X186107333Y-77178333D01*
X185940666Y-77095000D01*
X185690666Y-77095000D01*
X185524000Y-77178333D01*
X185440666Y-77345000D01*
X185440666Y-78261666D01*
X185440666Y-77345000D02*
X185357333Y-77178333D01*
X185190666Y-77095000D01*
X184940666Y-77095000D01*
X184774000Y-77178333D01*
X184690666Y-77345000D01*
X184690666Y-78261666D01*
X183107333Y-78261666D02*
X183107333Y-77345000D01*
X183190666Y-77178333D01*
X183357333Y-77095000D01*
X183690666Y-77095000D01*
X183857333Y-77178333D01*
X183107333Y-78178333D02*
X183274000Y-78261666D01*
X183690666Y-78261666D01*
X183857333Y-78178333D01*
X183940666Y-78011666D01*
X183940666Y-77845000D01*
X183857333Y-77678333D01*
X183690666Y-77595000D01*
X183274000Y-77595000D01*
X183107333Y-77511666D01*
X182024000Y-78261666D02*
X182190666Y-78178333D01*
X182274000Y-78011666D01*
X182274000Y-76511666D01*
X181357333Y-78095000D02*
X181274000Y-78178333D01*
X181357333Y-78261666D01*
X181440666Y-78178333D01*
X181357333Y-78095000D01*
X181357333Y-78261666D01*
X181357333Y-77595000D02*
X181440666Y-76595000D01*
X181357333Y-76511666D01*
X181274000Y-76595000D01*
X181357333Y-77595000D01*
X181357333Y-76511666D01*
D12*
%TO.C,Q9*%
X205095238Y-115547619D02*
X205190476Y-115500000D01*
X205285714Y-115404761D01*
X205428571Y-115261904D01*
X205523809Y-115214285D01*
X205619047Y-115214285D01*
X205571428Y-115452380D02*
X205666666Y-115404761D01*
X205761904Y-115309523D01*
X205809523Y-115119047D01*
X205809523Y-114785714D01*
X205761904Y-114595238D01*
X205666666Y-114500000D01*
X205571428Y-114452380D01*
X205380952Y-114452380D01*
X205285714Y-114500000D01*
X205190476Y-114595238D01*
X205142857Y-114785714D01*
X205142857Y-115119047D01*
X205190476Y-115309523D01*
X205285714Y-115404761D01*
X205380952Y-115452380D01*
X205571428Y-115452380D01*
X204666666Y-115452380D02*
X204476190Y-115452380D01*
X204380952Y-115404761D01*
X204333333Y-115357142D01*
X204238095Y-115214285D01*
X204190476Y-115023809D01*
X204190476Y-114642857D01*
X204238095Y-114547619D01*
X204285714Y-114500000D01*
X204380952Y-114452380D01*
X204571428Y-114452380D01*
X204666666Y-114500000D01*
X204714285Y-114547619D01*
X204761904Y-114642857D01*
X204761904Y-114880952D01*
X204714285Y-114976190D01*
X204666666Y-115023809D01*
X204571428Y-115071428D01*
X204380952Y-115071428D01*
X204285714Y-115023809D01*
X204238095Y-114976190D01*
X204190476Y-114880952D01*
%TO.C,R2*%
X175952380Y-95033333D02*
X175476190Y-94700000D01*
X175952380Y-94461904D02*
X174952380Y-94461904D01*
X174952380Y-94842857D01*
X175000000Y-94938095D01*
X175047619Y-94985714D01*
X175142857Y-95033333D01*
X175285714Y-95033333D01*
X175380952Y-94985714D01*
X175428571Y-94938095D01*
X175476190Y-94842857D01*
X175476190Y-94461904D01*
X175047619Y-95414285D02*
X175000000Y-95461904D01*
X174952380Y-95557142D01*
X174952380Y-95795238D01*
X175000000Y-95890476D01*
X175047619Y-95938095D01*
X175142857Y-95985714D01*
X175238095Y-95985714D01*
X175380952Y-95938095D01*
X175952380Y-95366666D01*
X175952380Y-95985714D01*
%TO.C,Q5*%
X221695238Y-93347619D02*
X221790476Y-93300000D01*
X221885714Y-93204761D01*
X222028571Y-93061904D01*
X222123809Y-93014285D01*
X222219047Y-93014285D01*
X222171428Y-93252380D02*
X222266666Y-93204761D01*
X222361904Y-93109523D01*
X222409523Y-92919047D01*
X222409523Y-92585714D01*
X222361904Y-92395238D01*
X222266666Y-92300000D01*
X222171428Y-92252380D01*
X221980952Y-92252380D01*
X221885714Y-92300000D01*
X221790476Y-92395238D01*
X221742857Y-92585714D01*
X221742857Y-92919047D01*
X221790476Y-93109523D01*
X221885714Y-93204761D01*
X221980952Y-93252380D01*
X222171428Y-93252380D01*
X220838095Y-92252380D02*
X221314285Y-92252380D01*
X221361904Y-92728571D01*
X221314285Y-92680952D01*
X221219047Y-92633333D01*
X220980952Y-92633333D01*
X220885714Y-92680952D01*
X220838095Y-92728571D01*
X220790476Y-92823809D01*
X220790476Y-93061904D01*
X220838095Y-93157142D01*
X220885714Y-93204761D01*
X220980952Y-93252380D01*
X221219047Y-93252380D01*
X221314285Y-93204761D01*
X221361904Y-93157142D01*
%TO.C,Q3*%
X194695238Y-93347619D02*
X194790476Y-93300000D01*
X194885714Y-93204761D01*
X195028571Y-93061904D01*
X195123809Y-93014285D01*
X195219047Y-93014285D01*
X195171428Y-93252380D02*
X195266666Y-93204761D01*
X195361904Y-93109523D01*
X195409523Y-92919047D01*
X195409523Y-92585714D01*
X195361904Y-92395238D01*
X195266666Y-92300000D01*
X195171428Y-92252380D01*
X194980952Y-92252380D01*
X194885714Y-92300000D01*
X194790476Y-92395238D01*
X194742857Y-92585714D01*
X194742857Y-92919047D01*
X194790476Y-93109523D01*
X194885714Y-93204761D01*
X194980952Y-93252380D01*
X195171428Y-93252380D01*
X194409523Y-92252380D02*
X193790476Y-92252380D01*
X194123809Y-92633333D01*
X193980952Y-92633333D01*
X193885714Y-92680952D01*
X193838095Y-92728571D01*
X193790476Y-92823809D01*
X193790476Y-93061904D01*
X193838095Y-93157142D01*
X193885714Y-93204761D01*
X193980952Y-93252380D01*
X194266666Y-93252380D01*
X194361904Y-93204761D01*
X194409523Y-93157142D01*
%TO.C,R4*%
X202952380Y-95033333D02*
X202476190Y-94700000D01*
X202952380Y-94461904D02*
X201952380Y-94461904D01*
X201952380Y-94842857D01*
X202000000Y-94938095D01*
X202047619Y-94985714D01*
X202142857Y-95033333D01*
X202285714Y-95033333D01*
X202380952Y-94985714D01*
X202428571Y-94938095D01*
X202476190Y-94842857D01*
X202476190Y-94461904D01*
X202285714Y-95890476D02*
X202952380Y-95890476D01*
X201904761Y-95652380D02*
X202619047Y-95414285D01*
X202619047Y-96033333D01*
%TO.C,R3*%
X189352380Y-95033333D02*
X188876190Y-94700000D01*
X189352380Y-94461904D02*
X188352380Y-94461904D01*
X188352380Y-94842857D01*
X188400000Y-94938095D01*
X188447619Y-94985714D01*
X188542857Y-95033333D01*
X188685714Y-95033333D01*
X188780952Y-94985714D01*
X188828571Y-94938095D01*
X188876190Y-94842857D01*
X188876190Y-94461904D01*
X188352380Y-95366666D02*
X188352380Y-95985714D01*
X188733333Y-95652380D01*
X188733333Y-95795238D01*
X188780952Y-95890476D01*
X188828571Y-95938095D01*
X188923809Y-95985714D01*
X189161904Y-95985714D01*
X189257142Y-95938095D01*
X189304761Y-95890476D01*
X189352380Y-95795238D01*
X189352380Y-95509523D01*
X189304761Y-95414285D01*
X189257142Y-95366666D01*
%TO.C,R5*%
X216352380Y-95033333D02*
X215876190Y-94700000D01*
X216352380Y-94461904D02*
X215352380Y-94461904D01*
X215352380Y-94842857D01*
X215400000Y-94938095D01*
X215447619Y-94985714D01*
X215542857Y-95033333D01*
X215685714Y-95033333D01*
X215780952Y-94985714D01*
X215828571Y-94938095D01*
X215876190Y-94842857D01*
X215876190Y-94461904D01*
X215352380Y-95938095D02*
X215352380Y-95461904D01*
X215828571Y-95414285D01*
X215780952Y-95461904D01*
X215733333Y-95557142D01*
X215733333Y-95795238D01*
X215780952Y-95890476D01*
X215828571Y-95938095D01*
X215923809Y-95985714D01*
X216161904Y-95985714D01*
X216257142Y-95938095D01*
X216304761Y-95890476D01*
X216352380Y-95795238D01*
X216352380Y-95557142D01*
X216304761Y-95461904D01*
X216257142Y-95414285D01*
%TO.C,R1*%
X162352380Y-95033333D02*
X161876190Y-94700000D01*
X162352380Y-94461904D02*
X161352380Y-94461904D01*
X161352380Y-94842857D01*
X161400000Y-94938095D01*
X161447619Y-94985714D01*
X161542857Y-95033333D01*
X161685714Y-95033333D01*
X161780952Y-94985714D01*
X161828571Y-94938095D01*
X161876190Y-94842857D01*
X161876190Y-94461904D01*
X162352380Y-95985714D02*
X162352380Y-95414285D01*
X162352380Y-95700000D02*
X161352380Y-95700000D01*
X161495238Y-95604761D01*
X161590476Y-95509523D01*
X161638095Y-95414285D01*
%TO.C,R7*%
X184232380Y-112433333D02*
X183756190Y-112100000D01*
X184232380Y-111861904D02*
X183232380Y-111861904D01*
X183232380Y-112242857D01*
X183280000Y-112338095D01*
X183327619Y-112385714D01*
X183422857Y-112433333D01*
X183565714Y-112433333D01*
X183660952Y-112385714D01*
X183708571Y-112338095D01*
X183756190Y-112242857D01*
X183756190Y-111861904D01*
X183232380Y-112766666D02*
X183232380Y-113433333D01*
X184232380Y-113004761D01*
%TO.C,Q2*%
X181295238Y-93347619D02*
X181390476Y-93300000D01*
X181485714Y-93204761D01*
X181628571Y-93061904D01*
X181723809Y-93014285D01*
X181819047Y-93014285D01*
X181771428Y-93252380D02*
X181866666Y-93204761D01*
X181961904Y-93109523D01*
X182009523Y-92919047D01*
X182009523Y-92585714D01*
X181961904Y-92395238D01*
X181866666Y-92300000D01*
X181771428Y-92252380D01*
X181580952Y-92252380D01*
X181485714Y-92300000D01*
X181390476Y-92395238D01*
X181342857Y-92585714D01*
X181342857Y-92919047D01*
X181390476Y-93109523D01*
X181485714Y-93204761D01*
X181580952Y-93252380D01*
X181771428Y-93252380D01*
X180961904Y-92347619D02*
X180914285Y-92300000D01*
X180819047Y-92252380D01*
X180580952Y-92252380D01*
X180485714Y-92300000D01*
X180438095Y-92347619D01*
X180390476Y-92442857D01*
X180390476Y-92538095D01*
X180438095Y-92680952D01*
X181009523Y-93252380D01*
X180390476Y-93252380D01*
%TO.C,Q4*%
X208295238Y-93347619D02*
X208390476Y-93300000D01*
X208485714Y-93204761D01*
X208628571Y-93061904D01*
X208723809Y-93014285D01*
X208819047Y-93014285D01*
X208771428Y-93252380D02*
X208866666Y-93204761D01*
X208961904Y-93109523D01*
X209009523Y-92919047D01*
X209009523Y-92585714D01*
X208961904Y-92395238D01*
X208866666Y-92300000D01*
X208771428Y-92252380D01*
X208580952Y-92252380D01*
X208485714Y-92300000D01*
X208390476Y-92395238D01*
X208342857Y-92585714D01*
X208342857Y-92919047D01*
X208390476Y-93109523D01*
X208485714Y-93204761D01*
X208580952Y-93252380D01*
X208771428Y-93252380D01*
X207485714Y-92585714D02*
X207485714Y-93252380D01*
X207723809Y-92204761D02*
X207961904Y-92919047D01*
X207342857Y-92919047D01*
%TO.C,Q7*%
X178095238Y-115547619D02*
X178190476Y-115500000D01*
X178285714Y-115404761D01*
X178428571Y-115261904D01*
X178523809Y-115214285D01*
X178619047Y-115214285D01*
X178571428Y-115452380D02*
X178666666Y-115404761D01*
X178761904Y-115309523D01*
X178809523Y-115119047D01*
X178809523Y-114785714D01*
X178761904Y-114595238D01*
X178666666Y-114500000D01*
X178571428Y-114452380D01*
X178380952Y-114452380D01*
X178285714Y-114500000D01*
X178190476Y-114595238D01*
X178142857Y-114785714D01*
X178142857Y-115119047D01*
X178190476Y-115309523D01*
X178285714Y-115404761D01*
X178380952Y-115452380D01*
X178571428Y-115452380D01*
X177809523Y-114452380D02*
X177142857Y-114452380D01*
X177571428Y-115452380D01*
%TO.C,R10*%
X224632380Y-111957142D02*
X224156190Y-111623809D01*
X224632380Y-111385714D02*
X223632380Y-111385714D01*
X223632380Y-111766666D01*
X223680000Y-111861904D01*
X223727619Y-111909523D01*
X223822857Y-111957142D01*
X223965714Y-111957142D01*
X224060952Y-111909523D01*
X224108571Y-111861904D01*
X224156190Y-111766666D01*
X224156190Y-111385714D01*
X224632380Y-112909523D02*
X224632380Y-112338095D01*
X224632380Y-112623809D02*
X223632380Y-112623809D01*
X223775238Y-112528571D01*
X223870476Y-112433333D01*
X223918095Y-112338095D01*
X223632380Y-113528571D02*
X223632380Y-113623809D01*
X223680000Y-113719047D01*
X223727619Y-113766666D01*
X223822857Y-113814285D01*
X224013333Y-113861904D01*
X224251428Y-113861904D01*
X224441904Y-113814285D01*
X224537142Y-113766666D01*
X224584761Y-113719047D01*
X224632380Y-113623809D01*
X224632380Y-113528571D01*
X224584761Y-113433333D01*
X224537142Y-113385714D01*
X224441904Y-113338095D01*
X224251428Y-113290476D01*
X224013333Y-113290476D01*
X223822857Y-113338095D01*
X223727619Y-113385714D01*
X223680000Y-113433333D01*
X223632380Y-113528571D01*
%TO.C,R8*%
X197832380Y-112433333D02*
X197356190Y-112100000D01*
X197832380Y-111861904D02*
X196832380Y-111861904D01*
X196832380Y-112242857D01*
X196880000Y-112338095D01*
X196927619Y-112385714D01*
X197022857Y-112433333D01*
X197165714Y-112433333D01*
X197260952Y-112385714D01*
X197308571Y-112338095D01*
X197356190Y-112242857D01*
X197356190Y-111861904D01*
X197260952Y-113004761D02*
X197213333Y-112909523D01*
X197165714Y-112861904D01*
X197070476Y-112814285D01*
X197022857Y-112814285D01*
X196927619Y-112861904D01*
X196880000Y-112909523D01*
X196832380Y-113004761D01*
X196832380Y-113195238D01*
X196880000Y-113290476D01*
X196927619Y-113338095D01*
X197022857Y-113385714D01*
X197070476Y-113385714D01*
X197165714Y-113338095D01*
X197213333Y-113290476D01*
X197260952Y-113195238D01*
X197260952Y-113004761D01*
X197308571Y-112909523D01*
X197356190Y-112861904D01*
X197451428Y-112814285D01*
X197641904Y-112814285D01*
X197737142Y-112861904D01*
X197784761Y-112909523D01*
X197832380Y-113004761D01*
X197832380Y-113195238D01*
X197784761Y-113290476D01*
X197737142Y-113338095D01*
X197641904Y-113385714D01*
X197451428Y-113385714D01*
X197356190Y-113338095D01*
X197308571Y-113290476D01*
X197260952Y-113195238D01*
%TO.C,Q10*%
X218971428Y-115547619D02*
X219066666Y-115500000D01*
X219161904Y-115404761D01*
X219304761Y-115261904D01*
X219400000Y-115214285D01*
X219495238Y-115214285D01*
X219447619Y-115452380D02*
X219542857Y-115404761D01*
X219638095Y-115309523D01*
X219685714Y-115119047D01*
X219685714Y-114785714D01*
X219638095Y-114595238D01*
X219542857Y-114500000D01*
X219447619Y-114452380D01*
X219257142Y-114452380D01*
X219161904Y-114500000D01*
X219066666Y-114595238D01*
X219019047Y-114785714D01*
X219019047Y-115119047D01*
X219066666Y-115309523D01*
X219161904Y-115404761D01*
X219257142Y-115452380D01*
X219447619Y-115452380D01*
X218066666Y-115452380D02*
X218638095Y-115452380D01*
X218352380Y-115452380D02*
X218352380Y-114452380D01*
X218447619Y-114595238D01*
X218542857Y-114690476D01*
X218638095Y-114738095D01*
X217447619Y-114452380D02*
X217352380Y-114452380D01*
X217257142Y-114500000D01*
X217209523Y-114547619D01*
X217161904Y-114642857D01*
X217114285Y-114833333D01*
X217114285Y-115071428D01*
X217161904Y-115261904D01*
X217209523Y-115357142D01*
X217257142Y-115404761D01*
X217352380Y-115452380D01*
X217447619Y-115452380D01*
X217542857Y-115404761D01*
X217590476Y-115357142D01*
X217638095Y-115261904D01*
X217685714Y-115071428D01*
X217685714Y-114833333D01*
X217638095Y-114642857D01*
X217590476Y-114547619D01*
X217542857Y-114500000D01*
X217447619Y-114452380D01*
%TO.C,Q8*%
X191695238Y-115547619D02*
X191790476Y-115500000D01*
X191885714Y-115404761D01*
X192028571Y-115261904D01*
X192123809Y-115214285D01*
X192219047Y-115214285D01*
X192171428Y-115452380D02*
X192266666Y-115404761D01*
X192361904Y-115309523D01*
X192409523Y-115119047D01*
X192409523Y-114785714D01*
X192361904Y-114595238D01*
X192266666Y-114500000D01*
X192171428Y-114452380D01*
X191980952Y-114452380D01*
X191885714Y-114500000D01*
X191790476Y-114595238D01*
X191742857Y-114785714D01*
X191742857Y-115119047D01*
X191790476Y-115309523D01*
X191885714Y-115404761D01*
X191980952Y-115452380D01*
X192171428Y-115452380D01*
X191171428Y-114880952D02*
X191266666Y-114833333D01*
X191314285Y-114785714D01*
X191361904Y-114690476D01*
X191361904Y-114642857D01*
X191314285Y-114547619D01*
X191266666Y-114500000D01*
X191171428Y-114452380D01*
X190980952Y-114452380D01*
X190885714Y-114500000D01*
X190838095Y-114547619D01*
X190790476Y-114642857D01*
X190790476Y-114690476D01*
X190838095Y-114785714D01*
X190885714Y-114833333D01*
X190980952Y-114880952D01*
X191171428Y-114880952D01*
X191266666Y-114928571D01*
X191314285Y-114976190D01*
X191361904Y-115071428D01*
X191361904Y-115261904D01*
X191314285Y-115357142D01*
X191266666Y-115404761D01*
X191171428Y-115452380D01*
X190980952Y-115452380D01*
X190885714Y-115404761D01*
X190838095Y-115357142D01*
X190790476Y-115261904D01*
X190790476Y-115071428D01*
X190838095Y-114976190D01*
X190885714Y-114928571D01*
X190980952Y-114880952D01*
%TO.C,Q1*%
X167695238Y-93347619D02*
X167790476Y-93300000D01*
X167885714Y-93204761D01*
X168028571Y-93061904D01*
X168123809Y-93014285D01*
X168219047Y-93014285D01*
X168171428Y-93252380D02*
X168266666Y-93204761D01*
X168361904Y-93109523D01*
X168409523Y-92919047D01*
X168409523Y-92585714D01*
X168361904Y-92395238D01*
X168266666Y-92300000D01*
X168171428Y-92252380D01*
X167980952Y-92252380D01*
X167885714Y-92300000D01*
X167790476Y-92395238D01*
X167742857Y-92585714D01*
X167742857Y-92919047D01*
X167790476Y-93109523D01*
X167885714Y-93204761D01*
X167980952Y-93252380D01*
X168171428Y-93252380D01*
X166790476Y-93252380D02*
X167361904Y-93252380D01*
X167076190Y-93252380D02*
X167076190Y-92252380D01*
X167171428Y-92395238D01*
X167266666Y-92490476D01*
X167361904Y-92538095D01*
%TO.C,R9*%
X211232380Y-112433333D02*
X210756190Y-112100000D01*
X211232380Y-111861904D02*
X210232380Y-111861904D01*
X210232380Y-112242857D01*
X210280000Y-112338095D01*
X210327619Y-112385714D01*
X210422857Y-112433333D01*
X210565714Y-112433333D01*
X210660952Y-112385714D01*
X210708571Y-112338095D01*
X210756190Y-112242857D01*
X210756190Y-111861904D01*
X211232380Y-112909523D02*
X211232380Y-113100000D01*
X211184761Y-113195238D01*
X211137142Y-113242857D01*
X210994285Y-113338095D01*
X210803809Y-113385714D01*
X210422857Y-113385714D01*
X210327619Y-113338095D01*
X210280000Y-113290476D01*
X210232380Y-113195238D01*
X210232380Y-113004761D01*
X210280000Y-112909523D01*
X210327619Y-112861904D01*
X210422857Y-112814285D01*
X210660952Y-112814285D01*
X210756190Y-112861904D01*
X210803809Y-112909523D01*
X210851428Y-113004761D01*
X210851428Y-113195238D01*
X210803809Y-113290476D01*
X210756190Y-113338095D01*
X210660952Y-113385714D01*
%TO.C,Q6*%
X164495238Y-115547619D02*
X164590476Y-115500000D01*
X164685714Y-115404761D01*
X164828571Y-115261904D01*
X164923809Y-115214285D01*
X165019047Y-115214285D01*
X164971428Y-115452380D02*
X165066666Y-115404761D01*
X165161904Y-115309523D01*
X165209523Y-115119047D01*
X165209523Y-114785714D01*
X165161904Y-114595238D01*
X165066666Y-114500000D01*
X164971428Y-114452380D01*
X164780952Y-114452380D01*
X164685714Y-114500000D01*
X164590476Y-114595238D01*
X164542857Y-114785714D01*
X164542857Y-115119047D01*
X164590476Y-115309523D01*
X164685714Y-115404761D01*
X164780952Y-115452380D01*
X164971428Y-115452380D01*
X163685714Y-114452380D02*
X163876190Y-114452380D01*
X163971428Y-114500000D01*
X164019047Y-114547619D01*
X164114285Y-114690476D01*
X164161904Y-114880952D01*
X164161904Y-115261904D01*
X164114285Y-115357142D01*
X164066666Y-115404761D01*
X163971428Y-115452380D01*
X163780952Y-115452380D01*
X163685714Y-115404761D01*
X163638095Y-115357142D01*
X163590476Y-115261904D01*
X163590476Y-115023809D01*
X163638095Y-114928571D01*
X163685714Y-114880952D01*
X163780952Y-114833333D01*
X163971428Y-114833333D01*
X164066666Y-114880952D01*
X164114285Y-114928571D01*
X164161904Y-115023809D01*
%TO.C,R6*%
X170632380Y-112433333D02*
X170156190Y-112100000D01*
X170632380Y-111861904D02*
X169632380Y-111861904D01*
X169632380Y-112242857D01*
X169680000Y-112338095D01*
X169727619Y-112385714D01*
X169822857Y-112433333D01*
X169965714Y-112433333D01*
X170060952Y-112385714D01*
X170108571Y-112338095D01*
X170156190Y-112242857D01*
X170156190Y-111861904D01*
X169632380Y-113290476D02*
X169632380Y-113100000D01*
X169680000Y-113004761D01*
X169727619Y-112957142D01*
X169870476Y-112861904D01*
X170060952Y-112814285D01*
X170441904Y-112814285D01*
X170537142Y-112861904D01*
X170584761Y-112909523D01*
X170632380Y-113004761D01*
X170632380Y-113195238D01*
X170584761Y-113290476D01*
X170537142Y-113338095D01*
X170441904Y-113385714D01*
X170203809Y-113385714D01*
X170108571Y-113338095D01*
X170060952Y-113290476D01*
X170013333Y-113195238D01*
X170013333Y-113004761D01*
X170060952Y-112909523D01*
X170108571Y-112861904D01*
X170203809Y-112814285D01*
D13*
%TO.C,Q9*%
X205000000Y-111040000D02*
X204350000Y-111040000D01*
X205000000Y-114160000D02*
X205650000Y-114160000D01*
X205000000Y-111040000D02*
X205650000Y-111040000D01*
X205000000Y-114160000D02*
X203325000Y-114160000D01*
%TO.C,R2*%
X176265000Y-95427064D02*
X176265000Y-94972936D01*
X177735000Y-95427064D02*
X177735000Y-94972936D01*
%TO.C,Q5*%
X221600000Y-96760000D02*
X220950000Y-96760000D01*
X221600000Y-96760000D02*
X222250000Y-96760000D01*
X221600000Y-93640000D02*
X220950000Y-93640000D01*
X221600000Y-93640000D02*
X223275000Y-93640000D01*
%TO.C,Q3*%
X194600000Y-96760000D02*
X195250000Y-96760000D01*
X194600000Y-96760000D02*
X193950000Y-96760000D01*
X194600000Y-93640000D02*
X193950000Y-93640000D01*
X194600000Y-93640000D02*
X196275000Y-93640000D01*
%TO.C,R4*%
X203265000Y-95427064D02*
X203265000Y-94972936D01*
X204735000Y-95427064D02*
X204735000Y-94972936D01*
%TO.C,R3*%
X189665000Y-95427064D02*
X189665000Y-94972936D01*
X191135000Y-95427064D02*
X191135000Y-94972936D01*
%TO.C,R5*%
X218135000Y-95427064D02*
X218135000Y-94972936D01*
X216665000Y-95427064D02*
X216665000Y-94972936D01*
%TO.C,R1*%
X162665000Y-95427064D02*
X162665000Y-94972936D01*
X164135000Y-95427064D02*
X164135000Y-94972936D01*
%TO.C,R7*%
X182935000Y-112372936D02*
X182935000Y-112827064D01*
X181465000Y-112372936D02*
X181465000Y-112827064D01*
%TO.C,Q2*%
X181200000Y-96760000D02*
X180550000Y-96760000D01*
X181200000Y-96760000D02*
X181850000Y-96760000D01*
X181200000Y-93640000D02*
X180550000Y-93640000D01*
X181200000Y-93640000D02*
X182875000Y-93640000D01*
%TO.C,Q4*%
X208200000Y-96760000D02*
X208850000Y-96760000D01*
X208200000Y-93640000D02*
X209875000Y-93640000D01*
X208200000Y-93640000D02*
X207550000Y-93640000D01*
X208200000Y-96760000D02*
X207550000Y-96760000D01*
%TO.C,Q7*%
X178000000Y-111040000D02*
X178650000Y-111040000D01*
X178000000Y-114160000D02*
X176325000Y-114160000D01*
X178000000Y-111040000D02*
X177350000Y-111040000D01*
X178000000Y-114160000D02*
X178650000Y-114160000D01*
%TO.C,R10*%
X221865000Y-112372936D02*
X221865000Y-112827064D01*
X223335000Y-112372936D02*
X223335000Y-112827064D01*
%TO.C,R8*%
X196535000Y-112372936D02*
X196535000Y-112827064D01*
X195065000Y-112372936D02*
X195065000Y-112827064D01*
%TO.C,Q10*%
X218400000Y-114160000D02*
X219050000Y-114160000D01*
X218400000Y-114160000D02*
X216725000Y-114160000D01*
X218400000Y-111040000D02*
X219050000Y-111040000D01*
X218400000Y-111040000D02*
X217750000Y-111040000D01*
%TO.C,Q8*%
X191600000Y-111040000D02*
X192250000Y-111040000D01*
X191600000Y-114160000D02*
X189925000Y-114160000D01*
X191600000Y-114160000D02*
X192250000Y-114160000D01*
X191600000Y-111040000D02*
X190950000Y-111040000D01*
%TO.C,G\u002A\u002A\u002A*%
G36*
X178852354Y-85001468D02*
G01*
X178881944Y-85096236D01*
X178893977Y-85135516D01*
X178899153Y-85166136D01*
X178889562Y-85191218D01*
X178887677Y-85190750D01*
X178846752Y-85170477D01*
X178760975Y-85123752D01*
X178638980Y-85055405D01*
X178489402Y-84970264D01*
X178320875Y-84873158D01*
X177771990Y-84555098D01*
X177659258Y-84196780D01*
X177546526Y-83838461D01*
X176970680Y-83820295D01*
X176555828Y-82501619D01*
X176347827Y-82492288D01*
X176139827Y-82482957D01*
X176343189Y-83126099D01*
X176363501Y-83190468D01*
X176421862Y-83376993D01*
X176472174Y-83540107D01*
X176511611Y-83670501D01*
X176537345Y-83758866D01*
X176546551Y-83795894D01*
X176517467Y-83804175D01*
X176434492Y-83811534D01*
X176307554Y-83817350D01*
X176146591Y-83821172D01*
X175961543Y-83822546D01*
X175376535Y-83822546D01*
X175271876Y-83488336D01*
X175167217Y-83154125D01*
X174679190Y-83154125D01*
X174584285Y-83154582D01*
X174428660Y-83157535D01*
X174304076Y-83162777D01*
X174221405Y-83169775D01*
X174191518Y-83177998D01*
X174195360Y-83196569D01*
X174214639Y-83266541D01*
X174246455Y-83373850D01*
X174286652Y-83504251D01*
X174313598Y-83590531D01*
X174336130Y-83663399D01*
X174337164Y-83666744D01*
X174348646Y-83703876D01*
X174372738Y-83783254D01*
X174381785Y-83815291D01*
X174381777Y-83815342D01*
X174350663Y-83817602D01*
X174265935Y-83818727D01*
X174137451Y-83818717D01*
X173975070Y-83817571D01*
X173788650Y-83815291D01*
X173195160Y-83806632D01*
X172778270Y-82485704D01*
X172575429Y-82485704D01*
X172546598Y-82485734D01*
X172449460Y-82487896D01*
X172400230Y-82497150D01*
X172385979Y-82518593D01*
X172393784Y-82557321D01*
X172394278Y-82558985D01*
X172413739Y-82622405D01*
X172447377Y-82730032D01*
X172491492Y-82870208D01*
X172542384Y-83031273D01*
X172596354Y-83201570D01*
X172649701Y-83369440D01*
X172698727Y-83523224D01*
X172739731Y-83651263D01*
X172769015Y-83741900D01*
X172782878Y-83783475D01*
X172779985Y-83795016D01*
X172749763Y-83806170D01*
X172683334Y-83813403D01*
X172573847Y-83817088D01*
X172414451Y-83817598D01*
X172198293Y-83815305D01*
X171598564Y-83806632D01*
X171391440Y-83146168D01*
X171184315Y-82485704D01*
X170698047Y-82485704D01*
X170900871Y-83122872D01*
X170919551Y-83181689D01*
X170978209Y-83368205D01*
X171028815Y-83531857D01*
X171068506Y-83663212D01*
X171094420Y-83752835D01*
X171103694Y-83791293D01*
X171098594Y-83797560D01*
X171046113Y-83810627D01*
X170945906Y-83819329D01*
X170809271Y-83822468D01*
X170514847Y-83822390D01*
X170308811Y-83166238D01*
X170284888Y-83090715D01*
X170223916Y-82904201D01*
X170168372Y-82742472D01*
X170121519Y-82614562D01*
X170086618Y-82529504D01*
X170066931Y-82496332D01*
X170024588Y-82490934D01*
X169936052Y-82489170D01*
X169823553Y-82492098D01*
X169616019Y-82501619D01*
X169818034Y-83138211D01*
X169836809Y-83197469D01*
X169895238Y-83383143D01*
X169945705Y-83545407D01*
X169974511Y-83639526D01*
X169985354Y-83674954D01*
X170011327Y-83762479D01*
X170020769Y-83798674D01*
X170010963Y-83800565D01*
X169946158Y-83803839D01*
X169824375Y-83806956D01*
X169649895Y-83809882D01*
X169427000Y-83812585D01*
X169159972Y-83815033D01*
X168853093Y-83817194D01*
X168510645Y-83819034D01*
X168136909Y-83820522D01*
X167736168Y-83821625D01*
X167312702Y-83822311D01*
X166870794Y-83822546D01*
X163720100Y-83822546D01*
X163617806Y-83488336D01*
X163515511Y-83154125D01*
X163314991Y-83154125D01*
X163219113Y-83157342D01*
X163143459Y-83166825D01*
X163114471Y-83180380D01*
X163114583Y-83182154D01*
X163126027Y-83228551D01*
X163152581Y-83315960D01*
X163189010Y-83427059D01*
X163189165Y-83427517D01*
X163229607Y-83550387D01*
X163264069Y-83660840D01*
X163285105Y-83735015D01*
X163306662Y-83822546D01*
X161111978Y-83822546D01*
X161031019Y-83566267D01*
X161017844Y-83524157D01*
X160991268Y-83435842D01*
X161172867Y-83435842D01*
X161172913Y-83437361D01*
X161183733Y-83486590D01*
X161207811Y-83563160D01*
X161242754Y-83663399D01*
X162505535Y-83663399D01*
X162445654Y-83480379D01*
X162444756Y-83477630D01*
X162415486Y-83387177D01*
X162371337Y-83249637D01*
X162316472Y-83078024D01*
X162255050Y-82885353D01*
X162191234Y-82684639D01*
X162004060Y-82095119D01*
X162350191Y-82095119D01*
X162356704Y-82121592D01*
X162380154Y-82201978D01*
X162418230Y-82327555D01*
X162468358Y-82489933D01*
X162527965Y-82680722D01*
X162594476Y-82891531D01*
X162839130Y-83663399D01*
X162960886Y-83663399D01*
X162984388Y-83663211D01*
X163054448Y-83659800D01*
X163082642Y-83653455D01*
X163079727Y-83642396D01*
X163060940Y-83582959D01*
X163028580Y-83484567D01*
X162987153Y-83361018D01*
X162965198Y-83294944D01*
X162927454Y-83175175D01*
X162901389Y-83083832D01*
X162891664Y-83036751D01*
X162893627Y-83029027D01*
X162920943Y-83012749D01*
X162986947Y-83002262D01*
X163099940Y-82996645D01*
X163268220Y-82994978D01*
X163644776Y-82994978D01*
X163746613Y-83329188D01*
X163848451Y-83663399D01*
X164096031Y-83663399D01*
X164019713Y-83416719D01*
X163998127Y-83347376D01*
X163952354Y-83201579D01*
X163895756Y-83022295D01*
X163833519Y-82825943D01*
X163770830Y-82628937D01*
X163605476Y-82110441D01*
X163948809Y-82110441D01*
X163949834Y-82127622D01*
X163957274Y-82152672D01*
X163982368Y-82234214D01*
X164021853Y-82361129D01*
X164072893Y-82524342D01*
X164132655Y-82714778D01*
X164198306Y-82923361D01*
X164431560Y-83663399D01*
X164552840Y-83663399D01*
X164575943Y-83663253D01*
X164645877Y-83660527D01*
X164673943Y-83655441D01*
X164664918Y-83625041D01*
X164640093Y-83544693D01*
X164602856Y-83425186D01*
X164556592Y-83277307D01*
X164504690Y-83111839D01*
X164450535Y-82939570D01*
X164397515Y-82771283D01*
X164349016Y-82617765D01*
X164308426Y-82489800D01*
X164279131Y-82398173D01*
X164273866Y-82380912D01*
X164271926Y-82350228D01*
X164296142Y-82334087D01*
X164359014Y-82327910D01*
X164473041Y-82327116D01*
X164690035Y-82327676D01*
X165105671Y-83647484D01*
X165224106Y-83657363D01*
X165245358Y-83658744D01*
X165314609Y-83656321D01*
X165342541Y-83643162D01*
X165337322Y-83620749D01*
X165315607Y-83545442D01*
X165279960Y-83427892D01*
X165233578Y-83278608D01*
X165179661Y-83108095D01*
X165143271Y-82993764D01*
X165087453Y-82817760D01*
X165038070Y-82661307D01*
X164999441Y-82538100D01*
X164975884Y-82461832D01*
X164934987Y-82326557D01*
X165362259Y-82326557D01*
X165571773Y-82987020D01*
X165781287Y-83647484D01*
X165896125Y-83657363D01*
X165899691Y-83657658D01*
X165981982Y-83654522D01*
X166010962Y-83629232D01*
X166005227Y-83600913D01*
X165981417Y-83515169D01*
X165938888Y-83372923D01*
X165877396Y-83173385D01*
X165796697Y-82915765D01*
X165696546Y-82599270D01*
X165576700Y-82223110D01*
X165539522Y-82106727D01*
X165883644Y-82106727D01*
X165884957Y-82115182D01*
X165900778Y-82175797D01*
X165932274Y-82284096D01*
X165976614Y-82430663D01*
X166030965Y-82606084D01*
X166092494Y-82800941D01*
X166112325Y-82863198D01*
X166174931Y-83059854D01*
X166231760Y-83238524D01*
X166279421Y-83388541D01*
X166314526Y-83499240D01*
X166333684Y-83559953D01*
X166362167Y-83628055D01*
X166363921Y-83629232D01*
X166405679Y-83657259D01*
X166488296Y-83663399D01*
X166610568Y-83663399D01*
X166534249Y-83416719D01*
X166512676Y-83347402D01*
X166466926Y-83201605D01*
X166410364Y-83022315D01*
X166348175Y-82825953D01*
X166285541Y-82628937D01*
X166116495Y-82098327D01*
X166456577Y-82098327D01*
X166456620Y-82099844D01*
X166467429Y-82149514D01*
X166491520Y-82226318D01*
X166526463Y-82326557D01*
X167533666Y-82326557D01*
X167588605Y-82493662D01*
X167610863Y-82560987D01*
X167640529Y-82649451D01*
X167658227Y-82700554D01*
X167658911Y-82703255D01*
X167645558Y-82718099D01*
X167596372Y-82728669D01*
X167504404Y-82735527D01*
X167362707Y-82739231D01*
X167164332Y-82740341D01*
X166655753Y-82740341D01*
X166800980Y-83201870D01*
X166946208Y-83663399D01*
X167580111Y-83663399D01*
X167773421Y-83663065D01*
X167940657Y-83661495D01*
X168058761Y-83658047D01*
X168135467Y-83652081D01*
X168178512Y-83642960D01*
X168195630Y-83630045D01*
X168194558Y-83612697D01*
X168179075Y-83567051D01*
X168155872Y-83485379D01*
X168136643Y-83408762D01*
X167106371Y-83408762D01*
X167064404Y-83257572D01*
X167051002Y-83209393D01*
X167024227Y-83113747D01*
X167006346Y-83050679D01*
X167004631Y-83043702D01*
X167007067Y-83024543D01*
X167028909Y-83011166D01*
X167079005Y-83002546D01*
X167166206Y-82997658D01*
X167299363Y-82995477D01*
X167487325Y-82994978D01*
X167590247Y-82994459D01*
X167746434Y-82991451D01*
X167871258Y-82986211D01*
X167953955Y-82979257D01*
X167983760Y-82971105D01*
X167982519Y-82964357D01*
X167967157Y-82908541D01*
X167937037Y-82807742D01*
X167895664Y-82673544D01*
X167846542Y-82517534D01*
X167717955Y-82112989D01*
X168057327Y-82112989D01*
X168061609Y-82134898D01*
X168073089Y-82175335D01*
X168097697Y-82262118D01*
X168101793Y-82274147D01*
X168116846Y-82294515D01*
X168148348Y-82309007D01*
X168205740Y-82318899D01*
X168298463Y-82325467D01*
X168435960Y-82329987D01*
X168627673Y-82333735D01*
X169139837Y-82342471D01*
X169177845Y-82453875D01*
X169178972Y-82457188D01*
X169211572Y-82560198D01*
X169237323Y-82652810D01*
X169258792Y-82740341D01*
X168265804Y-82740341D01*
X168287991Y-82843787D01*
X168289053Y-82848694D01*
X168308353Y-82925835D01*
X168324228Y-82971105D01*
X168339117Y-82976239D01*
X168407997Y-82983675D01*
X168522582Y-82989615D01*
X168671788Y-82993552D01*
X168844534Y-82994978D01*
X169350790Y-82994978D01*
X169409408Y-83193912D01*
X169468027Y-83392847D01*
X168968513Y-83401576D01*
X168469000Y-83410305D01*
X168524776Y-83630045D01*
X168533242Y-83663399D01*
X169165962Y-83663399D01*
X169202493Y-83663359D01*
X169391512Y-83661820D01*
X169554911Y-83658307D01*
X169683181Y-83653180D01*
X169766814Y-83646800D01*
X169796299Y-83639526D01*
X169789504Y-83614673D01*
X169765533Y-83535884D01*
X169726817Y-83411781D01*
X169676003Y-83250780D01*
X169615735Y-83061296D01*
X169548659Y-82851744D01*
X169303730Y-82088857D01*
X169639534Y-82088857D01*
X169640054Y-82092656D01*
X169655298Y-82139375D01*
X169685078Y-82214797D01*
X169730622Y-82323800D01*
X169978952Y-82333135D01*
X170227282Y-82342471D01*
X170434724Y-83002297D01*
X170642165Y-83662123D01*
X170761526Y-83662761D01*
X170783114Y-83662482D01*
X170852531Y-83654718D01*
X170880153Y-83639526D01*
X170879196Y-83634517D01*
X170864323Y-83581775D01*
X170833675Y-83480563D01*
X170790128Y-83340177D01*
X170736559Y-83169911D01*
X170675842Y-82979063D01*
X170472266Y-82342471D01*
X170708803Y-82326557D01*
X170729061Y-82325105D01*
X170839111Y-82313770D01*
X170917138Y-82299926D01*
X170947356Y-82286240D01*
X170942778Y-82241906D01*
X170928515Y-82166879D01*
X170909407Y-82079877D01*
X171231797Y-82079877D01*
X171239297Y-82104708D01*
X171263794Y-82182848D01*
X171296472Y-82286240D01*
X171302820Y-82306326D01*
X171353804Y-82467029D01*
X171414176Y-82656845D01*
X171481366Y-82867659D01*
X171730150Y-83647484D01*
X171846621Y-83657363D01*
X171866146Y-83658653D01*
X171935351Y-83655786D01*
X171963561Y-83641448D01*
X171957098Y-83614750D01*
X171933716Y-83534085D01*
X171895716Y-83408247D01*
X171845669Y-83245645D01*
X171786147Y-83054689D01*
X171719719Y-82843787D01*
X171475407Y-82071920D01*
X171811536Y-82071920D01*
X172059281Y-82853953D01*
X172119115Y-83041829D01*
X172181658Y-83235924D01*
X172236021Y-83402199D01*
X172279486Y-83532424D01*
X172309333Y-83618369D01*
X172318659Y-83641448D01*
X172322844Y-83651805D01*
X172324754Y-83653215D01*
X172369762Y-83660177D01*
X172447195Y-83657553D01*
X172555729Y-83647484D01*
X172355079Y-83010892D01*
X172336520Y-82951911D01*
X172278500Y-82766160D01*
X172228431Y-82603822D01*
X172189144Y-82474212D01*
X172163473Y-82386642D01*
X172154250Y-82350429D01*
X172183708Y-82341185D01*
X172264486Y-82333582D01*
X172384202Y-82328444D01*
X172530474Y-82326557D01*
X172906878Y-82326557D01*
X173116160Y-82987020D01*
X173325442Y-83647484D01*
X173579966Y-83666744D01*
X173443480Y-83243330D01*
X173386617Y-83066127D01*
X173316496Y-82846054D01*
X173248056Y-82629876D01*
X173190292Y-82445917D01*
X173084451Y-82106727D01*
X173427253Y-82106727D01*
X173428567Y-82115182D01*
X173444387Y-82175797D01*
X173475883Y-82284096D01*
X173520223Y-82430663D01*
X173574574Y-82606084D01*
X173636103Y-82800941D01*
X173655934Y-82863198D01*
X173718540Y-83059854D01*
X173775369Y-83238524D01*
X173823030Y-83388541D01*
X173858135Y-83499240D01*
X173877293Y-83559953D01*
X173877691Y-83561223D01*
X173906178Y-83628660D01*
X173949850Y-83657382D01*
X174032768Y-83663399D01*
X174155902Y-83663399D01*
X174109690Y-83512208D01*
X174106718Y-83502528D01*
X174079881Y-83416336D01*
X174038161Y-83283532D01*
X173985314Y-83116014D01*
X173925089Y-82925680D01*
X173861240Y-82724426D01*
X173662336Y-82098327D01*
X174000186Y-82098327D01*
X174000218Y-82099632D01*
X174010877Y-82148994D01*
X174034859Y-82225543D01*
X174069532Y-82325007D01*
X175089632Y-82342471D01*
X175149202Y-82533449D01*
X175177424Y-82624700D01*
X175200292Y-82700345D01*
X175209241Y-82732384D01*
X175196758Y-82734143D01*
X175131699Y-82736604D01*
X175020465Y-82738568D01*
X174873714Y-82739870D01*
X174702102Y-82740341D01*
X174194495Y-82740341D01*
X174235785Y-82859702D01*
X174277076Y-82979063D01*
X175293160Y-82996497D01*
X175508704Y-83663399D01*
X175629758Y-83663399D01*
X175652719Y-83663254D01*
X175722438Y-83660529D01*
X175750207Y-83655441D01*
X175742775Y-83630636D01*
X175718382Y-83552510D01*
X175679482Y-83429034D01*
X175628640Y-83268323D01*
X175568419Y-83078493D01*
X175501381Y-82867659D01*
X175260540Y-82111022D01*
X175598098Y-82111022D01*
X175606388Y-82136758D01*
X175631982Y-82217614D01*
X175671735Y-82343830D01*
X175722897Y-82506658D01*
X175782717Y-82697351D01*
X175848445Y-82907161D01*
X176082710Y-83655441D01*
X176085023Y-83662829D01*
X176204384Y-83663114D01*
X176225833Y-83662836D01*
X176295603Y-83656133D01*
X176323744Y-83643226D01*
X176319723Y-83627252D01*
X176299632Y-83559738D01*
X176265777Y-83449862D01*
X176221652Y-83308639D01*
X176170754Y-83147082D01*
X176116578Y-82976206D01*
X176062619Y-82807025D01*
X176012374Y-82650554D01*
X175969338Y-82517806D01*
X175937007Y-82419796D01*
X175918876Y-82367539D01*
X175920306Y-82351821D01*
X175948851Y-82339232D01*
X176014811Y-82332509D01*
X176126902Y-82330864D01*
X176293839Y-82333504D01*
X176685304Y-82342471D01*
X177100988Y-83663399D01*
X177221639Y-83663399D01*
X177244549Y-83662962D01*
X177313409Y-83654785D01*
X177339969Y-83639526D01*
X177333206Y-83614696D01*
X177309299Y-83535920D01*
X177270669Y-83411819D01*
X177219958Y-83250810D01*
X177159806Y-83061313D01*
X177092854Y-82851744D01*
X176848062Y-82087835D01*
X176216195Y-82079192D01*
X176009475Y-82077027D01*
X175839081Y-82077193D01*
X175719451Y-82080330D01*
X175643880Y-82086784D01*
X175605663Y-82096900D01*
X175598098Y-82111022D01*
X175260540Y-82111022D01*
X175253159Y-82087835D01*
X174626673Y-82079204D01*
X174595677Y-82078811D01*
X174406904Y-82077950D01*
X174243366Y-82079763D01*
X174114667Y-82083960D01*
X174030406Y-82090245D01*
X174000186Y-82098327D01*
X173662336Y-82098327D01*
X173659003Y-82087835D01*
X173543128Y-82077956D01*
X173540554Y-82077742D01*
X173456363Y-82080718D01*
X173427253Y-82106727D01*
X173084451Y-82106727D01*
X173073590Y-82071920D01*
X171811536Y-82071920D01*
X171475407Y-82071920D01*
X171353210Y-82071920D01*
X171329220Y-82072075D01*
X171259462Y-82074810D01*
X171231797Y-82079877D01*
X170909407Y-82079877D01*
X170907659Y-82071920D01*
X170273596Y-82071920D01*
X170236354Y-82071949D01*
X170046959Y-82073045D01*
X169883032Y-82075538D01*
X169754120Y-82079175D01*
X169669772Y-82083700D01*
X169639534Y-82088857D01*
X169303730Y-82088857D01*
X169303402Y-82087835D01*
X168673368Y-82079197D01*
X168543066Y-82077456D01*
X168361176Y-82075605D01*
X168230340Y-82075891D01*
X168142546Y-82079043D01*
X168089786Y-82085791D01*
X168064050Y-82096863D01*
X168057327Y-82112989D01*
X167717955Y-82112989D01*
X167709960Y-82087835D01*
X167083268Y-82079204D01*
X167052101Y-82078809D01*
X166863311Y-82077950D01*
X166699764Y-82079765D01*
X166571060Y-82083961D01*
X166486797Y-82090246D01*
X166456577Y-82098327D01*
X166116495Y-82098327D01*
X166113152Y-82087835D01*
X165998398Y-82077956D01*
X165996505Y-82077796D01*
X165912699Y-82080699D01*
X165883644Y-82106727D01*
X165539522Y-82106727D01*
X165528403Y-82071920D01*
X164731509Y-82071920D01*
X164711974Y-82071921D01*
X164470521Y-82072221D01*
X164285090Y-82073409D01*
X164148554Y-82075993D01*
X164053786Y-82080480D01*
X163993657Y-82087378D01*
X163961041Y-82097196D01*
X163948809Y-82110441D01*
X163605476Y-82110441D01*
X163598267Y-82087835D01*
X162974414Y-82079204D01*
X162945708Y-82078833D01*
X162757096Y-82077743D01*
X162593608Y-82079072D01*
X162464875Y-82082575D01*
X162380526Y-82088006D01*
X162350191Y-82095119D01*
X162004060Y-82095119D01*
X161996694Y-82071920D01*
X161753728Y-82071920D01*
X161956656Y-82713688D01*
X161976594Y-82776870D01*
X162034925Y-82963291D01*
X162085219Y-83126346D01*
X162124647Y-83256713D01*
X162150378Y-83345074D01*
X162159584Y-83382109D01*
X162149420Y-83387488D01*
X162087719Y-83395918D01*
X161979405Y-83402664D01*
X161835299Y-83407140D01*
X161666226Y-83408762D01*
X161566661Y-83409320D01*
X161410610Y-83412707D01*
X161285746Y-83418652D01*
X161202891Y-83426562D01*
X161172867Y-83435842D01*
X160991268Y-83435842D01*
X160983239Y-83409161D01*
X160959118Y-83322307D01*
X160950060Y-83279801D01*
X160954604Y-83275298D01*
X161007074Y-83264830D01*
X161111616Y-83256718D01*
X161259856Y-83251476D01*
X161443419Y-83249614D01*
X161542972Y-83249210D01*
X161699027Y-83246756D01*
X161823895Y-83242448D01*
X161906753Y-83236716D01*
X161936777Y-83229991D01*
X161935667Y-83224504D01*
X161920345Y-83171205D01*
X161889251Y-83069599D01*
X161845240Y-82928838D01*
X161791167Y-82758077D01*
X161729885Y-82566468D01*
X161708511Y-82499837D01*
X161649340Y-82314146D01*
X161598346Y-82152325D01*
X161558387Y-82023547D01*
X161532317Y-81936988D01*
X161522993Y-81901821D01*
X161523143Y-81901690D01*
X161558791Y-81899782D01*
X161655170Y-81897856D01*
X161809538Y-81895923D01*
X162019157Y-81893993D01*
X162281286Y-81892077D01*
X162593185Y-81890184D01*
X162952112Y-81888325D01*
X163355329Y-81886511D01*
X163800095Y-81884751D01*
X164283669Y-81883055D01*
X164803312Y-81881435D01*
X165356283Y-81879900D01*
X165939842Y-81878460D01*
X166551248Y-81877126D01*
X167187762Y-81875907D01*
X167846643Y-81874815D01*
X168525151Y-81873859D01*
X169220546Y-81873050D01*
X176918100Y-81865028D01*
X176689781Y-81148862D01*
X176648262Y-81017888D01*
X176589097Y-80828393D01*
X176579801Y-80797962D01*
X176769358Y-80797962D01*
X176775891Y-80822794D01*
X176799732Y-80902652D01*
X176839108Y-81031064D01*
X176891986Y-81201602D01*
X176956333Y-81407835D01*
X177030113Y-81643335D01*
X177111293Y-81901672D01*
X177197840Y-82176417D01*
X177287719Y-82461140D01*
X177378897Y-82749412D01*
X177469339Y-83034804D01*
X177557012Y-83310885D01*
X177639882Y-83571228D01*
X177661685Y-83639526D01*
X177715916Y-83809402D01*
X177783078Y-84018977D01*
X177839335Y-84193526D01*
X177882654Y-84326617D01*
X177911001Y-84411823D01*
X177922341Y-84442712D01*
X177948444Y-84458349D01*
X178019226Y-84499813D01*
X178123307Y-84560428D01*
X178249434Y-84633624D01*
X178367188Y-84701836D01*
X178478007Y-84765986D01*
X178557988Y-84812232D01*
X178595012Y-84833564D01*
X178607680Y-84830786D01*
X178603776Y-84789377D01*
X178561053Y-84651939D01*
X178461132Y-84332330D01*
X178356950Y-84001357D01*
X178250304Y-83664567D01*
X178142991Y-83327504D01*
X178036807Y-82995713D01*
X177933549Y-82674741D01*
X177835014Y-82370132D01*
X177742999Y-82087432D01*
X177659300Y-81832187D01*
X177585714Y-81609942D01*
X177524038Y-81426242D01*
X177476069Y-81286634D01*
X177443604Y-81196661D01*
X177428438Y-81161870D01*
X177378340Y-81125182D01*
X177293219Y-81071622D01*
X177186238Y-81008608D01*
X177070137Y-80943176D01*
X176957658Y-80882361D01*
X176861541Y-80833197D01*
X176794528Y-80802719D01*
X176769358Y-80797962D01*
X176579801Y-80797962D01*
X176539285Y-80665330D01*
X176501381Y-80537235D01*
X176477941Y-80452642D01*
X176471523Y-80420089D01*
X176473975Y-80419794D01*
X176514983Y-80437036D01*
X176597925Y-80479824D01*
X176712591Y-80542290D01*
X176848767Y-80618563D01*
X176996241Y-80702774D01*
X177144801Y-80789053D01*
X177284234Y-80871531D01*
X177404329Y-80944337D01*
X177494873Y-81001603D01*
X177545654Y-81037459D01*
X177561006Y-81055714D01*
X177584379Y-81097620D01*
X177614262Y-81164923D01*
X177652006Y-81261563D01*
X177698963Y-81391481D01*
X177756484Y-81558617D01*
X177825921Y-81766910D01*
X177908625Y-82020302D01*
X178005947Y-82322731D01*
X178119240Y-82678139D01*
X178249855Y-83090466D01*
X178291369Y-83221834D01*
X178397941Y-83559215D01*
X178498436Y-83877559D01*
X178591215Y-84171659D01*
X178674635Y-84436307D01*
X178747059Y-84666296D01*
X178798784Y-84830786D01*
X178806845Y-84856419D01*
X178852354Y-85001468D01*
G37*
G36*
X163482589Y-82493662D02*
G01*
X163504830Y-82560921D01*
X163534666Y-82649842D01*
X163552600Y-82701564D01*
X163552000Y-82713253D01*
X163525051Y-82726529D01*
X163459023Y-82733851D01*
X163345763Y-82735908D01*
X163177117Y-82733394D01*
X162786562Y-82724426D01*
X162748572Y-82613023D01*
X162747448Y-82609715D01*
X162714859Y-82506703D01*
X162689113Y-82414088D01*
X162667644Y-82326557D01*
X163427651Y-82326557D01*
X163482589Y-82493662D01*
G37*
%TO.C,Q1*%
X167600000Y-93640000D02*
X166950000Y-93640000D01*
X167600000Y-96760000D02*
X166950000Y-96760000D01*
X167600000Y-96760000D02*
X168250000Y-96760000D01*
X167600000Y-93640000D02*
X169275000Y-93640000D01*
%TO.C,R9*%
X209935000Y-112372936D02*
X209935000Y-112827064D01*
X208465000Y-112372936D02*
X208465000Y-112827064D01*
%TO.C,Q6*%
X164400000Y-114160000D02*
X162725000Y-114160000D01*
X164400000Y-114160000D02*
X165050000Y-114160000D01*
X164400000Y-111040000D02*
X165050000Y-111040000D01*
X164400000Y-111040000D02*
X163750000Y-111040000D01*
%TO.C,R6*%
X167865000Y-112372936D02*
X167865000Y-112827064D01*
X169335000Y-112372936D02*
X169335000Y-112827064D01*
%TD*%
%LPC*%
%TO.C,G\u002A\u002A\u002A*%
G36*
X168608579Y-76388662D02*
G01*
X168505888Y-76522426D01*
X168378187Y-76676415D01*
X168231299Y-76843471D01*
X168071049Y-77016432D01*
X167903260Y-77188138D01*
X167668813Y-77410589D01*
X167269892Y-77740177D01*
X166871509Y-78008076D01*
X166474932Y-78213571D01*
X166081432Y-78355946D01*
X165692279Y-78434485D01*
X165471262Y-78450649D01*
X165095270Y-78430285D01*
X164734241Y-78351294D01*
X164394315Y-78216959D01*
X164081629Y-78030564D01*
X163802325Y-77795390D01*
X163562539Y-77514721D01*
X163368412Y-77191839D01*
X163325134Y-77100159D01*
X163239800Y-76877158D01*
X163186783Y-76652583D01*
X163162258Y-76406508D01*
X163162310Y-76299430D01*
X163352129Y-76299430D01*
X163366852Y-76519799D01*
X163398298Y-76703461D01*
X163415448Y-76766291D01*
X163539725Y-77085256D01*
X163716494Y-77381632D01*
X163937893Y-77645746D01*
X164196063Y-77867924D01*
X164483143Y-78038494D01*
X164534005Y-78062027D01*
X164676693Y-78123142D01*
X164807845Y-78173076D01*
X164904316Y-78202800D01*
X165028565Y-78227914D01*
X165399037Y-78258955D01*
X165774643Y-78225916D01*
X166154584Y-78129107D01*
X166538064Y-77968841D01*
X166924282Y-77745430D01*
X167312441Y-77459184D01*
X167701742Y-77110417D01*
X167729709Y-77082993D01*
X167990190Y-76813973D01*
X168241493Y-76531593D01*
X168461391Y-76260716D01*
X168472587Y-76238986D01*
X168469775Y-76201279D01*
X168441020Y-76145074D01*
X168380771Y-76060263D01*
X168283476Y-75936737D01*
X168273372Y-75924226D01*
X168075030Y-75693344D01*
X167849901Y-75454394D01*
X167613720Y-75222835D01*
X167382219Y-75014130D01*
X167171135Y-74843739D01*
X167066042Y-74769543D01*
X166854776Y-74637600D01*
X166621739Y-74509005D01*
X166385075Y-74392973D01*
X166162930Y-74298721D01*
X165973449Y-74235464D01*
X165897616Y-74217960D01*
X165672662Y-74188672D01*
X165390286Y-74178830D01*
X165256552Y-74179753D01*
X165113219Y-74185984D01*
X164997001Y-74200762D01*
X164886129Y-74227173D01*
X164758836Y-74268301D01*
X164725217Y-74280185D01*
X164424679Y-74411495D01*
X164162587Y-74578637D01*
X163918414Y-74794460D01*
X163827371Y-74894299D01*
X163646469Y-75144893D01*
X163499681Y-75422247D01*
X163400609Y-75702508D01*
X163372615Y-75852079D01*
X163354070Y-76068231D01*
X163352129Y-76299430D01*
X163162310Y-76299430D01*
X163162397Y-76119005D01*
X163165122Y-76057289D01*
X163202734Y-75722014D01*
X163281323Y-75424190D01*
X163406493Y-75151098D01*
X163583846Y-74890015D01*
X163818985Y-74628221D01*
X163969759Y-74487519D01*
X164208513Y-74309233D01*
X164470129Y-74169748D01*
X164774724Y-74057043D01*
X164988175Y-74009597D01*
X165248774Y-73984150D01*
X165526355Y-73983318D01*
X165798971Y-74007124D01*
X166044675Y-74055595D01*
X166222344Y-74110025D01*
X166618647Y-74276428D01*
X167016795Y-74504609D01*
X167413745Y-74792695D01*
X167806456Y-75138818D01*
X167809632Y-75141874D01*
X167943278Y-75275030D01*
X168086976Y-75425723D01*
X168232811Y-75584835D01*
X168372869Y-75743251D01*
X168499234Y-75891855D01*
X168603992Y-76021529D01*
X168679228Y-76123158D01*
X168717026Y-76187624D01*
X168715634Y-76210457D01*
X168701654Y-76238986D01*
X168680436Y-76282286D01*
X168608579Y-76388662D01*
G37*
G36*
X176679707Y-76335363D02*
G01*
X176676627Y-76503840D01*
X176669247Y-76630897D01*
X176655963Y-76731455D01*
X176635171Y-76820434D01*
X176605267Y-76912755D01*
X176486219Y-77190616D01*
X176291324Y-77508886D01*
X176051247Y-77789354D01*
X175772145Y-78026944D01*
X175460176Y-78216583D01*
X175121498Y-78353194D01*
X174762267Y-78431704D01*
X174714393Y-78437416D01*
X174328240Y-78446969D01*
X173936743Y-78392804D01*
X173541321Y-78275547D01*
X173143392Y-78095825D01*
X172744373Y-77854265D01*
X172345684Y-77551494D01*
X171948740Y-77188138D01*
X171851943Y-77090248D01*
X171687764Y-76916946D01*
X171534464Y-76746496D01*
X171397866Y-76586057D01*
X171283794Y-76442790D01*
X171198072Y-76323855D01*
X171146524Y-76236413D01*
X171145040Y-76230144D01*
X171377938Y-76230144D01*
X171390608Y-76260716D01*
X171470520Y-76363251D01*
X171808108Y-76760629D01*
X172158714Y-77119195D01*
X172517199Y-77435034D01*
X172878423Y-77704231D01*
X173237249Y-77922873D01*
X173588537Y-78087044D01*
X173927148Y-78192832D01*
X174073996Y-78220149D01*
X174241547Y-78241814D01*
X174408365Y-78255940D01*
X174553525Y-78260759D01*
X174656102Y-78254498D01*
X174935581Y-78197794D01*
X175217469Y-78110507D01*
X175463539Y-77994059D01*
X175688348Y-77841358D01*
X175906455Y-77645310D01*
X176067277Y-77468788D01*
X176262342Y-77188272D01*
X176397935Y-76889157D01*
X176477076Y-76564153D01*
X176502786Y-76205969D01*
X176498133Y-76039952D01*
X176463575Y-75770806D01*
X176389740Y-75517552D01*
X176270041Y-75253223D01*
X176200429Y-75130652D01*
X175991425Y-74852768D01*
X175733706Y-74613480D01*
X175432532Y-74417190D01*
X175093163Y-74268301D01*
X174998023Y-74236795D01*
X174884834Y-74206678D01*
X174772231Y-74189035D01*
X174638447Y-74180780D01*
X174461714Y-74178830D01*
X174340088Y-74180503D01*
X174081524Y-74198171D01*
X173878551Y-74235464D01*
X173774038Y-74267722D01*
X173563460Y-74350022D01*
X173330709Y-74457990D01*
X173093929Y-74582409D01*
X172871265Y-74714063D01*
X172680865Y-74843739D01*
X172669733Y-74852093D01*
X172457073Y-75025066D01*
X172224888Y-75235478D01*
X171988912Y-75467867D01*
X171764879Y-75706774D01*
X171568524Y-75936737D01*
X171493385Y-76031445D01*
X171423775Y-76125618D01*
X171387143Y-76188481D01*
X171377938Y-76230144D01*
X171145040Y-76230144D01*
X171134973Y-76187624D01*
X171135403Y-76186527D01*
X171174245Y-76121010D01*
X171250323Y-76018561D01*
X171355724Y-75888296D01*
X171482533Y-75739333D01*
X171622834Y-75580787D01*
X171768713Y-75421774D01*
X171912254Y-75271413D01*
X172045544Y-75138818D01*
X172222292Y-74975336D01*
X172617295Y-74655208D01*
X173015163Y-74393962D01*
X173412854Y-74193467D01*
X173807325Y-74055595D01*
X174042043Y-74008660D01*
X174313972Y-73983820D01*
X174591786Y-73983621D01*
X174853536Y-74008037D01*
X175077275Y-74057043D01*
X175279073Y-74127049D01*
X175553729Y-74255591D01*
X175798338Y-74418641D01*
X176033015Y-74628221D01*
X176202209Y-74809510D01*
X176361739Y-75018511D01*
X176487744Y-75239147D01*
X176593973Y-75492603D01*
X176627820Y-75590402D01*
X176651661Y-75677555D01*
X176666998Y-75768451D01*
X176675647Y-75878350D01*
X176679426Y-76022512D01*
X176680115Y-76205969D01*
X176680153Y-76216199D01*
X176679707Y-76335363D01*
G37*
G36*
X178913328Y-76537173D02*
G01*
X178892999Y-76814481D01*
X178858599Y-77048251D01*
X178770881Y-77408062D01*
X178595039Y-77909802D01*
X178365668Y-78380828D01*
X178086389Y-78817739D01*
X177760824Y-79217134D01*
X177392595Y-79575612D01*
X176985326Y-79889772D01*
X176542637Y-80156214D01*
X176068151Y-80371536D01*
X175565491Y-80532338D01*
X175038277Y-80635218D01*
X175017592Y-80637878D01*
X174805116Y-80654382D01*
X174551669Y-80659121D01*
X174277522Y-80652889D01*
X174002945Y-80636478D01*
X173748209Y-80610684D01*
X173533585Y-80576299D01*
X173051081Y-80451446D01*
X172519020Y-80253644D01*
X171991495Y-79994813D01*
X171472419Y-79676895D01*
X170965706Y-79301832D01*
X170912822Y-79257804D01*
X170785140Y-79145423D01*
X170634537Y-79007126D01*
X170475590Y-78856406D01*
X170322875Y-78706758D01*
X169926000Y-78310225D01*
X169529125Y-78707224D01*
X169436950Y-78798244D01*
X168939567Y-79248766D01*
X168436155Y-79636097D01*
X167924525Y-79961515D01*
X167402484Y-80226297D01*
X166867844Y-80431719D01*
X166318415Y-80579058D01*
X166201930Y-80600379D01*
X165946438Y-80631005D01*
X165658722Y-80649287D01*
X165357911Y-80655046D01*
X165063136Y-80648104D01*
X164793529Y-80628281D01*
X164568220Y-80595399D01*
X164505622Y-80582417D01*
X163979551Y-80438146D01*
X163483752Y-80238882D01*
X163021443Y-79987817D01*
X162595844Y-79688146D01*
X162210173Y-79343063D01*
X161867650Y-78955762D01*
X161571492Y-78529436D01*
X161324918Y-78067279D01*
X161131148Y-77572486D01*
X160993401Y-77048251D01*
X160977471Y-76958217D01*
X160948909Y-76704077D01*
X160934332Y-76414524D01*
X160934132Y-76337937D01*
X161128854Y-76337937D01*
X161138723Y-76603497D01*
X161158938Y-76841938D01*
X161189495Y-77034836D01*
X161246956Y-77269232D01*
X161415727Y-77771322D01*
X161638468Y-78243201D01*
X161912165Y-78680913D01*
X162233806Y-79080501D01*
X162600377Y-79438011D01*
X163008865Y-79749484D01*
X163456257Y-80010966D01*
X163866787Y-80191874D01*
X164359691Y-80345270D01*
X164865489Y-80437765D01*
X165379975Y-80469622D01*
X165898943Y-80441109D01*
X166418188Y-80352489D01*
X166933504Y-80204028D01*
X167440685Y-79995991D01*
X167935526Y-79728643D01*
X168033175Y-79668293D01*
X168313880Y-79483281D01*
X168577163Y-79289640D01*
X168836728Y-79076299D01*
X169106282Y-78832188D01*
X169399533Y-78546236D01*
X169926000Y-78018250D01*
X170452467Y-78546236D01*
X170494336Y-78587986D01*
X170669912Y-78758598D01*
X170849047Y-78926428D01*
X171019632Y-79080487D01*
X171169557Y-79209786D01*
X171286714Y-79303334D01*
X171328592Y-79334311D01*
X171826945Y-79671851D01*
X172320801Y-79947668D01*
X172815026Y-80163915D01*
X173314482Y-80322745D01*
X173824037Y-80426311D01*
X174098045Y-80458121D01*
X174612681Y-80470407D01*
X175118282Y-80422081D01*
X175610061Y-80315601D01*
X176083234Y-80153422D01*
X176533011Y-79938002D01*
X176954608Y-79671796D01*
X177343236Y-79357260D01*
X177694110Y-78996852D01*
X178002443Y-78593026D01*
X178263449Y-78148240D01*
X178265928Y-78143348D01*
X178478399Y-77654869D01*
X178628155Y-77154769D01*
X178714827Y-76646466D01*
X178738044Y-76133379D01*
X178697438Y-75618928D01*
X178592636Y-75106530D01*
X178558144Y-74984959D01*
X178382530Y-74505121D01*
X178151475Y-74056406D01*
X177863017Y-73635413D01*
X177515195Y-73238745D01*
X177268802Y-73005037D01*
X176863653Y-72689351D01*
X176426876Y-72428409D01*
X175954494Y-72219953D01*
X175442528Y-72061725D01*
X175360071Y-72041462D01*
X175241449Y-72015329D01*
X175130894Y-71996874D01*
X175013833Y-71984761D01*
X174875697Y-71977648D01*
X174701914Y-71974197D01*
X174477913Y-71973068D01*
X174467198Y-71973052D01*
X174236966Y-71973855D01*
X174055973Y-71977738D01*
X173909302Y-71985866D01*
X173782035Y-71999404D01*
X173659255Y-72019516D01*
X173526045Y-72047365D01*
X173234332Y-72121585D01*
X172690037Y-72309574D01*
X172158294Y-72559469D01*
X171638384Y-72871722D01*
X171129591Y-73246788D01*
X170631198Y-73685120D01*
X170142489Y-74187171D01*
X169926000Y-74426000D01*
X169709159Y-74187171D01*
X169441526Y-73903469D01*
X168948645Y-73437545D01*
X168446443Y-73035030D01*
X167933997Y-72695338D01*
X167410382Y-72417886D01*
X166874676Y-72202090D01*
X166325955Y-72047365D01*
X166320092Y-72046055D01*
X166187603Y-72018546D01*
X166064933Y-71998727D01*
X165937164Y-71985434D01*
X165789378Y-71977503D01*
X165606658Y-71973769D01*
X165374087Y-71973068D01*
X165240899Y-71973503D01*
X165046435Y-71975813D01*
X164894118Y-71981213D01*
X164769451Y-71991021D01*
X164657938Y-72006554D01*
X164545084Y-72029127D01*
X164416391Y-72060057D01*
X164025063Y-72174626D01*
X163553276Y-72364161D01*
X163118673Y-72602715D01*
X162714481Y-72894132D01*
X162333931Y-73242254D01*
X162092080Y-73509179D01*
X161782815Y-73929776D01*
X161529303Y-74383329D01*
X161331444Y-74870025D01*
X161189139Y-75390051D01*
X161161361Y-75562777D01*
X161140169Y-75799153D01*
X161129334Y-76063681D01*
X161128854Y-76337937D01*
X160934132Y-76337937D01*
X160933534Y-76109223D01*
X160946309Y-75807839D01*
X160972452Y-75530039D01*
X161011756Y-75295488D01*
X161145927Y-74805673D01*
X161335156Y-74328021D01*
X161576714Y-73884240D01*
X161873990Y-73468155D01*
X162230371Y-73073590D01*
X162490653Y-72829317D01*
X162797254Y-72584407D01*
X163120835Y-72374428D01*
X163481686Y-72184971D01*
X163907342Y-72008212D01*
X164385499Y-71870147D01*
X164883937Y-71788603D01*
X165411365Y-71761670D01*
X165427273Y-71761690D01*
X165970439Y-71795568D01*
X166510455Y-71893421D01*
X167045705Y-72054471D01*
X167574574Y-72277937D01*
X168095446Y-72563040D01*
X168606705Y-72909000D01*
X169106735Y-73315037D01*
X169593921Y-73780371D01*
X169926000Y-74122476D01*
X170258079Y-73780371D01*
X170272123Y-73765935D01*
X170759707Y-73302323D01*
X171260088Y-72898031D01*
X171771651Y-72553839D01*
X172292779Y-72270527D01*
X172821858Y-72048874D01*
X173357270Y-71889660D01*
X173897401Y-71793666D01*
X174440635Y-71761670D01*
X174782016Y-71773218D01*
X175317707Y-71840532D01*
X175828933Y-71967820D01*
X176315316Y-72154926D01*
X176776478Y-72401693D01*
X177212041Y-72707966D01*
X177621628Y-73073590D01*
X177961038Y-73447252D01*
X178261291Y-73862071D01*
X178505651Y-74304266D01*
X178697506Y-74780013D01*
X178840244Y-75295488D01*
X178858063Y-75385879D01*
X178891955Y-75640680D01*
X178912600Y-75930607D01*
X178917377Y-76133379D01*
X178919794Y-76235993D01*
X178913328Y-76537173D01*
G37*
G36*
X178453379Y-77229147D02*
G01*
X178306676Y-77696350D01*
X178099616Y-78142731D01*
X177831492Y-78570713D01*
X177721755Y-78718373D01*
X177379582Y-79108886D01*
X176999448Y-79446963D01*
X176581871Y-79732282D01*
X176127371Y-79964518D01*
X175636465Y-80143349D01*
X175109673Y-80268450D01*
X175035370Y-80279916D01*
X174807873Y-80299556D01*
X174543299Y-80305508D01*
X174260402Y-80298486D01*
X173977938Y-80279204D01*
X173714659Y-80248377D01*
X173489320Y-80206720D01*
X173111537Y-80101559D01*
X172589224Y-79900627D01*
X172074725Y-79638149D01*
X171570857Y-79315977D01*
X171080434Y-78935966D01*
X170606272Y-78499967D01*
X170151186Y-78009833D01*
X170095704Y-77946209D01*
X170014223Y-77856167D01*
X169954290Y-77794300D01*
X169926000Y-77771301D01*
X169913233Y-77779971D01*
X169864599Y-77827755D01*
X169790427Y-77907941D01*
X169700813Y-78009833D01*
X169443920Y-78295383D01*
X168986075Y-78746149D01*
X168509016Y-79146407D01*
X168017551Y-79492585D01*
X167516490Y-79781111D01*
X167010639Y-80008413D01*
X166955530Y-80029284D01*
X166449712Y-80185113D01*
X165941889Y-80279385D01*
X165436541Y-80313389D01*
X164938149Y-80288418D01*
X164451192Y-80205760D01*
X163980151Y-80066709D01*
X163529507Y-79872553D01*
X163103740Y-79624585D01*
X162707331Y-79324095D01*
X162344760Y-78972374D01*
X162020507Y-78570713D01*
X161929378Y-78437677D01*
X161680574Y-78004158D01*
X161492612Y-77551477D01*
X161364783Y-77077209D01*
X161296381Y-76578928D01*
X161288649Y-76159959D01*
X163002214Y-76159959D01*
X163019641Y-76522576D01*
X163093167Y-76868529D01*
X163104665Y-76905124D01*
X163256577Y-77275530D01*
X163460113Y-77608395D01*
X163712054Y-77900504D01*
X164009183Y-78148640D01*
X164348280Y-78349588D01*
X164726127Y-78500133D01*
X164843979Y-78531429D01*
X165105761Y-78572756D01*
X165391574Y-78587908D01*
X165677858Y-78576175D01*
X165941051Y-78536844D01*
X166330522Y-78421940D01*
X166732314Y-78244066D01*
X167134935Y-78007773D01*
X167534393Y-77715983D01*
X167926697Y-77371616D01*
X168307856Y-76977594D01*
X168673878Y-76536836D01*
X168917159Y-76221327D01*
X170934841Y-76221327D01*
X171180879Y-76542743D01*
X171233497Y-76609683D01*
X171393527Y-76798869D01*
X171580948Y-77004673D01*
X171784479Y-77215865D01*
X171992844Y-77421218D01*
X172194762Y-77609503D01*
X172378956Y-77769492D01*
X172534145Y-77889956D01*
X172786007Y-78057695D01*
X173191674Y-78281459D01*
X173595454Y-78445370D01*
X174002893Y-78551930D01*
X174038732Y-78558512D01*
X174426811Y-78594913D01*
X174813156Y-78568803D01*
X175188232Y-78480753D01*
X175211657Y-78473017D01*
X175559470Y-78324086D01*
X175874637Y-78125396D01*
X176153143Y-77883322D01*
X176390968Y-77604237D01*
X176584096Y-77294518D01*
X176728510Y-76960538D01*
X176820191Y-76608672D01*
X176855123Y-76245294D01*
X176829289Y-75876780D01*
X176781250Y-75631513D01*
X176686432Y-75330061D01*
X176551310Y-75055726D01*
X176368400Y-74794095D01*
X176130217Y-74530755D01*
X176097082Y-74497738D01*
X175953942Y-74362141D01*
X175829505Y-74260089D01*
X175705398Y-74177652D01*
X175563245Y-74100898D01*
X175527840Y-74083433D01*
X175237283Y-73959680D01*
X174959440Y-73881909D01*
X174671168Y-73845239D01*
X174349324Y-73844785D01*
X174208914Y-73853808D01*
X174034269Y-73871150D01*
X173880130Y-73892751D01*
X173768637Y-73915898D01*
X173590842Y-73972552D01*
X173286464Y-74096713D01*
X172976013Y-74253210D01*
X172681556Y-74431572D01*
X172671182Y-74438516D01*
X172442635Y-74607225D01*
X172192086Y-74817934D01*
X171931665Y-75058524D01*
X171673504Y-75316881D01*
X171429733Y-75580886D01*
X171212481Y-75838424D01*
X171033880Y-76077379D01*
X170934841Y-76221327D01*
X168917159Y-76221327D01*
X168818120Y-76077379D01*
X168810487Y-76066336D01*
X168629719Y-75826194D01*
X168410892Y-75568059D01*
X168166137Y-75304048D01*
X167907585Y-75046278D01*
X167647365Y-74806864D01*
X167397607Y-74597923D01*
X167170443Y-74431572D01*
X166988973Y-74317803D01*
X166681912Y-74151918D01*
X166372686Y-74014461D01*
X166083363Y-73915898D01*
X165997678Y-73897233D01*
X165850126Y-73875117D01*
X165677745Y-73856731D01*
X165502676Y-73844785D01*
X165463073Y-73843145D01*
X165146285Y-73847529D01*
X164860398Y-73888695D01*
X164582269Y-73971523D01*
X164288755Y-74100898D01*
X164257416Y-74116762D01*
X164120433Y-74193544D01*
X163997750Y-74278849D01*
X163870991Y-74386609D01*
X163721782Y-74530755D01*
X163608220Y-74649827D01*
X163489129Y-74785321D01*
X163389261Y-74909819D01*
X163322614Y-75006634D01*
X163270697Y-75100633D01*
X163129326Y-75436137D01*
X163039304Y-75793529D01*
X163002214Y-76159959D01*
X161288649Y-76159959D01*
X161286698Y-76054209D01*
X161296506Y-75854319D01*
X161322548Y-75578961D01*
X161365568Y-75328530D01*
X161430042Y-75079136D01*
X161520448Y-74806888D01*
X161710682Y-74365331D01*
X161962724Y-73935676D01*
X162266028Y-73539824D01*
X162616308Y-73182131D01*
X163009279Y-72866954D01*
X163440656Y-72598648D01*
X163906154Y-72381571D01*
X164133760Y-72297516D01*
X164351930Y-72232087D01*
X164568604Y-72185885D01*
X164800226Y-72156149D01*
X165063239Y-72140118D01*
X165374087Y-72135029D01*
X165478689Y-72135189D01*
X165751353Y-72140278D01*
X165982353Y-72154226D01*
X166188804Y-72179542D01*
X166387819Y-72218734D01*
X166596511Y-72274313D01*
X166831995Y-72348786D01*
X167222486Y-72501375D01*
X167656699Y-72718964D01*
X168093304Y-72984172D01*
X168522459Y-73289949D01*
X168934323Y-73629242D01*
X169319056Y-73995001D01*
X169666816Y-74380172D01*
X169760331Y-74491303D01*
X169842076Y-74585554D01*
X169900201Y-74649312D01*
X169926000Y-74672749D01*
X169950465Y-74650699D01*
X170007716Y-74588047D01*
X170088857Y-74494596D01*
X170185184Y-74380172D01*
X170505030Y-74023745D01*
X170887293Y-73656260D01*
X171297437Y-73314703D01*
X171725621Y-73006125D01*
X172162004Y-72737578D01*
X172596746Y-72516115D01*
X173020005Y-72348786D01*
X173103661Y-72321343D01*
X173328174Y-72253537D01*
X173531680Y-72203778D01*
X173731294Y-72169557D01*
X173944128Y-72148365D01*
X174187296Y-72137692D01*
X174477913Y-72135029D01*
X174779068Y-72139781D01*
X175043438Y-72155395D01*
X175275857Y-72184619D01*
X175492770Y-72230215D01*
X175710618Y-72294946D01*
X175945846Y-72381571D01*
X176394622Y-72589634D01*
X176827344Y-72856113D01*
X177221820Y-73169626D01*
X177573764Y-73525816D01*
X177878891Y-73920327D01*
X178132915Y-74348803D01*
X178331552Y-74806888D01*
X178392515Y-74984642D01*
X178465843Y-75239538D01*
X178516099Y-75486838D01*
X178547759Y-75750431D01*
X178565301Y-76054209D01*
X178568544Y-76222569D01*
X178567306Y-76245294D01*
X178540433Y-76738695D01*
X178453379Y-77229147D01*
G37*
%TD*%
D14*
%TO.C,J5*%
X215000000Y-99975000D03*
D15*
X217500000Y-99975000D03*
X220000000Y-99975000D03*
X222500000Y-99975000D03*
%TD*%
D16*
%TO.C,U1*%
X159512000Y-87122000D03*
X162052000Y-87122000D03*
D17*
X164592000Y-87122000D03*
D16*
X167132000Y-87122000D03*
X169672000Y-87122000D03*
X172212000Y-87122000D03*
X174752000Y-87122000D03*
D17*
X177292000Y-87122000D03*
D16*
X179832000Y-87122000D03*
X182372000Y-87122000D03*
X184912000Y-87122000D03*
X187452000Y-87122000D03*
D17*
X189992000Y-87122000D03*
D16*
X192532000Y-87122000D03*
X195072000Y-87122000D03*
X197612000Y-87122000D03*
X200152000Y-87122000D03*
D17*
X202692000Y-87122000D03*
D16*
X205232000Y-87122000D03*
X207772000Y-87122000D03*
X207772000Y-69342000D03*
X205232000Y-69342000D03*
D17*
X202692000Y-69342000D03*
D16*
X200152000Y-69342000D03*
X197612000Y-69342000D03*
X195072000Y-69342000D03*
X192532000Y-69342000D03*
D17*
X189992000Y-69342000D03*
D16*
X187452000Y-69342000D03*
X184912000Y-69342000D03*
X182372000Y-69342000D03*
X179832000Y-69342000D03*
D17*
X177292000Y-69342000D03*
D16*
X174752000Y-69342000D03*
X172212000Y-69342000D03*
X169672000Y-69342000D03*
X167132000Y-69342000D03*
D17*
X164592000Y-69342000D03*
D16*
X162052000Y-69342000D03*
X159512000Y-69342000D03*
X207542000Y-80772000D03*
D17*
X207542000Y-78232000D03*
D16*
X207542000Y-75692000D03*
%TD*%
D14*
%TO.C,J10*%
X215000000Y-106750000D03*
D15*
X217500000Y-106750000D03*
X220000000Y-106750000D03*
X222500000Y-106750000D03*
%TD*%
D18*
%TO.C,J11*%
X226043000Y-92610000D03*
D19*
X226043000Y-90110000D03*
X226043000Y-87610000D03*
%TD*%
D14*
%TO.C,J6*%
X161000000Y-106750000D03*
D15*
X163500000Y-106750000D03*
X166000000Y-106750000D03*
X168500000Y-106750000D03*
%TD*%
D20*
%TO.C,REF\u002A\u002A*%
X227076000Y-62484000D03*
%TD*%
D14*
%TO.C,J7*%
X174500000Y-106750000D03*
D15*
X177000000Y-106750000D03*
X179500000Y-106750000D03*
X182000000Y-106750000D03*
%TD*%
D14*
%TO.C,J3*%
X188000000Y-99975000D03*
D15*
X190500000Y-99975000D03*
X193000000Y-99975000D03*
X195500000Y-99975000D03*
%TD*%
D14*
%TO.C,J4*%
X201500000Y-99975000D03*
D15*
X204000000Y-99975000D03*
X206500000Y-99975000D03*
X209000000Y-99975000D03*
%TD*%
D14*
%TO.C,J1*%
X161000000Y-99975000D03*
D15*
X163500000Y-99975000D03*
X166000000Y-99975000D03*
X168500000Y-99975000D03*
%TD*%
D18*
%TO.C,J12*%
X226060000Y-81434000D03*
D19*
X226060000Y-78934000D03*
X226060000Y-76434000D03*
X226060000Y-73934000D03*
X226060000Y-71434000D03*
X226060000Y-68934000D03*
%TD*%
D14*
%TO.C,J2*%
X174500000Y-99975000D03*
D15*
X177000000Y-99975000D03*
X179500000Y-99975000D03*
X182000000Y-99975000D03*
%TD*%
D17*
%TO.C,J13*%
X217170000Y-81265000D03*
D16*
X217170000Y-78725000D03*
X217170000Y-76185000D03*
%TD*%
D14*
%TO.C,J9*%
X201500000Y-106750000D03*
D15*
X204000000Y-106750000D03*
X206500000Y-106750000D03*
X209000000Y-106750000D03*
%TD*%
D20*
%TO.C,REF\u002A\u002A*%
X227076000Y-113810051D03*
%TD*%
%TO.C,REF\u002A\u002A*%
X161036000Y-62484000D03*
%TD*%
D21*
%TO.C,J14*%
X215646000Y-63263000D03*
D22*
X213146000Y-63263000D03*
%TD*%
D14*
%TO.C,J8*%
X188000000Y-106750000D03*
D15*
X190500000Y-106750000D03*
X193000000Y-106750000D03*
X195500000Y-106750000D03*
%TD*%
D23*
%TO.C,Q9*%
X204062500Y-113550000D03*
X204062500Y-111650000D03*
X205937500Y-112600000D03*
%TD*%
D24*
%TO.C,R2*%
X177000000Y-96200000D03*
X177000000Y-94200000D03*
%TD*%
D25*
%TO.C,Q5*%
X222537500Y-94250000D03*
X222537500Y-96150000D03*
X220662500Y-95200000D03*
%TD*%
%TO.C,Q3*%
X195537500Y-94250000D03*
X195537500Y-96150000D03*
X193662500Y-95200000D03*
%TD*%
D24*
%TO.C,R4*%
X204000000Y-96200000D03*
X204000000Y-94200000D03*
%TD*%
%TO.C,R3*%
X190400000Y-96200000D03*
X190400000Y-94200000D03*
%TD*%
%TO.C,R5*%
X217400000Y-96200000D03*
X217400000Y-94200000D03*
%TD*%
%TO.C,R1*%
X163400000Y-96200000D03*
X163400000Y-94200000D03*
%TD*%
D26*
%TO.C,R7*%
X182200000Y-111600000D03*
X182200000Y-113600000D03*
%TD*%
D25*
%TO.C,Q2*%
X182137500Y-94250000D03*
X182137500Y-96150000D03*
X180262500Y-95200000D03*
%TD*%
%TO.C,Q4*%
X209137500Y-94250000D03*
X209137500Y-96150000D03*
X207262500Y-95200000D03*
%TD*%
D23*
%TO.C,Q7*%
X177062500Y-113550000D03*
X177062500Y-111650000D03*
X178937500Y-112600000D03*
%TD*%
D26*
%TO.C,R10*%
X222600000Y-111600000D03*
X222600000Y-113600000D03*
%TD*%
%TO.C,R8*%
X195800000Y-111600000D03*
X195800000Y-113600000D03*
%TD*%
D23*
%TO.C,Q10*%
X217462500Y-113550000D03*
X217462500Y-111650000D03*
X219337500Y-112600000D03*
%TD*%
%TO.C,Q8*%
X190662500Y-113550000D03*
X190662500Y-111650000D03*
X192537500Y-112600000D03*
%TD*%
D25*
%TO.C,Q1*%
X168537500Y-94250000D03*
X168537500Y-96150000D03*
X166662500Y-95200000D03*
%TD*%
D26*
%TO.C,R9*%
X209200000Y-111600000D03*
X209200000Y-113600000D03*
%TD*%
D23*
%TO.C,Q6*%
X163462500Y-113550000D03*
X163462500Y-111650000D03*
X165337500Y-112600000D03*
%TD*%
D26*
%TO.C,R6*%
X168600000Y-111600000D03*
X168600000Y-113600000D03*
%TD*%
M02*
