%TF.GenerationSoftware,KiCad,Pcbnew,(6.0.8)*%
%TF.CreationDate,2023-01-05T18:41:51-07:00*%
%TF.ProjectId,PicoIO,5069636f-494f-42e6-9b69-6361645f7063,rev?*%
%TF.SameCoordinates,Original*%
%TF.FileFunction,Soldermask,Bot*%
%TF.FilePolarity,Negative*%
%FSLAX46Y46*%
G04 Gerber Fmt 4.6, Leading zero omitted, Abs format (unit mm)*
G04 Created by KiCad (PCBNEW (6.0.8)) date 2023-01-05 18:41:51*
%MOMM*%
%LPD*%
G01*
G04 APERTURE LIST*
G04 Aperture macros list*
%AMRoundRect*
0 Rectangle with rounded corners*
0 $1 Rounding radius*
0 $2 $3 $4 $5 $6 $7 $8 $9 X,Y pos of 4 corners*
0 Add a 4 corners polygon primitive as box body*
4,1,4,$2,$3,$4,$5,$6,$7,$8,$9,$2,$3,0*
0 Add four circle primitives for the rounded corners*
1,1,$1+$1,$2,$3*
1,1,$1+$1,$4,$5*
1,1,$1+$1,$6,$7*
1,1,$1+$1,$8,$9*
0 Add four rect primitives between the rounded corners*
20,1,$1+$1,$2,$3,$4,$5,0*
20,1,$1+$1,$4,$5,$6,$7,0*
20,1,$1+$1,$6,$7,$8,$9,0*
20,1,$1+$1,$8,$9,$2,$3,0*%
G04 Aperture macros list end*
%ADD10RoundRect,0.250000X-0.600000X-0.725000X0.600000X-0.725000X0.600000X0.725000X-0.600000X0.725000X0*%
%ADD11O,1.700000X1.950000*%
%ADD12O,1.700000X1.700000*%
%ADD13R,1.700000X1.700000*%
%ADD14RoundRect,0.250000X0.725000X-0.600000X0.725000X0.600000X-0.725000X0.600000X-0.725000X-0.600000X0*%
%ADD15O,1.950000X1.700000*%
%ADD16C,3.200000*%
%ADD17RoundRect,0.250000X0.600000X0.750000X-0.600000X0.750000X-0.600000X-0.750000X0.600000X-0.750000X0*%
%ADD18O,1.700000X2.000000*%
%ADD19RoundRect,0.150000X-0.587500X-0.150000X0.587500X-0.150000X0.587500X0.150000X-0.587500X0.150000X0*%
%ADD20RoundRect,0.250000X0.450000X-0.350000X0.450000X0.350000X-0.450000X0.350000X-0.450000X-0.350000X0*%
%ADD21RoundRect,0.150000X0.587500X0.150000X-0.587500X0.150000X-0.587500X-0.150000X0.587500X-0.150000X0*%
%ADD22RoundRect,0.250000X-0.450000X0.350000X-0.450000X-0.350000X0.450000X-0.350000X0.450000X0.350000X0*%
G04 APERTURE END LIST*
%TO.C,G\u002A\u002A\u002A*%
G36*
X121088579Y-82921662D02*
G01*
X120985888Y-83055426D01*
X120858187Y-83209415D01*
X120711299Y-83376471D01*
X120551049Y-83549432D01*
X120383260Y-83721138D01*
X120148813Y-83943589D01*
X119749892Y-84273177D01*
X119351509Y-84541076D01*
X118954932Y-84746571D01*
X118561432Y-84888946D01*
X118172279Y-84967485D01*
X117951262Y-84983649D01*
X117575270Y-84963285D01*
X117214241Y-84884294D01*
X116874315Y-84749959D01*
X116561629Y-84563564D01*
X116282325Y-84328390D01*
X116042539Y-84047721D01*
X115848412Y-83724839D01*
X115805134Y-83633159D01*
X115719800Y-83410158D01*
X115666783Y-83185583D01*
X115642258Y-82939508D01*
X115642310Y-82832430D01*
X115832129Y-82832430D01*
X115846852Y-83052799D01*
X115878298Y-83236461D01*
X115895448Y-83299291D01*
X116019725Y-83618256D01*
X116196494Y-83914632D01*
X116417893Y-84178746D01*
X116676063Y-84400924D01*
X116963143Y-84571494D01*
X117014005Y-84595027D01*
X117156693Y-84656142D01*
X117287845Y-84706076D01*
X117384316Y-84735800D01*
X117508565Y-84760914D01*
X117879037Y-84791955D01*
X118254643Y-84758916D01*
X118634584Y-84662107D01*
X119018064Y-84501841D01*
X119404282Y-84278430D01*
X119792441Y-83992184D01*
X120181742Y-83643417D01*
X120209709Y-83615993D01*
X120470190Y-83346973D01*
X120721493Y-83064593D01*
X120941391Y-82793716D01*
X120952587Y-82771986D01*
X120949775Y-82734279D01*
X120921020Y-82678074D01*
X120860771Y-82593263D01*
X120763476Y-82469737D01*
X120753372Y-82457226D01*
X120555030Y-82226344D01*
X120329901Y-81987394D01*
X120093720Y-81755835D01*
X119862219Y-81547130D01*
X119651135Y-81376739D01*
X119546042Y-81302543D01*
X119334776Y-81170600D01*
X119101739Y-81042005D01*
X118865075Y-80925973D01*
X118642930Y-80831721D01*
X118453449Y-80768464D01*
X118377616Y-80750960D01*
X118152662Y-80721672D01*
X117870286Y-80711830D01*
X117736552Y-80712753D01*
X117593219Y-80718984D01*
X117477001Y-80733762D01*
X117366129Y-80760173D01*
X117238836Y-80801301D01*
X117205217Y-80813185D01*
X116904679Y-80944495D01*
X116642587Y-81111637D01*
X116398414Y-81327460D01*
X116307371Y-81427299D01*
X116126469Y-81677893D01*
X115979681Y-81955247D01*
X115880609Y-82235508D01*
X115852615Y-82385079D01*
X115834070Y-82601231D01*
X115832129Y-82832430D01*
X115642310Y-82832430D01*
X115642397Y-82652005D01*
X115645122Y-82590289D01*
X115682734Y-82255014D01*
X115761323Y-81957190D01*
X115886493Y-81684098D01*
X116063846Y-81423015D01*
X116298985Y-81161221D01*
X116449759Y-81020519D01*
X116688513Y-80842233D01*
X116950129Y-80702748D01*
X117254724Y-80590043D01*
X117468175Y-80542597D01*
X117728774Y-80517150D01*
X118006355Y-80516318D01*
X118278971Y-80540124D01*
X118524675Y-80588595D01*
X118702344Y-80643025D01*
X119098647Y-80809428D01*
X119496795Y-81037609D01*
X119893745Y-81325695D01*
X120286456Y-81671818D01*
X120289632Y-81674874D01*
X120423278Y-81808030D01*
X120566976Y-81958723D01*
X120712811Y-82117835D01*
X120852869Y-82276251D01*
X120979234Y-82424855D01*
X121083992Y-82554529D01*
X121159228Y-82656158D01*
X121197026Y-82720624D01*
X121195634Y-82743457D01*
X121181654Y-82771986D01*
X121160436Y-82815286D01*
X121088579Y-82921662D01*
G37*
G36*
X129159707Y-82868363D02*
G01*
X129156627Y-83036840D01*
X129149247Y-83163897D01*
X129135963Y-83264455D01*
X129115171Y-83353434D01*
X129085267Y-83445755D01*
X128966219Y-83723616D01*
X128771324Y-84041886D01*
X128531247Y-84322354D01*
X128252145Y-84559944D01*
X127940176Y-84749583D01*
X127601498Y-84886194D01*
X127242267Y-84964704D01*
X127194393Y-84970416D01*
X126808240Y-84979969D01*
X126416743Y-84925804D01*
X126021321Y-84808547D01*
X125623392Y-84628825D01*
X125224373Y-84387265D01*
X124825684Y-84084494D01*
X124428740Y-83721138D01*
X124331943Y-83623248D01*
X124167764Y-83449946D01*
X124014464Y-83279496D01*
X123877866Y-83119057D01*
X123763794Y-82975790D01*
X123678072Y-82856855D01*
X123626524Y-82769413D01*
X123625040Y-82763144D01*
X123857938Y-82763144D01*
X123870608Y-82793716D01*
X123950520Y-82896251D01*
X124288108Y-83293629D01*
X124638714Y-83652195D01*
X124997199Y-83968034D01*
X125358423Y-84237231D01*
X125717249Y-84455873D01*
X126068537Y-84620044D01*
X126407148Y-84725832D01*
X126553996Y-84753149D01*
X126721547Y-84774814D01*
X126888365Y-84788940D01*
X127033525Y-84793759D01*
X127136102Y-84787498D01*
X127415581Y-84730794D01*
X127697469Y-84643507D01*
X127943539Y-84527059D01*
X128168348Y-84374358D01*
X128386455Y-84178310D01*
X128547277Y-84001788D01*
X128742342Y-83721272D01*
X128877935Y-83422157D01*
X128957076Y-83097153D01*
X128982786Y-82738969D01*
X128978133Y-82572952D01*
X128943575Y-82303806D01*
X128869740Y-82050552D01*
X128750041Y-81786223D01*
X128680429Y-81663652D01*
X128471425Y-81385768D01*
X128213706Y-81146480D01*
X127912532Y-80950190D01*
X127573163Y-80801301D01*
X127478023Y-80769795D01*
X127364834Y-80739678D01*
X127252231Y-80722035D01*
X127118447Y-80713780D01*
X126941714Y-80711830D01*
X126820088Y-80713503D01*
X126561524Y-80731171D01*
X126358551Y-80768464D01*
X126254038Y-80800722D01*
X126043460Y-80883022D01*
X125810709Y-80990990D01*
X125573929Y-81115409D01*
X125351265Y-81247063D01*
X125160865Y-81376739D01*
X125149733Y-81385093D01*
X124937073Y-81558066D01*
X124704888Y-81768478D01*
X124468912Y-82000867D01*
X124244879Y-82239774D01*
X124048524Y-82469737D01*
X123973385Y-82564445D01*
X123903775Y-82658618D01*
X123867143Y-82721481D01*
X123857938Y-82763144D01*
X123625040Y-82763144D01*
X123614973Y-82720624D01*
X123615403Y-82719527D01*
X123654245Y-82654010D01*
X123730323Y-82551561D01*
X123835724Y-82421296D01*
X123962533Y-82272333D01*
X124102834Y-82113787D01*
X124248713Y-81954774D01*
X124392254Y-81804413D01*
X124525544Y-81671818D01*
X124702292Y-81508336D01*
X125097295Y-81188208D01*
X125495163Y-80926962D01*
X125892854Y-80726467D01*
X126287325Y-80588595D01*
X126522043Y-80541660D01*
X126793972Y-80516820D01*
X127071786Y-80516621D01*
X127333536Y-80541037D01*
X127557275Y-80590043D01*
X127759073Y-80660049D01*
X128033729Y-80788591D01*
X128278338Y-80951641D01*
X128513015Y-81161221D01*
X128682209Y-81342510D01*
X128841739Y-81551511D01*
X128967744Y-81772147D01*
X129073973Y-82025603D01*
X129107820Y-82123402D01*
X129131661Y-82210555D01*
X129146998Y-82301451D01*
X129155647Y-82411350D01*
X129159426Y-82555512D01*
X129160115Y-82738969D01*
X129160153Y-82749199D01*
X129159707Y-82868363D01*
G37*
G36*
X131393328Y-83070173D02*
G01*
X131372999Y-83347481D01*
X131338599Y-83581251D01*
X131250881Y-83941062D01*
X131075039Y-84442802D01*
X130845668Y-84913828D01*
X130566389Y-85350739D01*
X130240824Y-85750134D01*
X129872595Y-86108612D01*
X129465326Y-86422772D01*
X129022637Y-86689214D01*
X128548151Y-86904536D01*
X128045491Y-87065338D01*
X127518277Y-87168218D01*
X127497592Y-87170878D01*
X127285116Y-87187382D01*
X127031669Y-87192121D01*
X126757522Y-87185889D01*
X126482945Y-87169478D01*
X126228209Y-87143684D01*
X126013585Y-87109299D01*
X125531081Y-86984446D01*
X124999020Y-86786644D01*
X124471495Y-86527813D01*
X123952419Y-86209895D01*
X123445706Y-85834832D01*
X123392822Y-85790804D01*
X123265140Y-85678423D01*
X123114537Y-85540126D01*
X122955590Y-85389406D01*
X122802875Y-85239758D01*
X122406000Y-84843225D01*
X122009125Y-85240224D01*
X121916950Y-85331244D01*
X121419567Y-85781766D01*
X120916155Y-86169097D01*
X120404525Y-86494515D01*
X119882484Y-86759297D01*
X119347844Y-86964719D01*
X118798415Y-87112058D01*
X118681930Y-87133379D01*
X118426438Y-87164005D01*
X118138722Y-87182287D01*
X117837911Y-87188046D01*
X117543136Y-87181104D01*
X117273529Y-87161281D01*
X117048220Y-87128399D01*
X116985622Y-87115417D01*
X116459551Y-86971146D01*
X115963752Y-86771882D01*
X115501443Y-86520817D01*
X115075844Y-86221146D01*
X114690173Y-85876063D01*
X114347650Y-85488762D01*
X114051492Y-85062436D01*
X113804918Y-84600279D01*
X113611148Y-84105486D01*
X113473401Y-83581251D01*
X113457471Y-83491217D01*
X113428909Y-83237077D01*
X113414332Y-82947524D01*
X113414132Y-82870937D01*
X113608854Y-82870937D01*
X113618723Y-83136497D01*
X113638938Y-83374938D01*
X113669495Y-83567836D01*
X113726956Y-83802232D01*
X113895727Y-84304322D01*
X114118468Y-84776201D01*
X114392165Y-85213913D01*
X114713806Y-85613501D01*
X115080377Y-85971011D01*
X115488865Y-86282484D01*
X115936257Y-86543966D01*
X116346787Y-86724874D01*
X116839691Y-86878270D01*
X117345489Y-86970765D01*
X117859975Y-87002622D01*
X118378943Y-86974109D01*
X118898188Y-86885489D01*
X119413504Y-86737028D01*
X119920685Y-86528991D01*
X120415526Y-86261643D01*
X120513175Y-86201293D01*
X120793880Y-86016281D01*
X121057163Y-85822640D01*
X121316728Y-85609299D01*
X121586282Y-85365188D01*
X121879533Y-85079236D01*
X122406000Y-84551250D01*
X122932467Y-85079236D01*
X122974336Y-85120986D01*
X123149912Y-85291598D01*
X123329047Y-85459428D01*
X123499632Y-85613487D01*
X123649557Y-85742786D01*
X123766714Y-85836334D01*
X123808592Y-85867311D01*
X124306945Y-86204851D01*
X124800801Y-86480668D01*
X125295026Y-86696915D01*
X125794482Y-86855745D01*
X126304037Y-86959311D01*
X126578045Y-86991121D01*
X127092681Y-87003407D01*
X127598282Y-86955081D01*
X128090061Y-86848601D01*
X128563234Y-86686422D01*
X129013011Y-86471002D01*
X129434608Y-86204796D01*
X129823236Y-85890260D01*
X130174110Y-85529852D01*
X130482443Y-85126026D01*
X130743449Y-84681240D01*
X130745928Y-84676348D01*
X130958399Y-84187869D01*
X131108155Y-83687769D01*
X131194827Y-83179466D01*
X131218044Y-82666379D01*
X131177438Y-82151928D01*
X131072636Y-81639530D01*
X131038144Y-81517959D01*
X130862530Y-81038121D01*
X130631475Y-80589406D01*
X130343017Y-80168413D01*
X129995195Y-79771745D01*
X129748802Y-79538037D01*
X129343653Y-79222351D01*
X128906876Y-78961409D01*
X128434494Y-78752953D01*
X127922528Y-78594725D01*
X127840071Y-78574462D01*
X127721449Y-78548329D01*
X127610894Y-78529874D01*
X127493833Y-78517761D01*
X127355697Y-78510648D01*
X127181914Y-78507197D01*
X126957913Y-78506068D01*
X126947198Y-78506052D01*
X126716966Y-78506855D01*
X126535973Y-78510738D01*
X126389302Y-78518866D01*
X126262035Y-78532404D01*
X126139255Y-78552516D01*
X126006045Y-78580365D01*
X125714332Y-78654585D01*
X125170037Y-78842574D01*
X124638294Y-79092469D01*
X124118384Y-79404722D01*
X123609591Y-79779788D01*
X123111198Y-80218120D01*
X122622489Y-80720171D01*
X122406000Y-80959000D01*
X122189159Y-80720171D01*
X121921526Y-80436469D01*
X121428645Y-79970545D01*
X120926443Y-79568030D01*
X120413997Y-79228338D01*
X119890382Y-78950886D01*
X119354676Y-78735090D01*
X118805955Y-78580365D01*
X118800092Y-78579055D01*
X118667603Y-78551546D01*
X118544933Y-78531727D01*
X118417164Y-78518434D01*
X118269378Y-78510503D01*
X118086658Y-78506769D01*
X117854087Y-78506068D01*
X117720899Y-78506503D01*
X117526435Y-78508813D01*
X117374118Y-78514213D01*
X117249451Y-78524021D01*
X117137938Y-78539554D01*
X117025084Y-78562127D01*
X116896391Y-78593057D01*
X116505063Y-78707626D01*
X116033276Y-78897161D01*
X115598673Y-79135715D01*
X115194481Y-79427132D01*
X114813931Y-79775254D01*
X114572080Y-80042179D01*
X114262815Y-80462776D01*
X114009303Y-80916329D01*
X113811444Y-81403025D01*
X113669139Y-81923051D01*
X113641361Y-82095777D01*
X113620169Y-82332153D01*
X113609334Y-82596681D01*
X113608854Y-82870937D01*
X113414132Y-82870937D01*
X113413534Y-82642223D01*
X113426309Y-82340839D01*
X113452452Y-82063039D01*
X113491756Y-81828488D01*
X113625927Y-81338673D01*
X113815156Y-80861021D01*
X114056714Y-80417240D01*
X114353990Y-80001155D01*
X114710371Y-79606590D01*
X114970653Y-79362317D01*
X115277254Y-79117407D01*
X115600835Y-78907428D01*
X115961686Y-78717971D01*
X116387342Y-78541212D01*
X116865499Y-78403147D01*
X117363937Y-78321603D01*
X117891365Y-78294670D01*
X117907273Y-78294690D01*
X118450439Y-78328568D01*
X118990455Y-78426421D01*
X119525705Y-78587471D01*
X120054574Y-78810937D01*
X120575446Y-79096040D01*
X121086705Y-79442000D01*
X121586735Y-79848037D01*
X122073921Y-80313371D01*
X122406000Y-80655476D01*
X122738079Y-80313371D01*
X122752123Y-80298935D01*
X123239707Y-79835323D01*
X123740088Y-79431031D01*
X124251651Y-79086839D01*
X124772779Y-78803527D01*
X125301858Y-78581874D01*
X125837270Y-78422660D01*
X126377401Y-78326666D01*
X126920635Y-78294670D01*
X127262016Y-78306218D01*
X127797707Y-78373532D01*
X128308933Y-78500820D01*
X128795316Y-78687926D01*
X129256478Y-78934693D01*
X129692041Y-79240966D01*
X130101628Y-79606590D01*
X130441038Y-79980252D01*
X130741291Y-80395071D01*
X130985651Y-80837266D01*
X131177506Y-81313013D01*
X131320244Y-81828488D01*
X131338063Y-81918879D01*
X131371955Y-82173680D01*
X131392600Y-82463607D01*
X131397377Y-82666379D01*
X131399794Y-82768993D01*
X131393328Y-83070173D01*
G37*
G36*
X130933379Y-83762147D02*
G01*
X130786676Y-84229350D01*
X130579616Y-84675731D01*
X130311492Y-85103713D01*
X130201755Y-85251373D01*
X129859582Y-85641886D01*
X129479448Y-85979963D01*
X129061871Y-86265282D01*
X128607371Y-86497518D01*
X128116465Y-86676349D01*
X127589673Y-86801450D01*
X127515370Y-86812916D01*
X127287873Y-86832556D01*
X127023299Y-86838508D01*
X126740402Y-86831486D01*
X126457938Y-86812204D01*
X126194659Y-86781377D01*
X125969320Y-86739720D01*
X125591537Y-86634559D01*
X125069224Y-86433627D01*
X124554725Y-86171149D01*
X124050857Y-85848977D01*
X123560434Y-85468966D01*
X123086272Y-85032967D01*
X122631186Y-84542833D01*
X122575704Y-84479209D01*
X122494223Y-84389167D01*
X122434290Y-84327300D01*
X122406000Y-84304301D01*
X122393233Y-84312971D01*
X122344599Y-84360755D01*
X122270427Y-84440941D01*
X122180813Y-84542833D01*
X121923920Y-84828383D01*
X121466075Y-85279149D01*
X120989016Y-85679407D01*
X120497551Y-86025585D01*
X119996490Y-86314111D01*
X119490639Y-86541413D01*
X119435530Y-86562284D01*
X118929712Y-86718113D01*
X118421889Y-86812385D01*
X117916541Y-86846389D01*
X117418149Y-86821418D01*
X116931192Y-86738760D01*
X116460151Y-86599709D01*
X116009507Y-86405553D01*
X115583740Y-86157585D01*
X115187331Y-85857095D01*
X114824760Y-85505374D01*
X114500507Y-85103713D01*
X114409378Y-84970677D01*
X114160574Y-84537158D01*
X113972612Y-84084477D01*
X113844783Y-83610209D01*
X113776381Y-83111928D01*
X113768649Y-82692959D01*
X115482214Y-82692959D01*
X115499641Y-83055576D01*
X115573167Y-83401529D01*
X115584665Y-83438124D01*
X115736577Y-83808530D01*
X115940113Y-84141395D01*
X116192054Y-84433504D01*
X116489183Y-84681640D01*
X116828280Y-84882588D01*
X117206127Y-85033133D01*
X117323979Y-85064429D01*
X117585761Y-85105756D01*
X117871574Y-85120908D01*
X118157858Y-85109175D01*
X118421051Y-85069844D01*
X118810522Y-84954940D01*
X119212314Y-84777066D01*
X119614935Y-84540773D01*
X120014393Y-84248983D01*
X120406697Y-83904616D01*
X120787856Y-83510594D01*
X121153878Y-83069836D01*
X121397159Y-82754327D01*
X123414841Y-82754327D01*
X123660879Y-83075743D01*
X123713497Y-83142683D01*
X123873527Y-83331869D01*
X124060948Y-83537673D01*
X124264479Y-83748865D01*
X124472844Y-83954218D01*
X124674762Y-84142503D01*
X124858956Y-84302492D01*
X125014145Y-84422956D01*
X125266007Y-84590695D01*
X125671674Y-84814459D01*
X126075454Y-84978370D01*
X126482893Y-85084930D01*
X126518732Y-85091512D01*
X126906811Y-85127913D01*
X127293156Y-85101803D01*
X127668232Y-85013753D01*
X127691657Y-85006017D01*
X128039470Y-84857086D01*
X128354637Y-84658396D01*
X128633143Y-84416322D01*
X128870968Y-84137237D01*
X129064096Y-83827518D01*
X129208510Y-83493538D01*
X129300191Y-83141672D01*
X129335123Y-82778294D01*
X129309289Y-82409780D01*
X129261250Y-82164513D01*
X129166432Y-81863061D01*
X129031310Y-81588726D01*
X128848400Y-81327095D01*
X128610217Y-81063755D01*
X128577082Y-81030738D01*
X128433942Y-80895141D01*
X128309505Y-80793089D01*
X128185398Y-80710652D01*
X128043245Y-80633898D01*
X128007840Y-80616433D01*
X127717283Y-80492680D01*
X127439440Y-80414909D01*
X127151168Y-80378239D01*
X126829324Y-80377785D01*
X126688914Y-80386808D01*
X126514269Y-80404150D01*
X126360130Y-80425751D01*
X126248637Y-80448898D01*
X126070842Y-80505552D01*
X125766464Y-80629713D01*
X125456013Y-80786210D01*
X125161556Y-80964572D01*
X125151182Y-80971516D01*
X124922635Y-81140225D01*
X124672086Y-81350934D01*
X124411665Y-81591524D01*
X124153504Y-81849881D01*
X123909733Y-82113886D01*
X123692481Y-82371424D01*
X123513880Y-82610379D01*
X123414841Y-82754327D01*
X121397159Y-82754327D01*
X121298120Y-82610379D01*
X121290487Y-82599336D01*
X121109719Y-82359194D01*
X120890892Y-82101059D01*
X120646137Y-81837048D01*
X120387585Y-81579278D01*
X120127365Y-81339864D01*
X119877607Y-81130923D01*
X119650443Y-80964572D01*
X119468973Y-80850803D01*
X119161912Y-80684918D01*
X118852686Y-80547461D01*
X118563363Y-80448898D01*
X118477678Y-80430233D01*
X118330126Y-80408117D01*
X118157745Y-80389731D01*
X117982676Y-80377785D01*
X117943073Y-80376145D01*
X117626285Y-80380529D01*
X117340398Y-80421695D01*
X117062269Y-80504523D01*
X116768755Y-80633898D01*
X116737416Y-80649762D01*
X116600433Y-80726544D01*
X116477750Y-80811849D01*
X116350991Y-80919609D01*
X116201782Y-81063755D01*
X116088220Y-81182827D01*
X115969129Y-81318321D01*
X115869261Y-81442819D01*
X115802614Y-81539634D01*
X115750697Y-81633633D01*
X115609326Y-81969137D01*
X115519304Y-82326529D01*
X115482214Y-82692959D01*
X113768649Y-82692959D01*
X113766698Y-82587209D01*
X113776506Y-82387319D01*
X113802548Y-82111961D01*
X113845568Y-81861530D01*
X113910042Y-81612136D01*
X114000448Y-81339888D01*
X114190682Y-80898331D01*
X114442724Y-80468676D01*
X114746028Y-80072824D01*
X115096308Y-79715131D01*
X115489279Y-79399954D01*
X115920656Y-79131648D01*
X116386154Y-78914571D01*
X116613760Y-78830516D01*
X116831930Y-78765087D01*
X117048604Y-78718885D01*
X117280226Y-78689149D01*
X117543239Y-78673118D01*
X117854087Y-78668029D01*
X117958689Y-78668189D01*
X118231353Y-78673278D01*
X118462353Y-78687226D01*
X118668804Y-78712542D01*
X118867819Y-78751734D01*
X119076511Y-78807313D01*
X119311995Y-78881786D01*
X119702486Y-79034375D01*
X120136699Y-79251964D01*
X120573304Y-79517172D01*
X121002459Y-79822949D01*
X121414323Y-80162242D01*
X121799056Y-80528001D01*
X122146816Y-80913172D01*
X122240331Y-81024303D01*
X122322076Y-81118554D01*
X122380201Y-81182312D01*
X122406000Y-81205749D01*
X122430465Y-81183699D01*
X122487716Y-81121047D01*
X122568857Y-81027596D01*
X122665184Y-80913172D01*
X122985030Y-80556745D01*
X123367293Y-80189260D01*
X123777437Y-79847703D01*
X124205621Y-79539125D01*
X124642004Y-79270578D01*
X125076746Y-79049115D01*
X125500005Y-78881786D01*
X125583661Y-78854343D01*
X125808174Y-78786537D01*
X126011680Y-78736778D01*
X126211294Y-78702557D01*
X126424128Y-78681365D01*
X126667296Y-78670692D01*
X126957913Y-78668029D01*
X127259068Y-78672781D01*
X127523438Y-78688395D01*
X127755857Y-78717619D01*
X127972770Y-78763215D01*
X128190618Y-78827946D01*
X128425846Y-78914571D01*
X128874622Y-79122634D01*
X129307344Y-79389113D01*
X129701820Y-79702626D01*
X130053764Y-80058816D01*
X130358891Y-80453327D01*
X130612915Y-80881803D01*
X130811552Y-81339888D01*
X130872515Y-81517642D01*
X130945843Y-81772538D01*
X130996099Y-82019838D01*
X131027759Y-82283431D01*
X131045301Y-82587209D01*
X131048544Y-82755569D01*
X131047306Y-82778294D01*
X131020433Y-83271695D01*
X130933379Y-83762147D01*
G37*
%TD*%
D10*
%TO.C,J5*%
X167480000Y-106508000D03*
D11*
X169980000Y-106508000D03*
X172480000Y-106508000D03*
X174980000Y-106508000D03*
%TD*%
D12*
%TO.C,U1*%
X111992000Y-93655000D03*
X114532000Y-93655000D03*
D13*
X117072000Y-93655000D03*
D12*
X119612000Y-93655000D03*
X122152000Y-93655000D03*
X124692000Y-93655000D03*
X127232000Y-93655000D03*
D13*
X129772000Y-93655000D03*
D12*
X132312000Y-93655000D03*
X134852000Y-93655000D03*
X137392000Y-93655000D03*
X139932000Y-93655000D03*
D13*
X142472000Y-93655000D03*
D12*
X145012000Y-93655000D03*
X147552000Y-93655000D03*
X150092000Y-93655000D03*
X152632000Y-93655000D03*
D13*
X155172000Y-93655000D03*
D12*
X157712000Y-93655000D03*
X160252000Y-93655000D03*
X160252000Y-75875000D03*
X157712000Y-75875000D03*
D13*
X155172000Y-75875000D03*
D12*
X152632000Y-75875000D03*
X150092000Y-75875000D03*
X147552000Y-75875000D03*
X145012000Y-75875000D03*
D13*
X142472000Y-75875000D03*
D12*
X139932000Y-75875000D03*
X137392000Y-75875000D03*
X134852000Y-75875000D03*
X132312000Y-75875000D03*
D13*
X129772000Y-75875000D03*
D12*
X127232000Y-75875000D03*
X124692000Y-75875000D03*
X122152000Y-75875000D03*
X119612000Y-75875000D03*
D13*
X117072000Y-75875000D03*
D12*
X114532000Y-75875000D03*
X111992000Y-75875000D03*
X160022000Y-87305000D03*
D13*
X160022000Y-84765000D03*
D12*
X160022000Y-82225000D03*
%TD*%
D10*
%TO.C,J10*%
X167480000Y-113283000D03*
D11*
X169980000Y-113283000D03*
X172480000Y-113283000D03*
X174980000Y-113283000D03*
%TD*%
D14*
%TO.C,J11*%
X178523000Y-99143000D03*
D15*
X178523000Y-96643000D03*
X178523000Y-94143000D03*
%TD*%
D10*
%TO.C,J6*%
X113480000Y-113283000D03*
D11*
X115980000Y-113283000D03*
X118480000Y-113283000D03*
X120980000Y-113283000D03*
%TD*%
D16*
%TO.C,REF\u002A\u002A*%
X179556000Y-69017000D03*
%TD*%
D10*
%TO.C,J7*%
X126980000Y-113283000D03*
D11*
X129480000Y-113283000D03*
X131980000Y-113283000D03*
X134480000Y-113283000D03*
%TD*%
D10*
%TO.C,J3*%
X140480000Y-106508000D03*
D11*
X142980000Y-106508000D03*
X145480000Y-106508000D03*
X147980000Y-106508000D03*
%TD*%
D10*
%TO.C,J4*%
X153980000Y-106508000D03*
D11*
X156480000Y-106508000D03*
X158980000Y-106508000D03*
X161480000Y-106508000D03*
%TD*%
D10*
%TO.C,J1*%
X113480000Y-106508000D03*
D11*
X115980000Y-106508000D03*
X118480000Y-106508000D03*
X120980000Y-106508000D03*
%TD*%
D14*
%TO.C,J12*%
X178540000Y-87967000D03*
D15*
X178540000Y-85467000D03*
X178540000Y-82967000D03*
X178540000Y-80467000D03*
X178540000Y-77967000D03*
X178540000Y-75467000D03*
%TD*%
D10*
%TO.C,J2*%
X126980000Y-106508000D03*
D11*
X129480000Y-106508000D03*
X131980000Y-106508000D03*
X134480000Y-106508000D03*
%TD*%
D13*
%TO.C,J13*%
X169650000Y-87290000D03*
D12*
X169650000Y-84750000D03*
X169650000Y-82210000D03*
%TD*%
D10*
%TO.C,J9*%
X153980000Y-113283000D03*
D11*
X156480000Y-113283000D03*
X158980000Y-113283000D03*
X161480000Y-113283000D03*
%TD*%
D16*
%TO.C,REF\u002A\u002A*%
X179556000Y-120343051D03*
%TD*%
%TO.C,REF\u002A\u002A*%
X113516000Y-69017000D03*
%TD*%
D17*
%TO.C,J14*%
X168126000Y-69796000D03*
D18*
X165626000Y-69796000D03*
%TD*%
D10*
%TO.C,J8*%
X140480000Y-113283000D03*
D11*
X142980000Y-113283000D03*
X145480000Y-113283000D03*
X147980000Y-113283000D03*
%TD*%
D19*
%TO.C,Q9*%
X156542500Y-120083000D03*
X156542500Y-118183000D03*
X158417500Y-119133000D03*
%TD*%
D20*
%TO.C,R2*%
X129480000Y-102733000D03*
X129480000Y-100733000D03*
%TD*%
D21*
%TO.C,Q5*%
X175017500Y-100783000D03*
X175017500Y-102683000D03*
X173142500Y-101733000D03*
%TD*%
%TO.C,Q3*%
X148017500Y-100783000D03*
X148017500Y-102683000D03*
X146142500Y-101733000D03*
%TD*%
D20*
%TO.C,R4*%
X156480000Y-102733000D03*
X156480000Y-100733000D03*
%TD*%
%TO.C,R3*%
X142880000Y-102733000D03*
X142880000Y-100733000D03*
%TD*%
%TO.C,R5*%
X169880000Y-102733000D03*
X169880000Y-100733000D03*
%TD*%
%TO.C,R1*%
X115880000Y-102733000D03*
X115880000Y-100733000D03*
%TD*%
D22*
%TO.C,R7*%
X134680000Y-118133000D03*
X134680000Y-120133000D03*
%TD*%
D21*
%TO.C,Q2*%
X134617500Y-100783000D03*
X134617500Y-102683000D03*
X132742500Y-101733000D03*
%TD*%
%TO.C,Q4*%
X161617500Y-100783000D03*
X161617500Y-102683000D03*
X159742500Y-101733000D03*
%TD*%
D19*
%TO.C,Q7*%
X129542500Y-120083000D03*
X129542500Y-118183000D03*
X131417500Y-119133000D03*
%TD*%
D22*
%TO.C,R10*%
X175080000Y-118133000D03*
X175080000Y-120133000D03*
%TD*%
%TO.C,R8*%
X148280000Y-118133000D03*
X148280000Y-120133000D03*
%TD*%
D19*
%TO.C,Q10*%
X169942500Y-120083000D03*
X169942500Y-118183000D03*
X171817500Y-119133000D03*
%TD*%
%TO.C,Q8*%
X143142500Y-120083000D03*
X143142500Y-118183000D03*
X145017500Y-119133000D03*
%TD*%
D21*
%TO.C,Q1*%
X121017500Y-100783000D03*
X121017500Y-102683000D03*
X119142500Y-101733000D03*
%TD*%
D22*
%TO.C,R9*%
X161680000Y-118133000D03*
X161680000Y-120133000D03*
%TD*%
D19*
%TO.C,Q6*%
X115942500Y-120083000D03*
X115942500Y-118183000D03*
X117817500Y-119133000D03*
%TD*%
D22*
%TO.C,R6*%
X121080000Y-118133000D03*
X121080000Y-120133000D03*
%TD*%
M02*
