M48
; DRILL file {KiCad (6.0.8)} date Mon Jan 23 02:11:03 2023
; FORMAT={-:-/ absolute / inch / decimal}
; #@! TF.CreationDate,2023-01-23T02:11:03-07:00
; #@! TF.GenerationSoftware,Kicad,Pcbnew,(6.0.8)
; #@! TF.FileFunction,Plated,1,2,PTH
FMAT,2
INCH
; #@! TA.AperFunction,Plated,PTH,ViaDrill
T1C0.0157
; #@! TA.AperFunction,Plated,PTH,ComponentDrill
T2C0.0295
; #@! TA.AperFunction,Plated,PTH,ComponentDrill
T3C0.0315
; #@! TA.AperFunction,Plated,PTH,ComponentDrill
T4C0.0374
; #@! TA.AperFunction,Plated,PTH,ComponentDrill
T5C0.0394
; #@! TA.AperFunction,Plated,PTH,ComponentDrill
T6C0.0402
%
G90
G05
T1
X4.765Y-4.525
X4.822Y-4.275
X4.822Y-4.38
X4.8506Y-4.195
X4.95Y-3.96
X5.2789Y-3.9083
X5.295Y-4.58
X5.3496Y-4.275
X5.35Y-4.385
X5.3577Y-4.1148
X5.4806Y-3.96
X5.825Y-4.575
X5.8845Y-4.2795
X5.885Y-4.39
X5.8863Y-4.1237
X5.9806Y-3.93
X5.99Y-3.0685
X5.99Y-3.1079
X6.1124Y-3.155
X6.1518Y-3.155
X6.262Y-3.1134
X6.262Y-3.155
X6.2677Y-3.8377
X6.2999Y-3.8151
X6.36Y-4.525
X6.4Y-3.3564
X6.4005Y-3.3962
X6.4006Y-3.4365
X6.4008Y-3.4766
X6.4091Y-3.8791
X6.4094Y-3.9191
X6.4101Y-4.1199
X6.4205Y-4.275
X6.4205Y-4.39
X6.4785Y-3.6715
X6.515Y-4.0446
X6.59Y-3.6585
X6.7706Y-3.86
X6.81Y-3.86
X6.8146Y-4.6147
X6.8156Y-4.6541
X6.8298Y-4.0802
X6.94Y-4.2946
X6.95Y-3.5865
X6.97Y-4.1085
X6.98Y-3.6139
X7.0121Y-4.137
T2
X6.4905Y-3.3811
X6.4905Y-3.748
X6.4906Y-3.0142
X6.4906Y-3.1976
X6.4906Y-3.5646
X6.5405Y-3.3811
X6.5405Y-3.748
X6.5406Y-3.0142
X6.5406Y-3.1976
X6.5406Y-3.5646
X6.5905Y-3.3811
X6.5905Y-3.748
X6.5906Y-3.0142
X6.5906Y-3.1976
X6.5906Y-3.5646
X6.7094Y-3.0142
X6.7094Y-3.1976
X6.7094Y-3.3811
X6.7094Y-3.748
X6.7095Y-3.5646
X6.7594Y-3.0142
X6.7594Y-3.1976
X6.7594Y-3.3811
X6.7594Y-3.748
X6.7595Y-3.5646
X6.8094Y-3.0142
X6.8094Y-3.1976
X6.8094Y-3.3811
X6.8094Y-3.748
X6.8095Y-3.5646
T3
X4.455Y-4.0098
X4.465Y-4.6846
X4.755Y-4.0098
X4.765Y-4.6846
X4.9927Y-4.0098
X4.9953Y-4.685
X5.2927Y-4.0098
X5.2953Y-4.685
X5.525Y-4.685
X5.5285Y-4.0098
X5.825Y-4.685
X5.8285Y-4.0098
X6.0547Y-4.0098
X6.06Y-4.685
X6.3547Y-4.0098
X6.36Y-4.685
X6.59Y-4.685
X6.6Y-4.0098
X6.89Y-4.685
X6.9Y-4.0098
T4
X4.4677Y-4.1932
X4.4677Y-4.46
X4.5661Y-4.1932
X4.5661Y-4.46
X4.6646Y-4.1932
X4.6646Y-4.46
X4.763Y-4.1932
X4.763Y-4.46
X4.9992Y-4.1932
X4.9992Y-4.46
X5.0976Y-4.1932
X5.0976Y-4.46
X5.1961Y-4.1932
X5.1961Y-4.46
X5.2945Y-4.1932
X5.2945Y-4.46
X5.5307Y-4.1932
X5.5307Y-4.46
X5.6291Y-4.1932
X5.6291Y-4.46
X5.7276Y-4.1932
X5.7276Y-4.46
X5.826Y-4.1932
X5.826Y-4.46
X6.0622Y-4.1932
X6.0622Y-4.46
X6.1606Y-4.1932
X6.1606Y-4.46
X6.2591Y-4.1932
X6.2591Y-4.46
X6.3575Y-4.1932
X6.3575Y-4.46
X6.5937Y-4.1932
X6.5937Y-4.46
X6.6921Y-4.1932
X6.6921Y-4.46
X6.7906Y-4.1932
X6.7906Y-4.46
X6.889Y-4.1932
X6.889Y-4.46
X7.0285Y-3.7064
X7.0285Y-3.8048
X7.0285Y-3.9033
X7.0291Y-2.9711
X7.0291Y-3.0696
X7.0291Y-3.168
X7.0291Y-3.2664
X7.0291Y-3.3648
X7.0291Y-3.4633
T5
X6.5207Y-2.7479
X6.6191Y-2.7479
T6
X4.4091Y-2.9872
X4.4091Y-3.6872
X4.5091Y-2.9872
X4.5091Y-3.6872
X4.6091Y-2.9872
X4.6091Y-3.6872
X4.7091Y-2.9872
X4.7091Y-3.6872
X4.8091Y-2.9872
X4.8091Y-3.6872
X4.9091Y-2.9872
X4.9091Y-3.6872
X5.0091Y-2.9872
X5.0091Y-3.6872
X5.1091Y-2.9872
X5.1091Y-3.6872
X5.2091Y-2.9872
X5.2091Y-3.6872
X5.3091Y-2.9872
X5.3091Y-3.6872
X5.4091Y-2.9872
X5.4091Y-3.6872
X5.5091Y-2.9872
X5.5091Y-3.6872
X5.6091Y-2.9872
X5.6091Y-3.6872
X5.7091Y-2.9872
X5.7091Y-3.6872
X5.8091Y-2.9872
X5.8091Y-3.6872
X5.9091Y-2.9872
X5.9091Y-3.6872
X6.0091Y-2.9872
X6.0091Y-3.6872
X6.1091Y-2.9872
X6.1091Y-3.6872
X6.2091Y-2.9872
X6.2091Y-3.6872
X6.3091Y-2.9872
X6.3091Y-3.6872
T0
M30
