%TF.GenerationSoftware,KiCad,Pcbnew,(6.0.8)*%
%TF.CreationDate,2023-01-23T02:10:56-07:00*%
%TF.ProjectId,PicoIO-THT,5069636f-494f-42d5-9448-542e6b696361,rev?*%
%TF.SameCoordinates,Original*%
%TF.FileFunction,Legend,Bot*%
%TF.FilePolarity,Positive*%
%FSLAX46Y46*%
G04 Gerber Fmt 4.6, Leading zero omitted, Abs format (unit mm)*
G04 Created by KiCad (PCBNEW (6.0.8)) date 2023-01-23 02:10:56*
%MOMM*%
%LPD*%
G01*
G04 APERTURE LIST*
G04 Aperture macros list*
%AMRoundRect*
0 Rectangle with rounded corners*
0 $1 Rounding radius*
0 $2 $3 $4 $5 $6 $7 $8 $9 X,Y pos of 4 corners*
0 Add a 4 corners polygon primitive as box body*
4,1,4,$2,$3,$4,$5,$6,$7,$8,$9,$2,$3,0*
0 Add four circle primitives for the rounded corners*
1,1,$1+$1,$2,$3*
1,1,$1+$1,$4,$5*
1,1,$1+$1,$6,$7*
1,1,$1+$1,$8,$9*
0 Add four rect primitives between the rounded corners*
20,1,$1+$1,$2,$3,$4,$5,0*
20,1,$1+$1,$4,$5,$6,$7,0*
20,1,$1+$1,$6,$7,$8,$9,0*
20,1,$1+$1,$8,$9,$2,$3,0*%
G04 Aperture macros list end*
%ADD10C,0.182500*%
%ADD11C,0.300000*%
%ADD12C,0.150000*%
%ADD13C,0.120000*%
%ADD14O,1.950000X1.700000*%
%ADD15RoundRect,0.250000X0.725000X-0.600000X0.725000X0.600000X-0.725000X0.600000X-0.725000X-0.600000X0*%
%ADD16O,1.700000X1.700000*%
%ADD17R,1.700000X1.700000*%
%ADD18RoundRect,0.250000X-0.600000X-0.725000X0.600000X-0.725000X0.600000X0.725000X-0.600000X0.725000X0*%
%ADD19O,1.700000X1.950000*%
%ADD20C,1.600000*%
%ADD21O,1.600000X1.600000*%
%ADD22C,3.200000*%
%ADD23O,1.050000X1.500000*%
%ADD24R,1.050000X1.500000*%
%ADD25RoundRect,0.250000X0.600000X0.750000X-0.600000X0.750000X-0.600000X-0.750000X0.600000X-0.750000X0*%
%ADD26O,1.700000X2.000000*%
G04 APERTURE END LIST*
D10*
X149275714Y-71958238D02*
X149275714Y-71228238D01*
X148962857Y-71958238D02*
X148962857Y-71575857D01*
X148997619Y-71506333D01*
X149067142Y-71471571D01*
X149171428Y-71471571D01*
X149240952Y-71506333D01*
X149275714Y-71541095D01*
X148719523Y-71471571D02*
X148441428Y-71471571D01*
X148615238Y-71228238D02*
X148615238Y-71853952D01*
X148580476Y-71923476D01*
X148510952Y-71958238D01*
X148441428Y-71958238D01*
X148302380Y-71471571D02*
X148024285Y-71471571D01*
X148198095Y-71228238D02*
X148198095Y-71853952D01*
X148163333Y-71923476D01*
X148093809Y-71958238D01*
X148024285Y-71958238D01*
X147780952Y-71471571D02*
X147780952Y-72201571D01*
X147780952Y-71506333D02*
X147711428Y-71471571D01*
X147572380Y-71471571D01*
X147502857Y-71506333D01*
X147468095Y-71541095D01*
X147433333Y-71610619D01*
X147433333Y-71819190D01*
X147468095Y-71888714D01*
X147502857Y-71923476D01*
X147572380Y-71958238D01*
X147711428Y-71958238D01*
X147780952Y-71923476D01*
X147155238Y-71923476D02*
X147085714Y-71958238D01*
X146946666Y-71958238D01*
X146877142Y-71923476D01*
X146842380Y-71853952D01*
X146842380Y-71819190D01*
X146877142Y-71749666D01*
X146946666Y-71714904D01*
X147050952Y-71714904D01*
X147120476Y-71680142D01*
X147155238Y-71610619D01*
X147155238Y-71575857D01*
X147120476Y-71506333D01*
X147050952Y-71471571D01*
X146946666Y-71471571D01*
X146877142Y-71506333D01*
X146529523Y-71888714D02*
X146494761Y-71923476D01*
X146529523Y-71958238D01*
X146564285Y-71923476D01*
X146529523Y-71888714D01*
X146529523Y-71958238D01*
X146529523Y-71506333D02*
X146494761Y-71541095D01*
X146529523Y-71575857D01*
X146564285Y-71541095D01*
X146529523Y-71506333D01*
X146529523Y-71575857D01*
X145660476Y-71193476D02*
X146286190Y-72132047D01*
X144895714Y-71193476D02*
X145521428Y-72132047D01*
X144339523Y-71471571D02*
X144339523Y-72062523D01*
X144374285Y-72132047D01*
X144409047Y-72166809D01*
X144478571Y-72201571D01*
X144582857Y-72201571D01*
X144652380Y-72166809D01*
X144339523Y-71923476D02*
X144409047Y-71958238D01*
X144548095Y-71958238D01*
X144617619Y-71923476D01*
X144652380Y-71888714D01*
X144687142Y-71819190D01*
X144687142Y-71610619D01*
X144652380Y-71541095D01*
X144617619Y-71506333D01*
X144548095Y-71471571D01*
X144409047Y-71471571D01*
X144339523Y-71506333D01*
X143991904Y-71958238D02*
X143991904Y-71471571D01*
X143991904Y-71228238D02*
X144026666Y-71263000D01*
X143991904Y-71297761D01*
X143957142Y-71263000D01*
X143991904Y-71228238D01*
X143991904Y-71297761D01*
X143748571Y-71471571D02*
X143470476Y-71471571D01*
X143644285Y-71228238D02*
X143644285Y-71853952D01*
X143609523Y-71923476D01*
X143540000Y-71958238D01*
X143470476Y-71958238D01*
X143227142Y-71958238D02*
X143227142Y-71228238D01*
X142914285Y-71958238D02*
X142914285Y-71575857D01*
X142949047Y-71506333D01*
X143018571Y-71471571D01*
X143122857Y-71471571D01*
X143192380Y-71506333D01*
X143227142Y-71541095D01*
X142253809Y-71471571D02*
X142253809Y-71958238D01*
X142566666Y-71471571D02*
X142566666Y-71853952D01*
X142531904Y-71923476D01*
X142462380Y-71958238D01*
X142358095Y-71958238D01*
X142288571Y-71923476D01*
X142253809Y-71888714D01*
X141906190Y-71958238D02*
X141906190Y-71228238D01*
X141906190Y-71506333D02*
X141836666Y-71471571D01*
X141697619Y-71471571D01*
X141628095Y-71506333D01*
X141593333Y-71541095D01*
X141558571Y-71610619D01*
X141558571Y-71819190D01*
X141593333Y-71888714D01*
X141628095Y-71923476D01*
X141697619Y-71958238D01*
X141836666Y-71958238D01*
X141906190Y-71923476D01*
X141245714Y-71888714D02*
X141210952Y-71923476D01*
X141245714Y-71958238D01*
X141280476Y-71923476D01*
X141245714Y-71888714D01*
X141245714Y-71958238D01*
X140585238Y-71923476D02*
X140654761Y-71958238D01*
X140793809Y-71958238D01*
X140863333Y-71923476D01*
X140898095Y-71888714D01*
X140932857Y-71819190D01*
X140932857Y-71610619D01*
X140898095Y-71541095D01*
X140863333Y-71506333D01*
X140793809Y-71471571D01*
X140654761Y-71471571D01*
X140585238Y-71506333D01*
X140168095Y-71958238D02*
X140237619Y-71923476D01*
X140272380Y-71888714D01*
X140307142Y-71819190D01*
X140307142Y-71610619D01*
X140272380Y-71541095D01*
X140237619Y-71506333D01*
X140168095Y-71471571D01*
X140063809Y-71471571D01*
X139994285Y-71506333D01*
X139959523Y-71541095D01*
X139924761Y-71610619D01*
X139924761Y-71819190D01*
X139959523Y-71888714D01*
X139994285Y-71923476D01*
X140063809Y-71958238D01*
X140168095Y-71958238D01*
X139611904Y-71958238D02*
X139611904Y-71471571D01*
X139611904Y-71541095D02*
X139577142Y-71506333D01*
X139507619Y-71471571D01*
X139403333Y-71471571D01*
X139333809Y-71506333D01*
X139299047Y-71575857D01*
X139299047Y-71958238D01*
X139299047Y-71575857D02*
X139264285Y-71506333D01*
X139194761Y-71471571D01*
X139090476Y-71471571D01*
X139020952Y-71506333D01*
X138986190Y-71575857D01*
X138986190Y-71958238D01*
X138117142Y-71193476D02*
X138742857Y-72132047D01*
X137560952Y-71958238D02*
X137560952Y-71228238D01*
X137560952Y-71923476D02*
X137630476Y-71958238D01*
X137769523Y-71958238D01*
X137839047Y-71923476D01*
X137873809Y-71888714D01*
X137908571Y-71819190D01*
X137908571Y-71610619D01*
X137873809Y-71541095D01*
X137839047Y-71506333D01*
X137769523Y-71471571D01*
X137630476Y-71471571D01*
X137560952Y-71506333D01*
X137213333Y-71471571D02*
X137213333Y-72097285D01*
X137248095Y-72166809D01*
X137317619Y-72201571D01*
X137352380Y-72201571D01*
X137213333Y-71228238D02*
X137248095Y-71263000D01*
X137213333Y-71297761D01*
X137178571Y-71263000D01*
X137213333Y-71228238D01*
X137213333Y-71297761D01*
X136518095Y-71228238D02*
X136865714Y-71228238D01*
X136900476Y-71575857D01*
X136865714Y-71541095D01*
X136796190Y-71506333D01*
X136622380Y-71506333D01*
X136552857Y-71541095D01*
X136518095Y-71575857D01*
X136483333Y-71645380D01*
X136483333Y-71819190D01*
X136518095Y-71888714D01*
X136552857Y-71923476D01*
X136622380Y-71958238D01*
X136796190Y-71958238D01*
X136865714Y-71923476D01*
X136900476Y-71888714D01*
X136031428Y-71228238D02*
X135961904Y-71228238D01*
X135892380Y-71263000D01*
X135857619Y-71297761D01*
X135822857Y-71367285D01*
X135788095Y-71506333D01*
X135788095Y-71680142D01*
X135822857Y-71819190D01*
X135857619Y-71888714D01*
X135892380Y-71923476D01*
X135961904Y-71958238D01*
X136031428Y-71958238D01*
X136100952Y-71923476D01*
X136135714Y-71888714D01*
X136170476Y-71819190D01*
X136205238Y-71680142D01*
X136205238Y-71506333D01*
X136170476Y-71367285D01*
X136135714Y-71297761D01*
X136100952Y-71263000D01*
X136031428Y-71228238D01*
X135127619Y-71228238D02*
X135475238Y-71228238D01*
X135510000Y-71575857D01*
X135475238Y-71541095D01*
X135405714Y-71506333D01*
X135231904Y-71506333D01*
X135162380Y-71541095D01*
X135127619Y-71575857D01*
X135092857Y-71645380D01*
X135092857Y-71819190D01*
X135127619Y-71888714D01*
X135162380Y-71923476D01*
X135231904Y-71958238D01*
X135405714Y-71958238D01*
X135475238Y-71923476D01*
X135510000Y-71888714D01*
X134258571Y-71193476D02*
X134884285Y-72132047D01*
X134015238Y-71958238D02*
X134015238Y-71228238D01*
X133667619Y-71471571D02*
X133667619Y-71958238D01*
X133667619Y-71541095D02*
X133632857Y-71506333D01*
X133563333Y-71471571D01*
X133459047Y-71471571D01*
X133389523Y-71506333D01*
X133354761Y-71575857D01*
X133354761Y-71958238D01*
X133111428Y-71471571D02*
X132833333Y-71471571D01*
X133007142Y-71958238D02*
X133007142Y-71332523D01*
X132972380Y-71263000D01*
X132902857Y-71228238D01*
X132833333Y-71228238D01*
X132590000Y-71958238D02*
X132590000Y-71471571D01*
X132590000Y-71228238D02*
X132624761Y-71263000D01*
X132590000Y-71297761D01*
X132555238Y-71263000D01*
X132590000Y-71228238D01*
X132590000Y-71297761D01*
X132242380Y-71471571D02*
X132242380Y-71958238D01*
X132242380Y-71541095D02*
X132207619Y-71506333D01*
X132138095Y-71471571D01*
X132033809Y-71471571D01*
X131964285Y-71506333D01*
X131929523Y-71575857D01*
X131929523Y-71958238D01*
X131581904Y-71958238D02*
X131581904Y-71471571D01*
X131581904Y-71228238D02*
X131616666Y-71263000D01*
X131581904Y-71297761D01*
X131547142Y-71263000D01*
X131581904Y-71228238D01*
X131581904Y-71297761D01*
X131338571Y-71471571D02*
X131060476Y-71471571D01*
X131234285Y-71228238D02*
X131234285Y-71853952D01*
X131199523Y-71923476D01*
X131130000Y-71958238D01*
X131060476Y-71958238D01*
X130539047Y-71923476D02*
X130608571Y-71958238D01*
X130747619Y-71958238D01*
X130817142Y-71923476D01*
X130851904Y-71853952D01*
X130851904Y-71575857D01*
X130817142Y-71506333D01*
X130747619Y-71471571D01*
X130608571Y-71471571D01*
X130539047Y-71506333D01*
X130504285Y-71575857D01*
X130504285Y-71645380D01*
X130851904Y-71714904D01*
X130226190Y-71923476D02*
X130156666Y-71958238D01*
X130017619Y-71958238D01*
X129948095Y-71923476D01*
X129913333Y-71853952D01*
X129913333Y-71819190D01*
X129948095Y-71749666D01*
X130017619Y-71714904D01*
X130121904Y-71714904D01*
X130191428Y-71680142D01*
X130226190Y-71610619D01*
X130226190Y-71575857D01*
X130191428Y-71506333D01*
X130121904Y-71471571D01*
X130017619Y-71471571D01*
X129948095Y-71506333D01*
X129600476Y-71958238D02*
X129600476Y-71471571D01*
X129600476Y-71228238D02*
X129635238Y-71263000D01*
X129600476Y-71297761D01*
X129565714Y-71263000D01*
X129600476Y-71228238D01*
X129600476Y-71297761D01*
X129252857Y-71958238D02*
X129252857Y-71471571D01*
X129252857Y-71541095D02*
X129218095Y-71506333D01*
X129148571Y-71471571D01*
X129044285Y-71471571D01*
X128974761Y-71506333D01*
X128940000Y-71575857D01*
X128940000Y-71958238D01*
X128940000Y-71575857D02*
X128905238Y-71506333D01*
X128835714Y-71471571D01*
X128731428Y-71471571D01*
X128661904Y-71506333D01*
X128627142Y-71575857D01*
X128627142Y-71958238D01*
X127966666Y-71958238D02*
X127966666Y-71575857D01*
X128001428Y-71506333D01*
X128070952Y-71471571D01*
X128210000Y-71471571D01*
X128279523Y-71506333D01*
X127966666Y-71923476D02*
X128036190Y-71958238D01*
X128210000Y-71958238D01*
X128279523Y-71923476D01*
X128314285Y-71853952D01*
X128314285Y-71784428D01*
X128279523Y-71714904D01*
X128210000Y-71680142D01*
X128036190Y-71680142D01*
X127966666Y-71645380D01*
X127514761Y-71958238D02*
X127584285Y-71923476D01*
X127619047Y-71853952D01*
X127619047Y-71228238D01*
D11*
X149092666Y-68637666D02*
X148092666Y-68637666D01*
X148592666Y-70387666D02*
X148592666Y-68637666D01*
X147509333Y-70387666D02*
X147509333Y-69221000D01*
X147509333Y-69554333D02*
X147426000Y-69387666D01*
X147342666Y-69304333D01*
X147176000Y-69221000D01*
X147009333Y-69221000D01*
X146592666Y-69221000D02*
X146176000Y-70387666D01*
X145759333Y-69221000D02*
X146176000Y-70387666D01*
X146342666Y-70804333D01*
X146426000Y-70887666D01*
X146592666Y-70971000D01*
X143759333Y-70387666D02*
X143759333Y-68637666D01*
X142926000Y-69221000D02*
X142926000Y-70387666D01*
X142926000Y-69387666D02*
X142842666Y-69304333D01*
X142676000Y-69221000D01*
X142426000Y-69221000D01*
X142259333Y-69304333D01*
X142176000Y-69471000D01*
X142176000Y-70387666D01*
X141592666Y-69221000D02*
X140926000Y-69221000D01*
X141342666Y-70387666D02*
X141342666Y-68887666D01*
X141259333Y-68721000D01*
X141092666Y-68637666D01*
X140926000Y-68637666D01*
X140342666Y-70387666D02*
X140342666Y-69221000D01*
X140342666Y-68637666D02*
X140426000Y-68721000D01*
X140342666Y-68804333D01*
X140259333Y-68721000D01*
X140342666Y-68637666D01*
X140342666Y-68804333D01*
X139509333Y-69221000D02*
X139509333Y-70387666D01*
X139509333Y-69387666D02*
X139426000Y-69304333D01*
X139259333Y-69221000D01*
X139009333Y-69221000D01*
X138842666Y-69304333D01*
X138759333Y-69471000D01*
X138759333Y-70387666D01*
X137926000Y-70387666D02*
X137926000Y-69221000D01*
X137926000Y-68637666D02*
X138009333Y-68721000D01*
X137926000Y-68804333D01*
X137842666Y-68721000D01*
X137926000Y-68637666D01*
X137926000Y-68804333D01*
X137342666Y-69221000D02*
X136676000Y-69221000D01*
X137092666Y-68637666D02*
X137092666Y-70137666D01*
X137009333Y-70304333D01*
X136842666Y-70387666D01*
X136676000Y-70387666D01*
X135426000Y-70304333D02*
X135592666Y-70387666D01*
X135926000Y-70387666D01*
X136092666Y-70304333D01*
X136176000Y-70137666D01*
X136176000Y-69471000D01*
X136092666Y-69304333D01*
X135926000Y-69221000D01*
X135592666Y-69221000D01*
X135426000Y-69304333D01*
X135342666Y-69471000D01*
X135342666Y-69637666D01*
X136176000Y-69804333D01*
X134676000Y-70304333D02*
X134509333Y-70387666D01*
X134176000Y-70387666D01*
X134009333Y-70304333D01*
X133926000Y-70137666D01*
X133926000Y-70054333D01*
X134009333Y-69887666D01*
X134176000Y-69804333D01*
X134426000Y-69804333D01*
X134592666Y-69721000D01*
X134676000Y-69554333D01*
X134676000Y-69471000D01*
X134592666Y-69304333D01*
X134426000Y-69221000D01*
X134176000Y-69221000D01*
X134009333Y-69304333D01*
X133176000Y-70387666D02*
X133176000Y-69221000D01*
X133176000Y-68637666D02*
X133259333Y-68721000D01*
X133176000Y-68804333D01*
X133092666Y-68721000D01*
X133176000Y-68637666D01*
X133176000Y-68804333D01*
X132342666Y-70387666D02*
X132342666Y-69221000D01*
X132342666Y-69387666D02*
X132259333Y-69304333D01*
X132092666Y-69221000D01*
X131842666Y-69221000D01*
X131676000Y-69304333D01*
X131592666Y-69471000D01*
X131592666Y-70387666D01*
X131592666Y-69471000D02*
X131509333Y-69304333D01*
X131342666Y-69221000D01*
X131092666Y-69221000D01*
X130926000Y-69304333D01*
X130842666Y-69471000D01*
X130842666Y-70387666D01*
X129259333Y-70387666D02*
X129259333Y-69471000D01*
X129342666Y-69304333D01*
X129509333Y-69221000D01*
X129842666Y-69221000D01*
X130009333Y-69304333D01*
X129259333Y-70304333D02*
X129426000Y-70387666D01*
X129842666Y-70387666D01*
X130009333Y-70304333D01*
X130092666Y-70137666D01*
X130092666Y-69971000D01*
X130009333Y-69804333D01*
X129842666Y-69721000D01*
X129426000Y-69721000D01*
X129259333Y-69637666D01*
X128176000Y-70387666D02*
X128342666Y-70304333D01*
X128426000Y-70137666D01*
X128426000Y-68637666D01*
X127509333Y-70221000D02*
X127426000Y-70304333D01*
X127509333Y-70387666D01*
X127592666Y-70304333D01*
X127509333Y-70221000D01*
X127509333Y-70387666D01*
X127509333Y-69721000D02*
X127592666Y-68721000D01*
X127509333Y-68637666D01*
X127426000Y-68721000D01*
X127509333Y-69721000D01*
X127509333Y-68637666D01*
D12*
%TO.C,R1*%
X117133666Y-104672380D02*
X117467000Y-104196190D01*
X117705095Y-104672380D02*
X117705095Y-103672380D01*
X117324142Y-103672380D01*
X117228904Y-103720000D01*
X117181285Y-103767619D01*
X117133666Y-103862857D01*
X117133666Y-104005714D01*
X117181285Y-104100952D01*
X117228904Y-104148571D01*
X117324142Y-104196190D01*
X117705095Y-104196190D01*
X116181285Y-104672380D02*
X116752714Y-104672380D01*
X116467000Y-104672380D02*
X116467000Y-103672380D01*
X116562238Y-103815238D01*
X116657476Y-103910476D01*
X116752714Y-103958095D01*
%TO.C,R10*%
X171838857Y-117081380D02*
X172172190Y-116605190D01*
X172410285Y-117081380D02*
X172410285Y-116081380D01*
X172029333Y-116081380D01*
X171934095Y-116129000D01*
X171886476Y-116176619D01*
X171838857Y-116271857D01*
X171838857Y-116414714D01*
X171886476Y-116509952D01*
X171934095Y-116557571D01*
X172029333Y-116605190D01*
X172410285Y-116605190D01*
X170886476Y-117081380D02*
X171457904Y-117081380D01*
X171172190Y-117081380D02*
X171172190Y-116081380D01*
X171267428Y-116224238D01*
X171362666Y-116319476D01*
X171457904Y-116367095D01*
X170267428Y-116081380D02*
X170172190Y-116081380D01*
X170076952Y-116129000D01*
X170029333Y-116176619D01*
X169981714Y-116271857D01*
X169934095Y-116462333D01*
X169934095Y-116700428D01*
X169981714Y-116890904D01*
X170029333Y-116986142D01*
X170076952Y-117033761D01*
X170172190Y-117081380D01*
X170267428Y-117081380D01*
X170362666Y-117033761D01*
X170410285Y-116986142D01*
X170457904Y-116890904D01*
X170505523Y-116700428D01*
X170505523Y-116462333D01*
X170457904Y-116271857D01*
X170410285Y-116176619D01*
X170362666Y-116129000D01*
X170267428Y-116081380D01*
%TO.C,R9*%
X157900666Y-117081380D02*
X158234000Y-116605190D01*
X158472095Y-117081380D02*
X158472095Y-116081380D01*
X158091142Y-116081380D01*
X157995904Y-116129000D01*
X157948285Y-116176619D01*
X157900666Y-116271857D01*
X157900666Y-116414714D01*
X157948285Y-116509952D01*
X157995904Y-116557571D01*
X158091142Y-116605190D01*
X158472095Y-116605190D01*
X157424476Y-117081380D02*
X157234000Y-117081380D01*
X157138761Y-117033761D01*
X157091142Y-116986142D01*
X156995904Y-116843285D01*
X156948285Y-116652809D01*
X156948285Y-116271857D01*
X156995904Y-116176619D01*
X157043523Y-116129000D01*
X157138761Y-116081380D01*
X157329238Y-116081380D01*
X157424476Y-116129000D01*
X157472095Y-116176619D01*
X157519714Y-116271857D01*
X157519714Y-116509952D01*
X157472095Y-116605190D01*
X157424476Y-116652809D01*
X157329238Y-116700428D01*
X157138761Y-116700428D01*
X157043523Y-116652809D01*
X156995904Y-116605190D01*
X156948285Y-116509952D01*
%TO.C,R6*%
X117386666Y-117072380D02*
X117720000Y-116596190D01*
X117958095Y-117072380D02*
X117958095Y-116072380D01*
X117577142Y-116072380D01*
X117481904Y-116120000D01*
X117434285Y-116167619D01*
X117386666Y-116262857D01*
X117386666Y-116405714D01*
X117434285Y-116500952D01*
X117481904Y-116548571D01*
X117577142Y-116596190D01*
X117958095Y-116596190D01*
X116529523Y-116072380D02*
X116720000Y-116072380D01*
X116815238Y-116120000D01*
X116862857Y-116167619D01*
X116958095Y-116310476D01*
X117005714Y-116500952D01*
X117005714Y-116881904D01*
X116958095Y-116977142D01*
X116910476Y-117024761D01*
X116815238Y-117072380D01*
X116624761Y-117072380D01*
X116529523Y-117024761D01*
X116481904Y-116977142D01*
X116434285Y-116881904D01*
X116434285Y-116643809D01*
X116481904Y-116548571D01*
X116529523Y-116500952D01*
X116624761Y-116453333D01*
X116815238Y-116453333D01*
X116910476Y-116500952D01*
X116958095Y-116548571D01*
X117005714Y-116643809D01*
%TO.C,R7*%
X130856666Y-117081380D02*
X131190000Y-116605190D01*
X131428095Y-117081380D02*
X131428095Y-116081380D01*
X131047142Y-116081380D01*
X130951904Y-116129000D01*
X130904285Y-116176619D01*
X130856666Y-116271857D01*
X130856666Y-116414714D01*
X130904285Y-116509952D01*
X130951904Y-116557571D01*
X131047142Y-116605190D01*
X131428095Y-116605190D01*
X130523333Y-116081380D02*
X129856666Y-116081380D01*
X130285238Y-117081380D01*
%TO.C,R3*%
X144401666Y-104672380D02*
X144735000Y-104196190D01*
X144973095Y-104672380D02*
X144973095Y-103672380D01*
X144592142Y-103672380D01*
X144496904Y-103720000D01*
X144449285Y-103767619D01*
X144401666Y-103862857D01*
X144401666Y-104005714D01*
X144449285Y-104100952D01*
X144496904Y-104148571D01*
X144592142Y-104196190D01*
X144973095Y-104196190D01*
X144068333Y-103672380D02*
X143449285Y-103672380D01*
X143782619Y-104053333D01*
X143639761Y-104053333D01*
X143544523Y-104100952D01*
X143496904Y-104148571D01*
X143449285Y-104243809D01*
X143449285Y-104481904D01*
X143496904Y-104577142D01*
X143544523Y-104624761D01*
X143639761Y-104672380D01*
X143925476Y-104672380D01*
X144020714Y-104624761D01*
X144068333Y-104577142D01*
%TO.C,R2*%
X130791666Y-104672380D02*
X131125000Y-104196190D01*
X131363095Y-104672380D02*
X131363095Y-103672380D01*
X130982142Y-103672380D01*
X130886904Y-103720000D01*
X130839285Y-103767619D01*
X130791666Y-103862857D01*
X130791666Y-104005714D01*
X130839285Y-104100952D01*
X130886904Y-104148571D01*
X130982142Y-104196190D01*
X131363095Y-104196190D01*
X130410714Y-103767619D02*
X130363095Y-103720000D01*
X130267857Y-103672380D01*
X130029761Y-103672380D01*
X129934523Y-103720000D01*
X129886904Y-103767619D01*
X129839285Y-103862857D01*
X129839285Y-103958095D01*
X129886904Y-104100952D01*
X130458333Y-104672380D01*
X129839285Y-104672380D01*
%TO.C,R4*%
X157766666Y-104672380D02*
X158100000Y-104196190D01*
X158338095Y-104672380D02*
X158338095Y-103672380D01*
X157957142Y-103672380D01*
X157861904Y-103720000D01*
X157814285Y-103767619D01*
X157766666Y-103862857D01*
X157766666Y-104005714D01*
X157814285Y-104100952D01*
X157861904Y-104148571D01*
X157957142Y-104196190D01*
X158338095Y-104196190D01*
X156909523Y-104005714D02*
X156909523Y-104672380D01*
X157147619Y-103624761D02*
X157385714Y-104339047D01*
X156766666Y-104339047D01*
%TO.C,R5*%
X171616666Y-104672380D02*
X171950000Y-104196190D01*
X172188095Y-104672380D02*
X172188095Y-103672380D01*
X171807142Y-103672380D01*
X171711904Y-103720000D01*
X171664285Y-103767619D01*
X171616666Y-103862857D01*
X171616666Y-104005714D01*
X171664285Y-104100952D01*
X171711904Y-104148571D01*
X171807142Y-104196190D01*
X172188095Y-104196190D01*
X170711904Y-103672380D02*
X171188095Y-103672380D01*
X171235714Y-104148571D01*
X171188095Y-104100952D01*
X171092857Y-104053333D01*
X170854761Y-104053333D01*
X170759523Y-104100952D01*
X170711904Y-104148571D01*
X170664285Y-104243809D01*
X170664285Y-104481904D01*
X170711904Y-104577142D01*
X170759523Y-104624761D01*
X170854761Y-104672380D01*
X171092857Y-104672380D01*
X171188095Y-104624761D01*
X171235714Y-104577142D01*
%TO.C,R8*%
X144311666Y-117081380D02*
X144645000Y-116605190D01*
X144883095Y-117081380D02*
X144883095Y-116081380D01*
X144502142Y-116081380D01*
X144406904Y-116129000D01*
X144359285Y-116176619D01*
X144311666Y-116271857D01*
X144311666Y-116414714D01*
X144359285Y-116509952D01*
X144406904Y-116557571D01*
X144502142Y-116605190D01*
X144883095Y-116605190D01*
X143740238Y-116509952D02*
X143835476Y-116462333D01*
X143883095Y-116414714D01*
X143930714Y-116319476D01*
X143930714Y-116271857D01*
X143883095Y-116176619D01*
X143835476Y-116129000D01*
X143740238Y-116081380D01*
X143549761Y-116081380D01*
X143454523Y-116129000D01*
X143406904Y-116176619D01*
X143359285Y-116271857D01*
X143359285Y-116319476D01*
X143406904Y-116414714D01*
X143454523Y-116462333D01*
X143549761Y-116509952D01*
X143740238Y-116509952D01*
X143835476Y-116557571D01*
X143883095Y-116605190D01*
X143930714Y-116700428D01*
X143930714Y-116890904D01*
X143883095Y-116986142D01*
X143835476Y-117033761D01*
X143740238Y-117081380D01*
X143549761Y-117081380D01*
X143454523Y-117033761D01*
X143406904Y-116986142D01*
X143359285Y-116890904D01*
X143359285Y-116700428D01*
X143406904Y-116605190D01*
X143454523Y-116557571D01*
X143549761Y-116509952D01*
D13*
%TO.C,R1*%
X120237000Y-103220000D02*
X120237000Y-102890000D01*
X113697000Y-100810000D02*
X113697000Y-100480000D01*
X113697000Y-100480000D02*
X120237000Y-100480000D01*
X120237000Y-100480000D02*
X120237000Y-100810000D01*
X113697000Y-102890000D02*
X113697000Y-103220000D01*
X113697000Y-103220000D02*
X120237000Y-103220000D01*
%TO.C,R10*%
X174466000Y-117959000D02*
X174466000Y-117629000D01*
X174466000Y-120369000D02*
X167926000Y-120369000D01*
X174466000Y-120039000D02*
X174466000Y-120369000D01*
X167926000Y-120369000D02*
X167926000Y-120039000D01*
X167926000Y-117629000D02*
X167926000Y-117959000D01*
X174466000Y-117629000D02*
X167926000Y-117629000D01*
%TO.C,R9*%
X154464000Y-120369000D02*
X154464000Y-120039000D01*
X161004000Y-120369000D02*
X154464000Y-120369000D01*
X161004000Y-120039000D02*
X161004000Y-120369000D01*
X161004000Y-117629000D02*
X154464000Y-117629000D01*
X161004000Y-117959000D02*
X161004000Y-117629000D01*
X154464000Y-117629000D02*
X154464000Y-117959000D01*
%TO.C,R6*%
X120490000Y-120030000D02*
X120490000Y-120360000D01*
X113950000Y-120360000D02*
X113950000Y-120030000D01*
X120490000Y-117950000D02*
X120490000Y-117620000D01*
X113950000Y-117620000D02*
X113950000Y-117950000D01*
X120490000Y-120360000D02*
X113950000Y-120360000D01*
X120490000Y-117620000D02*
X113950000Y-117620000D01*
%TO.C,R7*%
X127420000Y-117629000D02*
X127420000Y-117959000D01*
X133960000Y-117959000D02*
X133960000Y-117629000D01*
X133960000Y-117629000D02*
X127420000Y-117629000D01*
X127420000Y-120369000D02*
X127420000Y-120039000D01*
X133960000Y-120039000D02*
X133960000Y-120369000D01*
X133960000Y-120369000D02*
X127420000Y-120369000D01*
%TO.C,R3*%
X147505000Y-103220000D02*
X147505000Y-102890000D01*
X147505000Y-100480000D02*
X147505000Y-100810000D01*
X140965000Y-100810000D02*
X140965000Y-100480000D01*
X140965000Y-103220000D02*
X147505000Y-103220000D01*
X140965000Y-102890000D02*
X140965000Y-103220000D01*
X140965000Y-100480000D02*
X147505000Y-100480000D01*
%TO.C,R2*%
X133895000Y-103220000D02*
X133895000Y-102890000D01*
X127355000Y-103220000D02*
X133895000Y-103220000D01*
X133895000Y-100480000D02*
X133895000Y-100810000D01*
X127355000Y-100810000D02*
X127355000Y-100480000D01*
X127355000Y-100480000D02*
X133895000Y-100480000D01*
X127355000Y-102890000D02*
X127355000Y-103220000D01*
%TO.C,R4*%
X154330000Y-102890000D02*
X154330000Y-103220000D01*
X154330000Y-100480000D02*
X160870000Y-100480000D01*
X154330000Y-103220000D02*
X160870000Y-103220000D01*
X154330000Y-100810000D02*
X154330000Y-100480000D01*
X160870000Y-100480000D02*
X160870000Y-100810000D01*
X160870000Y-103220000D02*
X160870000Y-102890000D01*
%TO.C,R5*%
X174720000Y-103220000D02*
X174720000Y-102890000D01*
X168180000Y-103220000D02*
X174720000Y-103220000D01*
X168180000Y-100480000D02*
X174720000Y-100480000D01*
X168180000Y-100810000D02*
X168180000Y-100480000D01*
X168180000Y-102890000D02*
X168180000Y-103220000D01*
X174720000Y-100480000D02*
X174720000Y-100810000D01*
%TO.C,R8*%
X147415000Y-120039000D02*
X147415000Y-120369000D01*
X140875000Y-117629000D02*
X140875000Y-117959000D01*
X147415000Y-120369000D02*
X140875000Y-120369000D01*
X147415000Y-117959000D02*
X147415000Y-117629000D01*
X147415000Y-117629000D02*
X140875000Y-117629000D01*
X140875000Y-120369000D02*
X140875000Y-120039000D01*
%TO.C,G\u002A\u002A\u002A*%
G36*
X140781264Y-81262768D02*
G01*
X140781988Y-81266208D01*
X140787645Y-81294176D01*
X140798608Y-81348851D01*
X140814633Y-81429018D01*
X140835481Y-81533463D01*
X140860908Y-81660972D01*
X140890674Y-81810330D01*
X140924536Y-81980325D01*
X140962253Y-82169740D01*
X141003584Y-82377363D01*
X141048286Y-82601980D01*
X141096118Y-82842375D01*
X141146839Y-83097335D01*
X141200206Y-83365645D01*
X141255977Y-83646092D01*
X141313912Y-83937462D01*
X141373769Y-84238539D01*
X141435305Y-84548111D01*
X141498280Y-84864963D01*
X141523936Y-84994053D01*
X141586332Y-85307982D01*
X141647180Y-85614089D01*
X141706240Y-85911162D01*
X141763270Y-86197992D01*
X141818030Y-86473367D01*
X141870278Y-86736077D01*
X141919774Y-86984911D01*
X141966277Y-87218656D01*
X142009545Y-87436104D01*
X142049338Y-87636043D01*
X142085415Y-87817261D01*
X142117535Y-87978549D01*
X142145457Y-88118695D01*
X142168939Y-88236488D01*
X142187741Y-88330718D01*
X142201623Y-88400173D01*
X142210342Y-88443643D01*
X142213659Y-88459917D01*
X142213887Y-88463673D01*
X142211028Y-88468037D01*
X142202767Y-88471772D01*
X142187140Y-88474926D01*
X142162184Y-88477548D01*
X142125937Y-88479687D01*
X142076434Y-88481391D01*
X142011713Y-88482710D01*
X141929809Y-88483692D01*
X141828759Y-88484386D01*
X141706601Y-88484841D01*
X141561371Y-88485106D01*
X141391105Y-88485229D01*
X141193840Y-88485259D01*
X140168058Y-88485259D01*
X140152589Y-88409233D01*
X140152380Y-88408204D01*
X140139296Y-88343543D01*
X140121424Y-88254681D01*
X140099054Y-88143080D01*
X140072475Y-88010202D01*
X140041977Y-87857508D01*
X140007851Y-87686458D01*
X139970387Y-87498514D01*
X139929874Y-87295138D01*
X139886603Y-87077791D01*
X139840863Y-86847934D01*
X139792944Y-86607028D01*
X139743137Y-86356534D01*
X139691731Y-86097914D01*
X139639016Y-85832630D01*
X139585283Y-85562142D01*
X139530822Y-85287911D01*
X139475921Y-85011400D01*
X139420872Y-84734069D01*
X139365964Y-84457379D01*
X139311488Y-84182792D01*
X139257732Y-83911769D01*
X139204988Y-83645771D01*
X139153546Y-83386260D01*
X139103694Y-83134697D01*
X139055724Y-82892543D01*
X139009925Y-82661260D01*
X138966587Y-82442308D01*
X138926000Y-82237149D01*
X138888454Y-82047244D01*
X138854239Y-81874055D01*
X138823646Y-81719043D01*
X138796964Y-81583668D01*
X138774482Y-81469393D01*
X138756492Y-81377679D01*
X138743283Y-81309987D01*
X138735145Y-81267777D01*
X138732367Y-81252513D01*
X138734086Y-81248723D01*
X138741465Y-81244907D01*
X138756477Y-81241645D01*
X138781061Y-81238895D01*
X138817157Y-81236614D01*
X138866704Y-81234761D01*
X138931639Y-81233292D01*
X139013904Y-81232166D01*
X139115435Y-81231340D01*
X139238173Y-81230771D01*
X139384057Y-81230417D01*
X139555024Y-81230236D01*
X139753015Y-81230185D01*
X140773663Y-81230185D01*
X140781264Y-81262768D01*
G37*
G36*
X138405276Y-85488435D02*
G01*
X138402266Y-85623181D01*
X138396970Y-85748108D01*
X138389437Y-85856862D01*
X138379713Y-85943087D01*
X138339009Y-86166977D01*
X138261876Y-86457652D01*
X138159343Y-86734417D01*
X138031402Y-86997294D01*
X137878042Y-87246301D01*
X137699256Y-87481460D01*
X137698933Y-87481845D01*
X137511255Y-87683161D01*
X137301271Y-87867145D01*
X137070354Y-88033143D01*
X136819875Y-88180501D01*
X136551205Y-88308566D01*
X136265716Y-88416683D01*
X135964779Y-88504198D01*
X135649766Y-88570459D01*
X135322048Y-88614810D01*
X135264705Y-88619011D01*
X135173071Y-88622608D01*
X135062307Y-88624640D01*
X134937755Y-88625196D01*
X134804759Y-88624363D01*
X134668660Y-88622230D01*
X134534800Y-88618885D01*
X134408523Y-88614416D01*
X134295170Y-88608910D01*
X134200085Y-88602456D01*
X134128609Y-88595143D01*
X134030742Y-88581242D01*
X133660193Y-88512173D01*
X133305955Y-88419292D01*
X132968104Y-88302633D01*
X132646715Y-88162233D01*
X132341866Y-87998128D01*
X132053631Y-87810352D01*
X131782087Y-87598943D01*
X131527308Y-87363936D01*
X131477138Y-87313105D01*
X131377222Y-87207216D01*
X131287394Y-87104105D01*
X131201846Y-86996625D01*
X131114773Y-86877628D01*
X131020368Y-86739968D01*
X131007048Y-86719951D01*
X130833957Y-86434032D01*
X130686004Y-86137300D01*
X130562839Y-85828634D01*
X130464118Y-85506915D01*
X130389491Y-85171025D01*
X130338613Y-84819842D01*
X130311137Y-84452249D01*
X130308365Y-84302868D01*
X132380219Y-84302868D01*
X132381351Y-84539136D01*
X132391282Y-84673426D01*
X132430343Y-84960261D01*
X132492605Y-85231724D01*
X132577701Y-85487148D01*
X132685259Y-85725868D01*
X132814912Y-85947215D01*
X132966289Y-86150522D01*
X133139023Y-86335122D01*
X133332742Y-86500348D01*
X133547079Y-86645533D01*
X133553364Y-86649286D01*
X133703592Y-86727347D01*
X133871981Y-86795771D01*
X134049150Y-86851584D01*
X134225715Y-86891812D01*
X134392294Y-86913480D01*
X134438025Y-86916734D01*
X134526387Y-86922611D01*
X134595799Y-86926266D01*
X134653186Y-86927823D01*
X134705474Y-86927405D01*
X134759586Y-86925134D01*
X134822447Y-86921135D01*
X134860248Y-86918215D01*
X135091163Y-86886437D01*
X135304927Y-86832260D01*
X135500858Y-86756259D01*
X135678276Y-86659008D01*
X135836499Y-86541081D01*
X135974847Y-86403054D01*
X136092638Y-86245501D01*
X136189191Y-86068996D01*
X136263825Y-85874113D01*
X136315860Y-85661428D01*
X136323442Y-85606669D01*
X136330441Y-85515639D01*
X136334360Y-85407926D01*
X136335250Y-85290346D01*
X136333166Y-85169718D01*
X136328160Y-85052860D01*
X136320286Y-84946589D01*
X136309596Y-84857722D01*
X136258022Y-84599806D01*
X136181426Y-84340536D01*
X136082818Y-84094771D01*
X135963386Y-83865451D01*
X135824314Y-83655515D01*
X135815928Y-83644424D01*
X135746416Y-83560697D01*
X135661679Y-83469485D01*
X135568173Y-83376965D01*
X135472354Y-83289316D01*
X135380679Y-83212718D01*
X135299603Y-83153349D01*
X135188885Y-83083906D01*
X134998141Y-82983035D01*
X134804677Y-82905670D01*
X134603327Y-82850209D01*
X134388927Y-82815048D01*
X134156313Y-82798586D01*
X134129570Y-82797855D01*
X133883998Y-82802265D01*
X133657759Y-82827615D01*
X133449898Y-82874242D01*
X133259459Y-82942478D01*
X133085488Y-83032661D01*
X132927029Y-83145124D01*
X132783127Y-83280203D01*
X132735041Y-83334369D01*
X132616946Y-83496761D01*
X132522137Y-83675686D01*
X132450892Y-83870265D01*
X132403492Y-84079618D01*
X132380219Y-84302868D01*
X130308365Y-84302868D01*
X130307667Y-84265270D01*
X130322425Y-83953492D01*
X130362925Y-83652826D01*
X130428716Y-83364128D01*
X130519352Y-83088254D01*
X130634382Y-82826060D01*
X130773360Y-82578403D01*
X130935835Y-82346138D01*
X131121361Y-82130122D01*
X131329487Y-81931210D01*
X131559766Y-81750259D01*
X131811749Y-81588125D01*
X131880733Y-81549140D01*
X132145928Y-81417800D01*
X132423815Y-81308854D01*
X132715655Y-81222019D01*
X133022704Y-81157017D01*
X133346223Y-81113567D01*
X133687470Y-81091388D01*
X134047704Y-81090200D01*
X134241218Y-81098003D01*
X134614049Y-81131115D01*
X134971079Y-81187881D01*
X135313335Y-81268608D01*
X135641845Y-81373602D01*
X135957636Y-81503168D01*
X136261736Y-81657613D01*
X136555171Y-81837243D01*
X136640387Y-81894813D01*
X136765396Y-81983164D01*
X136875900Y-82067405D01*
X136978924Y-82153231D01*
X137081493Y-82246337D01*
X137190633Y-82352418D01*
X137270792Y-82433923D01*
X137363304Y-82533504D01*
X137447798Y-82632244D01*
X137529641Y-82736766D01*
X137614196Y-82853693D01*
X137706830Y-82989649D01*
X137865964Y-83249318D01*
X138019895Y-83553022D01*
X138149069Y-83871647D01*
X138253439Y-84205053D01*
X138332954Y-84553099D01*
X138387565Y-84915647D01*
X138393480Y-84978357D01*
X138400101Y-85088831D01*
X138404242Y-85214905D01*
X138405195Y-85290346D01*
X138405951Y-85350224D01*
X138405276Y-85488435D01*
G37*
G36*
X146862741Y-86075865D02*
G01*
X146859575Y-86087880D01*
X146788519Y-86299703D01*
X146693223Y-86497144D01*
X146575359Y-86678656D01*
X146436598Y-86842694D01*
X146278611Y-86987715D01*
X146103071Y-87112172D01*
X145911648Y-87214520D01*
X145706014Y-87293216D01*
X145487841Y-87346713D01*
X145436548Y-87354211D01*
X145337464Y-87362865D01*
X145223673Y-87367625D01*
X145103739Y-87368480D01*
X144986230Y-87365419D01*
X144879710Y-87358434D01*
X144792744Y-87347514D01*
X144653837Y-87317494D01*
X144442529Y-87247983D01*
X144241905Y-87152209D01*
X144054932Y-87031443D01*
X143920579Y-86921120D01*
X143768727Y-86763674D01*
X143639264Y-86587883D01*
X143532227Y-86393806D01*
X143447655Y-86181509D01*
X143385587Y-85951052D01*
X143371641Y-85862285D01*
X143362127Y-85747941D01*
X143358618Y-85640469D01*
X143714267Y-85640469D01*
X143731914Y-85831413D01*
X143768067Y-86013632D01*
X143822536Y-86180193D01*
X143870611Y-86286587D01*
X143972646Y-86459893D01*
X144095327Y-86614004D01*
X144236953Y-86747617D01*
X144395824Y-86859430D01*
X144570239Y-86948138D01*
X144758497Y-87012438D01*
X144958897Y-87051026D01*
X144996331Y-87055170D01*
X145203001Y-87061410D01*
X145405327Y-87039208D01*
X145602058Y-86988776D01*
X145791946Y-86910324D01*
X145920858Y-86837061D01*
X146075538Y-86720559D01*
X146212173Y-86582735D01*
X146329238Y-86425422D01*
X146425212Y-86250453D01*
X146498572Y-86059660D01*
X146514794Y-86003036D01*
X146551302Y-85817134D01*
X146566690Y-85622177D01*
X146561341Y-85424313D01*
X146535638Y-85229688D01*
X146489964Y-85044449D01*
X146424703Y-84874743D01*
X146413894Y-84852136D01*
X146311831Y-84673975D01*
X146189878Y-84516417D01*
X146049031Y-84380306D01*
X145890285Y-84266488D01*
X145714635Y-84175807D01*
X145523076Y-84109108D01*
X145508689Y-84105235D01*
X145462516Y-84094064D01*
X145417908Y-84086133D01*
X145368762Y-84080934D01*
X145308972Y-84077959D01*
X145232437Y-84076700D01*
X145133052Y-84076648D01*
X145038424Y-84077371D01*
X144958340Y-84079279D01*
X144895771Y-84082842D01*
X144844768Y-84088559D01*
X144799382Y-84096928D01*
X144753667Y-84108448D01*
X144571661Y-84172012D01*
X144395652Y-84262247D01*
X144236268Y-84375351D01*
X144094810Y-84510077D01*
X143972582Y-84665176D01*
X143870886Y-84839399D01*
X143791023Y-85031496D01*
X143774264Y-85084612D01*
X143735252Y-85260137D01*
X143715316Y-85447733D01*
X143714267Y-85640469D01*
X143358618Y-85640469D01*
X143357969Y-85620598D01*
X143359092Y-85488198D01*
X143365420Y-85358687D01*
X143376875Y-85240008D01*
X143393382Y-85140105D01*
X143409028Y-85073420D01*
X143478312Y-84855998D01*
X143572186Y-84653040D01*
X143690084Y-84465640D01*
X143831440Y-84294890D01*
X143956768Y-84173891D01*
X144130847Y-84039950D01*
X144319613Y-83930652D01*
X144524018Y-83845465D01*
X144745013Y-83783855D01*
X144805553Y-83773932D01*
X144896089Y-83765192D01*
X145001805Y-83759417D01*
X145115394Y-83756669D01*
X145229548Y-83757012D01*
X145336959Y-83760511D01*
X145430320Y-83767230D01*
X145502322Y-83777232D01*
X145573900Y-83793166D01*
X145745104Y-83844296D01*
X145913934Y-83911696D01*
X146071676Y-83991631D01*
X146209615Y-84080367D01*
X146221895Y-84089472D01*
X146386973Y-84230692D01*
X146531597Y-84390745D01*
X146655019Y-84567353D01*
X146756495Y-84758239D01*
X146835280Y-84961126D01*
X146890628Y-85173736D01*
X146921793Y-85393793D01*
X146928030Y-85619018D01*
X146927761Y-85622177D01*
X146908595Y-85847135D01*
X146862741Y-86075865D01*
G37*
G36*
X156660027Y-85187022D02*
G01*
X156659868Y-85440694D01*
X156659603Y-85685138D01*
X156659239Y-85918835D01*
X156658782Y-86140267D01*
X156658237Y-86347916D01*
X156657611Y-86540265D01*
X156656911Y-86715794D01*
X156656141Y-86872988D01*
X156655309Y-87010326D01*
X156654420Y-87126293D01*
X156653481Y-87219368D01*
X156652497Y-87288035D01*
X156651476Y-87330776D01*
X156650421Y-87346072D01*
X156633773Y-87349747D01*
X156593960Y-87352853D01*
X156537149Y-87354954D01*
X156469407Y-87355727D01*
X156298046Y-87355727D01*
X156298046Y-85777277D01*
X155483099Y-85777277D01*
X155307058Y-85776993D01*
X155142965Y-85776166D01*
X154993252Y-85774837D01*
X154860350Y-85773044D01*
X154746687Y-85770828D01*
X154654695Y-85768227D01*
X154586803Y-85765281D01*
X154545443Y-85762031D01*
X154311792Y-85723538D01*
X154095901Y-85667248D01*
X153899767Y-85592727D01*
X153721304Y-85499037D01*
X153558427Y-85385237D01*
X153409049Y-85250390D01*
X153285527Y-85108258D01*
X153184132Y-84953530D01*
X153106398Y-84786519D01*
X153051558Y-84605204D01*
X153018847Y-84407567D01*
X153007498Y-84191587D01*
X153007632Y-84179000D01*
X153371898Y-84179000D01*
X153372490Y-84230792D01*
X153385446Y-84409529D01*
X153416199Y-84570268D01*
X153465872Y-84717653D01*
X153535585Y-84856326D01*
X153575085Y-84917986D01*
X153683038Y-85048429D01*
X153813714Y-85161938D01*
X153966215Y-85257997D01*
X154139643Y-85336090D01*
X154333098Y-85395702D01*
X154545683Y-85436315D01*
X154573030Y-85439809D01*
X154619345Y-85444421D01*
X154673823Y-85448262D01*
X154739061Y-85451394D01*
X154817661Y-85453877D01*
X154912222Y-85455772D01*
X155025345Y-85457141D01*
X155159628Y-85458043D01*
X155317673Y-85458539D01*
X155502079Y-85458691D01*
X156298046Y-85458691D01*
X156298046Y-82879170D01*
X155447276Y-82884726D01*
X155328208Y-82885527D01*
X155152935Y-82886900D01*
X155002333Y-82888515D01*
X154873729Y-82890584D01*
X154764449Y-82893321D01*
X154671820Y-82896938D01*
X154593166Y-82901645D01*
X154525815Y-82907657D01*
X154467092Y-82915185D01*
X154414324Y-82924442D01*
X154364837Y-82935638D01*
X154315957Y-82948988D01*
X154265010Y-82964703D01*
X154209322Y-82982996D01*
X154179529Y-82993167D01*
X154028949Y-83053867D01*
X153899022Y-83124590D01*
X153783101Y-83209431D01*
X153674543Y-83312484D01*
X153611465Y-83384928D01*
X153522570Y-83514742D01*
X153455166Y-83656195D01*
X153408251Y-83812149D01*
X153380828Y-83985463D01*
X153371898Y-84179000D01*
X153007632Y-84179000D01*
X153008393Y-84107551D01*
X153022036Y-83911730D01*
X153052963Y-83734045D01*
X153102411Y-83569994D01*
X153171613Y-83415076D01*
X153261805Y-83264792D01*
X153343409Y-83157354D01*
X153477354Y-83020507D01*
X153633433Y-82899131D01*
X153809473Y-82794649D01*
X154003304Y-82708481D01*
X154212755Y-82642049D01*
X154231228Y-82637263D01*
X154278531Y-82625145D01*
X154321835Y-82614643D01*
X154363494Y-82605630D01*
X154405862Y-82597976D01*
X154451294Y-82591554D01*
X154502145Y-82586234D01*
X154560768Y-82581890D01*
X154629518Y-82578391D01*
X154710749Y-82575610D01*
X154806816Y-82573418D01*
X154920073Y-82571686D01*
X155052874Y-82570287D01*
X155207574Y-82569092D01*
X155386527Y-82567972D01*
X155592088Y-82566799D01*
X156660076Y-82560759D01*
X156660076Y-84948589D01*
X156660027Y-85187022D01*
G37*
G36*
X152055058Y-87355727D02*
G01*
X151707510Y-87355727D01*
X151707510Y-83778874D01*
X152055058Y-83778874D01*
X152055058Y-87355727D01*
G37*
G36*
X158131849Y-83870860D02*
G01*
X158132358Y-84141692D01*
X158132902Y-84438827D01*
X158133522Y-84763594D01*
X158133587Y-84796532D01*
X158134236Y-85176510D01*
X158134650Y-85527822D01*
X158134829Y-85850445D01*
X158134773Y-86144353D01*
X158134481Y-86409522D01*
X158133955Y-86645927D01*
X158133193Y-86853543D01*
X158132197Y-87032346D01*
X158130967Y-87182311D01*
X158129501Y-87303414D01*
X158127801Y-87395629D01*
X158125867Y-87458932D01*
X158123698Y-87493298D01*
X158117214Y-87543422D01*
X158072892Y-87754419D01*
X158002592Y-87952652D01*
X157906453Y-88137846D01*
X157784611Y-88309724D01*
X157637205Y-88468011D01*
X157628832Y-88475872D01*
X157463601Y-88610791D01*
X157284528Y-88720817D01*
X157093342Y-88805036D01*
X156891775Y-88862530D01*
X156891289Y-88862633D01*
X156881812Y-88864460D01*
X156870676Y-88866200D01*
X156857179Y-88867856D01*
X156840622Y-88869429D01*
X156820305Y-88870921D01*
X156795528Y-88872336D01*
X156765591Y-88873674D01*
X156729793Y-88874938D01*
X156687434Y-88876131D01*
X156637815Y-88877255D01*
X156580236Y-88878312D01*
X156513996Y-88879303D01*
X156438395Y-88880232D01*
X156352733Y-88881101D01*
X156256311Y-88881911D01*
X156148428Y-88882665D01*
X156028383Y-88883366D01*
X155895478Y-88884014D01*
X155749012Y-88884614D01*
X155588285Y-88885166D01*
X155412596Y-88885673D01*
X155221246Y-88886138D01*
X155013535Y-88886562D01*
X154788763Y-88886947D01*
X154546229Y-88887297D01*
X154285234Y-88887612D01*
X154005077Y-88887896D01*
X153705058Y-88888151D01*
X153384478Y-88888378D01*
X153042636Y-88888580D01*
X152678833Y-88888760D01*
X152292367Y-88888919D01*
X151882540Y-88889059D01*
X151448651Y-88889183D01*
X150990000Y-88889294D01*
X150505886Y-88889392D01*
X149995611Y-88889481D01*
X149458473Y-88889563D01*
X148893773Y-88889640D01*
X148300811Y-88889713D01*
X148252860Y-88889719D01*
X147759589Y-88889758D01*
X147273633Y-88889761D01*
X146795794Y-88889730D01*
X146326874Y-88889667D01*
X145867674Y-88889570D01*
X145418996Y-88889443D01*
X144981643Y-88889284D01*
X144556415Y-88889096D01*
X144144114Y-88888879D01*
X143745543Y-88888634D01*
X143361502Y-88888362D01*
X142992795Y-88888064D01*
X142640221Y-88887740D01*
X142304584Y-88887392D01*
X141986685Y-88887020D01*
X141687325Y-88886626D01*
X141407307Y-88886210D01*
X141147431Y-88885772D01*
X140908501Y-88885315D01*
X140691318Y-88884838D01*
X140496682Y-88884344D01*
X140325397Y-88883831D01*
X140178264Y-88883302D01*
X140056085Y-88882758D01*
X139959660Y-88882198D01*
X139889793Y-88881625D01*
X139847285Y-88881038D01*
X139832938Y-88880440D01*
X139832247Y-88876540D01*
X139826734Y-88847996D01*
X139815901Y-88792747D01*
X139799974Y-88711932D01*
X139779178Y-88606685D01*
X139753739Y-88478145D01*
X139723883Y-88327448D01*
X139689834Y-88155730D01*
X139651820Y-87964129D01*
X139610066Y-87753782D01*
X139564798Y-87525824D01*
X139516240Y-87281392D01*
X139464620Y-87021625D01*
X139410162Y-86747657D01*
X139353093Y-86460626D01*
X139293638Y-86161669D01*
X139232022Y-85851923D01*
X139168472Y-85532523D01*
X139103214Y-85204608D01*
X139036472Y-84869313D01*
X139003606Y-84704198D01*
X138937542Y-84372195D01*
X138873073Y-84048055D01*
X138810425Y-83732921D01*
X138749823Y-83427933D01*
X138691494Y-83134232D01*
X138635663Y-82852960D01*
X138582556Y-82585257D01*
X138532400Y-82332264D01*
X138485419Y-82095123D01*
X138441841Y-81874975D01*
X138401891Y-81672961D01*
X138365794Y-81490222D01*
X138333778Y-81327898D01*
X138306067Y-81187132D01*
X138282888Y-81069064D01*
X138276143Y-81034562D01*
X138486187Y-81034562D01*
X138486696Y-81037317D01*
X138491798Y-81063414D01*
X138502150Y-81115889D01*
X138517471Y-81193321D01*
X138537477Y-81294289D01*
X138561887Y-81417372D01*
X138590416Y-81561148D01*
X138622783Y-81724196D01*
X138658705Y-81905094D01*
X138697899Y-82102422D01*
X138740082Y-82314757D01*
X138784973Y-82540679D01*
X138832287Y-82778766D01*
X138881743Y-83027597D01*
X138933058Y-83285750D01*
X138985949Y-83551805D01*
X139040133Y-83824339D01*
X139095328Y-84101932D01*
X139151251Y-84383161D01*
X139207619Y-84666607D01*
X139264151Y-84950847D01*
X139320562Y-85234460D01*
X139376570Y-85516025D01*
X139431893Y-85794121D01*
X139486249Y-86067325D01*
X139539353Y-86334217D01*
X139590924Y-86593376D01*
X139640680Y-86843379D01*
X139688336Y-87082807D01*
X139733611Y-87310237D01*
X139776222Y-87524247D01*
X139815886Y-87723418D01*
X139852321Y-87906327D01*
X139885244Y-88071552D01*
X139914371Y-88217674D01*
X139939422Y-88343270D01*
X139960112Y-88446918D01*
X139976159Y-88527199D01*
X139987281Y-88582690D01*
X139993195Y-88611969D01*
X140008765Y-88687996D01*
X141231399Y-88687996D01*
X141314928Y-88687969D01*
X141506328Y-88687699D01*
X141685453Y-88687154D01*
X141850447Y-88686352D01*
X141999458Y-88685313D01*
X142130630Y-88684057D01*
X142242111Y-88682602D01*
X142332045Y-88680970D01*
X142398580Y-88679177D01*
X142439860Y-88677245D01*
X142454032Y-88675193D01*
X142451936Y-88663858D01*
X142444481Y-88625476D01*
X142431898Y-88561341D01*
X142414470Y-88472872D01*
X142392479Y-88361489D01*
X142366207Y-88228612D01*
X142335937Y-88075661D01*
X142301950Y-87904056D01*
X142264528Y-87715217D01*
X142223955Y-87510563D01*
X142180511Y-87291515D01*
X142134480Y-87059492D01*
X142086144Y-86815914D01*
X142035783Y-86562202D01*
X141983682Y-86299775D01*
X141930122Y-86030054D01*
X141875385Y-85754457D01*
X141819753Y-85474405D01*
X141763509Y-85191318D01*
X141706934Y-84906616D01*
X141650311Y-84621718D01*
X141593923Y-84338045D01*
X141538050Y-84057017D01*
X141482977Y-83780052D01*
X141428983Y-83508573D01*
X141376353Y-83243997D01*
X141325368Y-82987746D01*
X141276309Y-82741238D01*
X141229460Y-82505895D01*
X141185103Y-82283135D01*
X141143520Y-82074379D01*
X141104992Y-81881047D01*
X141069802Y-81704558D01*
X141038233Y-81546333D01*
X141010566Y-81407792D01*
X140987084Y-81290353D01*
X140968069Y-81195438D01*
X140953803Y-81124466D01*
X140944568Y-81078857D01*
X140940646Y-81060031D01*
X140932956Y-81027448D01*
X139709572Y-81027448D01*
X139582751Y-81027487D01*
X139402880Y-81027676D01*
X139232987Y-81028013D01*
X139075182Y-81028486D01*
X138931574Y-81029083D01*
X138804272Y-81029790D01*
X138695387Y-81030596D01*
X138607026Y-81031488D01*
X138541300Y-81032455D01*
X138500317Y-81033483D01*
X138486187Y-81034562D01*
X138276143Y-81034562D01*
X138274143Y-81024330D01*
X141150725Y-81024330D01*
X141150730Y-81024443D01*
X141153745Y-81041826D01*
X141162181Y-81086396D01*
X141175808Y-81156983D01*
X141194394Y-81252416D01*
X141217707Y-81371526D01*
X141245518Y-81513142D01*
X141277593Y-81676096D01*
X141313702Y-81859216D01*
X141353614Y-82061333D01*
X141397097Y-82281276D01*
X141443920Y-82517877D01*
X141493852Y-82769964D01*
X141546661Y-83036368D01*
X141602116Y-83315919D01*
X141659986Y-83607447D01*
X141720040Y-83909782D01*
X141782045Y-84221754D01*
X141845772Y-84542193D01*
X141910988Y-84869929D01*
X141914060Y-84885363D01*
X141979189Y-85212624D01*
X142042820Y-85532450D01*
X142104719Y-85843677D01*
X142164658Y-86145140D01*
X142222404Y-86435674D01*
X142277727Y-86714114D01*
X142330395Y-86979294D01*
X142380177Y-87230051D01*
X142426843Y-87465219D01*
X142470161Y-87683632D01*
X142509900Y-87884127D01*
X142545830Y-88065537D01*
X142577718Y-88226698D01*
X142605334Y-88366444D01*
X142628448Y-88483612D01*
X142646827Y-88577035D01*
X142660241Y-88645550D01*
X142665981Y-88675193D01*
X142668459Y-88687989D01*
X142671250Y-88703190D01*
X142680611Y-88703970D01*
X142717533Y-88704899D01*
X142781479Y-88705786D01*
X142871378Y-88706633D01*
X142986158Y-88707439D01*
X143124746Y-88708204D01*
X143286072Y-88708930D01*
X143469063Y-88709615D01*
X143672647Y-88710260D01*
X143895753Y-88710865D01*
X144137308Y-88711431D01*
X144396241Y-88711958D01*
X144671480Y-88712445D01*
X144961954Y-88712893D01*
X145266589Y-88713302D01*
X145584316Y-88713673D01*
X145914060Y-88714005D01*
X146254752Y-88714299D01*
X146605318Y-88714555D01*
X146964688Y-88714772D01*
X147331788Y-88714952D01*
X147705548Y-88715095D01*
X148084896Y-88715199D01*
X148468759Y-88715267D01*
X148856067Y-88715297D01*
X149245746Y-88715291D01*
X149636725Y-88715248D01*
X150027933Y-88715168D01*
X150418297Y-88715052D01*
X150806746Y-88714900D01*
X151192208Y-88714712D01*
X151573611Y-88714487D01*
X151949882Y-88714228D01*
X152319951Y-88713932D01*
X152682746Y-88713602D01*
X153037194Y-88713236D01*
X153382224Y-88712836D01*
X153716763Y-88712400D01*
X154039741Y-88711930D01*
X154350085Y-88711426D01*
X154646724Y-88710887D01*
X154928584Y-88710314D01*
X155194596Y-88709708D01*
X155443686Y-88709067D01*
X155674784Y-88708394D01*
X155886816Y-88707686D01*
X156078712Y-88706946D01*
X156249399Y-88706173D01*
X156397806Y-88705367D01*
X156522861Y-88704528D01*
X156623492Y-88703657D01*
X156698626Y-88702753D01*
X156747193Y-88701817D01*
X156768121Y-88700850D01*
X156851113Y-88685948D01*
X157035815Y-88631956D01*
X157212708Y-88551037D01*
X157379475Y-88444366D01*
X157533798Y-88313116D01*
X157632694Y-88206873D01*
X157746958Y-88048902D01*
X157838393Y-87874236D01*
X157908039Y-87681121D01*
X157941652Y-87565704D01*
X157945676Y-84908406D01*
X157946023Y-84673333D01*
X157946441Y-84363961D01*
X157946766Y-84081394D01*
X157946990Y-83824370D01*
X157947103Y-83591623D01*
X157947097Y-83381890D01*
X157946964Y-83193906D01*
X157946695Y-83026407D01*
X157946281Y-82878129D01*
X157945714Y-82747807D01*
X157944986Y-82634178D01*
X157944087Y-82535976D01*
X157943009Y-82451939D01*
X157941745Y-82380801D01*
X157940284Y-82321299D01*
X157938618Y-82272167D01*
X157936740Y-82232143D01*
X157934640Y-82199962D01*
X157932310Y-82174359D01*
X157929742Y-82154070D01*
X157926926Y-82137831D01*
X157920868Y-82109063D01*
X157863581Y-81912120D01*
X157782404Y-81730936D01*
X157678312Y-81566513D01*
X157552283Y-81419852D01*
X157405294Y-81291957D01*
X157238321Y-81183829D01*
X157052341Y-81096472D01*
X156848331Y-81030888D01*
X156848051Y-81030817D01*
X156839671Y-81029061D01*
X156828326Y-81027392D01*
X156813294Y-81025804D01*
X156793854Y-81024297D01*
X156769283Y-81022868D01*
X156738859Y-81021513D01*
X156701860Y-81020231D01*
X156657563Y-81019018D01*
X156605247Y-81017873D01*
X156544189Y-81016792D01*
X156473668Y-81015773D01*
X156392960Y-81014813D01*
X156301344Y-81013910D01*
X156198098Y-81013062D01*
X156082499Y-81012264D01*
X155953825Y-81011516D01*
X155811355Y-81010815D01*
X155654365Y-81010157D01*
X155482134Y-81009540D01*
X155293940Y-81008962D01*
X155089060Y-81008420D01*
X154866773Y-81007911D01*
X154626356Y-81007433D01*
X154367087Y-81006983D01*
X154088243Y-81006559D01*
X153789103Y-81006158D01*
X153468945Y-81005778D01*
X153127046Y-81005415D01*
X152762684Y-81005068D01*
X152375137Y-81004733D01*
X151963682Y-81004408D01*
X151527599Y-81004091D01*
X151066164Y-81003779D01*
X150578655Y-81003468D01*
X150064350Y-81003158D01*
X149522527Y-81002845D01*
X148952464Y-81002526D01*
X148570836Y-81002317D01*
X148021464Y-81002020D01*
X147499856Y-81001746D01*
X147005295Y-81001498D01*
X146537062Y-81001277D01*
X146094437Y-81001086D01*
X145676703Y-81000925D01*
X145283141Y-81000798D01*
X144913032Y-81000706D01*
X144565656Y-81000652D01*
X144240297Y-81000637D01*
X143936234Y-81000663D01*
X143652750Y-81000732D01*
X143389125Y-81000847D01*
X143144641Y-81001009D01*
X142918580Y-81001221D01*
X142710222Y-81001484D01*
X142518848Y-81001800D01*
X142343741Y-81002172D01*
X142184181Y-81002601D01*
X142039451Y-81003089D01*
X141908830Y-81003639D01*
X141791601Y-81004253D01*
X141687044Y-81004931D01*
X141594442Y-81005677D01*
X141513075Y-81006493D01*
X141442224Y-81007380D01*
X141381172Y-81008341D01*
X141329199Y-81009377D01*
X141285587Y-81010490D01*
X141249617Y-81011683D01*
X141220570Y-81012958D01*
X141197728Y-81014316D01*
X141180371Y-81015759D01*
X141167782Y-81017290D01*
X141159242Y-81018911D01*
X141154031Y-81020623D01*
X141151432Y-81022428D01*
X141150725Y-81024330D01*
X138274143Y-81024330D01*
X138264466Y-80974835D01*
X138251029Y-80905587D01*
X138242800Y-80862460D01*
X138240007Y-80846595D01*
X138240959Y-80845590D01*
X138246168Y-80844156D01*
X138256488Y-80842789D01*
X138272563Y-80841487D01*
X138295038Y-80840248D01*
X138324557Y-80839070D01*
X138361766Y-80837952D01*
X138407308Y-80836893D01*
X138461829Y-80835890D01*
X138525973Y-80834943D01*
X138600385Y-80834050D01*
X138685709Y-80833209D01*
X138782590Y-80832419D01*
X138891673Y-80831678D01*
X139013602Y-80830986D01*
X139149022Y-80830339D01*
X139298578Y-80829737D01*
X139462914Y-80829178D01*
X139642675Y-80828661D01*
X139838505Y-80828184D01*
X140051050Y-80827746D01*
X140280953Y-80827344D01*
X140528860Y-80826978D01*
X140795415Y-80826647D01*
X141081262Y-80826347D01*
X141387047Y-80826079D01*
X141713414Y-80825840D01*
X142061008Y-80825629D01*
X142430473Y-80825444D01*
X142822454Y-80825284D01*
X143237596Y-80825148D01*
X143676542Y-80825033D01*
X144139939Y-80824939D01*
X144628430Y-80824863D01*
X145142660Y-80824804D01*
X145683275Y-80824762D01*
X146250917Y-80824733D01*
X146846233Y-80824717D01*
X147469866Y-80824712D01*
X147816076Y-80824713D01*
X148424909Y-80824725D01*
X149005793Y-80824748D01*
X149559384Y-80824785D01*
X150086337Y-80824838D01*
X150587306Y-80824908D01*
X151062946Y-80824996D01*
X151513912Y-80825104D01*
X151940859Y-80825234D01*
X152344442Y-80825386D01*
X152725315Y-80825564D01*
X153084134Y-80825767D01*
X153421552Y-80825998D01*
X153738226Y-80826259D01*
X154034809Y-80826550D01*
X154311957Y-80826874D01*
X154570325Y-80827232D01*
X154810567Y-80827625D01*
X155033338Y-80828055D01*
X155239293Y-80828524D01*
X155429087Y-80829032D01*
X155603375Y-80829583D01*
X155762811Y-80830177D01*
X155908050Y-80830815D01*
X156039748Y-80831500D01*
X156158559Y-80832232D01*
X156265137Y-80833014D01*
X156360138Y-80833847D01*
X156444217Y-80834732D01*
X156518028Y-80835671D01*
X156582227Y-80836666D01*
X156637467Y-80837718D01*
X156684404Y-80838829D01*
X156723693Y-80840000D01*
X156755989Y-80841232D01*
X156781945Y-80842528D01*
X156802218Y-80843889D01*
X156817463Y-80845316D01*
X156828333Y-80846811D01*
X156856278Y-80851875D01*
X157057716Y-80904339D01*
X157248533Y-80981937D01*
X157426470Y-81082771D01*
X157589269Y-81204941D01*
X157734670Y-81346547D01*
X157860415Y-81505691D01*
X157964245Y-81680473D01*
X158043902Y-81868994D01*
X158046196Y-81875638D01*
X158056349Y-81904247D01*
X158065632Y-81929903D01*
X158074086Y-81953936D01*
X158081751Y-81977677D01*
X158088668Y-82002454D01*
X158094880Y-82029598D01*
X158100427Y-82060438D01*
X158105351Y-82096305D01*
X158109691Y-82138527D01*
X158113491Y-82188436D01*
X158116790Y-82247359D01*
X158119631Y-82316628D01*
X158122053Y-82397573D01*
X158124099Y-82491521D01*
X158125810Y-82599805D01*
X158127226Y-82723753D01*
X158128389Y-82864695D01*
X158129340Y-83023961D01*
X158130121Y-83202881D01*
X158130771Y-83402784D01*
X158131249Y-83591623D01*
X158131334Y-83625000D01*
X158131849Y-83870860D01*
G37*
G36*
X138797775Y-85817559D02*
G01*
X138760140Y-86110345D01*
X138728044Y-86275817D01*
X138647704Y-86578587D01*
X138542210Y-86868016D01*
X138412340Y-87143250D01*
X138258869Y-87403434D01*
X138082577Y-87647716D01*
X137884240Y-87875240D01*
X137664636Y-88085153D01*
X137424543Y-88276600D01*
X137164738Y-88448727D01*
X136885998Y-88600680D01*
X136589102Y-88731605D01*
X136274826Y-88840647D01*
X136132921Y-88880019D01*
X135928237Y-88926885D01*
X135707006Y-88967744D01*
X135476103Y-89001358D01*
X135242402Y-89026490D01*
X135230320Y-89027424D01*
X135165803Y-89030199D01*
X135078698Y-89031565D01*
X134974061Y-89031640D01*
X134856953Y-89030543D01*
X134732430Y-89028393D01*
X134605552Y-89025308D01*
X134481377Y-89021407D01*
X134364962Y-89016809D01*
X134261367Y-89011631D01*
X134175650Y-89005993D01*
X134112869Y-89000013D01*
X134068001Y-88994273D01*
X133836598Y-88958413D01*
X133601495Y-88912263D01*
X133370826Y-88857714D01*
X133152724Y-88796656D01*
X132955323Y-88730979D01*
X132715746Y-88636510D01*
X132381277Y-88479594D01*
X132064547Y-88300331D01*
X131766222Y-88099356D01*
X131486965Y-87877307D01*
X131227442Y-87634821D01*
X130988317Y-87372534D01*
X130770255Y-87091083D01*
X130573921Y-86791105D01*
X130399978Y-86473236D01*
X130249092Y-86138114D01*
X130237134Y-86108247D01*
X130132167Y-85811212D01*
X130046744Y-85501958D01*
X129981177Y-85184362D01*
X129935778Y-84862299D01*
X129910859Y-84539645D01*
X129907418Y-84273319D01*
X130119064Y-84273319D01*
X130119195Y-84416944D01*
X130122087Y-84554687D01*
X130127825Y-84680333D01*
X130136497Y-84787666D01*
X130145407Y-84866593D01*
X130202188Y-85232242D01*
X130282984Y-85582271D01*
X130388126Y-85917626D01*
X130517942Y-86239251D01*
X130672762Y-86548093D01*
X130852915Y-86845095D01*
X131008573Y-87065339D01*
X131230230Y-87335842D01*
X131471130Y-87585090D01*
X131730683Y-87812758D01*
X132008304Y-88018518D01*
X132303405Y-88202047D01*
X132615399Y-88363017D01*
X132943699Y-88501103D01*
X133287718Y-88615979D01*
X133646868Y-88707319D01*
X134020563Y-88774798D01*
X134408216Y-88818089D01*
X134430349Y-88819766D01*
X134649237Y-88830092D01*
X134883197Y-88831070D01*
X135121500Y-88823042D01*
X135353420Y-88806346D01*
X135568228Y-88781324D01*
X135783050Y-88745004D01*
X136094926Y-88672139D01*
X136396080Y-88577607D01*
X136683849Y-88462513D01*
X136955567Y-88327964D01*
X137208566Y-88175065D01*
X137440183Y-88004921D01*
X137594538Y-87870999D01*
X137801130Y-87659939D01*
X137986243Y-87430548D01*
X138148963Y-87184414D01*
X138288378Y-86923122D01*
X138403575Y-86648258D01*
X138493640Y-86361407D01*
X138557661Y-86064156D01*
X138575682Y-85940998D01*
X138598371Y-85691725D01*
X138606157Y-85427754D01*
X138599286Y-85155578D01*
X138578002Y-84881685D01*
X138542550Y-84612568D01*
X138493175Y-84354717D01*
X138445929Y-84163536D01*
X138339573Y-83822462D01*
X138208359Y-83494873D01*
X138052978Y-83181780D01*
X137874122Y-82884194D01*
X137672482Y-82603127D01*
X137448752Y-82339588D01*
X137203622Y-82094590D01*
X136937786Y-81869144D01*
X136651934Y-81664261D01*
X136563160Y-81607458D01*
X136254503Y-81431959D01*
X135930247Y-81279933D01*
X135592335Y-81152055D01*
X135242707Y-81049003D01*
X134883306Y-80971453D01*
X134516073Y-80920081D01*
X134140581Y-80892607D01*
X133766623Y-80888520D01*
X133404970Y-80908719D01*
X133056328Y-80953058D01*
X132721400Y-81021393D01*
X132400892Y-81113579D01*
X132095509Y-81229472D01*
X131805954Y-81368928D01*
X131532934Y-81531802D01*
X131326139Y-81680199D01*
X131099816Y-81874560D01*
X130895167Y-82087650D01*
X130712712Y-82318651D01*
X130552966Y-82566746D01*
X130416449Y-82831117D01*
X130303678Y-83110946D01*
X130215170Y-83405415D01*
X130151443Y-83713708D01*
X130144406Y-83764324D01*
X130134363Y-83869315D01*
X130126734Y-83993289D01*
X130121605Y-84130029D01*
X130119064Y-84273319D01*
X129907418Y-84273319D01*
X129906733Y-84220276D01*
X129923711Y-83908069D01*
X129962105Y-83606898D01*
X130022229Y-83320641D01*
X130065257Y-83167184D01*
X130169013Y-82874978D01*
X130297089Y-82597542D01*
X130448657Y-82335643D01*
X130622892Y-82090046D01*
X130818969Y-81861518D01*
X131036062Y-81650825D01*
X131273346Y-81458733D01*
X131529994Y-81286009D01*
X131805183Y-81133418D01*
X132098085Y-81001727D01*
X132407876Y-80891702D01*
X132733729Y-80804109D01*
X133040258Y-80745622D01*
X133368541Y-80705200D01*
X133708195Y-80684187D01*
X134053961Y-80682752D01*
X134400582Y-80701065D01*
X134742801Y-80739296D01*
X134765278Y-80742547D01*
X135143662Y-80811477D01*
X135507541Y-80905315D01*
X135857776Y-81024427D01*
X136195224Y-81169179D01*
X136520745Y-81339938D01*
X136835196Y-81537069D01*
X137139437Y-81760939D01*
X137149294Y-81768852D01*
X137215557Y-81825506D01*
X137295120Y-81898039D01*
X137382985Y-81981489D01*
X137474155Y-82070896D01*
X137563632Y-82161298D01*
X137646419Y-82247732D01*
X137717518Y-82325240D01*
X137771931Y-82388857D01*
X137861262Y-82503241D01*
X138066572Y-82798168D01*
X138248870Y-83108420D01*
X138406991Y-83431476D01*
X138539770Y-83764814D01*
X138646044Y-84105913D01*
X138724647Y-84452249D01*
X138738328Y-84529263D01*
X138784516Y-84860861D01*
X138809877Y-85188793D01*
X138813197Y-85427754D01*
X138814326Y-85509034D01*
X138797775Y-85817559D01*
G37*
G36*
X136134457Y-85429591D02*
G01*
X136121888Y-85591928D01*
X136099127Y-85733837D01*
X136064750Y-85860958D01*
X136017332Y-85978933D01*
X135955447Y-86093401D01*
X135912430Y-86159966D01*
X135793169Y-86309000D01*
X135655753Y-86435507D01*
X135500145Y-86539509D01*
X135326307Y-86621029D01*
X135134203Y-86680089D01*
X134923795Y-86716711D01*
X134738650Y-86730059D01*
X134524669Y-86727346D01*
X134314577Y-86706373D01*
X134118126Y-86667730D01*
X133954413Y-86618161D01*
X133745682Y-86529700D01*
X133550848Y-86417572D01*
X133370888Y-86283269D01*
X133206780Y-86128284D01*
X133059504Y-85954112D01*
X132930038Y-85762245D01*
X132819359Y-85554176D01*
X132728446Y-85331400D01*
X132658278Y-85095408D01*
X132609833Y-84847695D01*
X132584089Y-84589754D01*
X132582870Y-84432383D01*
X132781633Y-84432383D01*
X132794135Y-84655007D01*
X132805788Y-84753644D01*
X132852914Y-85010320D01*
X132922415Y-85251466D01*
X133013760Y-85476056D01*
X133126416Y-85683061D01*
X133259852Y-85871453D01*
X133413538Y-86040205D01*
X133586941Y-86188289D01*
X133669072Y-86246309D01*
X133852242Y-86351305D01*
X134047476Y-86430921D01*
X134257667Y-86486442D01*
X134303665Y-86494790D01*
X134437967Y-86511695D01*
X134583433Y-86521139D01*
X134727762Y-86522532D01*
X134858650Y-86515283D01*
X135021151Y-86491381D01*
X135193001Y-86444989D01*
X135358214Y-86375981D01*
X135385644Y-86362230D01*
X135448896Y-86327226D01*
X135502767Y-86290397D01*
X135556543Y-86244917D01*
X135619512Y-86183962D01*
X135681574Y-86118983D01*
X135729765Y-86060830D01*
X135768313Y-86003006D01*
X135803881Y-85936570D01*
X135839631Y-85860675D01*
X135871623Y-85781614D01*
X135895125Y-85705150D01*
X135911373Y-85624989D01*
X135921602Y-85534840D01*
X135927048Y-85428407D01*
X135928944Y-85299398D01*
X135928973Y-85235135D01*
X135927307Y-85121930D01*
X135922573Y-85025861D01*
X135913860Y-84939030D01*
X135900260Y-84853538D01*
X135880864Y-84761490D01*
X135854762Y-84654985D01*
X135826660Y-84554430D01*
X135745075Y-84329163D01*
X135642426Y-84119554D01*
X135520012Y-83927282D01*
X135379129Y-83754028D01*
X135221076Y-83601474D01*
X135047151Y-83471298D01*
X134858650Y-83365182D01*
X134737494Y-83312214D01*
X134584272Y-83260797D01*
X134425508Y-83225853D01*
X134254285Y-83205943D01*
X134063689Y-83199626D01*
X133882017Y-83206445D01*
X133688322Y-83232082D01*
X133514451Y-83277179D01*
X133359144Y-83342170D01*
X133221143Y-83427493D01*
X133099186Y-83533582D01*
X133052901Y-83583909D01*
X132953632Y-83720199D01*
X132877024Y-83872627D01*
X132822924Y-84041757D01*
X132791179Y-84228154D01*
X132781633Y-84432383D01*
X132582870Y-84432383D01*
X132582024Y-84323077D01*
X132584228Y-84272358D01*
X132592371Y-84157947D01*
X132604616Y-84063224D01*
X132621729Y-83981610D01*
X132681963Y-83797734D01*
X132766145Y-83626292D01*
X132871918Y-83473443D01*
X132998262Y-83340108D01*
X133144156Y-83227207D01*
X133308579Y-83135658D01*
X133490510Y-83066382D01*
X133688928Y-83020299D01*
X133886196Y-82995732D01*
X134132695Y-82988433D01*
X134372299Y-83007728D01*
X134603446Y-83053289D01*
X134824576Y-83124787D01*
X135034127Y-83221894D01*
X135230536Y-83344283D01*
X135245665Y-83355262D01*
X135348728Y-83438862D01*
X135456395Y-83539391D01*
X135561267Y-83649170D01*
X135655944Y-83760520D01*
X135733025Y-83865761D01*
X135855672Y-84072978D01*
X135963942Y-84309457D01*
X136046061Y-84557747D01*
X136102120Y-84818195D01*
X136132211Y-85091144D01*
X136134335Y-85235135D01*
X136136427Y-85376941D01*
X136134457Y-85429591D01*
G37*
G36*
X151895351Y-82362154D02*
G01*
X151932127Y-82364804D01*
X151979019Y-82372337D01*
X152014344Y-82386630D01*
X152049097Y-82411192D01*
X152085634Y-82443972D01*
X152128765Y-82501578D01*
X152150140Y-82567849D01*
X152153304Y-82650939D01*
X152150125Y-82685948D01*
X152127504Y-82767218D01*
X152082915Y-82831268D01*
X152014458Y-82881249D01*
X151974444Y-82898240D01*
X151927709Y-82906103D01*
X151863999Y-82906111D01*
X151827975Y-82903975D01*
X151782317Y-82896998D01*
X151747461Y-82882683D01*
X151711947Y-82857356D01*
X151688446Y-82837221D01*
X151636246Y-82776735D01*
X151607717Y-82709445D01*
X151599060Y-82627619D01*
X151600523Y-82593350D01*
X151619752Y-82512519D01*
X151662635Y-82447145D01*
X151730894Y-82394181D01*
X151761008Y-82377801D01*
X151796665Y-82364937D01*
X151837529Y-82360484D01*
X151895351Y-82362154D01*
G37*
G36*
X148974265Y-83755733D02*
G01*
X149084516Y-83762413D01*
X149182605Y-83772217D01*
X149260190Y-83784877D01*
X149314097Y-83797318D01*
X149534945Y-83865165D01*
X149739375Y-83956074D01*
X149926342Y-84069125D01*
X150094805Y-84203398D01*
X150243720Y-84357973D01*
X150372045Y-84531929D01*
X150478737Y-84724347D01*
X150562754Y-84934306D01*
X150563257Y-84935825D01*
X150616789Y-85139094D01*
X150647917Y-85352637D01*
X150656935Y-85571353D01*
X150644141Y-85790141D01*
X150609830Y-86003900D01*
X150554299Y-86207531D01*
X150477844Y-86395931D01*
X150429431Y-86488756D01*
X150309190Y-86674879D01*
X150168117Y-86841955D01*
X150007904Y-86988716D01*
X149830245Y-87113891D01*
X149636830Y-87216213D01*
X149429353Y-87294412D01*
X149209505Y-87347217D01*
X149151170Y-87355309D01*
X149051526Y-87363365D01*
X148937815Y-87367733D01*
X148818557Y-87368403D01*
X148702270Y-87365363D01*
X148597473Y-87358603D01*
X148512685Y-87348112D01*
X148379022Y-87319719D01*
X148180972Y-87256311D01*
X147996315Y-87170661D01*
X147827717Y-87064298D01*
X147677845Y-86938751D01*
X147549365Y-86795550D01*
X147537263Y-86779803D01*
X147511300Y-86744143D01*
X147500602Y-86722768D01*
X147503057Y-86709375D01*
X147516553Y-86697663D01*
X147521785Y-86693932D01*
X147551631Y-86672380D01*
X147595105Y-86640780D01*
X147644743Y-86604553D01*
X147745317Y-86531005D01*
X147845421Y-86639643D01*
X147879208Y-86675101D01*
X148021839Y-86800642D01*
X148177763Y-86900904D01*
X148348640Y-86976822D01*
X148536130Y-87029335D01*
X148554967Y-87033142D01*
X148743833Y-87057280D01*
X148937650Y-87058339D01*
X149130040Y-87036988D01*
X149314628Y-86993896D01*
X149485037Y-86929733D01*
X149562676Y-86890968D01*
X149728818Y-86785779D01*
X149875756Y-86660022D01*
X150002568Y-86515242D01*
X150108332Y-86352983D01*
X150192125Y-86174791D01*
X150253026Y-85982209D01*
X150290112Y-85776784D01*
X150302463Y-85560060D01*
X150296652Y-85414177D01*
X150267121Y-85203834D01*
X150213489Y-85006683D01*
X150136738Y-84824072D01*
X150037849Y-84657350D01*
X149917805Y-84507864D01*
X149777586Y-84376962D01*
X149618176Y-84265993D01*
X149440556Y-84176305D01*
X149245708Y-84109245D01*
X149225201Y-84103784D01*
X149179965Y-84093141D01*
X149135594Y-84085589D01*
X149086124Y-84080637D01*
X149025590Y-84077797D01*
X148948028Y-84076576D01*
X148847476Y-84076484D01*
X148755811Y-84076943D01*
X148679308Y-84078208D01*
X148620373Y-84080848D01*
X148573090Y-84085452D01*
X148531544Y-84092612D01*
X148489820Y-84102917D01*
X148442003Y-84116958D01*
X148418675Y-84124254D01*
X148240062Y-84193634D01*
X148081298Y-84280474D01*
X147944220Y-84383616D01*
X147830665Y-84501903D01*
X147824082Y-84510013D01*
X147790527Y-84549678D01*
X147764444Y-84577830D01*
X147751016Y-84588817D01*
X147741573Y-84584623D01*
X147712454Y-84566482D01*
X147669391Y-84537239D01*
X147617723Y-84500433D01*
X147494801Y-84411046D01*
X147519485Y-84367457D01*
X147534509Y-84344788D01*
X147575236Y-84295353D01*
X147630278Y-84236847D01*
X147694110Y-84174578D01*
X147761206Y-84113849D01*
X147826044Y-84059968D01*
X147883097Y-84018240D01*
X147979415Y-83960043D01*
X148165547Y-83873122D01*
X148370147Y-83807452D01*
X148591978Y-83763477D01*
X148653966Y-83757106D01*
X148750648Y-83752812D01*
X148860195Y-83752443D01*
X148974265Y-83755733D01*
G37*
G36*
X128814354Y-91534468D02*
G01*
X128843944Y-91629236D01*
X128855977Y-91668516D01*
X128861153Y-91699136D01*
X128851562Y-91724218D01*
X128849677Y-91723750D01*
X128808752Y-91703477D01*
X128722975Y-91656752D01*
X128600980Y-91588405D01*
X128451402Y-91503264D01*
X128282875Y-91406158D01*
X127733990Y-91088098D01*
X127621258Y-90729780D01*
X127508526Y-90371461D01*
X126932680Y-90353295D01*
X126517828Y-89034619D01*
X126309827Y-89025288D01*
X126101827Y-89015957D01*
X126305189Y-89659099D01*
X126325501Y-89723468D01*
X126383862Y-89909993D01*
X126434174Y-90073107D01*
X126473611Y-90203501D01*
X126499345Y-90291866D01*
X126508551Y-90328894D01*
X126479467Y-90337175D01*
X126396492Y-90344534D01*
X126269554Y-90350350D01*
X126108591Y-90354172D01*
X125923543Y-90355546D01*
X125338535Y-90355546D01*
X125233876Y-90021336D01*
X125129217Y-89687125D01*
X124641190Y-89687125D01*
X124546285Y-89687582D01*
X124390660Y-89690535D01*
X124266076Y-89695777D01*
X124183405Y-89702775D01*
X124153518Y-89710998D01*
X124157360Y-89729569D01*
X124176639Y-89799541D01*
X124208455Y-89906850D01*
X124248652Y-90037251D01*
X124275598Y-90123531D01*
X124298130Y-90196399D01*
X124299164Y-90199744D01*
X124310646Y-90236876D01*
X124334738Y-90316254D01*
X124343785Y-90348291D01*
X124343777Y-90348342D01*
X124312663Y-90350602D01*
X124227935Y-90351727D01*
X124099451Y-90351717D01*
X123937070Y-90350571D01*
X123750650Y-90348291D01*
X123157160Y-90339632D01*
X122740270Y-89018704D01*
X122537429Y-89018704D01*
X122508598Y-89018734D01*
X122411460Y-89020896D01*
X122362230Y-89030150D01*
X122347979Y-89051593D01*
X122355784Y-89090321D01*
X122356278Y-89091985D01*
X122375739Y-89155405D01*
X122409377Y-89263032D01*
X122453492Y-89403208D01*
X122504384Y-89564273D01*
X122558354Y-89734570D01*
X122611701Y-89902440D01*
X122660727Y-90056224D01*
X122701731Y-90184263D01*
X122731015Y-90274900D01*
X122744878Y-90316475D01*
X122741985Y-90328016D01*
X122711763Y-90339170D01*
X122645334Y-90346403D01*
X122535847Y-90350088D01*
X122376451Y-90350598D01*
X122160293Y-90348305D01*
X121560564Y-90339632D01*
X121353440Y-89679168D01*
X121146315Y-89018704D01*
X120660047Y-89018704D01*
X120862871Y-89655872D01*
X120881551Y-89714689D01*
X120940209Y-89901205D01*
X120990815Y-90064857D01*
X121030506Y-90196212D01*
X121056420Y-90285835D01*
X121065694Y-90324293D01*
X121060594Y-90330560D01*
X121008113Y-90343627D01*
X120907906Y-90352329D01*
X120771271Y-90355468D01*
X120476847Y-90355390D01*
X120270811Y-89699238D01*
X120246888Y-89623715D01*
X120185916Y-89437201D01*
X120130372Y-89275472D01*
X120083519Y-89147562D01*
X120048618Y-89062504D01*
X120028931Y-89029332D01*
X119986588Y-89023934D01*
X119898052Y-89022170D01*
X119785553Y-89025098D01*
X119578019Y-89034619D01*
X119780034Y-89671211D01*
X119798809Y-89730469D01*
X119857238Y-89916143D01*
X119907705Y-90078407D01*
X119936511Y-90172526D01*
X119947354Y-90207954D01*
X119973327Y-90295479D01*
X119982769Y-90331674D01*
X119972963Y-90333565D01*
X119908158Y-90336839D01*
X119786375Y-90339956D01*
X119611895Y-90342882D01*
X119389000Y-90345585D01*
X119121972Y-90348033D01*
X118815093Y-90350194D01*
X118472645Y-90352034D01*
X118098909Y-90353522D01*
X117698168Y-90354625D01*
X117274702Y-90355311D01*
X116832794Y-90355546D01*
X113682100Y-90355546D01*
X113579806Y-90021336D01*
X113477511Y-89687125D01*
X113276991Y-89687125D01*
X113181113Y-89690342D01*
X113105459Y-89699825D01*
X113076471Y-89713380D01*
X113076583Y-89715154D01*
X113088027Y-89761551D01*
X113114581Y-89848960D01*
X113151010Y-89960059D01*
X113151165Y-89960517D01*
X113191607Y-90083387D01*
X113226069Y-90193840D01*
X113247105Y-90268015D01*
X113268662Y-90355546D01*
X111073978Y-90355546D01*
X110993019Y-90099267D01*
X110979844Y-90057157D01*
X110953268Y-89968842D01*
X111134867Y-89968842D01*
X111134913Y-89970361D01*
X111145733Y-90019590D01*
X111169811Y-90096160D01*
X111204754Y-90196399D01*
X112467535Y-90196399D01*
X112407654Y-90013379D01*
X112406756Y-90010630D01*
X112377486Y-89920177D01*
X112333337Y-89782637D01*
X112278472Y-89611024D01*
X112217050Y-89418353D01*
X112153234Y-89217639D01*
X111966060Y-88628119D01*
X112312191Y-88628119D01*
X112318704Y-88654592D01*
X112342154Y-88734978D01*
X112380230Y-88860555D01*
X112430358Y-89022933D01*
X112489965Y-89213722D01*
X112556476Y-89424531D01*
X112801130Y-90196399D01*
X112922886Y-90196399D01*
X112946388Y-90196211D01*
X113016448Y-90192800D01*
X113044642Y-90186455D01*
X113041727Y-90175396D01*
X113022940Y-90115959D01*
X112990580Y-90017567D01*
X112949153Y-89894018D01*
X112927198Y-89827944D01*
X112889454Y-89708175D01*
X112863389Y-89616832D01*
X112853664Y-89569751D01*
X112855627Y-89562027D01*
X112882943Y-89545749D01*
X112948947Y-89535262D01*
X113061940Y-89529645D01*
X113230220Y-89527978D01*
X113606776Y-89527978D01*
X113708613Y-89862188D01*
X113810451Y-90196399D01*
X114058031Y-90196399D01*
X113981713Y-89949719D01*
X113960127Y-89880376D01*
X113914354Y-89734579D01*
X113857756Y-89555295D01*
X113795519Y-89358943D01*
X113732830Y-89161937D01*
X113567476Y-88643441D01*
X113910809Y-88643441D01*
X113911834Y-88660622D01*
X113919274Y-88685672D01*
X113944368Y-88767214D01*
X113983853Y-88894129D01*
X114034893Y-89057342D01*
X114094655Y-89247778D01*
X114160306Y-89456361D01*
X114393560Y-90196399D01*
X114514840Y-90196399D01*
X114537943Y-90196253D01*
X114607877Y-90193527D01*
X114635943Y-90188441D01*
X114626918Y-90158041D01*
X114602093Y-90077693D01*
X114564856Y-89958186D01*
X114518592Y-89810307D01*
X114466690Y-89644839D01*
X114412535Y-89472570D01*
X114359515Y-89304283D01*
X114311016Y-89150765D01*
X114270426Y-89022800D01*
X114241131Y-88931173D01*
X114235866Y-88913912D01*
X114233926Y-88883228D01*
X114258142Y-88867087D01*
X114321014Y-88860910D01*
X114435041Y-88860116D01*
X114652035Y-88860676D01*
X115067671Y-90180484D01*
X115186106Y-90190363D01*
X115207358Y-90191744D01*
X115276609Y-90189321D01*
X115304541Y-90176162D01*
X115299322Y-90153749D01*
X115277607Y-90078442D01*
X115241960Y-89960892D01*
X115195578Y-89811608D01*
X115141661Y-89641095D01*
X115105271Y-89526764D01*
X115049453Y-89350760D01*
X115000070Y-89194307D01*
X114961441Y-89071100D01*
X114937884Y-88994832D01*
X114896987Y-88859557D01*
X115324259Y-88859557D01*
X115533773Y-89520020D01*
X115743287Y-90180484D01*
X115858125Y-90190363D01*
X115861691Y-90190658D01*
X115943982Y-90187522D01*
X115972962Y-90162232D01*
X115967227Y-90133913D01*
X115943417Y-90048169D01*
X115900888Y-89905923D01*
X115839396Y-89706385D01*
X115758697Y-89448765D01*
X115658546Y-89132270D01*
X115538700Y-88756110D01*
X115501522Y-88639727D01*
X115845644Y-88639727D01*
X115846957Y-88648182D01*
X115862778Y-88708797D01*
X115894274Y-88817096D01*
X115938614Y-88963663D01*
X115992965Y-89139084D01*
X116054494Y-89333941D01*
X116074325Y-89396198D01*
X116136931Y-89592854D01*
X116193760Y-89771524D01*
X116241421Y-89921541D01*
X116276526Y-90032240D01*
X116295684Y-90092953D01*
X116324167Y-90161055D01*
X116325921Y-90162232D01*
X116367679Y-90190259D01*
X116450296Y-90196399D01*
X116572568Y-90196399D01*
X116496249Y-89949719D01*
X116474676Y-89880402D01*
X116428926Y-89734605D01*
X116372364Y-89555315D01*
X116310175Y-89358953D01*
X116247541Y-89161937D01*
X116078495Y-88631327D01*
X116418577Y-88631327D01*
X116418620Y-88632844D01*
X116429429Y-88682514D01*
X116453520Y-88759318D01*
X116488463Y-88859557D01*
X117495666Y-88859557D01*
X117550605Y-89026662D01*
X117572863Y-89093987D01*
X117602529Y-89182451D01*
X117620227Y-89233554D01*
X117620911Y-89236255D01*
X117607558Y-89251099D01*
X117558372Y-89261669D01*
X117466404Y-89268527D01*
X117324707Y-89272231D01*
X117126332Y-89273341D01*
X116617753Y-89273341D01*
X116762980Y-89734870D01*
X116908208Y-90196399D01*
X117542111Y-90196399D01*
X117735421Y-90196065D01*
X117902657Y-90194495D01*
X118020761Y-90191047D01*
X118097467Y-90185081D01*
X118140512Y-90175960D01*
X118157630Y-90163045D01*
X118156558Y-90145697D01*
X118141075Y-90100051D01*
X118117872Y-90018379D01*
X118098643Y-89941762D01*
X117068371Y-89941762D01*
X117026404Y-89790572D01*
X117013002Y-89742393D01*
X116986227Y-89646747D01*
X116968346Y-89583679D01*
X116966631Y-89576702D01*
X116969067Y-89557543D01*
X116990909Y-89544166D01*
X117041005Y-89535546D01*
X117128206Y-89530658D01*
X117261363Y-89528477D01*
X117449325Y-89527978D01*
X117552247Y-89527459D01*
X117708434Y-89524451D01*
X117833258Y-89519211D01*
X117915955Y-89512257D01*
X117945760Y-89504105D01*
X117944519Y-89497357D01*
X117929157Y-89441541D01*
X117899037Y-89340742D01*
X117857664Y-89206544D01*
X117808542Y-89050534D01*
X117679955Y-88645989D01*
X118019327Y-88645989D01*
X118023609Y-88667898D01*
X118035089Y-88708335D01*
X118059697Y-88795118D01*
X118063793Y-88807147D01*
X118078846Y-88827515D01*
X118110348Y-88842007D01*
X118167740Y-88851899D01*
X118260463Y-88858467D01*
X118397960Y-88862987D01*
X118589673Y-88866735D01*
X119101837Y-88875471D01*
X119139845Y-88986875D01*
X119140972Y-88990188D01*
X119173572Y-89093198D01*
X119199323Y-89185810D01*
X119220792Y-89273341D01*
X118227804Y-89273341D01*
X118249991Y-89376787D01*
X118251053Y-89381694D01*
X118270353Y-89458835D01*
X118286228Y-89504105D01*
X118301117Y-89509239D01*
X118369997Y-89516675D01*
X118484582Y-89522615D01*
X118633788Y-89526552D01*
X118806534Y-89527978D01*
X119312790Y-89527978D01*
X119371408Y-89726912D01*
X119430027Y-89925847D01*
X118930513Y-89934576D01*
X118431000Y-89943305D01*
X118486776Y-90163045D01*
X118495242Y-90196399D01*
X119127962Y-90196399D01*
X119164493Y-90196359D01*
X119353512Y-90194820D01*
X119516911Y-90191307D01*
X119645181Y-90186180D01*
X119728814Y-90179800D01*
X119758299Y-90172526D01*
X119751504Y-90147673D01*
X119727533Y-90068884D01*
X119688817Y-89944781D01*
X119638003Y-89783780D01*
X119577735Y-89594296D01*
X119510659Y-89384744D01*
X119265730Y-88621857D01*
X119601534Y-88621857D01*
X119602054Y-88625656D01*
X119617298Y-88672375D01*
X119647078Y-88747797D01*
X119692622Y-88856800D01*
X119940952Y-88866135D01*
X120189282Y-88875471D01*
X120396724Y-89535297D01*
X120604165Y-90195123D01*
X120723526Y-90195761D01*
X120745114Y-90195482D01*
X120814531Y-90187718D01*
X120842153Y-90172526D01*
X120841196Y-90167517D01*
X120826323Y-90114775D01*
X120795675Y-90013563D01*
X120752128Y-89873177D01*
X120698559Y-89702911D01*
X120637842Y-89512063D01*
X120434266Y-88875471D01*
X120670803Y-88859557D01*
X120691061Y-88858105D01*
X120801111Y-88846770D01*
X120879138Y-88832926D01*
X120909356Y-88819240D01*
X120904778Y-88774906D01*
X120890515Y-88699879D01*
X120871407Y-88612877D01*
X121193797Y-88612877D01*
X121201297Y-88637708D01*
X121225794Y-88715848D01*
X121258472Y-88819240D01*
X121264820Y-88839326D01*
X121315804Y-89000029D01*
X121376176Y-89189845D01*
X121443366Y-89400659D01*
X121692150Y-90180484D01*
X121808621Y-90190363D01*
X121828146Y-90191653D01*
X121897351Y-90188786D01*
X121925561Y-90174448D01*
X121919098Y-90147750D01*
X121895716Y-90067085D01*
X121857716Y-89941247D01*
X121807669Y-89778645D01*
X121748147Y-89587689D01*
X121681719Y-89376787D01*
X121437407Y-88604920D01*
X121773536Y-88604920D01*
X122021281Y-89386953D01*
X122081115Y-89574829D01*
X122143658Y-89768924D01*
X122198021Y-89935199D01*
X122241486Y-90065424D01*
X122271333Y-90151369D01*
X122280659Y-90174448D01*
X122284844Y-90184805D01*
X122286754Y-90186215D01*
X122331762Y-90193177D01*
X122409195Y-90190553D01*
X122517729Y-90180484D01*
X122317079Y-89543892D01*
X122298520Y-89484911D01*
X122240500Y-89299160D01*
X122190431Y-89136822D01*
X122151144Y-89007212D01*
X122125473Y-88919642D01*
X122116250Y-88883429D01*
X122145708Y-88874185D01*
X122226486Y-88866582D01*
X122346202Y-88861444D01*
X122492474Y-88859557D01*
X122868878Y-88859557D01*
X123078160Y-89520020D01*
X123287442Y-90180484D01*
X123541966Y-90199744D01*
X123405480Y-89776330D01*
X123348617Y-89599127D01*
X123278496Y-89379054D01*
X123210056Y-89162876D01*
X123152292Y-88978917D01*
X123046451Y-88639727D01*
X123389253Y-88639727D01*
X123390567Y-88648182D01*
X123406387Y-88708797D01*
X123437883Y-88817096D01*
X123482223Y-88963663D01*
X123536574Y-89139084D01*
X123598103Y-89333941D01*
X123617934Y-89396198D01*
X123680540Y-89592854D01*
X123737369Y-89771524D01*
X123785030Y-89921541D01*
X123820135Y-90032240D01*
X123839293Y-90092953D01*
X123839691Y-90094223D01*
X123868178Y-90161660D01*
X123911850Y-90190382D01*
X123994768Y-90196399D01*
X124117902Y-90196399D01*
X124071690Y-90045208D01*
X124068718Y-90035528D01*
X124041881Y-89949336D01*
X124000161Y-89816532D01*
X123947314Y-89649014D01*
X123887089Y-89458680D01*
X123823240Y-89257426D01*
X123624336Y-88631327D01*
X123962186Y-88631327D01*
X123962218Y-88632632D01*
X123972877Y-88681994D01*
X123996859Y-88758543D01*
X124031532Y-88858007D01*
X125051632Y-88875471D01*
X125111202Y-89066449D01*
X125139424Y-89157700D01*
X125162292Y-89233345D01*
X125171241Y-89265384D01*
X125158758Y-89267143D01*
X125093699Y-89269604D01*
X124982465Y-89271568D01*
X124835714Y-89272870D01*
X124664102Y-89273341D01*
X124156495Y-89273341D01*
X124197785Y-89392702D01*
X124239076Y-89512063D01*
X125255160Y-89529497D01*
X125470704Y-90196399D01*
X125591758Y-90196399D01*
X125614719Y-90196254D01*
X125684438Y-90193529D01*
X125712207Y-90188441D01*
X125704775Y-90163636D01*
X125680382Y-90085510D01*
X125641482Y-89962034D01*
X125590640Y-89801323D01*
X125530419Y-89611493D01*
X125463381Y-89400659D01*
X125222540Y-88644022D01*
X125560098Y-88644022D01*
X125568388Y-88669758D01*
X125593982Y-88750614D01*
X125633735Y-88876830D01*
X125684897Y-89039658D01*
X125744717Y-89230351D01*
X125810445Y-89440161D01*
X126044710Y-90188441D01*
X126047023Y-90195829D01*
X126166384Y-90196114D01*
X126187833Y-90195836D01*
X126257603Y-90189133D01*
X126285744Y-90176226D01*
X126281723Y-90160252D01*
X126261632Y-90092738D01*
X126227777Y-89982862D01*
X126183652Y-89841639D01*
X126132754Y-89680082D01*
X126078578Y-89509206D01*
X126024619Y-89340025D01*
X125974374Y-89183554D01*
X125931338Y-89050806D01*
X125899007Y-88952796D01*
X125880876Y-88900539D01*
X125882306Y-88884821D01*
X125910851Y-88872232D01*
X125976811Y-88865509D01*
X126088902Y-88863864D01*
X126255839Y-88866504D01*
X126647304Y-88875471D01*
X127062988Y-90196399D01*
X127183639Y-90196399D01*
X127206549Y-90195962D01*
X127275409Y-90187785D01*
X127301969Y-90172526D01*
X127295206Y-90147696D01*
X127271299Y-90068920D01*
X127232669Y-89944819D01*
X127181958Y-89783810D01*
X127121806Y-89594313D01*
X127054854Y-89384744D01*
X126810062Y-88620835D01*
X126178195Y-88612192D01*
X125971475Y-88610027D01*
X125801081Y-88610193D01*
X125681451Y-88613330D01*
X125605880Y-88619784D01*
X125567663Y-88629900D01*
X125560098Y-88644022D01*
X125222540Y-88644022D01*
X125215159Y-88620835D01*
X124588673Y-88612204D01*
X124557677Y-88611811D01*
X124368904Y-88610950D01*
X124205366Y-88612763D01*
X124076667Y-88616960D01*
X123992406Y-88623245D01*
X123962186Y-88631327D01*
X123624336Y-88631327D01*
X123621003Y-88620835D01*
X123505128Y-88610956D01*
X123502554Y-88610742D01*
X123418363Y-88613718D01*
X123389253Y-88639727D01*
X123046451Y-88639727D01*
X123035590Y-88604920D01*
X121773536Y-88604920D01*
X121437407Y-88604920D01*
X121315210Y-88604920D01*
X121291220Y-88605075D01*
X121221462Y-88607810D01*
X121193797Y-88612877D01*
X120871407Y-88612877D01*
X120869659Y-88604920D01*
X120235596Y-88604920D01*
X120198354Y-88604949D01*
X120008959Y-88606045D01*
X119845032Y-88608538D01*
X119716120Y-88612175D01*
X119631772Y-88616700D01*
X119601534Y-88621857D01*
X119265730Y-88621857D01*
X119265402Y-88620835D01*
X118635368Y-88612197D01*
X118505066Y-88610456D01*
X118323176Y-88608605D01*
X118192340Y-88608891D01*
X118104546Y-88612043D01*
X118051786Y-88618791D01*
X118026050Y-88629863D01*
X118019327Y-88645989D01*
X117679955Y-88645989D01*
X117671960Y-88620835D01*
X117045268Y-88612204D01*
X117014101Y-88611809D01*
X116825311Y-88610950D01*
X116661764Y-88612765D01*
X116533060Y-88616961D01*
X116448797Y-88623246D01*
X116418577Y-88631327D01*
X116078495Y-88631327D01*
X116075152Y-88620835D01*
X115960398Y-88610956D01*
X115958505Y-88610796D01*
X115874699Y-88613699D01*
X115845644Y-88639727D01*
X115501522Y-88639727D01*
X115490403Y-88604920D01*
X114693509Y-88604920D01*
X114673974Y-88604921D01*
X114432521Y-88605221D01*
X114247090Y-88606409D01*
X114110554Y-88608993D01*
X114015786Y-88613480D01*
X113955657Y-88620378D01*
X113923041Y-88630196D01*
X113910809Y-88643441D01*
X113567476Y-88643441D01*
X113560267Y-88620835D01*
X112936414Y-88612204D01*
X112907708Y-88611833D01*
X112719096Y-88610743D01*
X112555608Y-88612072D01*
X112426875Y-88615575D01*
X112342526Y-88621006D01*
X112312191Y-88628119D01*
X111966060Y-88628119D01*
X111958694Y-88604920D01*
X111715728Y-88604920D01*
X111918656Y-89246688D01*
X111938594Y-89309870D01*
X111996925Y-89496291D01*
X112047219Y-89659346D01*
X112086647Y-89789713D01*
X112112378Y-89878074D01*
X112121584Y-89915109D01*
X112111420Y-89920488D01*
X112049719Y-89928918D01*
X111941405Y-89935664D01*
X111797299Y-89940140D01*
X111628226Y-89941762D01*
X111528661Y-89942320D01*
X111372610Y-89945707D01*
X111247746Y-89951652D01*
X111164891Y-89959562D01*
X111134867Y-89968842D01*
X110953268Y-89968842D01*
X110945239Y-89942161D01*
X110921118Y-89855307D01*
X110912060Y-89812801D01*
X110916604Y-89808298D01*
X110969074Y-89797830D01*
X111073616Y-89789718D01*
X111221856Y-89784476D01*
X111405419Y-89782614D01*
X111504972Y-89782210D01*
X111661027Y-89779756D01*
X111785895Y-89775448D01*
X111868753Y-89769716D01*
X111898777Y-89762991D01*
X111897667Y-89757504D01*
X111882345Y-89704205D01*
X111851251Y-89602599D01*
X111807240Y-89461838D01*
X111753167Y-89291077D01*
X111691885Y-89099468D01*
X111670511Y-89032837D01*
X111611340Y-88847146D01*
X111560346Y-88685325D01*
X111520387Y-88556547D01*
X111494317Y-88469988D01*
X111484993Y-88434821D01*
X111485143Y-88434690D01*
X111520791Y-88432782D01*
X111617170Y-88430856D01*
X111771538Y-88428923D01*
X111981157Y-88426993D01*
X112243286Y-88425077D01*
X112555185Y-88423184D01*
X112914112Y-88421325D01*
X113317329Y-88419511D01*
X113762095Y-88417751D01*
X114245669Y-88416055D01*
X114765312Y-88414435D01*
X115318283Y-88412900D01*
X115901842Y-88411460D01*
X116513248Y-88410126D01*
X117149762Y-88408907D01*
X117808643Y-88407815D01*
X118487151Y-88406859D01*
X119182546Y-88406050D01*
X126880100Y-88398028D01*
X126651781Y-87681862D01*
X126610262Y-87550888D01*
X126551097Y-87361393D01*
X126541801Y-87330962D01*
X126731358Y-87330962D01*
X126737891Y-87355794D01*
X126761732Y-87435652D01*
X126801108Y-87564064D01*
X126853986Y-87734602D01*
X126918333Y-87940835D01*
X126992113Y-88176335D01*
X127073293Y-88434672D01*
X127159840Y-88709417D01*
X127249719Y-88994140D01*
X127340897Y-89282412D01*
X127431339Y-89567804D01*
X127519012Y-89843885D01*
X127601882Y-90104228D01*
X127623685Y-90172526D01*
X127677916Y-90342402D01*
X127745078Y-90551977D01*
X127801335Y-90726526D01*
X127844654Y-90859617D01*
X127873001Y-90944823D01*
X127884341Y-90975712D01*
X127910444Y-90991349D01*
X127981226Y-91032813D01*
X128085307Y-91093428D01*
X128211434Y-91166624D01*
X128329188Y-91234836D01*
X128440007Y-91298986D01*
X128519988Y-91345232D01*
X128557012Y-91366564D01*
X128569680Y-91363786D01*
X128565776Y-91322377D01*
X128523053Y-91184939D01*
X128423132Y-90865330D01*
X128318950Y-90534357D01*
X128212304Y-90197567D01*
X128104991Y-89860504D01*
X127998807Y-89528713D01*
X127895549Y-89207741D01*
X127797014Y-88903132D01*
X127704999Y-88620432D01*
X127621300Y-88365187D01*
X127547714Y-88142942D01*
X127486038Y-87959242D01*
X127438069Y-87819634D01*
X127405604Y-87729661D01*
X127390438Y-87694870D01*
X127340340Y-87658182D01*
X127255219Y-87604622D01*
X127148238Y-87541608D01*
X127032137Y-87476176D01*
X126919658Y-87415361D01*
X126823541Y-87366197D01*
X126756528Y-87335719D01*
X126731358Y-87330962D01*
X126541801Y-87330962D01*
X126501285Y-87198330D01*
X126463381Y-87070235D01*
X126439941Y-86985642D01*
X126433523Y-86953089D01*
X126435975Y-86952794D01*
X126476983Y-86970036D01*
X126559925Y-87012824D01*
X126674591Y-87075290D01*
X126810767Y-87151563D01*
X126958241Y-87235774D01*
X127106801Y-87322053D01*
X127246234Y-87404531D01*
X127366329Y-87477337D01*
X127456873Y-87534603D01*
X127507654Y-87570459D01*
X127523006Y-87588714D01*
X127546379Y-87630620D01*
X127576262Y-87697923D01*
X127614006Y-87794563D01*
X127660963Y-87924481D01*
X127718484Y-88091617D01*
X127787921Y-88299910D01*
X127870625Y-88553302D01*
X127967947Y-88855731D01*
X128081240Y-89211139D01*
X128211855Y-89623466D01*
X128253369Y-89754834D01*
X128359941Y-90092215D01*
X128460436Y-90410559D01*
X128553215Y-90704659D01*
X128636635Y-90969307D01*
X128709059Y-91199296D01*
X128760784Y-91363786D01*
X128768845Y-91389419D01*
X128814354Y-91534468D01*
G37*
G36*
X113444589Y-89026662D02*
G01*
X113466830Y-89093921D01*
X113496666Y-89182842D01*
X113514600Y-89234564D01*
X113514000Y-89246253D01*
X113487051Y-89259529D01*
X113421023Y-89266851D01*
X113307763Y-89268908D01*
X113139117Y-89266394D01*
X112748562Y-89257426D01*
X112710572Y-89146023D01*
X112709448Y-89142715D01*
X112676859Y-89039703D01*
X112651113Y-88947088D01*
X112629644Y-88859557D01*
X113389651Y-88859557D01*
X113444589Y-89026662D01*
G37*
%TD*%
%LPC*%
%TO.C,G\u002A\u002A\u002A*%
G36*
X118570579Y-82921662D02*
G01*
X118467888Y-83055426D01*
X118340187Y-83209415D01*
X118193299Y-83376471D01*
X118033049Y-83549432D01*
X117865260Y-83721138D01*
X117630813Y-83943589D01*
X117231892Y-84273177D01*
X116833509Y-84541076D01*
X116436932Y-84746571D01*
X116043432Y-84888946D01*
X115654279Y-84967485D01*
X115433262Y-84983649D01*
X115057270Y-84963285D01*
X114696241Y-84884294D01*
X114356315Y-84749959D01*
X114043629Y-84563564D01*
X113764325Y-84328390D01*
X113524539Y-84047721D01*
X113330412Y-83724839D01*
X113287134Y-83633159D01*
X113201800Y-83410158D01*
X113148783Y-83185583D01*
X113124258Y-82939508D01*
X113124310Y-82832430D01*
X113314129Y-82832430D01*
X113328852Y-83052799D01*
X113360298Y-83236461D01*
X113377448Y-83299291D01*
X113501725Y-83618256D01*
X113678494Y-83914632D01*
X113899893Y-84178746D01*
X114158063Y-84400924D01*
X114445143Y-84571494D01*
X114496005Y-84595027D01*
X114638693Y-84656142D01*
X114769845Y-84706076D01*
X114866316Y-84735800D01*
X114990565Y-84760914D01*
X115361037Y-84791955D01*
X115736643Y-84758916D01*
X116116584Y-84662107D01*
X116500064Y-84501841D01*
X116886282Y-84278430D01*
X117274441Y-83992184D01*
X117663742Y-83643417D01*
X117691709Y-83615993D01*
X117952190Y-83346973D01*
X118203493Y-83064593D01*
X118423391Y-82793716D01*
X118434587Y-82771986D01*
X118431775Y-82734279D01*
X118403020Y-82678074D01*
X118342771Y-82593263D01*
X118245476Y-82469737D01*
X118235372Y-82457226D01*
X118037030Y-82226344D01*
X117811901Y-81987394D01*
X117575720Y-81755835D01*
X117344219Y-81547130D01*
X117133135Y-81376739D01*
X117028042Y-81302543D01*
X116816776Y-81170600D01*
X116583739Y-81042005D01*
X116347075Y-80925973D01*
X116124930Y-80831721D01*
X115935449Y-80768464D01*
X115859616Y-80750960D01*
X115634662Y-80721672D01*
X115352286Y-80711830D01*
X115218552Y-80712753D01*
X115075219Y-80718984D01*
X114959001Y-80733762D01*
X114848129Y-80760173D01*
X114720836Y-80801301D01*
X114687217Y-80813185D01*
X114386679Y-80944495D01*
X114124587Y-81111637D01*
X113880414Y-81327460D01*
X113789371Y-81427299D01*
X113608469Y-81677893D01*
X113461681Y-81955247D01*
X113362609Y-82235508D01*
X113334615Y-82385079D01*
X113316070Y-82601231D01*
X113314129Y-82832430D01*
X113124310Y-82832430D01*
X113124397Y-82652005D01*
X113127122Y-82590289D01*
X113164734Y-82255014D01*
X113243323Y-81957190D01*
X113368493Y-81684098D01*
X113545846Y-81423015D01*
X113780985Y-81161221D01*
X113931759Y-81020519D01*
X114170513Y-80842233D01*
X114432129Y-80702748D01*
X114736724Y-80590043D01*
X114950175Y-80542597D01*
X115210774Y-80517150D01*
X115488355Y-80516318D01*
X115760971Y-80540124D01*
X116006675Y-80588595D01*
X116184344Y-80643025D01*
X116580647Y-80809428D01*
X116978795Y-81037609D01*
X117375745Y-81325695D01*
X117768456Y-81671818D01*
X117771632Y-81674874D01*
X117905278Y-81808030D01*
X118048976Y-81958723D01*
X118194811Y-82117835D01*
X118334869Y-82276251D01*
X118461234Y-82424855D01*
X118565992Y-82554529D01*
X118641228Y-82656158D01*
X118679026Y-82720624D01*
X118677634Y-82743457D01*
X118663654Y-82771986D01*
X118642436Y-82815286D01*
X118570579Y-82921662D01*
G37*
G36*
X126641707Y-82868363D02*
G01*
X126638627Y-83036840D01*
X126631247Y-83163897D01*
X126617963Y-83264455D01*
X126597171Y-83353434D01*
X126567267Y-83445755D01*
X126448219Y-83723616D01*
X126253324Y-84041886D01*
X126013247Y-84322354D01*
X125734145Y-84559944D01*
X125422176Y-84749583D01*
X125083498Y-84886194D01*
X124724267Y-84964704D01*
X124676393Y-84970416D01*
X124290240Y-84979969D01*
X123898743Y-84925804D01*
X123503321Y-84808547D01*
X123105392Y-84628825D01*
X122706373Y-84387265D01*
X122307684Y-84084494D01*
X121910740Y-83721138D01*
X121813943Y-83623248D01*
X121649764Y-83449946D01*
X121496464Y-83279496D01*
X121359866Y-83119057D01*
X121245794Y-82975790D01*
X121160072Y-82856855D01*
X121108524Y-82769413D01*
X121107040Y-82763144D01*
X121339938Y-82763144D01*
X121352608Y-82793716D01*
X121432520Y-82896251D01*
X121770108Y-83293629D01*
X122120714Y-83652195D01*
X122479199Y-83968034D01*
X122840423Y-84237231D01*
X123199249Y-84455873D01*
X123550537Y-84620044D01*
X123889148Y-84725832D01*
X124035996Y-84753149D01*
X124203547Y-84774814D01*
X124370365Y-84788940D01*
X124515525Y-84793759D01*
X124618102Y-84787498D01*
X124897581Y-84730794D01*
X125179469Y-84643507D01*
X125425539Y-84527059D01*
X125650348Y-84374358D01*
X125868455Y-84178310D01*
X126029277Y-84001788D01*
X126224342Y-83721272D01*
X126359935Y-83422157D01*
X126439076Y-83097153D01*
X126464786Y-82738969D01*
X126460133Y-82572952D01*
X126425575Y-82303806D01*
X126351740Y-82050552D01*
X126232041Y-81786223D01*
X126162429Y-81663652D01*
X125953425Y-81385768D01*
X125695706Y-81146480D01*
X125394532Y-80950190D01*
X125055163Y-80801301D01*
X124960023Y-80769795D01*
X124846834Y-80739678D01*
X124734231Y-80722035D01*
X124600447Y-80713780D01*
X124423714Y-80711830D01*
X124302088Y-80713503D01*
X124043524Y-80731171D01*
X123840551Y-80768464D01*
X123736038Y-80800722D01*
X123525460Y-80883022D01*
X123292709Y-80990990D01*
X123055929Y-81115409D01*
X122833265Y-81247063D01*
X122642865Y-81376739D01*
X122631733Y-81385093D01*
X122419073Y-81558066D01*
X122186888Y-81768478D01*
X121950912Y-82000867D01*
X121726879Y-82239774D01*
X121530524Y-82469737D01*
X121455385Y-82564445D01*
X121385775Y-82658618D01*
X121349143Y-82721481D01*
X121339938Y-82763144D01*
X121107040Y-82763144D01*
X121096973Y-82720624D01*
X121097403Y-82719527D01*
X121136245Y-82654010D01*
X121212323Y-82551561D01*
X121317724Y-82421296D01*
X121444533Y-82272333D01*
X121584834Y-82113787D01*
X121730713Y-81954774D01*
X121874254Y-81804413D01*
X122007544Y-81671818D01*
X122184292Y-81508336D01*
X122579295Y-81188208D01*
X122977163Y-80926962D01*
X123374854Y-80726467D01*
X123769325Y-80588595D01*
X124004043Y-80541660D01*
X124275972Y-80516820D01*
X124553786Y-80516621D01*
X124815536Y-80541037D01*
X125039275Y-80590043D01*
X125241073Y-80660049D01*
X125515729Y-80788591D01*
X125760338Y-80951641D01*
X125995015Y-81161221D01*
X126164209Y-81342510D01*
X126323739Y-81551511D01*
X126449744Y-81772147D01*
X126555973Y-82025603D01*
X126589820Y-82123402D01*
X126613661Y-82210555D01*
X126628998Y-82301451D01*
X126637647Y-82411350D01*
X126641426Y-82555512D01*
X126642115Y-82738969D01*
X126642153Y-82749199D01*
X126641707Y-82868363D01*
G37*
G36*
X128875328Y-83070173D02*
G01*
X128854999Y-83347481D01*
X128820599Y-83581251D01*
X128732881Y-83941062D01*
X128557039Y-84442802D01*
X128327668Y-84913828D01*
X128048389Y-85350739D01*
X127722824Y-85750134D01*
X127354595Y-86108612D01*
X126947326Y-86422772D01*
X126504637Y-86689214D01*
X126030151Y-86904536D01*
X125527491Y-87065338D01*
X125000277Y-87168218D01*
X124979592Y-87170878D01*
X124767116Y-87187382D01*
X124513669Y-87192121D01*
X124239522Y-87185889D01*
X123964945Y-87169478D01*
X123710209Y-87143684D01*
X123495585Y-87109299D01*
X123013081Y-86984446D01*
X122481020Y-86786644D01*
X121953495Y-86527813D01*
X121434419Y-86209895D01*
X120927706Y-85834832D01*
X120874822Y-85790804D01*
X120747140Y-85678423D01*
X120596537Y-85540126D01*
X120437590Y-85389406D01*
X120284875Y-85239758D01*
X119888000Y-84843225D01*
X119491125Y-85240224D01*
X119398950Y-85331244D01*
X118901567Y-85781766D01*
X118398155Y-86169097D01*
X117886525Y-86494515D01*
X117364484Y-86759297D01*
X116829844Y-86964719D01*
X116280415Y-87112058D01*
X116163930Y-87133379D01*
X115908438Y-87164005D01*
X115620722Y-87182287D01*
X115319911Y-87188046D01*
X115025136Y-87181104D01*
X114755529Y-87161281D01*
X114530220Y-87128399D01*
X114467622Y-87115417D01*
X113941551Y-86971146D01*
X113445752Y-86771882D01*
X112983443Y-86520817D01*
X112557844Y-86221146D01*
X112172173Y-85876063D01*
X111829650Y-85488762D01*
X111533492Y-85062436D01*
X111286918Y-84600279D01*
X111093148Y-84105486D01*
X110955401Y-83581251D01*
X110939471Y-83491217D01*
X110910909Y-83237077D01*
X110896332Y-82947524D01*
X110896132Y-82870937D01*
X111090854Y-82870937D01*
X111100723Y-83136497D01*
X111120938Y-83374938D01*
X111151495Y-83567836D01*
X111208956Y-83802232D01*
X111377727Y-84304322D01*
X111600468Y-84776201D01*
X111874165Y-85213913D01*
X112195806Y-85613501D01*
X112562377Y-85971011D01*
X112970865Y-86282484D01*
X113418257Y-86543966D01*
X113828787Y-86724874D01*
X114321691Y-86878270D01*
X114827489Y-86970765D01*
X115341975Y-87002622D01*
X115860943Y-86974109D01*
X116380188Y-86885489D01*
X116895504Y-86737028D01*
X117402685Y-86528991D01*
X117897526Y-86261643D01*
X117995175Y-86201293D01*
X118275880Y-86016281D01*
X118539163Y-85822640D01*
X118798728Y-85609299D01*
X119068282Y-85365188D01*
X119361533Y-85079236D01*
X119888000Y-84551250D01*
X120414467Y-85079236D01*
X120456336Y-85120986D01*
X120631912Y-85291598D01*
X120811047Y-85459428D01*
X120981632Y-85613487D01*
X121131557Y-85742786D01*
X121248714Y-85836334D01*
X121290592Y-85867311D01*
X121788945Y-86204851D01*
X122282801Y-86480668D01*
X122777026Y-86696915D01*
X123276482Y-86855745D01*
X123786037Y-86959311D01*
X124060045Y-86991121D01*
X124574681Y-87003407D01*
X125080282Y-86955081D01*
X125572061Y-86848601D01*
X126045234Y-86686422D01*
X126495011Y-86471002D01*
X126916608Y-86204796D01*
X127305236Y-85890260D01*
X127656110Y-85529852D01*
X127964443Y-85126026D01*
X128225449Y-84681240D01*
X128227928Y-84676348D01*
X128440399Y-84187869D01*
X128590155Y-83687769D01*
X128676827Y-83179466D01*
X128700044Y-82666379D01*
X128659438Y-82151928D01*
X128554636Y-81639530D01*
X128520144Y-81517959D01*
X128344530Y-81038121D01*
X128113475Y-80589406D01*
X127825017Y-80168413D01*
X127477195Y-79771745D01*
X127230802Y-79538037D01*
X126825653Y-79222351D01*
X126388876Y-78961409D01*
X125916494Y-78752953D01*
X125404528Y-78594725D01*
X125322071Y-78574462D01*
X125203449Y-78548329D01*
X125092894Y-78529874D01*
X124975833Y-78517761D01*
X124837697Y-78510648D01*
X124663914Y-78507197D01*
X124439913Y-78506068D01*
X124429198Y-78506052D01*
X124198966Y-78506855D01*
X124017973Y-78510738D01*
X123871302Y-78518866D01*
X123744035Y-78532404D01*
X123621255Y-78552516D01*
X123488045Y-78580365D01*
X123196332Y-78654585D01*
X122652037Y-78842574D01*
X122120294Y-79092469D01*
X121600384Y-79404722D01*
X121091591Y-79779788D01*
X120593198Y-80218120D01*
X120104489Y-80720171D01*
X119888000Y-80959000D01*
X119671159Y-80720171D01*
X119403526Y-80436469D01*
X118910645Y-79970545D01*
X118408443Y-79568030D01*
X117895997Y-79228338D01*
X117372382Y-78950886D01*
X116836676Y-78735090D01*
X116287955Y-78580365D01*
X116282092Y-78579055D01*
X116149603Y-78551546D01*
X116026933Y-78531727D01*
X115899164Y-78518434D01*
X115751378Y-78510503D01*
X115568658Y-78506769D01*
X115336087Y-78506068D01*
X115202899Y-78506503D01*
X115008435Y-78508813D01*
X114856118Y-78514213D01*
X114731451Y-78524021D01*
X114619938Y-78539554D01*
X114507084Y-78562127D01*
X114378391Y-78593057D01*
X113987063Y-78707626D01*
X113515276Y-78897161D01*
X113080673Y-79135715D01*
X112676481Y-79427132D01*
X112295931Y-79775254D01*
X112054080Y-80042179D01*
X111744815Y-80462776D01*
X111491303Y-80916329D01*
X111293444Y-81403025D01*
X111151139Y-81923051D01*
X111123361Y-82095777D01*
X111102169Y-82332153D01*
X111091334Y-82596681D01*
X111090854Y-82870937D01*
X110896132Y-82870937D01*
X110895534Y-82642223D01*
X110908309Y-82340839D01*
X110934452Y-82063039D01*
X110973756Y-81828488D01*
X111107927Y-81338673D01*
X111297156Y-80861021D01*
X111538714Y-80417240D01*
X111835990Y-80001155D01*
X112192371Y-79606590D01*
X112452653Y-79362317D01*
X112759254Y-79117407D01*
X113082835Y-78907428D01*
X113443686Y-78717971D01*
X113869342Y-78541212D01*
X114347499Y-78403147D01*
X114845937Y-78321603D01*
X115373365Y-78294670D01*
X115389273Y-78294690D01*
X115932439Y-78328568D01*
X116472455Y-78426421D01*
X117007705Y-78587471D01*
X117536574Y-78810937D01*
X118057446Y-79096040D01*
X118568705Y-79442000D01*
X119068735Y-79848037D01*
X119555921Y-80313371D01*
X119888000Y-80655476D01*
X120220079Y-80313371D01*
X120234123Y-80298935D01*
X120721707Y-79835323D01*
X121222088Y-79431031D01*
X121733651Y-79086839D01*
X122254779Y-78803527D01*
X122783858Y-78581874D01*
X123319270Y-78422660D01*
X123859401Y-78326666D01*
X124402635Y-78294670D01*
X124744016Y-78306218D01*
X125279707Y-78373532D01*
X125790933Y-78500820D01*
X126277316Y-78687926D01*
X126738478Y-78934693D01*
X127174041Y-79240966D01*
X127583628Y-79606590D01*
X127923038Y-79980252D01*
X128223291Y-80395071D01*
X128467651Y-80837266D01*
X128659506Y-81313013D01*
X128802244Y-81828488D01*
X128820063Y-81918879D01*
X128853955Y-82173680D01*
X128874600Y-82463607D01*
X128879377Y-82666379D01*
X128881794Y-82768993D01*
X128875328Y-83070173D01*
G37*
G36*
X128415379Y-83762147D02*
G01*
X128268676Y-84229350D01*
X128061616Y-84675731D01*
X127793492Y-85103713D01*
X127683755Y-85251373D01*
X127341582Y-85641886D01*
X126961448Y-85979963D01*
X126543871Y-86265282D01*
X126089371Y-86497518D01*
X125598465Y-86676349D01*
X125071673Y-86801450D01*
X124997370Y-86812916D01*
X124769873Y-86832556D01*
X124505299Y-86838508D01*
X124222402Y-86831486D01*
X123939938Y-86812204D01*
X123676659Y-86781377D01*
X123451320Y-86739720D01*
X123073537Y-86634559D01*
X122551224Y-86433627D01*
X122036725Y-86171149D01*
X121532857Y-85848977D01*
X121042434Y-85468966D01*
X120568272Y-85032967D01*
X120113186Y-84542833D01*
X120057704Y-84479209D01*
X119976223Y-84389167D01*
X119916290Y-84327300D01*
X119888000Y-84304301D01*
X119875233Y-84312971D01*
X119826599Y-84360755D01*
X119752427Y-84440941D01*
X119662813Y-84542833D01*
X119405920Y-84828383D01*
X118948075Y-85279149D01*
X118471016Y-85679407D01*
X117979551Y-86025585D01*
X117478490Y-86314111D01*
X116972639Y-86541413D01*
X116917530Y-86562284D01*
X116411712Y-86718113D01*
X115903889Y-86812385D01*
X115398541Y-86846389D01*
X114900149Y-86821418D01*
X114413192Y-86738760D01*
X113942151Y-86599709D01*
X113491507Y-86405553D01*
X113065740Y-86157585D01*
X112669331Y-85857095D01*
X112306760Y-85505374D01*
X111982507Y-85103713D01*
X111891378Y-84970677D01*
X111642574Y-84537158D01*
X111454612Y-84084477D01*
X111326783Y-83610209D01*
X111258381Y-83111928D01*
X111250649Y-82692959D01*
X112964214Y-82692959D01*
X112981641Y-83055576D01*
X113055167Y-83401529D01*
X113066665Y-83438124D01*
X113218577Y-83808530D01*
X113422113Y-84141395D01*
X113674054Y-84433504D01*
X113971183Y-84681640D01*
X114310280Y-84882588D01*
X114688127Y-85033133D01*
X114805979Y-85064429D01*
X115067761Y-85105756D01*
X115353574Y-85120908D01*
X115639858Y-85109175D01*
X115903051Y-85069844D01*
X116292522Y-84954940D01*
X116694314Y-84777066D01*
X117096935Y-84540773D01*
X117496393Y-84248983D01*
X117888697Y-83904616D01*
X118269856Y-83510594D01*
X118635878Y-83069836D01*
X118879159Y-82754327D01*
X120896841Y-82754327D01*
X121142879Y-83075743D01*
X121195497Y-83142683D01*
X121355527Y-83331869D01*
X121542948Y-83537673D01*
X121746479Y-83748865D01*
X121954844Y-83954218D01*
X122156762Y-84142503D01*
X122340956Y-84302492D01*
X122496145Y-84422956D01*
X122748007Y-84590695D01*
X123153674Y-84814459D01*
X123557454Y-84978370D01*
X123964893Y-85084930D01*
X124000732Y-85091512D01*
X124388811Y-85127913D01*
X124775156Y-85101803D01*
X125150232Y-85013753D01*
X125173657Y-85006017D01*
X125521470Y-84857086D01*
X125836637Y-84658396D01*
X126115143Y-84416322D01*
X126352968Y-84137237D01*
X126546096Y-83827518D01*
X126690510Y-83493538D01*
X126782191Y-83141672D01*
X126817123Y-82778294D01*
X126791289Y-82409780D01*
X126743250Y-82164513D01*
X126648432Y-81863061D01*
X126513310Y-81588726D01*
X126330400Y-81327095D01*
X126092217Y-81063755D01*
X126059082Y-81030738D01*
X125915942Y-80895141D01*
X125791505Y-80793089D01*
X125667398Y-80710652D01*
X125525245Y-80633898D01*
X125489840Y-80616433D01*
X125199283Y-80492680D01*
X124921440Y-80414909D01*
X124633168Y-80378239D01*
X124311324Y-80377785D01*
X124170914Y-80386808D01*
X123996269Y-80404150D01*
X123842130Y-80425751D01*
X123730637Y-80448898D01*
X123552842Y-80505552D01*
X123248464Y-80629713D01*
X122938013Y-80786210D01*
X122643556Y-80964572D01*
X122633182Y-80971516D01*
X122404635Y-81140225D01*
X122154086Y-81350934D01*
X121893665Y-81591524D01*
X121635504Y-81849881D01*
X121391733Y-82113886D01*
X121174481Y-82371424D01*
X120995880Y-82610379D01*
X120896841Y-82754327D01*
X118879159Y-82754327D01*
X118780120Y-82610379D01*
X118772487Y-82599336D01*
X118591719Y-82359194D01*
X118372892Y-82101059D01*
X118128137Y-81837048D01*
X117869585Y-81579278D01*
X117609365Y-81339864D01*
X117359607Y-81130923D01*
X117132443Y-80964572D01*
X116950973Y-80850803D01*
X116643912Y-80684918D01*
X116334686Y-80547461D01*
X116045363Y-80448898D01*
X115959678Y-80430233D01*
X115812126Y-80408117D01*
X115639745Y-80389731D01*
X115464676Y-80377785D01*
X115425073Y-80376145D01*
X115108285Y-80380529D01*
X114822398Y-80421695D01*
X114544269Y-80504523D01*
X114250755Y-80633898D01*
X114219416Y-80649762D01*
X114082433Y-80726544D01*
X113959750Y-80811849D01*
X113832991Y-80919609D01*
X113683782Y-81063755D01*
X113570220Y-81182827D01*
X113451129Y-81318321D01*
X113351261Y-81442819D01*
X113284614Y-81539634D01*
X113232697Y-81633633D01*
X113091326Y-81969137D01*
X113001304Y-82326529D01*
X112964214Y-82692959D01*
X111250649Y-82692959D01*
X111248698Y-82587209D01*
X111258506Y-82387319D01*
X111284548Y-82111961D01*
X111327568Y-81861530D01*
X111392042Y-81612136D01*
X111482448Y-81339888D01*
X111672682Y-80898331D01*
X111924724Y-80468676D01*
X112228028Y-80072824D01*
X112578308Y-79715131D01*
X112971279Y-79399954D01*
X113402656Y-79131648D01*
X113868154Y-78914571D01*
X114095760Y-78830516D01*
X114313930Y-78765087D01*
X114530604Y-78718885D01*
X114762226Y-78689149D01*
X115025239Y-78673118D01*
X115336087Y-78668029D01*
X115440689Y-78668189D01*
X115713353Y-78673278D01*
X115944353Y-78687226D01*
X116150804Y-78712542D01*
X116349819Y-78751734D01*
X116558511Y-78807313D01*
X116793995Y-78881786D01*
X117184486Y-79034375D01*
X117618699Y-79251964D01*
X118055304Y-79517172D01*
X118484459Y-79822949D01*
X118896323Y-80162242D01*
X119281056Y-80528001D01*
X119628816Y-80913172D01*
X119722331Y-81024303D01*
X119804076Y-81118554D01*
X119862201Y-81182312D01*
X119888000Y-81205749D01*
X119912465Y-81183699D01*
X119969716Y-81121047D01*
X120050857Y-81027596D01*
X120147184Y-80913172D01*
X120467030Y-80556745D01*
X120849293Y-80189260D01*
X121259437Y-79847703D01*
X121687621Y-79539125D01*
X122124004Y-79270578D01*
X122558746Y-79049115D01*
X122982005Y-78881786D01*
X123065661Y-78854343D01*
X123290174Y-78786537D01*
X123493680Y-78736778D01*
X123693294Y-78702557D01*
X123906128Y-78681365D01*
X124149296Y-78670692D01*
X124439913Y-78668029D01*
X124741068Y-78672781D01*
X125005438Y-78688395D01*
X125237857Y-78717619D01*
X125454770Y-78763215D01*
X125672618Y-78827946D01*
X125907846Y-78914571D01*
X126356622Y-79122634D01*
X126789344Y-79389113D01*
X127183820Y-79702626D01*
X127535764Y-80058816D01*
X127840891Y-80453327D01*
X128094915Y-80881803D01*
X128293552Y-81339888D01*
X128354515Y-81517642D01*
X128427843Y-81772538D01*
X128478099Y-82019838D01*
X128509759Y-82283431D01*
X128527301Y-82587209D01*
X128530544Y-82755569D01*
X128529306Y-82778294D01*
X128502433Y-83271695D01*
X128415379Y-83762147D01*
G37*
%TD*%
D14*
%TO.C,J11*%
X178523000Y-94143000D03*
X178523000Y-96643000D03*
D15*
X178523000Y-99143000D03*
%TD*%
D16*
%TO.C,U1*%
X111992000Y-75875000D03*
X114532000Y-75875000D03*
D17*
X117072000Y-75875000D03*
D16*
X119612000Y-75875000D03*
X122152000Y-75875000D03*
X124692000Y-75875000D03*
X127232000Y-75875000D03*
D17*
X129772000Y-75875000D03*
D16*
X132312000Y-75875000D03*
X134852000Y-75875000D03*
X137392000Y-75875000D03*
X139932000Y-75875000D03*
D17*
X142472000Y-75875000D03*
D16*
X145012000Y-75875000D03*
X147552000Y-75875000D03*
X150092000Y-75875000D03*
X152632000Y-75875000D03*
D17*
X155172000Y-75875000D03*
D16*
X157712000Y-75875000D03*
X160252000Y-75875000D03*
X160252000Y-93655000D03*
X157712000Y-93655000D03*
D17*
X155172000Y-93655000D03*
D16*
X152632000Y-93655000D03*
X150092000Y-93655000D03*
X147552000Y-93655000D03*
X145012000Y-93655000D03*
D17*
X142472000Y-93655000D03*
D16*
X139932000Y-93655000D03*
X137392000Y-93655000D03*
X134852000Y-93655000D03*
X132312000Y-93655000D03*
D17*
X129772000Y-93655000D03*
D16*
X127232000Y-93655000D03*
X124692000Y-93655000D03*
X122152000Y-93655000D03*
X119612000Y-93655000D03*
D17*
X117072000Y-93655000D03*
D16*
X114532000Y-93655000D03*
X111992000Y-93655000D03*
%TD*%
D18*
%TO.C,J5*%
X167480000Y-106508000D03*
D19*
X169980000Y-106508000D03*
X172480000Y-106508000D03*
X174980000Y-106508000D03*
%TD*%
D20*
%TO.C,R1*%
X113157000Y-101850000D03*
D21*
X120777000Y-101850000D03*
%TD*%
D18*
%TO.C,J10*%
X167480000Y-113283000D03*
D19*
X169980000Y-113283000D03*
X172480000Y-113283000D03*
X174980000Y-113283000D03*
%TD*%
D18*
%TO.C,J6*%
X113480000Y-113283000D03*
D19*
X115980000Y-113283000D03*
X118480000Y-113283000D03*
X120980000Y-113283000D03*
%TD*%
D22*
%TO.C,REF\u002A\u002A*%
X179556000Y-69017000D03*
%TD*%
D23*
%TO.C,Q1*%
X167400000Y-76560000D03*
X166130000Y-76560000D03*
D24*
X164860000Y-76560000D03*
%TD*%
D23*
%TO.C,Q4*%
X167400000Y-90540000D03*
X166130000Y-90540000D03*
D24*
X164860000Y-90540000D03*
%TD*%
D18*
%TO.C,J7*%
X126980000Y-113283000D03*
D19*
X129480000Y-113283000D03*
X131980000Y-113283000D03*
X134480000Y-113283000D03*
%TD*%
D18*
%TO.C,J3*%
X140480000Y-106508000D03*
D19*
X142980000Y-106508000D03*
X145480000Y-106508000D03*
X147980000Y-106508000D03*
%TD*%
D18*
%TO.C,J4*%
X153980000Y-106508000D03*
D19*
X156480000Y-106508000D03*
X158980000Y-106508000D03*
X161480000Y-106508000D03*
%TD*%
D18*
%TO.C,J1*%
X113480000Y-106508000D03*
D19*
X115980000Y-106508000D03*
X118480000Y-106508000D03*
X120980000Y-106508000D03*
%TD*%
D24*
%TO.C,Q3*%
X164859000Y-85880000D03*
D23*
X166129000Y-85880000D03*
X167399000Y-85880000D03*
%TD*%
D24*
%TO.C,Q10*%
X170420000Y-95200000D03*
D23*
X171690000Y-95200000D03*
X172960000Y-95200000D03*
%TD*%
%TO.C,Q7*%
X167400000Y-81220000D03*
X166130000Y-81220000D03*
D24*
X164860000Y-81220000D03*
%TD*%
D14*
%TO.C,J12*%
X178540000Y-75467000D03*
X178540000Y-77967000D03*
X178540000Y-80467000D03*
X178540000Y-82967000D03*
X178540000Y-85467000D03*
D15*
X178540000Y-87967000D03*
%TD*%
D23*
%TO.C,Q8*%
X172960000Y-85880000D03*
X171690000Y-85880000D03*
D24*
X170420000Y-85880000D03*
%TD*%
D18*
%TO.C,J2*%
X126980000Y-106508000D03*
D19*
X129480000Y-106508000D03*
X131980000Y-106508000D03*
X134480000Y-106508000D03*
%TD*%
D21*
%TO.C,R10*%
X167386000Y-118999000D03*
D20*
X175006000Y-118999000D03*
%TD*%
D24*
%TO.C,Q6*%
X170420000Y-76560000D03*
D23*
X171690000Y-76560000D03*
X172960000Y-76560000D03*
%TD*%
D21*
%TO.C,R9*%
X153924000Y-118999000D03*
D20*
X161544000Y-118999000D03*
%TD*%
D21*
%TO.C,R6*%
X113410000Y-118990000D03*
D20*
X121030000Y-118990000D03*
%TD*%
%TO.C,R7*%
X134500000Y-118999000D03*
D21*
X126880000Y-118999000D03*
%TD*%
%TO.C,R3*%
X148045000Y-101850000D03*
D20*
X140425000Y-101850000D03*
%TD*%
D24*
%TO.C,Q5*%
X164859000Y-95200000D03*
D23*
X166129000Y-95200000D03*
X167399000Y-95200000D03*
%TD*%
D18*
%TO.C,J9*%
X153980000Y-113283000D03*
D19*
X156480000Y-113283000D03*
X158980000Y-113283000D03*
X161480000Y-113283000D03*
%TD*%
D24*
%TO.C,Q2*%
X170420000Y-81220000D03*
D23*
X171690000Y-81220000D03*
X172960000Y-81220000D03*
%TD*%
D21*
%TO.C,R2*%
X134435000Y-101850000D03*
D20*
X126815000Y-101850000D03*
%TD*%
%TO.C,R4*%
X153790000Y-101850000D03*
D21*
X161410000Y-101850000D03*
%TD*%
D22*
%TO.C,REF\u002A\u002A*%
X179556000Y-120343051D03*
%TD*%
D20*
%TO.C,R5*%
X167640000Y-101850000D03*
D21*
X175260000Y-101850000D03*
%TD*%
D22*
%TO.C,REF\u002A\u002A*%
X113516000Y-69017000D03*
%TD*%
D25*
%TO.C,J14*%
X168126000Y-69796000D03*
D26*
X165626000Y-69796000D03*
%TD*%
D18*
%TO.C,J8*%
X140480000Y-113283000D03*
D19*
X142980000Y-113283000D03*
X145480000Y-113283000D03*
X147980000Y-113283000D03*
%TD*%
D20*
%TO.C,R8*%
X147955000Y-118999000D03*
D21*
X140335000Y-118999000D03*
%TD*%
D24*
%TO.C,Q9*%
X170421800Y-90540000D03*
D23*
X171691800Y-90540000D03*
X172961800Y-90540000D03*
%TD*%
M02*
